<?xml version="1.0" encoding="utf-8"?>
<!-- Generator: Adobe Illustrator 22.0.0, SVG Export Plug-In . SVG Version: 6.00 Build 0)  -->
<!DOCTYPE svg PUBLIC "-//W3C//DTD SVG 1.1//EN" "http://www.w3.org/Graphics/SVG/1.1/DTD/svg11.dtd">
<svg version="1.1" id="レイヤー_1" xmlns="http://www.w3.org/2000/svg" xmlns:xlink="http://www.w3.org/1999/xlink" x="0px"
	 y="0px" viewBox="0 0 878.7 878.7" style="enable-background:new 0 0 878.7 878.7;" xml:space="preserve">
<style type="text/css">
	.st0{display:none;}
	.st1{display:inline;fill:#231815;}
	.st2{font-family:'Bebas';}
	.st3{font-size:356.6411px;}
	.st4{letter-spacing:-6;}
	.st5{font-family:'ArialMT';}
	.st6{font-size:55.3148px;}
	.st7{font-size:82.9722px;}
	.st8{fill:none;stroke:#231815;stroke-width:3.5361;stroke-miterlimit:10;}
	.st9{display:inline;}
	.st10{fill:#231815;}
</style>
<metadata><?xpacket begin="﻿" id="W5M0MpCehiHzreSzNTczkc9d"?>
<x:xmpmeta xmlns:x="adobe:ns:meta/" x:xmptk="Adobe XMP Core 5.6-c143 79.161210, 2017/08/11-10:28:36        ">
   <rdf:RDF xmlns:rdf="http://www.w3.org/1999/02/22-rdf-syntax-ns#">
      <rdf:Description rdf:about=""
            xmlns:xmp="http://ns.adobe.com/xap/1.0/"
            xmlns:xmpGImg="http://ns.adobe.com/xap/1.0/g/img/"
            xmlns:xmpTPg="http://ns.adobe.com/xap/1.0/t/pg/"
            xmlns:stDim="http://ns.adobe.com/xap/1.0/sType/Dimensions#"
            xmlns:xmpG="http://ns.adobe.com/xap/1.0/g/"
            xmlns:dc="http://purl.org/dc/elements/1.1/">
         <xmp:CreatorTool>Adobe Illustrator CC 22.0 (Macintosh)</xmp:CreatorTool>
         <xmp:CreateDate>2017-12-07T12:56:14+09:00</xmp:CreateDate>
         <xmp:Thumbnails>
            <rdf:Alt>
               <rdf:li rdf:parseType="Resource">
                  <xmpGImg:width>256</xmpGImg:width>
                  <xmpGImg:height>208</xmpGImg:height>
                  <xmpGImg:format>JPEG</xmpGImg:format>
                  <xmpGImg:image>/9j/4AAQSkZJRgABAgEASABIAAD/7QAsUGhvdG9zaG9wIDMuMAA4QklNA+0AAAAAABAASAAAAAEA&#xA;AQBIAAAAAQAB/+4ADkFkb2JlAGTAAAAAAf/bAIQABgQEBAUEBgUFBgkGBQYJCwgGBggLDAoKCwoK&#xA;DBAMDAwMDAwQDA4PEA8ODBMTFBQTExwbGxscHx8fHx8fHx8fHwEHBwcNDA0YEBAYGhURFRofHx8f&#xA;Hx8fHx8fHx8fHx8fHx8fHx8fHx8fHx8fHx8fHx8fHx8fHx8fHx8fHx8fHx8f/8AAEQgA0AEAAwER&#xA;AAIRAQMRAf/EAaIAAAAHAQEBAQEAAAAAAAAAAAQFAwIGAQAHCAkKCwEAAgIDAQEBAQEAAAAAAAAA&#xA;AQACAwQFBgcICQoLEAACAQMDAgQCBgcDBAIGAnMBAgMRBAAFIRIxQVEGE2EicYEUMpGhBxWxQiPB&#xA;UtHhMxZi8CRygvElQzRTkqKyY3PCNUQnk6OzNhdUZHTD0uIIJoMJChgZhJRFRqS0VtNVKBry4/PE&#xA;1OT0ZXWFlaW1xdXl9WZ2hpamtsbW5vY3R1dnd4eXp7fH1+f3OEhYaHiImKi4yNjo+Ck5SVlpeYmZ&#xA;qbnJ2en5KjpKWmp6ipqqusra6voRAAICAQIDBQUEBQYECAMDbQEAAhEDBCESMUEFURNhIgZxgZEy&#xA;obHwFMHR4SNCFVJicvEzJDRDghaSUyWiY7LCB3PSNeJEgxdUkwgJChgZJjZFGidkdFU38qOzwygp&#xA;0+PzhJSktMTU5PRldYWVpbXF1eX1RlZmdoaWprbG1ub2R1dnd4eXp7fH1+f3OEhYaHiImKi4yNjo&#xA;+DlJWWl5iZmpucnZ6fkqOkpaanqKmqq6ytrq+v/aAAwDAQACEQMRAD8A9U4q7FXYq7FXYq7FXYq7&#xA;FXYq7FXYq7FXYq7FXYq7FXYq7FXYq7FXYq7FXYq7FXYq7FXYq7FXYq7FXYq7FXYq7FXYq7FXYqg9&#xA;Y1fTdG0u61XU7hLXT7KNprm4kNFREFSf6AdcVfFf5qf85W+d/Ml7PZ+VZ5PL2gKSsLwHjezKNg8k&#xA;w+KOvXjGRT+ZsVeN3PmDXrqUzXOpXU8zfaklnkdjvXcsxOKsi8rfnF+Zvle4SXSPMV4kakVtZ5Dc&#xA;W7AHoYZuab+IFffFX2L+RH5/6b+ZNrJp9/FHp/mm0T1J7RCfSniFAZoOVWABPxISSPE4q9dxV2Kv&#xA;AP8AnLzz/wCYvK2geXrXQNSuNLvdQu5pXntXMTtFbRhWQstDTlcKaYq+X/8Aldf5uf8AU36r/wBJ&#xA;Uv8AXFWffkP+cf5gXX5s+XbLXPMV/qGmXsz201pczvJGzTQukVVY02lKkYq+4cVdir5M/wCctPzD&#xA;88+W/wAxtOsdA1290uzk0eGeS3tZniRpWurlS5VSPiKoor7Yq8u8j/nD+ad3518v2t15r1Oa2uNS&#xA;s4p4XuZCro86KysCdwQaHFX6CYq7FXYq+Z/+cv8Azz5x8s6l5Yj8vazd6Ul1DdtcLaStEHKNEFLc&#xA;SK05HFXzx/yuv83P+pv1X/pKl/rirv8Aldf5uf8AU36r/wBJUv8AXFXf8rr/ADc/6m/Vf+kqX+uK&#xA;s/8AyF/NT8yNY/Nzy5puq+ZdRvdPuZpVntZ7iR43At5GAZSaHcA4q+4MVdirsVdirsVdirsVdirs&#xA;Vdir5m/5zW853NpouieUbaQompu97qIBILRW5VYUPirSMzfNBir5ExV9P/l1/wA4cQ6v5XtdW81a&#xA;vcWN9fxLPDYWiR/uUkHJPVeQNybiasoAp0riryH85/ye1f8ALLzDFYXM/wBe0y+Qy6bqIT0xIqkB&#xA;0dKtxeMkVFTsQe9AqxryR5s1Dyl5s0vzFYMRcadOspQGnqR1pLEfaRCVPzxV+mVnd295ZwXlu3O3&#xA;uY0mhcdGSRQyn6QcVVsVfGX/ADmrrH1j8wdH0pWqmn6aJWHhJczPyH/ARIcVfPGKpr5U1g6J5p0f&#xA;WQaHTb22u69f7iVZO3+rir9PwQwBBqDuCOhGKuxV8V/85q/+TT0r/th2/wD1GXeKvH/y9/5T7y1/&#xA;21bH/qJTFX6aYq7FXYq+S/8AnOP/AI6vlH/jBe/8ThxV8v4q9q/6FD/OX/lmsf8ApLX+mKu/6FD/&#xA;ADl/5ZrH/pLX+mKs0/Jz/nGz8z/Kn5l6H5g1eC0TTrCWR7ho7hXcBoXQUUDf4mGKvrbFXYq7FXYq&#xA;7FXYq7FXYq7FXYq+L/8AnNf1v+VmaPWvo/oWLh4cvrVzy/DjirwXTDarqVo12K2omjNwNv7vkOfU&#xA;EdMVfqUCGAINQdwR0IxV5l+fX5RXH5meWtP0yzuobG+sb1bhbqdWYCExukiAKK1YlD9GKvM9F/5w&#xA;g8vx0Ot+Z7u66cksoI7aniA0pua/8Dir6M0PSbbRtF0/SLVpHttNtobSB5m5yGOCMRqXagqxC7mm&#xA;Ko3FX58/85J6z+lfzp8ySAkxWssVlGD2+rQpG4/5GKxxV51a6fdXNveXEKcorGJZ7luyo0qQg/8A&#xA;ByqMVQ2Kv0v/ACz1n9Nfl35a1Qtyku9MtZJjXl+99FRIK96OCMVZLir4r/5zV/8AJp6V/wBsO3/6&#xA;jLvFXj/5e/8AKfeWv+2rY/8AUSmKv00xV2KuxV8l/wDOcf8Ax1fKP/GC9/4nDir5fxV+qmKuxV2K&#xA;uxV2KuxV2KuxV2KuxV2KuxV2Kvmb/nNfydPdaLonm23jLLp0j2N+wFaR3FGhY+CrIrL82GKvkTFX&#xA;3b/zjJ+blr5z8mwaJfTj/EugxJBcRsfjntkASK4Wv2tqLJ/lbn7QxV7PirsVdiriQoJJoBuSegGK&#xA;vy/806udZ8z6vrBNTqV7c3ZO4/v5Wk77/tYq9F/Kfyr+lvyq/NS+KVaz0+y9Jtq/u7g3clK+AtRX&#xA;fFXk2Kvvf/nFPWP0j+S2kRM3KTTprqzcn/JmaVB9EcqjFXruKviv/nNX/wAmnpX/AGw7f/qMu8Ve&#xA;P/l7/wAp95a/7atj/wBRKYq/TTFXYq7FXyX/AM5x/wDHV8o/8YL3/icOKvl/FX6qYq7FXYq7FXYq&#xA;7FXYq7FXYq7FXYq7FXYql/mHQNK8w6Je6Jq0AuNOv4mguYTtVW7g9mB3U9jvir88vzb/ACr1z8uf&#xA;NMuk3wabT5i0mlalxIS4grt7CRKgOvY+xBKrG/LnmPWvLetWutaLdPZ6lZvzgnTt2KsDsysNmU7E&#xA;bHFX3H+R3/OQmh/mJappmoenpvm2FP31kWpHc8R8UtqTuelWj+0vuBXFXr2KuxVjH5n6x+hvy58z&#xA;amG4yWumXTQnp+9MLLH/AMORir80sVfXf/OLPlX6/wDkb5viZKvr0t5ZKN/ij+prEvj+3K46Yq+R&#xA;MVfX3/OEGser5Z8zaNy3tL2C8C9/9KiMZP8A064q+lsVfFf/ADmr/wCTT0r/ALYdv/1GXeKvH/y9&#xA;/wCU+8tf9tWx/wColMVfppirsVdir5L/AOc4/wDjq+Uf+MF7/wAThxV8v4q+gP8AodX80/8Aq1aH&#xA;/wBI95/2V4q7/odX80/+rVof/SPef9leKvs6xneeyt53ADyxo7AdKsoJpXFVbFXYq7FXYq7FXYq7&#xA;FXYq7FXYq7FWOefvIPlzz15cn0HXoPVt5fignWglglAIWWJiDxZa/IjY1BxV8Dfmv+UvmT8t9f8A&#xA;0dqi+vYz1fTdUjUiG4QdaVrxda/GhO3uCCVWHWN9eWF5BfWM7215bOstvcRMUdHQ1VlYbgg4q+8v&#xA;+cevzsh/MXy81pqLLH5q0pFGoxiiieP7K3Uajsx2cD7LeAIxV63irx//AJyv1kab+S+qQBuMmqXF&#xA;rZRn5yidh9KQNir4LxV+gP8AzjFpY0/8k/LwK0kuhcXUh239W4kKHb/ivjir4X86aWdJ8467pVOP&#xA;1DULq2p/xhnZO3+rir2z/nCvWfq35iatpbNSPUNMaRRXrLbzIVFO/wAEjnFX2fir4r/5zV/8mnpX&#xA;/bDt/wDqMu8VeP8A5e/8p95a/wC2rY/9RKYq/TTFXYq7FXyX/wA5x/8AHV8o/wDGC9/4nDir5fxV&#xA;kH/KvfP3/Utar/0g3P8AzRirv+Ve+fv+pa1X/pBuf+aMVfpXpasumWisCrLDGGU7EEINjiqJxV2K&#xA;uxV2KuxV2KuxV2KuxV2KuxV2KpJ5y8l+XPOOgz6Hr9ot3YziortJFJQhZYn6o612P8MVfn5+bv5X&#xA;6r+XPm6bRLtjcWci+vpl/wAeKzwEkA03AdSOLr2PsRiqC/LHzze+R/O+l+Y7UsUtZQt5Cpp6ttJ8&#xA;M0Z+adK9Goe2Kv0mtbq3u7WG6tnEtvcIssMq9GRwGVh8wcVfNX/Ob+s+noHlfRQ3+9V3cXjoD/yz&#xA;RrGpI/6OWp9OKvkXFXsnlz/nKv8AM3y/oGnaHp8OmfUtMt47W39S3kZykShAWPqirGlTtiry/wA0&#xA;eYr7zJ5h1DXr9Y0vdSma4uVhUpH6jmrcVJYip98VZz/zjbrH6K/Ony1KWpHczSWcg8frMLxIP+Rj&#xA;KcVfoPir4r/5zV/8mnpX/bDt/wDqMu8VeP8A5e/8p95a/wC2rY/9RKYq/TTFXYq7FXyX/wA5x/8A&#xA;HV8o/wDGC9/4nDir5fxV+qmKuxV2KuxV2KuxV2KuxV2KuxV2KuxV2Kvln86v+cl/zL8mfmLq3ljT&#xA;bXTVsbEwm2nlgmeV0mt45asxmCGhcj4VGKob8jv+ckvzA81fmfpWg+ZLu3Omagk8Qjigji/fLE0k&#xA;ZLULblONAe+Kvq/FXz3/AM5qaRYz/l3pOqyBRe2WppDBIepjuIZDIg+ZiRv9jir4vxV+jP5E3c91&#xA;+T/lKWckuNOiiBPXjFWNP+FQYq+Zv+c0NZN1+ZenaarVj03TI+S+Es8sjt/wgTFXg+nafe6jqFtp&#xA;9jC1xe3kqW9rAn2pJZWCIi+7MQMVZx/yoH85P+pTvv8AgV/5qxVjfmnyT5s8p3EFt5j0ybTJ7lDJ&#xA;Ak4ALoDxJFCe+Kofytq50bzPpGsA0Om3ttdg7n+4lWTtv+zir9QAQwBBqDuCOhGKviv/AJzV/wDJ&#xA;p6V/2w7f/qMu8VeP/l7/AMp95a/7atj/ANRKYq/TTFXYq7FXyX/znH/x1fKP/GC9/wCJw4q+X8Vf&#xA;qpirsVdirsVdirsVdirsVdirsVdirsVdir4+/wCc1PJs1r5m0jzdDGfqmpQfUbtwNhcW5LJyPi8T&#xA;UH+pir540fVr7R9Ws9V0+Qw31hNHc2so/ZkiYOp+8Yq+6PJn/OUn5Wa3oEN7q+qJoeqIg+vafcrJ&#xA;8MgHxek6qwkQmvGnxeIBxV89f85J/ntYfmFd2ei+XxIPLemSNP8AWJVMbXNyQUEgQ/EqIhIStD8R&#xA;qOmKvE4opJZEiiUvJIwVEUVJYmgAHvir9Mfy98uv5b8i6BoMlPW06wt4LgjoZljHqkfN6nFXwl/z&#xA;kTrI1b85/NFwrckguhZrQ1A+pxJbsP8AgozX3xVf/wA446QNU/OnyxAwqkFxJdsfD6rC86n/AINB&#xA;ir9CsVfLv/OcOkcrHyprCrT0pbu0leh39VY5IxXpt6b4q+TcVfpf+Wes/pr8u/LWqFuUl3plrJMa&#xA;8v3voqJBXvRwRir5Q/5zV/8AJp6V/wBsO3/6jLvFXiXljVIdI8y6TqsyNJDp97b3UsaU5MsMqyMF&#xA;rQVIXbFX1v8A9DteQf8Aqxar91t/1VxV3/Q7XkH/AKsWq/dbf9VcVelflH+c2hfmbb6nPpNjdWS6&#xA;W8STC79OrGYMRx9Nn6cO+KvC/wDnOP8A46vlH/jBe/8AE4cVfL+KvsD/AKHe8rf9S1ff8jocVd/0&#xA;O95W/wCpavv+R0OKsg8gf85XeX/OXnDTfLNtoV3aT6k7olxJLGyKUjaSpC7/ALGKvdMVdirsVdir&#xA;sVdirsVdirsVdirHfzB8jaP548p33lzVhSC7WsU6gF4Zk3jmSvdG+8VHQ4q/Pz8yPys83/l9rDWG&#xA;u2jC3ZiLLUowTbXCjoY38adUPxDuMVYhirYBJoNycVfTP/OMv/OPmrS6xa+d/Ntk1pYWRE+jWFwv&#xA;GWacGqTvGd1jjPxJXdmoenVV9cSSJHG0kh4ogLMx6AAVJxV+XmvapJq2u6jqslfU1C6munrStZpG&#xA;kNaf62Kvcf8AnC7SDc/mXqOosKx6fpcgU+Ek8saL/wAIHxV9qYq8R/5zB0j69+T8l2FqdL1C1uiw&#xA;HQPytt/atwMVfDOKvvf/AJxT1j9I/ktpETNyk06a6s3J/wAmZpUH0RyqMVeEf85q/wDk09K/7Ydv&#xA;/wBRl3ir5/xV2KuxV9X/APODU7G385wUHGN9OcHvVxcg/wDEMVQH/Ocf/HV8o/8AGC9/4nDir5fx&#xA;V2KuxV6X/wA43f8Ak7fK3/Geb/qGlxV+hOKuxV2KuxV2KuxV2KuxV2KuxV2Koe/07T9RtJLPULaK&#xA;8tJRSW3uEWWNh4MjgqcVYHef849fkvdztPL5UtFduohMsCeOyROiD7sVTby5+Uf5Z+W50udG8t2N&#xA;rdRmsd0YhLMp8Vll5uv0HFWXYqtmhimieGZFkikUpJG4DKysKFWB2IIxVi//ACqf8rP+pN0P/uG2&#xA;f/VPFU00Pyh5T0B5n0HRLDSXuAonaxtYbYyBalQ5iVOVKmlcVTbFUPf6dp+o2klnqFtFeWctPVtr&#xA;hFljbiwZeSOCpowBHviqT/8AKvPIH/Us6V/0g23/ADRiqaaXo2j6TbtbaVY2+n27uZHhtYkhQuQF&#xA;LFYwo5UUCvtiqH1Tyr5Y1a4W51XR7LULhEEaTXVtFM4QEsFDSKx41YmnviqD/wCVeeQP+pZ0r/pB&#xA;tv8AmjFXf8q88gf9SzpX/SDbf80Yq7/lXnkD/qWdK/6Qbb/mjFUw0ny9oGj+r+iNMtNO9fj6/wBU&#xA;gjg58K8efpqvLjyNK+OKtar5c8vaw0batpdpqLQgiFruCKcoGpUL6itStO2KoD/lXnkD/qWdK/6Q&#xA;bb/mjFXf8q88gf8AUs6V/wBINt/zRirv+VeeQP8AqWdK/wCkG2/5oxVXsfJfk6wuo7ux0LTrS7iJ&#xA;MVxBaQRyKSKEq6oGGx7YqnOKuxV2KuxV2KuxV2KuxV2KuxV2KuxV2KuxV2KuxV2KuxV2KuxV2Kux&#xA;V2KuxV2KuxV2KuxV2KuxV2KuxV2KuxV2KuxV2KuxV2KuxV2KuxV2KuxV2KuxV2KuxV2KuxV2KuxV&#xA;2KuxV2KuxV2KuxV2KuxV2KuxV2KuxV2KuxV2KuxV2KsQ/wAfav8A9SR5g/4HTP8AsuxTTv8AH2r/&#xA;APUkeYP+B0z/ALLsVp3+PtX/AOpI8wf8Dpn/AGXYrTv8fav/ANSR5g/4HTP+y7Fad/j7V/8AqSPM&#xA;H/A6Z/2XYrTv8fav/wBSR5g/4HTP+y7Fad/j7V/+pI8wf8Dpn/ZditO/x9q//UkeYP8AgdM/7LsV&#xA;p3+PtX/6kjzB/wADpn/ZditO/wAfav8A9SR5g/4HTP8AsuxWnf4+1f8A6kjzB/wOmf8AZditO/x9&#xA;q/8A1JHmD/gdM/7LsVp3+PtX/wCpI8wf8Dpn/ZditO/x9q//AFJHmD/gdM/7LsVp3+PtX/6kjzB/&#xA;wOmf9l2K07/H2r/9SR5g/wCB0z/suxWnf4+1f/qSPMH/AAOmf9l2K07/AB9q/wD1JHmD/gdM/wCy&#xA;7Fad/j7V/wDqSPMH/A6Z/wBl2K07/H2r/wDUkeYP+B0z/suxWnf4+1f/AKkjzB/wOmf9l2K07/H2&#xA;r/8AUkeYP+B0z/suxWnf4+1f/qSPMH/A6Z/2XYrTv8fav/1JHmD/AIHTP+y7Fad/j7V/+pI8wf8A&#xA;A6Z/2XYrTv8AH2r/APUkeYP+B0z/ALLsVp3+PtX/AOpI8wf8Dpn/AGXYrTv8fav/ANSR5g/4HTP+&#xA;y7Fad/j7V/8AqSPMH/A6Z/2XYrTv8fav/wBSR5g/4HTP+y7Fad/j7V/+pI8wf8Dpn/ZditO/x9q/&#xA;/UkeYP8AgdM/7LsVpl+KHYq7FXYq7FXYq7FXYq7FXYq7FXYq7FXYq7FXYq7FXYq7FXYq7FXYq7FX&#xA;Yq7FXYq7FXYq7FXYq7FXYq7FXYq7FXYq7FXYq7FXYq7FXYq7FXYq7FXYq7FXYq7FXYq7FXYq7FXY&#xA;q7FXYq7FXYq7FXYq7FXYq7FXYq7FXYq7FXYq7FXYq7FXYq7FXYq7FXYq7FXYq7FXYq7FXYq7FXYq&#xA;7FXYq7FXYq7FXYq7FXYq7FXYq7FXYq7FXYq7FXYq7FUu8x6q2j+XtU1ZYxM2nWk92sJPEOYImk4k&#xA;0NK8aYqlP5ZecpfOnkXSfM8tqtlJqUbu1qrmQJwleOgcha/Yr0xVI7f81biXz/518q/o5BH5SsIb&#xA;6O79U1nMtsk/Bk4/BTnStTirDfK350fnb5q0K117Qfy1gvNJvOf1a5/S9tFy9KRon+CXg4o6MN1x&#xA;Vnf5W/mpbeeodVt5tMn0TX9CnW21nSLkh2hd+XArIAgdWMbAHiOnSlKqqvn/AMyfmdpN5aR+T/KE&#xA;fmW2ljZrqd7+3sjE4aioFmILVG9Rirzryz+eX5zeZ/0j+g/y3gu/0VdyWF//ALlreL07mL7cf73h&#xA;ypXqtR74qzHzz+cF15ev9J8taToM2vee9Wt1uF0K3lRI7dCKM89wQyqoYEA0oaVJUUJVSC//ADr8&#xA;/wDkye0n/Mvycmm+X7yRIf01pl0t2lvI4qBNEKtTxIPb4eR2xV7Lb3EFxBHcW8iywTKskUqEMrIw&#xA;qrKRsQQdsVSHz9540byR5VvvMervS3tE/dQg0eaZto4Y/wDKdtvbqdgcVY95T/N+w1L8nY/zK1u3&#xA;Gm2YhuZ7i1if1SPq9zJbqiMwj5NI0YC1puaYqxax/P8A812o0zVvNvkW40LyfrMscdrrn1pJzAsx&#xA;AhkuYQiNGj8huxFB05Yqn3nj80PNdj5tuPLHk7QIdZvtL079LavJdXH1dFhZiEhiorFpX41Fdv4K&#xA;q2qfnJaL+V+k+cdIsjd6h5ha3tdD0d2o0t/cv6foFgP91srlj3C4qz8XBttP+s6i8UJhh9S8lUkR&#xA;IUWsjAtvwFD17Yq8hs/zl/Mbze895+XHkxdR8uQO8UOtapcrZrdNGSpMER4txqKVr7HidsVZB+Wn&#xA;5xRea9Z1Hytreky+W/Oekjne6PO6yq0e37yGVQvNfiU9OhBBYb4qxfTfzn/N3X7zWR5V/L6HVtO0&#xA;jUrnSnvDqlvbky2zCtY5vTbdHVttt+uKp635lfmTpPkrzP5k83eTItEfRbeOfTrZdQhuhdliwlDN&#xA;Bz9PhROo3r7YqlOnfmf/AM5Aajp9tqFn+V8EtneRJcW0v6as15RyqHRuLEMKqehFcVepeVr7Xr7Q&#xA;LO78waauj6xKrG701ZkuBCwcgASx1VqqAdvHFU1xV2KuxV2KuxV2KuxV2KuxV2KpB+YCs3kLzIqg&#xA;szaVehVG5JNu+wxVif8AzjaQfyR8rEGo9CYbeIupQcVYXpoMn54fnPMnxRJotpGzA7B/0fGKf8Ic&#xA;VSL8ifMP55Wv5V6Ha+WPKenajoi/WhZ6jc3qwu/K8mMheLkGHGQsvTcDFXpv5N/lv5n8val5l81e&#xA;brm3n8z+arhJrm3sy5t7eKLkUiRn3P26d6BRudzir0/FXiv/ADjP/wCVD/8AAqvv+NcVW/l7xP8A&#xA;zkv+ZRvj/uQFnp4sA/2vqnpR8+H+Ty9Ovv74qzf87E05/wAo/N41AIYBpV0yep09dYyben+V6wTj&#xA;74qp/kb9b/5VB5R+tcvV/RkHHl19Pj+6+j0+NPbFXinmz81fIPm/zzrNx5m1iK00LynFc2vljSJE&#xA;mZrvUzGyNfSBUZQI2+GEN/rbb1VY9F5m0i//AOcNLjRLG79XUtGmhGr2qhwYVutXllg5kgKQ6ryF&#xA;CcVe5f8AOR8diPyG8xKOP1VYLT0N/h2u4PSofnSmKqd1+VvmDUprLzN5f8xNoGq6loltpWtrLard&#xA;rLEEB9RQzxtHMnKgO49sVefW+paJ5Y1G31GC3n1byx+XcqeV/KFipUSal5hvf965ixHAemCVrSg3&#xA;K74qybzv+Y+q+Zvyt/MbRLvRZvL/AJq0GxX9J6XJMlyv1a5Xn6sU8QCyKYVeu3z64q9D/J9dOX8q&#xA;/KQ06htf0TZ0Ip9swr6vKn7XqcuXvXFWAeexCv8Azk/+Xh08D9JPYXw1PiNzaCKb0/Up25epSvem&#xA;KsS/Ki3/ADukfzo3kS50CHSB5q1MTrq4ujP9Z/d8ivoI68OHCnetcVZ3+YsfnyP8gfNy+d5dOm1n&#xA;6vKVfSRMLf0Kx8AfWVW515V2p0xVKfJ9p/zk+fKWiHTb3ykunGwtTZLOL/1RB6K+mJOMZXnwpypt&#xA;XFXuFmLsWcAvChuxGn1kxV9MycRz4V348ulcVVsVdirsVdirsVdirsVdirsVdiqyaGKeGSGZBJFK&#xA;pSRG3DKwoQR7jFXimn/k5+bHk6W60/8ALrzlbWfla4mea20rU7b6w1p6u7CGQrIW4noDQHvvUlVl&#xA;PkT8ok8taBr8d5qbar5o80CVtb12VOHqSOrqgSIEhUj9Q0AO/sKAKpx+VHkaXyL5A0vyrLdrfyad&#xA;6/K7RDEH9e5kn2Ql6U9WnXFWW4q7FWD/AJXflxP5J/xH6t8t9+ntXuNVTjGY/SWen7s1ZuRFOu2K&#xA;oP8AMT8pZfMGu2Xm3y3rEnlrznp0Zhi1OKMTRTwVr6NzCxAddzQ/eDQUVY/qP5O/mN5yltrP8xfN&#xA;8N75at5Emn0XSrb6oLp0PJRPLXlxr2H0cTvir2C3t4La3it7eNYoIUWOGJBRVRBRVUDoABiqS6x5&#xA;K8uahp17bDTLKOe7hljFwbaIsryKV5/ZBJBNeuKsS8rfkjo+m/lA/wCXWqSx3a3MM0N7qdvEIZJC&#xA;9xJcQvuXJaEyDjyJ6YqxaL8i/wAydWt9M8tecvOcWqeRtJljkWxhtvTubyOAj0Yblz0VeP8AM330&#xA;IVeueb7bzHceV9StfLEsFvrs8DRafcXTPHDFI/w+oWjSVqoCWX4TuAOmKsI1b8lIW/LXQvKmh6gL&#xA;HUfLd5batp+pyxmUPqFuzSNLMoZW/evI5NDtXvSmKo7yN+Xmt2mseZPMfnK5sr/WfNEVvbXtlYRS&#xA;LYxW9tE0QiX1i0knMP8AEWA+WKsb0/8AJ/8AMnydJcWX5d+cIrPy1O7ywaPqtr9aFozmpEEtS3Gv&#xA;Y096mpxVkH5cflG3lrWr/wA1+YdXl8yec9UQRXWqzIsUcUIIPo28S1CL8I+4UC71VTP8sfy/m8l2&#xA;mvwS3q3p1rWrvWVZYzH6a3SxgRGrNyK+n9r8MVTD8w/Kknm3yVq/luO5Fo+qW5gW5ZTIEJINSoK1&#xA;6eOKpj5c0ptH8vaXpLSCZtOtILRpgOIcwRLHyAqaV41xVMcVdirsVdirsVdirsVdirsVdirsVdir&#xA;sVdirsVdirsVdirsVdirsVdirsVdirsVdirsVdirsVdirsVdirsVdirsVdirsVdirsVdirsVdirs&#xA;VdirsVdirsVdirsVdirsVdirsVdirsVdirsVdirsVdirsVdirsVdirsVdirsVdirsVdirsVdirsV&#xA;dirsVdirsVdirsVdirybUodas/PmmWOm+Yr3V/M1xqS3mr2aSPHp9nohZi0ctrzkiQhCFiYn1Hbf&#xA;ptgZJZc6nrp0y+/MBtZvkurLzKLCLSUnb6l9QTUU05rdrX+7LshMhf7XLeoxVknmU+a4fzd8oPNq&#xA;oXy/d3F5Da6RAjJy9PTJZHlunLfvG9UfAtOKgA/arijolv5geWLi+86aTo2j+YNcs9T1qV77UTBq&#xA;d1HBaadbcfWaOBGCI0rssce1KkntikMy/M6HV5PIOtSaNcS2uqWtubuzlgdo3L2pE/CqFSRJ6fAj&#xA;oQaYSgPPG8/ajdef7PzdDqMyeR45bLQ57USN9WMt/ZNefWGUfCWSWaCLlSvbAmkX5X1XzHJL+W95&#xA;fX92X8y32rajd27zSFDBcWdxc2sBTkV9OJPT4J0UjamKsf0bz15o0bTfM0euahPNpeuya4nlzVHl&#xA;cyWl9ZvOgs/UJqoeOJXgoR8QIAxWk/8AOtjdP+VWk+Zk1jVrfVjaaJE8ltqN5AjfWbi3imd445FR&#xA;ndZmq5FcVHNV/MSzk8v3flDSrO48w39je316by1sdRun1CcLZO6Is0lxE5RHQPxMgAAOKhD+Yby5&#xA;sPyq8z3unQeZtGukNqEfWb2aS63njUm1k+s3LICrFW4stcV6qXlm/uZvzQ0zS9Ck8x2K2UM1z5is&#xA;fMd5JLHLaOhjhaCG4muJHb1+P7yOir3O9MVe04WLsVdirsVdirsVdirsVdirsVdirsVdirsVdirs&#xA;VdirsVdirsVYFon5RWmja1Pqtl5l1tZLy9/SF/bmW09K5k58yk1LYOyH7NOey7CmCk2i3/Kvy++t&#xA;HUfrV8to99+lptFEw+oSX4YOLhoypevMc+PPhy344aW091Ty3Y6lrWjavO8q3OhyzzWiIVCM1xA9&#xA;u/qAqSQEkJFCN8UNJ5ZsF82S+Z/UlbUJLFNNEZZfRWFJmmqq8eXJnf4iW6AYqmrKrqUcBlYEMpFQ&#xA;QeoIxVgsX5M+T4/y7ufIStc/oa6kM0k/OP6yHMolVg/p8Pg4Kq/B9kUNcFJtkNz5R0qa/wDL94DJ&#xA;E3lsyHT4YyojIltmtSsgKkkCN9qEb4UWlV5+Vvle98nX/lO8E0+mahcXF48jsnrRzXM7XBeJwgCl&#xA;Hf4fhO2xrvVTaP1LyTpWoeULfyrNLOun2y2aRyoyCYiwkiliqxQru0C8vh8aUxW1nm/yPa+ZptMu&#xA;H1K+0q80iWSazu9OeKOUNNEYXqZYphQoxHTFQUA35aQ3Gg6nomqeYdY1a11P0Ob3s1u8kP1eT1R6&#xA;JSCNRzYDlyB6bUxW0117ybpes6xo2syST2uqaHMZbS6tmVHaOReMtvLyVw0Ug+0OvgRii09xV2Ku&#xA;xV2KuxV2KuxV2KuxV2KuxV2KuxV2KuxV2KuxV2KuxV2KuxV2KuxV2KuxV2KuxV2KuxV2KuxV2Kux&#xA;V2KuxV2KuxV2KuxV2KuxV2Kv/9k=</xmpGImg:image>
               </rdf:li>
            </rdf:Alt>
         </xmp:Thumbnails>
         <xmpTPg:MaxPageSize rdf:parseType="Resource">
            <stDim:w>309.985838</stDim:w>
            <stDim:h>309.985838</stDim:h>
            <stDim:unit>Millimeters</stDim:unit>
         </xmpTPg:MaxPageSize>
         <xmpTPg:NPages>1</xmpTPg:NPages>
         <xmpTPg:HasVisibleTransparency>False</xmpTPg:HasVisibleTransparency>
         <xmpTPg:HasVisibleOverprint>False</xmpTPg:HasVisibleOverprint>
         <xmpTPg:PlateNames>
            <rdf:Seq>
               <rdf:li>Cyan</rdf:li>
               <rdf:li>Magenta</rdf:li>
               <rdf:li>Yellow</rdf:li>
               <rdf:li>Black</rdf:li>
            </rdf:Seq>
         </xmpTPg:PlateNames>
         <xmpTPg:SwatchGroups>
            <rdf:Seq>
               <rdf:li rdf:parseType="Resource">
                  <xmpG:groupName>初期設定のスウォッチグループ</xmpG:groupName>
                  <xmpG:groupType>0</xmpG:groupType>
               </rdf:li>
            </rdf:Seq>
         </xmpTPg:SwatchGroups>
         <dc:format>image/svg+xml</dc:format>
      </rdf:Description>
   </rdf:RDF>
</x:xmpmeta>
                                                                                                    
                                                                                                    
                                                                                                    
                                                                                                    
                                                                                                    
                                                                                                    
                                                                                                    
                                                                                                    
                                                                                                    
                                                                                                    
                                                                                                    
                                                                                                    
                                                                                                    
                                                                                                    
                                                                                                    
                                                                                                    
                                                                                                    
                                                                                                    
                                                                                                    
                                                                                                    
                           
<?xpacket end="w"?>
	</metadata>
<g id="レイヤー_1_1_">
	<g class="st0">
		<text transform="matrix(1 0 0 1 78.7832 460.9073)" class="st1 st2 st3 st4">S</text>
		<text transform="matrix(1 0 0 1 261.4832 460.9073)" class="st1 st2 st3">ALE</text>
		<text transform="matrix(1 0 0 1 232.0273 736.8956)" class="st1 st5 st6">2017 SUMMER</text>
		<text transform="matrix(1 0 0 1 211.6104 655.1769)" class="st1 st2 st7">UP TO 40%OFF</text>
	</g>
</g>
<g>
	<path d="M296.8,335.4c0.3,17-4.1,31.5-13.2,43.5c-6,8.2-14.4,13.9-25.3,17.3c-5.8,1.8-12.6,2.7-20.4,2.7
		c-14.4,0-26.3-3.6-35.8-10.7c-7.9-5.8-14.2-13.8-18.8-23.8s-7.3-21.5-8.1-34.5l35-2.5c1.6,14.2,5.3,24.5,11.3,30.9
		c4.4,4.8,9.5,7.1,15.2,6.8c8-0.3,14.4-4.2,19.2-11.9c2.5-3.8,3.7-9.1,3.7-16.1c0-10.1-4.6-20.2-13.8-30.1
		c-7.3-6.9-18.1-17.2-32.6-30.9c-12.2-11.8-20.8-22.4-25.8-31.7c-5.4-10.5-8.2-21.9-8.2-34.2c0-22.2,7.4-39,22.3-50.4
		c9.2-6.9,20.6-10.3,34.2-10.3c13.1,0,24.3,2.9,33.6,8.7c7.3,4.5,13.1,10.9,17.6,19c4.5,8.2,7.2,17.6,8.1,28.2l-35.2,6.4
		c-1-10-3.9-17.7-8.5-23.3c-3.4-4-8.2-6-14.6-6c-6.7,0-11.9,3-15.4,8.9c-2.9,4.8-4.3,10.8-4.3,17.9c0,11.1,4.8,22.5,14.4,34
		c3.6,4.4,9.1,9.6,16.3,15.5c8.5,7.1,14.2,12.1,16.9,15c9.1,9.1,16.1,18,21,26.8c2.3,4.1,4.2,8,5.6,11.5
		C294.9,320.8,296.7,328.6,296.8,335.4z"/>
	<path d="M362.7,340.1l-8.9,56h-38.2L357,152.6h50.5L448.2,396h-38.6l-8.6-56h-38.3V340.1z M382,208.3l-13.6,96h27.2L382,208.3z"/>
	<path d="M573.6,396H473.5V152.6h36.7v206.9h63.3L573.6,396L573.6,396z"/>
	<path d="M598.8,396V152.4h104.5v36.9h-67.8v66.5H685v36.9h-49.5v66.5h67.8V396H598.8z"/>
</g>
<g>
	<path d="M225.1,577.4h6.6v29c0,5-0.6,9-1.7,12c-1.1,3-3.2,5.4-6.2,7.2c-3,1.9-6.9,2.8-11.7,2.8c-4.7,0-8.5-0.8-11.5-2.4
		c-3-1.6-5.1-4-6.4-7c-1.3-3.1-1.9-7.3-1.9-12.6v-29h6.6v28.9c0,4.4,0.4,7.6,1.2,9.6c0.8,2.1,2.2,3.7,4.2,4.8s4.4,1.7,7.2,1.7
		c4.9,0,8.4-1.1,10.4-3.3c2.1-2.2,3.1-6.5,3.1-12.7L225.1,577.4L225.1,577.4z"/>
	<path d="M242.1,627.5v-50.1H261c3.3,0,5.9,0.2,7.6,0.5c2.5,0.4,4.5,1.2,6.2,2.3c1.7,1.2,3,2.8,4,4.8c1,2.1,1.5,4.4,1.5,6.8
		c0,4.3-1.4,7.9-4.1,10.8c-2.7,3-7.6,4.4-14.7,4.4h-12.9v20.4L242.1,627.5L242.1,627.5z M248.7,601.2h13c4.3,0,7.3-0.8,9.1-2.4
		c1.8-1.6,2.7-3.8,2.7-6.7c0-2.1-0.5-3.9-1.6-5.4s-2.5-2.5-4.2-3c-1.1-0.3-3.2-0.4-6.2-0.4h-12.8V601.2z"/>
	<path d="M319.6,627.5v-44.2h-16.5v-5.9h39.7v5.9h-16.6v44.2H319.6z"/>
	<path d="M346.9,603.1c0-8.3,2.2-14.8,6.7-19.5s10.2-7.1,17.3-7.1c4.6,0,8.8,1.1,12.5,3.3s6.5,5.3,8.5,9.2c1.9,4,2.9,8.4,2.9,13.5
		s-1,9.6-3.1,13.6s-5,7-8.7,9.1s-7.8,3.1-12.2,3.1c-4.7,0-8.9-1.1-12.6-3.4c-3.7-2.3-6.5-5.4-8.4-9.3
		C347.9,611.7,346.9,607.5,346.9,603.1z M353.7,603.2c0,6,1.6,10.8,4.9,14.3s7.3,5.2,12.2,5.2c5,0,9.1-1.8,12.3-5.3
		c3.2-3.5,4.8-8.5,4.8-14.9c0-4.1-0.7-7.6-2.1-10.7c-1.4-3-3.4-5.4-6-7.1c-2.7-1.7-5.6-2.5-8.9-2.5c-4.7,0-8.7,1.6-12.1,4.8
		S353.7,595.7,353.7,603.2z"/>
	<path d="M438.6,627.5v-12h-21.7v-5.6l22.9-32.5h5v32.5h6.8v5.6h-6.8v12H438.6z M438.6,609.9v-22.6l-15.7,22.6H438.6z"/>
	<path d="M457.1,602.8c0-5.9,0.6-10.7,1.8-14.3c1.2-3.6,3-6.4,5.4-8.4s5.4-2.9,9.1-2.9c2.7,0,5,0.5,7.1,1.6c2,1.1,3.7,2.6,5,4.7
		c1.3,2,2.4,4.5,3.1,7.5s1.1,6.9,1.1,11.8c0,5.9-0.6,10.6-1.8,14.2c-1.2,3.6-3,6.4-5.4,8.4s-5.4,3-9.1,3c-4.8,0-8.6-1.7-11.4-5.2
		C458.8,619,457.1,612.2,457.1,602.8z M463.5,602.8c0,8.2,1,13.7,2.9,16.4s4.3,4.1,7.1,4.1c2.8,0,5.2-1.4,7.1-4.1s2.9-8.2,2.9-16.4
		s-1-13.7-2.9-16.4s-4.3-4.1-7.2-4.1c-2.8,0-5.1,1.2-6.8,3.6C464.5,588.9,463.5,594.6,463.5,602.8z"/>
	<path d="M496.5,589.4c0-3.6,0.9-6.6,2.7-9.1c1.8-2.5,4.4-3.8,7.8-3.8c3.1,0,5.7,1.1,7.8,3.4c2.1,2.2,3.1,5.5,3.1,9.9
		c0,4.2-1,7.5-3.1,9.8s-4.7,3.4-7.7,3.4s-5.6-1.1-7.6-3.4C497.5,597.4,496.5,594,496.5,589.4z M507.2,580.8c-1.5,0-2.8,0.7-3.8,2
		s-1.5,3.7-1.5,7.3c0,3.2,0.5,5.5,1.5,6.8s2.3,2,3.8,2s2.8-0.7,3.8-2s1.5-3.7,1.5-7.2c0-3.2-0.5-5.5-1.5-6.8
		S508.8,580.8,507.2,580.8z M507.3,629.3l27.4-52.8h5l-27.3,52.8H507.3z M528.9,615.7c0-3.6,0.9-6.6,2.7-9.1s4.4-3.7,7.9-3.7
		c3.1,0,5.7,1.1,7.8,3.4c2.1,2.2,3.1,5.5,3.1,9.9c0,4.2-1,7.5-3.1,9.8s-4.7,3.4-7.7,3.4s-5.6-1.1-7.6-3.4
		C529.9,623.7,528.9,620.3,528.9,615.7z M539.7,607.1c-1.5,0-2.8,0.7-3.8,2s-1.5,3.7-1.5,7.3c0,3.2,0.5,5.4,1.5,6.8
		c1,1.3,2.3,2,3.8,2c1.6,0,2.9-0.7,3.9-2s1.5-3.7,1.5-7.2c0-3.2-0.5-5.5-1.5-6.8S541.2,607.1,539.7,607.1z"/>
	<path d="M557.4,603.1c0-8.3,2.2-14.8,6.7-19.5s10.2-7.1,17.3-7.1c4.6,0,8.8,1.1,12.5,3.3s6.5,5.3,8.5,9.2c1.9,4,2.9,8.4,2.9,13.5
		s-1,9.6-3.1,13.6s-5,7-8.7,9.1s-7.8,3.1-12.2,3.1c-4.7,0-8.9-1.1-12.6-3.4c-3.7-2.3-6.5-5.4-8.4-9.3
		C558.4,611.7,557.4,607.5,557.4,603.1z M564.2,603.2c0,6,1.6,10.8,4.9,14.3c3.2,3.5,7.3,5.2,12.2,5.2c5,0,9.1-1.8,12.3-5.3
		s4.8-8.5,4.8-14.9c0-4.1-0.7-7.6-2.1-10.7c-1.4-3-3.4-5.4-6.1-7.1c-2.7-1.7-5.6-2.5-8.9-2.5c-4.7,0-8.7,1.6-12.1,4.8
		C565.9,590.3,564.2,595.7,564.2,603.2z"/>
	<path d="M613.5,627.5v-50.1h33.8v5.9h-27.2v15.5h23.5v5.9h-23.5v22.8L613.5,627.5L613.5,627.5z"/>
	<path d="M655.6,627.5v-50.1h33.8v5.9h-27.2v15.5h23.5v5.9h-23.5v22.8L655.6,627.5L655.6,627.5z"/>
</g>
<line class="st8" x1="46.9" y1="484.2" x2="831.9" y2="484.2"/>
<g id="レイヤー_3" class="st0">
	<g class="st9">
		<g>
			<path d="M290.8,665v3.9h-21.7c0-1,0.1-1.9,0.5-2.8c0.6-1.5,1.4-2.9,2.6-4.4c1.2-1.4,3-3.1,5.3-5c3.6-2.9,6-5.2,7.2-6.9
				c1.3-1.7,1.9-3.3,1.9-4.8c0-1.6-0.6-2.9-1.7-4s-2.6-1.6-4.5-1.6s-3.5,0.6-4.7,1.7c-1.2,1.2-1.8,2.8-1.8,4.8l-4.1-0.4
				c0.3-3.1,1.3-5.4,3.2-7.1s4.3-2.4,7.4-2.4s5.6,0.9,7.5,2.6c1.8,1.7,2.8,3.9,2.8,6.5c0,1.3-0.3,2.6-0.8,3.9
				c-0.5,1.3-1.4,2.6-2.7,4c-1.2,1.4-3.3,3.3-6.2,5.8c-2.4,2-4,3.4-4.7,4.1c-0.7,0.7-1.3,1.5-1.7,2.2L290.8,665L290.8,665z"/>
			<path d="M297.4,652.7c0-3.9,0.4-7,1.2-9.4c0.8-2.4,2-4.2,3.6-5.5s3.6-1.9,5.9-1.9c1.8,0,3.3,0.4,4.6,1.1c1.3,0.7,2.4,1.7,3.3,3.1
				c0.9,1.3,1.5,3,2,4.9s0.7,4.5,0.7,7.7c0,3.8-0.4,7-1.2,9.3c-0.8,2.4-2,4.2-3.5,5.5c-1.6,1.3-3.6,1.9-6,1.9
				c-3.2,0-5.6-1.1-7.4-3.4C298.4,663.3,297.4,658.9,297.4,652.7z M301.5,652.7c0,5.4,0.6,9,1.9,10.7s2.8,2.7,4.7,2.7
				c1.8,0,3.4-0.9,4.7-2.7s1.9-5.4,1.9-10.7c0-5.4-0.6-9-1.9-10.8s-2.8-2.7-4.7-2.7c-1.8,0-3.3,0.8-4.4,2.3
				C302.2,643.6,301.5,647.3,301.5,652.7z"/>
			<path d="M340.3,668.9h-4v-25.6c-1,0.9-2.2,1.8-3.8,2.8s-3,1.6-4.2,2.1v-3.9c2.3-1.1,4.2-2.3,5.9-3.8s2.9-3,3.6-4.4h2.6v32.8
				L340.3,668.9L340.3,668.9z"/>
			<path d="M353.2,640.4v-3.9h21.2v3.1c-2.1,2.2-4.2,5.2-6.2,8.9s-3.6,7.5-4.8,11.4c-0.8,2.7-1.3,5.7-1.5,9h-4.1
				c0-2.6,0.6-5.7,1.5-9.3c1-3.7,2.4-7.2,4.2-10.6s3.7-6.2,5.8-8.6L353.2,640.4L353.2,640.4z"/>
			<path d="M395.8,658.4l4.1-0.4c0.2,1.6,0.6,3,1.4,4c0.7,1.1,1.8,1.9,3.3,2.5s3.2,1,5,1c1.7,0,3.1-0.2,4.4-0.7s2.2-1.2,2.8-2
				c0.6-0.9,0.9-1.8,0.9-2.8s-0.3-1.9-0.9-2.7s-1.6-1.4-3-1.9c-0.9-0.3-2.8-0.9-5.8-1.6c-3-0.7-5.1-1.4-6.3-2
				c-1.6-0.8-2.7-1.8-3.5-3.1c-0.8-1.2-1.2-2.6-1.2-4.1c0-1.7,0.5-3.2,1.4-4.6c0.9-1.4,2.3-2.5,4.1-3.3c1.8-0.7,3.8-1.1,6-1.1
				c2.4,0,4.6,0.4,6.4,1.2c1.9,0.8,3.3,1.9,4.3,3.5c1,1.5,1.5,3.2,1.6,5.2l-4.2,0.3c-0.2-2.1-1-3.6-2.3-4.7
				c-1.3-1.1-3.2-1.6-5.7-1.6c-2.6,0-4.5,0.5-5.7,1.4c-1.2,1-1.8,2.1-1.8,3.5c0,1.2,0.4,2.1,1.3,2.9c0.8,0.8,3,1.5,6.5,2.3
				s5.9,1.5,7.3,2.1c1.9,0.9,3.3,2,4.2,3.3c0.9,1.3,1.4,2.9,1.4,4.7c0,1.7-0.5,3.4-1.5,4.9s-2.4,2.7-4.3,3.6c-1.9,0.9-4,1.3-6.3,1.3
				c-3,0-5.5-0.4-7.5-1.3c-2-0.9-3.6-2.2-4.7-3.9C396.5,662.5,395.9,660.5,395.8,658.4z"/>
			<path d="M451.6,636.1h4.3V655c0,3.3-0.4,5.9-1.1,7.8c-0.7,1.9-2.1,3.5-4,4.7s-4.5,1.8-7.7,1.8c-3.1,0-5.6-0.5-7.5-1.6
				c-2-1.1-3.3-2.6-4.2-4.6c-0.8-2-1.3-4.7-1.3-8.2V636h4.3v19c0,2.8,0.3,4.9,0.8,6.3c0.5,1.3,1.4,2.4,2.7,3.1
				c1.3,0.7,2.9,1.1,4.7,1.1c3.2,0,5.5-0.7,6.8-2.2c1.4-1.4,2-4.2,2-8.3v-18.9L451.6,636.1L451.6,636.1z"/>
			<path d="M465.4,668.9v-32.8h6.5l7.8,23.2c0.7,2.2,1.2,3.8,1.6,4.9c0.4-1.2,1-2.9,1.7-5.3l7.8-22.8h5.8v32.8h-4.2v-27.4l-9.5,27.4
				H479l-9.5-27.9v27.9L465.4,668.9L465.4,668.9z"/>
			<path d="M505.8,668.9v-32.8h6.5l7.8,23.2c0.7,2.2,1.2,3.8,1.6,4.9c0.4-1.2,1-2.9,1.7-5.3l7.8-22.8h5.8v32.8h-4.2v-27.4l-9.5,27.4
				h-3.9L510,641v27.9H505.8z"/>
			<path d="M546.5,668.9v-32.8h23.7v3.9h-19.4v10h18.1v3.8h-18.1V665h20.1v3.9H546.5z"/>
			<path d="M579.3,668.9v-32.8h14.5c2.9,0,5.1,0.3,6.7,0.9c1.5,0.6,2.7,1.6,3.6,3.1c0.9,1.5,1.4,3.1,1.4,4.9c0,2.3-0.8,4.3-2.3,5.9
				c-1.5,1.6-3.8,2.6-7,3c1.1,0.6,2,1.1,2.6,1.6c1.3,1.2,2.5,2.6,3.6,4.4l5.7,8.9h-5.5l-4.3-6.8c-1.3-2-2.3-3.5-3.1-4.5
				s-1.6-1.8-2.2-2.2c-0.6-0.4-1.3-0.7-2-0.9c-0.5-0.1-1.3-0.2-2.4-0.2h-5v14.6L579.3,668.9L579.3,668.9z M583.6,650.6h9.3
				c2,0,3.5-0.2,4.7-0.6c1.1-0.4,2-1.1,2.5-2c0.6-0.9,0.9-1.9,0.9-2.9c0-1.5-0.6-2.8-1.7-3.8c-1.1-1-2.9-1.5-5.3-1.5h-10.4V650.6z"
				/>
		</g>
		<g>
			<path d="M268.6,601.9c-4.1,0-7.5-1.4-10.3-4.2s-4.2-6.3-4.2-10.3v-47.3h9v47.2c0,1.5,0.5,2.7,1.6,3.7c1,1,2.3,1.5,3.8,1.5
				s2.7-0.5,3.7-1.5s1.5-2.3,1.5-3.7v-47.2h9.6v47.3c0,4.1-1.4,7.5-4.3,10.3C276,600.5,272.6,601.9,268.6,601.9z"/>
			<path d="M304.1,540.1c4.5,0,8.1,1.4,10.7,4.2c2.5,2.7,3.7,6.1,3.7,10.3v8.9c0,4-1.4,7.5-4.2,10.3c-2.8,2.9-6.2,4.3-10.2,4.3h-5.3
				v23h-9.2V540L304.1,540.1L304.1,540.1z M309.6,554.8c0-1.6-0.5-2.9-1.4-3.9c-1-1-2.2-1.5-3.8-1.5h-5.6V569h5.6
				c1.5,0,2.7-0.5,3.7-1.6c1-1,1.5-2.3,1.5-3.8L309.6,554.8L309.6,554.8z"/>
			<path d="M341,549.4h-9.8v-9.3H360v9.3h-9.8v51.9H341V549.4z"/>
			<path d="M380.9,539.3c4.1,0,7.5,1.4,10.4,4.3c2.8,2.9,4.3,6.3,4.3,10.3v33.4c0,4.1-1.4,7.5-4.3,10.4c-2.9,2.8-6.3,4.3-10.3,4.3
				c-4.1,0-7.5-1.4-10.3-4.3s-4.2-6.3-4.2-10.3V554c0-4.1,1.4-7.5,4.3-10.4C373.5,540.7,376.9,539.3,380.9,539.3z M385.9,553.8
				c0-1.5-0.5-2.7-1.5-3.7s-2.3-1.5-3.7-1.5c-1.5,0-2.7,0.5-3.8,1.5c-1,1-1.6,2.3-1.6,3.7v33.5c0,1.5,0.5,2.7,1.6,3.7
				c1,1,2.3,1.5,3.8,1.5s2.7-0.5,3.7-1.5s1.5-2.3,1.5-3.7V553.8z"/>
			<path d="M408.2,578.7l16.3-38.7h9.2v38.7h5.9v9.3h-5.9v13.2h-9.2V588h-16.3V578.7z M424.5,578.7v-19.1l-7.6,19.1H424.5z"/>
			<path d="M475.2,587.3c0,4.1-1.4,7.5-4.3,10.3s-6.3,4.2-10.3,4.2c-4.1,0-7.5-1.4-10.4-4.3c-2.8-2.8-4.3-6.3-4.3-10.3v-33.4
				c0-4.1,1.4-7.5,4.3-10.4c2.9-2.8,6.3-4.3,10.3-4.3c4.1,0,7.5,1.4,10.3,4.3s4.2,6.3,4.2,10.3v33.6L475.2,587.3L475.2,587.3z
				 M465.7,553.7c0-1.5-0.5-2.7-1.6-3.8c-1-1-2.3-1.6-3.8-1.6s-2.7,0.5-3.7,1.6s-1.5,2.3-1.5,3.8v33.4c0,1.5,0.5,2.7,1.5,3.8
				c1,1,2.3,1.6,3.7,1.6s2.7-0.5,3.8-1.6c1-1,1.6-2.3,1.6-3.8V553.7z"/>
			<path d="M496.9,562.5c0,2.1-0.8,3.9-2.3,5.4s-3.3,2.2-5.4,2.2s-3.9-0.7-5.4-2.2s-2.2-3.3-2.2-5.4V545c0-2.1,0.7-3.9,2.2-5.4
				s3.3-2.2,5.4-2.2s3.9,0.8,5.4,2.3s2.2,3.3,2.2,5.4L496.9,562.5L496.9,562.5z M489.9,602.3h-5.4l31.2-64.7h5.4L489.9,602.3z
				 M486.3,562.4c0,0.8,0.3,1.4,0.8,2c0.5,0.5,1.2,0.8,2,0.8s1.4-0.3,2-0.8c0.5-0.5,0.8-1.2,0.8-2V545c0-0.8-0.3-1.4-0.8-2
				c-0.5-0.5-1.2-0.8-2-0.8s-1.4,0.3-2,0.8c-0.5,0.5-0.8,1.2-0.8,2V562.4z M516.4,568.8c2.1,0,3.9,0.8,5.4,2.3s2.2,3.3,2.2,5.4V594
				c0,2.1-0.7,3.9-2.2,5.4s-3.3,2.2-5.4,2.2c-2.1,0-3.9-0.7-5.4-2.2c-1.5-1.5-2.2-3.3-2.2-5.3v-17.5c0-2.1,0.7-3.9,2.2-5.4
				C512.5,569.6,514.3,568.8,516.4,568.8z M519,576.4c0-0.8-0.3-1.4-0.8-2c-0.5-0.5-1.2-0.8-2-0.8s-1.4,0.3-2,0.8
				c-0.5,0.5-0.8,1.2-0.8,2v17.5c0,0.8,0.3,1.4,0.8,2c0.5,0.5,1.2,0.8,2,0.8s1.4-0.3,2-0.8c0.5-0.5,0.8-1.2,0.8-2V576.4z"/>
			<path d="M544.9,539.3c4.1,0,7.5,1.4,10.4,4.3c2.8,2.9,4.3,6.3,4.3,10.3v33.4c0,4.1-1.4,7.5-4.3,10.4c-2.9,2.8-6.3,4.3-10.3,4.3
				c-4.1,0-7.5-1.4-10.3-4.3s-4.2-6.3-4.2-10.3V554c0-4.1,1.4-7.5,4.3-10.4C537.5,540.7,540.9,539.3,544.9,539.3z M550,553.8
				c0-1.5-0.5-2.7-1.5-3.7s-2.3-1.5-3.7-1.5s-2.7,0.5-3.8,1.5c-1,1-1.6,2.3-1.6,3.7v33.5c0,1.5,0.5,2.7,1.6,3.7c1,1,2.3,1.5,3.8,1.5
				s2.7-0.5,3.7-1.5s1.5-2.3,1.5-3.7V553.8z"/>
			<path d="M575.1,601.2h-9.2V540h26.2v9.3h-17V566h12.4v9.3h-12.4V601.2z"/>
			<path d="M607.7,601.2h-9.2V540h26.2v9.3h-17V566h12.4v9.3h-12.4V601.2z"/>
		</g>
		<g>
			<g>
				<path d="M230.1,275c-20.9-14.2-42.2-21.3-63.9-21.3c-14.4,0-25.4,2.3-33.1,6.8c-7.7,4.5-11.5,10.7-11.5,18.7
					c0,8.3,4.1,14.4,12.3,18.2c5.8,2.8,15.4,4.7,28.6,5.7c19.5,1.7,32.3,3.1,38.6,4.2c17.7,3.1,30.7,8.9,39.1,17.4
					c8.4,8.5,12.7,20.5,12.7,36.1c0,19.9-6.6,35.3-19.9,46.2c-13.2,10.9-32.3,16.4-57.1,16.4c-36,0-63.9-10.6-83.9-31.7l12.9-22.6
					c22.1,18,45.8,27,71.3,27c16.5,0,29.3-3,38.4-9.1c8.7-5.9,13-13.9,13-24.1c0-11.9-5.7-19.9-17.1-23.9c-6-2.1-22.1-4.2-48.3-6.5
					c-23.2-2.1-39.5-6.2-48.9-12.5c-10.9-7.3-16.4-19.5-16.4-36.6c0-17.7,6.2-31.6,18.6-41.8s29.9-15.3,52.5-15.3
					c30.4,0,55.8,9.3,76.3,27.8L230.1,275z"/>
				<path d="M444.5,418.8H419l-16.2-42.1h-95l-16.2,42.1H266l74.6-188H370L444.5,418.8z M391.4,348.7l-35.9-91.1l-36.4,91.1H391.4z"
					/>
				<path d="M605.2,418.8H473v-188h23.4v160h108.9L605.2,418.8L605.2,418.8z"/>
				<path d="M782.2,418.8H634.6v-188h142.2v28H658v48.3h82.6v28H658v55.6h124.2V418.8z"/>
			</g>
		</g>
	</g>
</g>
<g>
	<path class="st10" d="M313.6,717.8v3.5h-19.9c0-0.9,0.1-1.7,0.4-2.6c0.5-1.4,1.3-2.7,2.4-4s2.7-2.8,4.8-4.6
		c3.3-2.7,5.5-4.8,6.6-6.4s1.7-3,1.7-4.4c0-1.5-0.5-2.7-1.6-3.7c-1-1-2.4-1.5-4.1-1.5c-1.8,0-3.2,0.5-4.3,1.6s-1.6,2.5-1.6,4.4
		l-3.8-0.4c0.3-2.8,1.2-5,2.9-6.5c1.7-1.5,4-2.2,6.8-2.2c2.9,0,5.2,0.8,6.8,2.4s2.5,3.6,2.5,5.9c0,1.2-0.2,2.4-0.7,3.5
		s-1.3,2.4-2.5,3.7s-3,3-5.7,5.3c-2.2,1.9-3.6,3.1-4.3,3.8s-1.1,1.3-1.6,2H313.6z"/>
	<path class="st10" d="M319.6,706.5c0-3.6,0.4-6.4,1.1-8.6c0.7-2.2,1.8-3.8,3.3-5s3.3-1.8,5.4-1.8c1.6,0,3,0.3,4.2,1s2.2,1.6,3,2.8
		c0.8,1.2,1.4,2.7,1.9,4.5c0.5,1.8,0.7,4.1,0.7,7.1c0,3.5-0.4,6.4-1.1,8.5s-1.8,3.8-3.3,5c-1.4,1.2-3.3,1.8-5.5,1.8
		c-2.9,0-5.2-1-6.8-3.1C320.6,716.2,319.6,712.2,319.6,706.5z M323.4,706.5c0,4.9,0.6,8.2,1.7,9.9s2.6,2.5,4.3,2.5s3.1-0.8,4.3-2.5
		s1.7-4.9,1.7-9.8c0-4.9-0.6-8.2-1.7-9.9s-2.6-2.4-4.3-2.4c-1.7,0-3,0.7-4.1,2.2C324.1,698.2,323.4,701.6,323.4,706.5z"/>
	<path class="st10" d="M359,721.3h-3.7v-23.5c-0.9,0.8-2.1,1.7-3.5,2.5s-2.7,1.5-3.9,1.9v-3.6c2.1-1,3.9-2.1,5.4-3.5s2.6-2.7,3.3-4
		h2.4V721.3z"/>
	<path class="st10" d="M370.8,695.2v-3.5h19.5v2.9c-1.9,2-3.8,4.7-5.7,8.1s-3.3,6.8-4.4,10.4c-0.7,2.5-1.2,5.3-1.4,8.3H375
		c0-2.4,0.5-5.2,1.4-8.6s2.2-6.6,3.8-9.7s3.4-5.7,5.3-7.9H370.8z"/>
	<path class="st10" d="M416.5,721.3l-8-30.1h4.1l4.6,19.7c0.5,2.1,0.9,4.1,1.3,6.2c0.8-3.2,1.2-5.1,1.4-5.6l5.7-20.3h4.8l4.3,15.2
		c1.1,3.8,1.9,7.3,2.3,10.6c0.4-1.9,0.9-4.1,1.5-6.5l4.7-19.3h4l-8.2,30.1h-3.8l-6.3-22.9c-0.5-1.9-0.8-3.1-0.9-3.5
		c-0.3,1.4-0.6,2.6-0.9,3.5l-6.4,22.9H416.5z"/>
	<path class="st10" d="M453.7,721.3v-30.1h4v30.1H453.7z"/>
	<path class="st10" d="M466.7,721.3v-30.1h4.1l15.8,23.6v-23.6h3.8v30.1h-4.1l-15.8-23.6v23.6H466.7z"/>
	<path class="st10" d="M506.9,721.3v-26.5H497v-3.5h23.8v3.5h-9.9v26.5H506.9z"/>
	<path class="st10" d="M527,721.3v-30.1h21.7v3.5H531v9.2h16.6v3.5H531v10.2h18.5v3.5H527z"/>
	<path class="st10" d="M557.1,721.3v-30.1h13.3c2.7,0,4.7,0.3,6.1,0.8s2.5,1.5,3.3,2.9s1.3,2.9,1.3,4.5c0,2.1-0.7,3.9-2.1,5.4
		s-3.5,2.4-6.4,2.8c1.1,0.5,1.9,1,2.4,1.5c1.2,1.1,2.3,2.4,3.3,4l5.2,8.2h-5l-4-6.3c-1.2-1.8-2.1-3.2-2.9-4.1s-1.4-1.6-2-2
		c-0.6-0.4-1.2-0.6-1.8-0.8c-0.5-0.1-1.2-0.1-2.2-0.1h-4.6v13.4H557.1z M561.1,704.5h8.6c1.8,0,3.2-0.2,4.3-0.6s1.8-1,2.3-1.8
		s0.8-1.7,0.8-2.7c0-1.4-0.5-2.6-1.5-3.5c-1-0.9-2.7-1.4-4.9-1.4h-9.5V704.5z"/>
</g>
</svg>
