<?xml version="1.0" encoding="utf-8"?>
<!-- Generator: Adobe Illustrator 22.0.0, SVG Export Plug-In . SVG Version: 6.00 Build 0)  -->
<!DOCTYPE svg PUBLIC "-//W3C//DTD SVG 1.1//EN" "http://www.w3.org/Graphics/SVG/1.1/DTD/svg11.dtd">
<svg version="1.1" id="レイヤー_1" xmlns="http://www.w3.org/2000/svg" xmlns:xlink="http://www.w3.org/1999/xlink" x="0px"
	 y="0px" viewBox="0 0 878.7 878.7" style="enable-background:new 0 0 878.7 878.7;" xml:space="preserve">
<style type="text/css">
	.st0{display:none;}
	.st1{display:inline;fill:#231815;}
	.st2{font-family:'Bebas';}
	.st3{font-size:356.6411px;}
	.st4{letter-spacing:-6;}
	.st5{font-family:'ArialMT';}
	.st6{font-size:55.3148px;}
	.st7{font-size:82.9722px;}
	.st8{display:inline;}
	.st9{fill:#FFFFFF;}
	.st10{fill:#FFFFFF;stroke:#FFFFFF;stroke-width:3.6484;stroke-miterlimit:10;}
</style>
<metadata><?xpacket begin="﻿" id="W5M0MpCehiHzreSzNTczkc9d"?>
<x:xmpmeta xmlns:x="adobe:ns:meta/" x:xmptk="Adobe XMP Core 5.6-c143 79.161210, 2017/08/11-10:28:36        ">
   <rdf:RDF xmlns:rdf="http://www.w3.org/1999/02/22-rdf-syntax-ns#">
      <rdf:Description rdf:about=""
            xmlns:xmp="http://ns.adobe.com/xap/1.0/"
            xmlns:xmpGImg="http://ns.adobe.com/xap/1.0/g/img/"
            xmlns:xmpTPg="http://ns.adobe.com/xap/1.0/t/pg/"
            xmlns:stDim="http://ns.adobe.com/xap/1.0/sType/Dimensions#"
            xmlns:xmpG="http://ns.adobe.com/xap/1.0/g/"
            xmlns:dc="http://purl.org/dc/elements/1.1/"
            xmlns:xmpMM="http://ns.adobe.com/xap/1.0/mm/"
            xmlns:stRef="http://ns.adobe.com/xap/1.0/sType/ResourceRef#"
            xmlns:stEvt="http://ns.adobe.com/xap/1.0/sType/ResourceEvent#">
         <xmp:CreatorTool>Adobe Illustrator CC 22.0 (Macintosh)</xmp:CreatorTool>
         <xmp:CreateDate>2017-12-07T16:49:22+09:00</xmp:CreateDate>
         <xmp:MetadataDate>2017-12-07T16:49:23+09:00</xmp:MetadataDate>
         <xmp:ModifyDate>2017-12-07T16:49:23+09:00</xmp:ModifyDate>
         <xmp:Thumbnails>
            <rdf:Alt>
               <rdf:li rdf:parseType="Resource">
                  <xmpGImg:width>256</xmpGImg:width>
                  <xmpGImg:height>212</xmpGImg:height>
                  <xmpGImg:format>JPEG</xmpGImg:format>
                  <xmpGImg:image>/9j/4AAQSkZJRgABAgEASABIAAD/7QAsUGhvdG9zaG9wIDMuMAA4QklNA+0AAAAAABAASAAAAAEA&#xA;AQBIAAAAAQAB/+4ADkFkb2JlAGTAAAAAAf/bAIQABgQEBAUEBgUFBgkGBQYJCwgGBggLDAoKCwoK&#xA;DBAMDAwMDAwQDA4PEA8ODBMTFBQTExwbGxscHx8fHx8fHx8fHwEHBwcNDA0YEBAYGhURFRofHx8f&#xA;Hx8fHx8fHx8fHx8fHx8fHx8fHx8fHx8fHx8fHx8fHx8fHx8fHx8fHx8fHx8f/8AAEQgA1AEAAwER&#xA;AAIRAQMRAf/EAaIAAAAHAQEBAQEAAAAAAAAAAAQFAwIGAQAHCAkKCwEAAgIDAQEBAQEAAAAAAAAA&#xA;AQACAwQFBgcICQoLEAACAQMDAgQCBgcDBAIGAnMBAgMRBAAFIRIxQVEGE2EicYEUMpGhBxWxQiPB&#xA;UtHhMxZi8CRygvElQzRTkqKyY3PCNUQnk6OzNhdUZHTD0uIIJoMJChgZhJRFRqS0VtNVKBry4/PE&#xA;1OT0ZXWFlaW1xdXl9WZ2hpamtsbW5vY3R1dnd4eXp7fH1+f3OEhYaHiImKi4yNjo+Ck5SVlpeYmZ&#xA;qbnJ2en5KjpKWmp6ipqqusra6voRAAICAQIDBQUEBQYECAMDbQEAAhEDBCESMUEFURNhIgZxgZEy&#xA;obHwFMHR4SNCFVJicvEzJDRDghaSUyWiY7LCB3PSNeJEgxdUkwgJChgZJjZFGidkdFU38qOzwygp&#xA;0+PzhJSktMTU5PRldYWVpbXF1eX1RlZmdoaWprbG1ub2R1dnd4eXp7fH1+f3OEhYaHiImKi4yNjo&#xA;+DlJWWl5iZmpucnZ6fkqOkpaanqKmqq6ytrq+v/aAAwDAQACEQMRAD8A9U4q7FXYq7FXYq7FXYq7&#xA;FXYq7FXYq7FXYq7FXYq7FXYq7FXYq7FXYq7FXYq7FXYq7FXYq7FXYq7FXYq7FXYq7FXYq7FXYq7F&#xA;XYq7FXYq7FXYq7FXYq7FXYq7FXYq7FXYq7FXYq7FXYq7FXYq7FXYq7FXYq7FXYq7FXYq7FXYq7FX&#xA;Yq7FXYq7FXYq7FXYq7FXYq7FXYq7FXYq7FXYq7FXYq7FXYq7FXYq7FXYq7FXYq7FXYq7FXYq7FXY&#xA;q7FXYq7FXYq7FXYq7FXYq7FXYq7FXYq7FXYq7FXYq7FXYq7FXYq7FXYq7FXYq7FXYq7FXYq7FXYq&#xA;7FXYq7FXYq7FXYq7FXYq7FXYq7FXYq7FXYq7FXYq7FXYq7FXYq7FXYq7FXYq7FXYq7FXYq7FXYq7&#xA;FXYq7FXYq7FXYq7FXYq7FXYq7FXYq7FXYq7FXYq7FXYq7FXYq7FXYq7FXYq7FXYq7FXYq7FXYq7F&#xA;XYq7FXYq7FXYq7FXYq7FXYq7FXYq7FXYq7FXYq7FXYq7FXYq7FXYq7FXYq7FXYq7FXYq7FXYq7FX&#xA;Yq7FXYq7FXYq7FXYq7FXYq7FXYq7FXYq7FXYq7FXYq7FXYq7FXYq7FXYq7FXYq7FXYq7FXYq7FXY&#xA;q7FXYq7FXYq7FXYq7FXYq7FXYq7FXYq7FXYq7FXYq7FXYq7FXYq7FXYq7FXYq7FXYq7FXYq7FXYq&#xA;7FXYq7FXYq7FXYq7FXYq7FXYq7FXYq7FXYq7FXYq7FXYq7FXYq7FXYq7FXYq7FXYq7FXYq7FXYq7&#xA;FXYq7FXYq7FXYq7FXYq7FXYq7FXYq7FXYq7FXYq7FXYq7FXYq7FXYq7FXYq7FXYq7FXYq7FXYq7F&#xA;XYq7FXYq7FXYq7FXYq7FXYq7FXYq7FXYq7FXYq7FXYq7FXYq7FXYq7FXYq7FXYq7FXYq7FXYq7FX&#xA;Yq7FXYq7FXYq7FXYq7FXYq7FXYq7FXYq7FXYq7FXYq7FXYq7FXYq7FXYq7FXYq7FXYq7FXYq7FXY&#xA;q7FXYq7FXYq7FXYq7FXYq7FXYq7FXYq7FXYq7FXYq7FXYq7FXYq7FXYq7FXYq7FXYq7FXYq7FXYq&#xA;7FXYq7FXYq7FXYq7FXYq7FXYq7FXYq7FXYq7FXYq7FXYq7FXYq7FXYq7FXYq7FXYq7FXYq7FXYq7&#xA;FXYq7FXYq7FXYq7FXYq7FXYq7FXYq7FXYq7FXYq7FXYq7FXYq7FXYq7FXYq7FXYq7FXYq7FXYq7F&#xA;XYq7FXYq7FXYq7FXYq7FXYq7FXYq7FXYq7FXYq7FXYq7FXYq7FXYq7FXYq7FXYq7FXYq7FXYq7FX&#xA;Yq7FXYq7FXYq7FXYq7FXYq7FXYq7FXYq7FXYq7FXYq7FXYq7FXYq7FXYq7FXYq7FXYq7FXYq7FXY&#xA;q7FXYq7FXYq7FXYq7FXYq7FXYq7FXYq7FXYq7FXYq7FXYq7FXYq7FXYq7FXYq7FXYq7FXYq7FXYq&#xA;7FXYq7FXYq7FXYq7FXYq7FXYq7FXYq7FXYq7FXYq7FXYq7FXYq7FXYq7FXYq7FXYq7FXYq7FXYq7&#xA;FXYq7FXYq7FXYq7FXYq7FXYq7FXYq7FXYq7FXYq7FXYq7FXYq7FXYq7FXYq7FXYq7FXYq7FXYq7F&#xA;XYq7FXYq7FXYq7FXYq7FXYq7FXYq7FXYq7FXYq7FXYq7FXYq7FXYq7FXYq7FXYq7FXYq7FXYq7FX&#xA;Yq7FXYq7FXYq7FXYq7FXYq7FXYq7FXYq7FXYq7FXYq7FXYq7FXYq7FXYq7FXYq7FXYq7FXYq7FXY&#xA;q7FXYq7FXYq7FXYq7FXYq7FXYq7FXYq7FXYq7FXYq7FXYq7FXYq7FXYq7FXYq7FXYq7FXYq7FXYq&#xA;7FXYq7FXYq7FXYq7FXYq7FXYq7FXYq7FXYq7FXYq7FXYq7FXYq7FXYq7FXYq7FXYq7FXYq7FXYq7&#xA;FXYq7FXYq7FXYq7FXYq7FXYq7FXYq7FXYq7FXYq7FXYq7FXYq7FXYq7FXYq7FXYq7FXYq7FXYq7F&#xA;XYq7FXYq7FXYq7FXYq7FXYq7FXYq7FXYq7FXYq7FXYq7FXYq7FXYq7FXYq7FXYq7FXYq7FXYq7FX&#xA;Yq7FXYq7FXYq7FXYq7FXYq7FXYq7FXYq7FXYq7FXYq7FXYq7FXYq7FXYq7FXYq7FXYq7FXYq7FXY&#xA;q7FXYq7FXYq7FX//2Q==</xmpGImg:image>
               </rdf:li>
            </rdf:Alt>
         </xmp:Thumbnails>
         <xmpTPg:MaxPageSize rdf:parseType="Resource">
            <stDim:w>309.985838</stDim:w>
            <stDim:h>309.985838</stDim:h>
            <stDim:unit>Millimeters</stDim:unit>
         </xmpTPg:MaxPageSize>
         <xmpTPg:NPages>1</xmpTPg:NPages>
         <xmpTPg:HasVisibleTransparency>False</xmpTPg:HasVisibleTransparency>
         <xmpTPg:HasVisibleOverprint>False</xmpTPg:HasVisibleOverprint>
         <xmpTPg:SwatchGroups>
            <rdf:Seq>
               <rdf:li rdf:parseType="Resource">
                  <xmpG:groupName>初期設定のスウォッチグループ</xmpG:groupName>
                  <xmpG:groupType>0</xmpG:groupType>
               </rdf:li>
            </rdf:Seq>
         </xmpTPg:SwatchGroups>
         <dc:format>image/svg+xml</dc:format>
         <xmpMM:DerivedFrom rdf:parseType="Resource">
            <stRef:instanceID>xmp.iid:0d76850b-991e-43e5-96c6-db8c42755503</stRef:instanceID>
            <stRef:documentID>xmp.did:0d76850b-991e-43e5-96c6-db8c42755503</stRef:documentID>
            <stRef:originalDocumentID>xmp.did:0d76850b-991e-43e5-96c6-db8c42755503</stRef:originalDocumentID>
         </xmpMM:DerivedFrom>
         <xmpMM:DocumentID>xmp.did:c1232168-58bf-4b58-8205-c1ac6fc0a0b3</xmpMM:DocumentID>
         <xmpMM:InstanceID>xmp.iid:c1232168-58bf-4b58-8205-c1ac6fc0a0b3</xmpMM:InstanceID>
         <xmpMM:OriginalDocumentID>xmp.did:0d76850b-991e-43e5-96c6-db8c42755503</xmpMM:OriginalDocumentID>
         <xmpMM:History>
            <rdf:Seq>
               <rdf:li rdf:parseType="Resource">
                  <stEvt:action>saved</stEvt:action>
                  <stEvt:instanceID>xmp.iid:0d76850b-991e-43e5-96c6-db8c42755503</stEvt:instanceID>
                  <stEvt:when>2017-12-07T16:44:06+09:00</stEvt:when>
                  <stEvt:softwareAgent>Adobe Illustrator CC 22.0 (Macintosh)</stEvt:softwareAgent>
                  <stEvt:changed>/</stEvt:changed>
               </rdf:li>
               <rdf:li rdf:parseType="Resource">
                  <stEvt:action>saved</stEvt:action>
                  <stEvt:instanceID>xmp.iid:c1232168-58bf-4b58-8205-c1ac6fc0a0b3</stEvt:instanceID>
                  <stEvt:when>2017-12-07T16:49:23+09:00</stEvt:when>
                  <stEvt:softwareAgent>Adobe Illustrator CC 22.0 (Macintosh)</stEvt:softwareAgent>
                  <stEvt:changed>/</stEvt:changed>
               </rdf:li>
            </rdf:Seq>
         </xmpMM:History>
      </rdf:Description>
   </rdf:RDF>
</x:xmpmeta>
                                                                                                    
                                                                                                    
                                                                                                    
                                                                                                    
                                                                                                    
                                                                                                    
                                                                                                    
                                                                                                    
                                                                                                    
                                                                                                    
                                                                                                    
                                                                                                    
                                                                                                    
                                                                                                    
                                                                                                    
                                                                                                    
                                                                                                    
                                                                                                    
                                                                                                    
                                                                                                    
                           
<?xpacket end="w"?>
	</metadata>
<g id="レイヤー_1_1_">
	<g class="st0">
		<text transform="matrix(1 0 0 1 78.7832 460.9073)" class="st1 st2 st3 st4">S</text>
		<text transform="matrix(1 0 0 1 261.4832 460.9073)" class="st1 st2 st3">ALE</text>
		<text transform="matrix(1 0 0 1 232.0273 736.8956)" class="st1 st5 st6">2017 SUMMER</text>
		<text transform="matrix(1 0 0 1 211.6104 655.1769)" class="st1 st2 st7">UP TO 40%OFF</text>
	</g>
</g>
<g id="レイヤー_3" class="st0">
	<g class="st8">
		<g>
			<path d="M290.8,665v3.9h-21.7c0-1,0.1-1.9,0.5-2.8c0.6-1.5,1.4-2.9,2.6-4.4c1.2-1.4,3-3.1,5.3-5c3.6-2.9,6-5.2,7.2-6.9
				c1.3-1.7,1.9-3.3,1.9-4.8c0-1.6-0.6-2.9-1.7-4s-2.6-1.6-4.5-1.6s-3.5,0.6-4.7,1.7c-1.2,1.2-1.8,2.8-1.8,4.8l-4.1-0.4
				c0.3-3.1,1.3-5.4,3.2-7.1s4.3-2.4,7.4-2.4s5.6,0.9,7.5,2.6c1.8,1.7,2.8,3.9,2.8,6.5c0,1.3-0.3,2.6-0.8,3.9
				c-0.5,1.3-1.4,2.6-2.7,4c-1.2,1.4-3.3,3.3-6.2,5.8c-2.4,2-4,3.4-4.7,4.1c-0.7,0.7-1.3,1.5-1.7,2.2L290.8,665L290.8,665z"/>
			<path d="M297.4,652.7c0-3.9,0.4-7,1.2-9.4c0.8-2.4,2-4.2,3.6-5.5s3.6-1.9,5.9-1.9c1.8,0,3.3,0.4,4.6,1.1c1.3,0.7,2.4,1.7,3.3,3.1
				c0.9,1.3,1.5,3,2,4.9s0.7,4.5,0.7,7.7c0,3.8-0.4,7-1.2,9.3c-0.8,2.4-2,4.2-3.5,5.5c-1.6,1.3-3.6,1.9-6,1.9
				c-3.2,0-5.6-1.1-7.4-3.4C298.4,663.3,297.4,658.9,297.4,652.7z M301.5,652.7c0,5.4,0.6,9,1.9,10.7s2.8,2.7,4.7,2.7
				c1.8,0,3.4-0.9,4.7-2.7s1.9-5.4,1.9-10.7c0-5.4-0.6-9-1.9-10.8s-2.8-2.7-4.7-2.7c-1.8,0-3.3,0.8-4.4,2.3
				C302.2,643.6,301.5,647.3,301.5,652.7z"/>
			<path d="M340.3,668.9h-4v-25.6c-1,0.9-2.2,1.8-3.8,2.8s-3,1.6-4.2,2.1v-3.9c2.3-1.1,4.2-2.3,5.9-3.8s2.9-3,3.6-4.4h2.6v32.8
				L340.3,668.9L340.3,668.9z"/>
			<path d="M353.2,640.4v-3.9h21.2v3.1c-2.1,2.2-4.2,5.2-6.2,8.9s-3.6,7.5-4.8,11.4c-0.8,2.7-1.3,5.7-1.5,9h-4.1
				c0-2.6,0.6-5.7,1.5-9.3c1-3.7,2.4-7.2,4.2-10.6s3.7-6.2,5.8-8.6L353.2,640.4L353.2,640.4z"/>
			<path d="M395.8,658.4l4.1-0.4c0.2,1.6,0.6,3,1.4,4c0.7,1.1,1.8,1.9,3.3,2.5s3.2,1,5,1c1.7,0,3.1-0.2,4.4-0.7s2.2-1.2,2.8-2
				c0.6-0.9,0.9-1.8,0.9-2.8s-0.3-1.9-0.9-2.7s-1.6-1.4-3-1.9c-0.9-0.3-2.8-0.9-5.8-1.6c-3-0.7-5.1-1.4-6.3-2
				c-1.6-0.8-2.7-1.8-3.5-3.1c-0.8-1.2-1.2-2.6-1.2-4.1c0-1.7,0.5-3.2,1.4-4.6c0.9-1.4,2.3-2.5,4.1-3.3c1.8-0.7,3.8-1.1,6-1.1
				c2.4,0,4.6,0.4,6.4,1.2c1.9,0.8,3.3,1.9,4.3,3.5c1,1.5,1.5,3.2,1.6,5.2l-4.2,0.3c-0.2-2.1-1-3.6-2.3-4.7
				c-1.3-1.1-3.2-1.6-5.7-1.6c-2.6,0-4.5,0.5-5.7,1.4c-1.2,1-1.8,2.1-1.8,3.5c0,1.2,0.4,2.1,1.3,2.9c0.8,0.8,3,1.5,6.5,2.3
				s5.9,1.5,7.3,2.1c1.9,0.9,3.3,2,4.2,3.3c0.9,1.3,1.4,2.9,1.4,4.7c0,1.7-0.5,3.4-1.5,4.9s-2.4,2.7-4.3,3.6c-1.9,0.9-4,1.3-6.3,1.3
				c-3,0-5.5-0.4-7.5-1.3c-2-0.9-3.6-2.2-4.7-3.9C396.5,662.5,395.9,660.5,395.8,658.4z"/>
			<path d="M451.6,636.1h4.3V655c0,3.3-0.4,5.9-1.1,7.8c-0.7,1.9-2.1,3.5-4,4.7s-4.5,1.8-7.7,1.8c-3.1,0-5.6-0.5-7.5-1.6
				c-2-1.1-3.3-2.6-4.2-4.6c-0.8-2-1.3-4.7-1.3-8.2V636h4.3v19c0,2.8,0.3,4.9,0.8,6.3c0.5,1.3,1.4,2.4,2.7,3.1
				c1.3,0.7,2.9,1.1,4.7,1.1c3.2,0,5.5-0.7,6.8-2.2c1.4-1.4,2-4.2,2-8.3v-18.9L451.6,636.1L451.6,636.1z"/>
			<path d="M465.4,668.9v-32.8h6.5l7.8,23.2c0.7,2.2,1.2,3.8,1.6,4.9c0.4-1.2,1-2.9,1.7-5.3l7.8-22.8h5.8v32.8h-4.2v-27.4l-9.5,27.4
				H479l-9.5-27.9v27.9L465.4,668.9L465.4,668.9z"/>
			<path d="M505.8,668.9v-32.8h6.5l7.8,23.2c0.7,2.2,1.2,3.8,1.6,4.9c0.4-1.2,1-2.9,1.7-5.3l7.8-22.8h5.8v32.8h-4.2v-27.4l-9.5,27.4
				h-3.9L510,641v27.9H505.8z"/>
			<path d="M546.5,668.9v-32.8h23.7v3.9h-19.4v10h18.1v3.8h-18.1V665h20.1v3.9H546.5z"/>
			<path d="M579.3,668.9v-32.8h14.5c2.9,0,5.1,0.3,6.7,0.9c1.5,0.6,2.7,1.6,3.6,3.1c0.9,1.5,1.4,3.1,1.4,4.9c0,2.3-0.8,4.3-2.3,5.9
				c-1.5,1.6-3.8,2.6-7,3c1.1,0.6,2,1.1,2.6,1.6c1.3,1.2,2.5,2.6,3.6,4.4l5.7,8.9h-5.5l-4.3-6.8c-1.3-2-2.3-3.5-3.1-4.5
				s-1.6-1.8-2.2-2.2c-0.6-0.4-1.3-0.7-2-0.9c-0.5-0.1-1.3-0.2-2.4-0.2h-5v14.6L579.3,668.9L579.3,668.9z M583.6,650.6h9.3
				c2,0,3.5-0.2,4.7-0.6c1.1-0.4,2-1.1,2.5-2c0.6-0.9,0.9-1.9,0.9-2.9c0-1.5-0.6-2.8-1.7-3.8c-1.1-1-2.9-1.5-5.3-1.5h-10.4V650.6z"
				/>
		</g>
		<g>
			<path d="M268.6,601.9c-4.1,0-7.5-1.4-10.3-4.2s-4.2-6.3-4.2-10.3v-47.3h9v47.2c0,1.5,0.5,2.7,1.6,3.7c1,1,2.3,1.5,3.8,1.5
				s2.7-0.5,3.7-1.5s1.5-2.3,1.5-3.7v-47.2h9.6v47.3c0,4.1-1.4,7.5-4.3,10.3C276,600.5,272.6,601.9,268.6,601.9z"/>
			<path d="M304.1,540.1c4.5,0,8.1,1.4,10.7,4.2c2.5,2.7,3.7,6.1,3.7,10.3v8.9c0,4-1.4,7.5-4.2,10.3c-2.8,2.9-6.2,4.3-10.2,4.3h-5.3
				v23h-9.2V540L304.1,540.1L304.1,540.1z M309.6,554.8c0-1.6-0.5-2.9-1.4-3.9c-1-1-2.2-1.5-3.8-1.5h-5.6V569h5.6
				c1.5,0,2.7-0.5,3.7-1.6c1-1,1.5-2.3,1.5-3.8L309.6,554.8L309.6,554.8z"/>
			<path d="M341,549.4h-9.8v-9.3H360v9.3h-9.8v51.9H341V549.4z"/>
			<path d="M380.9,539.3c4.1,0,7.5,1.4,10.4,4.3c2.8,2.9,4.3,6.3,4.3,10.3v33.4c0,4.1-1.4,7.5-4.3,10.4c-2.9,2.8-6.3,4.3-10.3,4.3
				c-4.1,0-7.5-1.4-10.3-4.3s-4.2-6.3-4.2-10.3V554c0-4.1,1.4-7.5,4.3-10.4C373.5,540.7,376.9,539.3,380.9,539.3z M385.9,553.8
				c0-1.5-0.5-2.7-1.5-3.7s-2.3-1.5-3.7-1.5c-1.5,0-2.7,0.5-3.8,1.5c-1,1-1.6,2.3-1.6,3.7v33.5c0,1.5,0.5,2.7,1.6,3.7
				c1,1,2.3,1.5,3.8,1.5s2.7-0.5,3.7-1.5s1.5-2.3,1.5-3.7V553.8z"/>
			<path d="M408.2,578.7l16.3-38.7h9.2v38.7h5.9v9.3h-5.9v13.2h-9.2V588h-16.3V578.7z M424.5,578.7v-19.1l-7.6,19.1H424.5z"/>
			<path d="M475.2,587.3c0,4.1-1.4,7.5-4.3,10.3s-6.3,4.2-10.3,4.2c-4.1,0-7.5-1.4-10.4-4.3c-2.8-2.8-4.3-6.3-4.3-10.3v-33.4
				c0-4.1,1.4-7.5,4.3-10.4c2.9-2.8,6.3-4.3,10.3-4.3c4.1,0,7.5,1.4,10.3,4.3s4.2,6.3,4.2,10.3v33.6L475.2,587.3L475.2,587.3z
				 M465.7,553.7c0-1.5-0.5-2.7-1.6-3.8c-1-1-2.3-1.6-3.8-1.6s-2.7,0.5-3.7,1.6s-1.5,2.3-1.5,3.8v33.4c0,1.5,0.5,2.7,1.5,3.8
				c1,1,2.3,1.6,3.7,1.6s2.7-0.5,3.8-1.6c1-1,1.6-2.3,1.6-3.8V553.7z"/>
			<path d="M496.9,562.5c0,2.1-0.8,3.9-2.3,5.4s-3.3,2.2-5.4,2.2s-3.9-0.7-5.4-2.2s-2.2-3.3-2.2-5.4V545c0-2.1,0.7-3.9,2.2-5.4
				s3.3-2.2,5.4-2.2s3.9,0.8,5.4,2.3s2.2,3.3,2.2,5.4L496.9,562.5L496.9,562.5z M489.9,602.3h-5.4l31.2-64.7h5.4L489.9,602.3z
				 M486.3,562.4c0,0.8,0.3,1.4,0.8,2c0.5,0.5,1.2,0.8,2,0.8s1.4-0.3,2-0.8c0.5-0.5,0.8-1.2,0.8-2V545c0-0.8-0.3-1.4-0.8-2
				c-0.5-0.5-1.2-0.8-2-0.8s-1.4,0.3-2,0.8c-0.5,0.5-0.8,1.2-0.8,2V562.4z M516.4,568.8c2.1,0,3.9,0.8,5.4,2.3s2.2,3.3,2.2,5.4V594
				c0,2.1-0.7,3.9-2.2,5.4s-3.3,2.2-5.4,2.2c-2.1,0-3.9-0.7-5.4-2.2c-1.5-1.5-2.2-3.3-2.2-5.3v-17.5c0-2.1,0.7-3.9,2.2-5.4
				C512.5,569.6,514.3,568.8,516.4,568.8z M519,576.4c0-0.8-0.3-1.4-0.8-2c-0.5-0.5-1.2-0.8-2-0.8s-1.4,0.3-2,0.8
				c-0.5,0.5-0.8,1.2-0.8,2v17.5c0,0.8,0.3,1.4,0.8,2c0.5,0.5,1.2,0.8,2,0.8s1.4-0.3,2-0.8c0.5-0.5,0.8-1.2,0.8-2V576.4z"/>
			<path d="M544.9,539.3c4.1,0,7.5,1.4,10.4,4.3c2.8,2.9,4.3,6.3,4.3,10.3v33.4c0,4.1-1.4,7.5-4.3,10.4c-2.9,2.8-6.3,4.3-10.3,4.3
				c-4.1,0-7.5-1.4-10.3-4.3s-4.2-6.3-4.2-10.3V554c0-4.1,1.4-7.5,4.3-10.4C537.5,540.7,540.9,539.3,544.9,539.3z M550,553.8
				c0-1.5-0.5-2.7-1.5-3.7s-2.3-1.5-3.7-1.5s-2.7,0.5-3.8,1.5c-1,1-1.6,2.3-1.6,3.7v33.5c0,1.5,0.5,2.7,1.6,3.7c1,1,2.3,1.5,3.8,1.5
				s2.7-0.5,3.7-1.5s1.5-2.3,1.5-3.7V553.8z"/>
			<path d="M575.1,601.2h-9.2V540h26.2v9.3h-17V566h12.4v9.3h-12.4V601.2z"/>
			<path d="M607.7,601.2h-9.2V540h26.2v9.3h-17V566h12.4v9.3h-12.4V601.2z"/>
		</g>
		<g>
			<g>
				<path d="M230.1,275c-20.9-14.2-42.2-21.3-63.9-21.3c-14.4,0-25.4,2.3-33.1,6.8c-7.7,4.5-11.5,10.7-11.5,18.7
					c0,8.3,4.1,14.4,12.3,18.2c5.8,2.8,15.4,4.7,28.6,5.7c19.5,1.7,32.3,3.1,38.6,4.2c17.7,3.1,30.7,8.9,39.1,17.4
					c8.4,8.5,12.7,20.5,12.7,36.1c0,19.9-6.6,35.3-19.9,46.2c-13.2,10.9-32.3,16.4-57.1,16.4c-36,0-63.9-10.6-83.9-31.7l12.9-22.6
					c22.1,18,45.8,27,71.3,27c16.5,0,29.3-3,38.4-9.1c8.7-5.9,13-13.9,13-24.1c0-11.9-5.7-19.9-17.1-23.9c-6-2.1-22.1-4.2-48.3-6.5
					c-23.2-2.1-39.5-6.2-48.9-12.5c-10.9-7.3-16.4-19.5-16.4-36.6c0-17.7,6.2-31.6,18.6-41.8s29.9-15.3,52.5-15.3
					c30.4,0,55.8,9.3,76.3,27.8L230.1,275z"/>
				<path d="M444.5,418.8H419l-16.2-42.1h-95l-16.2,42.1H266l74.6-188H370L444.5,418.8z M391.4,348.7l-35.9-91.1l-36.4,91.1H391.4z"
					/>
				<path d="M605.2,418.8H473v-188h23.4v160h108.9L605.2,418.8L605.2,418.8z"/>
				<path d="M782.2,418.8H634.6v-188h142.2v28H658v48.3h82.6v28H658v55.6h124.2V418.8z"/>
			</g>
		</g>
	</g>
</g>
<g>
	<g>
		<path class="st9" d="M308.2,731.6v3.7h-20.7c0-0.9,0.1-1.8,0.4-2.7c0.5-1.4,1.4-2.8,2.5-4.2c1.2-1.4,2.8-3,5-4.7
			c3.4-2.8,5.7-5,6.9-6.6c1.2-1.6,1.8-3.2,1.8-4.6c0-1.5-0.5-2.8-1.6-3.9s-2.5-1.6-4.3-1.6c-1.9,0-3.3,0.6-4.4,1.7
			c-1.1,1.1-1.7,2.7-1.7,4.6l-4-0.4c0.3-3,1.3-5.2,3.1-6.7c1.8-1.5,4.1-2.3,7.1-2.3c3,0,5.4,0.8,7.1,2.5c1.8,1.7,2.6,3.7,2.6,6.2
			c0,1.3-0.3,2.5-0.8,3.7c-0.5,1.2-1.4,2.5-2.6,3.8c-1.2,1.3-3.2,3.2-5.9,5.5c-2.3,1.9-3.8,3.3-4.4,3.9c-0.7,0.7-1.2,1.4-1.6,2.1
			H308.2z"/>
		<path class="st9" d="M314.6,719.8c0-3.7,0.4-6.7,1.1-8.9c0.8-2.3,1.9-4,3.4-5.2c1.5-1.2,3.4-1.8,5.7-1.8c1.7,0,3.2,0.3,4.4,1
			s2.3,1.7,3.1,2.9c0.8,1.3,1.5,2.8,1.9,4.7c0.5,1.8,0.7,4.3,0.7,7.4c0,3.7-0.4,6.6-1.1,8.9s-1.9,4-3.4,5.2
			c-1.5,1.2-3.4,1.8-5.7,1.8c-3,0-5.4-1.1-7.1-3.2C315.6,729.9,314.6,725.7,314.6,719.8z M318.5,719.8c0,5.1,0.6,8.6,1.8,10.3
			s2.7,2.6,4.5,2.6c1.8,0,3.3-0.9,4.5-2.6c1.2-1.7,1.8-5.1,1.8-10.3c0-5.2-0.6-8.6-1.8-10.3c-1.2-1.7-2.7-2.5-4.5-2.5
			c-1.8,0-3.2,0.7-4.2,2.2C319.2,711.1,318.5,714.7,318.5,719.8z"/>
		<path class="st9" d="M355.6,735.3h-3.8v-24.5c-0.9,0.9-2.1,1.8-3.6,2.7c-1.5,0.9-2.9,1.5-4.1,2v-3.7c2.2-1,4-2.2,5.6-3.7
			s2.8-2.8,3.4-4.2h2.5V735.3z"/>
		<path class="st9" d="M367.9,708v-3.7h20.3v3c-2,2.1-4,4.9-5.9,8.5c-2,3.5-3.5,7.1-4.5,10.9c-0.8,2.6-1.3,5.5-1.5,8.6h-4
			c0-2.5,0.5-5.4,1.5-8.9c0.9-3.5,2.3-6.9,4-10.1s3.6-6,5.5-8.2H367.9z"/>
		<path class="st9" d="M415.6,735.3l-8.3-31.3h4.3l4.8,20.5c0.5,2.2,1,4.3,1.3,6.4c0.8-3.3,1.3-5.3,1.4-5.8l6-21.2h5l4.5,15.9
			c1.1,3.9,1.9,7.6,2.4,11.1c0.4-2,0.9-4.3,1.6-6.8l4.9-20.1h4.2l-8.6,31.3h-4l-6.6-23.9c-0.6-2-0.9-3.2-1-3.7
			c-0.3,1.4-0.6,2.7-0.9,3.7l-6.6,23.9H415.6z"/>
		<path class="st9" d="M454.3,735.3v-31.3h4.1v31.3H454.3z"/>
		<path class="st9" d="M467.9,735.3v-31.3h4.3l16.5,24.6v-24.6h4v31.3h-4.3l-16.5-24.6v24.6H467.9z"/>
		<path class="st9" d="M509.7,735.3v-27.6h-10.3v-3.7h24.8v3.7h-10.4v27.6H509.7z"/>
		<path class="st9" d="M530.8,735.3v-31.3h22.7v3.7h-18.5v9.6h17.3v3.7h-17.3v10.7h19.2v3.7H530.8z"/>
		<path class="st9" d="M562.1,735.3v-31.3H576c2.8,0,4.9,0.3,6.4,0.8c1.5,0.6,2.6,1.6,3.5,3c0.9,1.4,1.3,3,1.3,4.7
			c0,2.2-0.7,4.1-2.2,5.6c-1.4,1.5-3.7,2.5-6.7,2.9c1.1,0.5,1.9,1,2.5,1.6c1.2,1.1,2.4,2.5,3.4,4.2l5.5,8.5h-5.2l-4.1-6.5
			c-1.2-1.9-2.2-3.3-3-4.3c-0.8-1-1.5-1.7-2.1-2.1c-0.6-0.4-1.3-0.7-1.9-0.8c-0.5-0.1-1.2-0.2-2.3-0.2h-4.8v13.9H562.1z
			 M566.3,717.7h8.9c1.9,0,3.4-0.2,4.4-0.6c1.1-0.4,1.9-1,2.4-1.9c0.6-0.9,0.8-1.8,0.8-2.8c0-1.5-0.5-2.7-1.6-3.7
			c-1.1-1-2.8-1.4-5.1-1.4h-9.9V717.7z"/>
	</g>
	<g>
		<path class="st9" d="M191.7,654.6c-5.9,0-10.9-2.1-15-6.2c-4.1-4.1-6.2-9.1-6.2-14.9V565h13.1v68.4c0,2.1,0.8,3.9,2.3,5.4
			c1.5,1.5,3.3,2.2,5.4,2.2s3.9-0.7,5.4-2.2s2.2-3.3,2.2-5.4V565h13.9v68.5c0,5.9-2.1,10.9-6.2,15
			C202.6,652.6,197.6,654.6,191.7,654.6z"/>
		<path class="st9" d="M243.2,565c6.5,0,11.7,2.1,15.6,6.2c3.6,3.9,5.4,8.9,5.4,15V599c0,5.8-2,10.8-6.1,15c-4.1,4.2-9,6.2-14.8,6.2
			h-7.7v33.4h-13.4V565H243.2z M251.2,586.4c0-2.3-0.7-4.2-2.1-5.6c-1.4-1.4-3.2-2.1-5.6-2.1h-8.1V607h8.1c2.1,0,3.9-0.8,5.4-2.3
			c1.5-1.5,2.2-3.3,2.2-5.4V586.4z"/>
		<path class="st9" d="M296.7,578.4h-14.2V565h41.7v13.4h-14.1v75.2h-13.4V578.4z"/>
		<path class="st9" d="M354.6,563.9c5.9,0,10.9,2.1,15,6.2c4.1,4.1,6.2,9.1,6.2,15v48.4c0,5.9-2.1,10.9-6.2,15
			c-4.2,4.1-9.1,6.2-15,6.2c-5.9,0-10.9-2.1-15-6.2c-4.1-4.1-6.2-9.1-6.2-15v-48.4c0-5.9,2.1-10.9,6.2-15
			C343.8,565.9,348.8,563.9,354.6,563.9z M361.9,584.8c0-2.1-0.7-3.9-2.2-5.4c-1.5-1.5-3.3-2.2-5.4-2.2s-3.9,0.7-5.4,2.2
			c-1.5,1.5-2.3,3.3-2.3,5.4v48.5c0,2.1,0.8,3.9,2.3,5.4c1.5,1.5,3.3,2.2,5.4,2.2s3.9-0.7,5.4-2.2s2.2-3.3,2.2-5.4V584.8z"/>
		<path class="st9" d="M394.2,621l23.6-56.2h13.4V621h8.6v13.4h-8.6v19.1h-13.4v-19.1h-23.6V621z M417.8,621v-27.7l-11,27.7H417.8z"
			/>
		<path class="st9" d="M491.3,633.4c0,5.9-2.1,10.9-6.2,15s-9.1,6.2-14.9,6.2c-5.9,0-10.9-2.1-15-6.2c-4.1-4.1-6.2-9.1-6.2-15V585
			c0-5.9,2.1-10.9,6.2-15c4.1-4.1,9.1-6.2,15-6.2c5.9,0,10.9,2.1,15,6.2c4.1,4.2,6.2,9.1,6.2,15V633.4z M477.5,584.7
			c0-2.1-0.8-3.9-2.3-5.4c-1.5-1.5-3.3-2.3-5.4-2.3s-3.9,0.8-5.4,2.3c-1.5,1.5-2.2,3.3-2.2,5.4v48.5c0,2.1,0.7,3.9,2.2,5.4
			c1.5,1.5,3.3,2.3,5.4,2.3s3.9-0.8,5.4-2.3c1.5-1.5,2.3-3.3,2.3-5.4V584.7z"/>
		<path class="st9" d="M522.7,597.5c0,3-1.1,5.6-3.3,7.8c-2.2,2.2-4.8,3.3-7.8,3.3c-3.1,0-5.7-1.1-7.9-3.3c-2.2-2.2-3.3-4.8-3.3-7.8
			v-25.3c0-3.1,1.1-5.7,3.3-7.9c2.2-2.2,4.8-3.3,7.9-3.3s5.7,1.1,7.9,3.3c2.2,2.2,3.3,4.8,3.3,7.8V597.5z M512.6,655.1h-7.9
			l45.3-93.8h7.8L512.6,655.1z M507.4,597.4c0,1.1,0.4,2.1,1.2,2.9c0.8,0.8,1.7,1.2,2.9,1.2s2.1-0.4,2.9-1.2
			c0.8-0.8,1.2-1.7,1.2-2.9v-25.3c0-1.1-0.4-2.1-1.2-2.9c-0.8-0.8-1.7-1.2-2.9-1.2s-2.1,0.4-2.9,1.2c-0.8,0.8-1.2,1.7-1.2,2.9V597.4
			z M551,606.7c3.1,0,5.7,1.1,7.8,3.3c2.1,2.2,3.2,4.8,3.2,7.8v25.3c0,3.1-1.1,5.7-3.3,7.8c-2.2,2.1-4.8,3.2-7.8,3.2
			c-3.1,0-5.7-1.1-7.9-3.2c-2.2-2.1-3.3-4.7-3.3-7.7v-25.3c0-3.1,1.1-5.7,3.3-7.9C545.4,607.7,548,606.7,551,606.7z M554.9,617.6
			c0-1.1-0.4-2.1-1.2-2.9c-0.8-0.8-1.7-1.2-2.9-1.2s-2.1,0.4-2.9,1.2c-0.8,0.8-1.2,1.7-1.2,2.9v25.3c0,1.1,0.4,2.1,1.2,2.9
			c0.8,0.8,1.7,1.2,2.9,1.2s2.1-0.4,2.9-1.2c0.8-0.8,1.2-1.7,1.2-2.9V617.6z"/>
		<path class="st9" d="M592.4,563.9c5.9,0,10.9,2.1,15,6.2c4.1,4.1,6.2,9.1,6.2,15v48.4c0,5.9-2.1,10.9-6.2,15
			c-4.1,4.1-9.1,6.2-15,6.2c-5.9,0-10.9-2.1-15-6.2c-4.1-4.1-6.2-9.1-6.2-15v-48.4c0-5.9,2.1-10.9,6.2-15
			C581.6,565.9,586.6,563.9,592.4,563.9z M599.7,584.8c0-2.1-0.7-3.9-2.2-5.4c-1.5-1.5-3.3-2.2-5.4-2.2s-3.9,0.7-5.4,2.2
			c-1.5,1.5-2.3,3.3-2.3,5.4v48.5c0,2.1,0.8,3.9,2.3,5.4c1.5,1.5,3.3,2.2,5.4,2.2s3.9-0.7,5.4-2.2s2.2-3.3,2.2-5.4V584.8z"/>
		<path class="st9" d="M636.2,653.6h-13.4v-88.7h38.1v13.4h-24.7v24.2h18V616h-18V653.6z"/>
		<path class="st9" d="M683.5,653.6h-13.4v-88.7h38.1v13.4h-24.7v24.2h18V616h-18V653.6z"/>
	</g>
	<line class="st10" x1="54.4" y1="480.8" x2="824.3" y2="480.8"/>
</g>
<g>
	<path class="st9" d="M270.4,339.6c0,23.4-8.9,43.3-26.7,59.7c-17.8,16.4-39.2,24.6-64.2,24.6c-14.7,0-32.2-4.5-52.6-13.4
		c-5.4-2.4-9.5-3.7-12.2-3.7c-3.3,0-5.3,3.8-6.1,11.3c-0.3,3.9-2,5.8-5.3,5.8c-2.7,0-4.1-1.6-4.1-4.9c0-2.2,0.1-3.8,0.4-4.9
		c2.2-16.6,3.3-31.9,3.3-46c0-2.7-0.3-10.3-0.8-22.8c-0.3-1.6-0.4-3.8-0.4-6.5c0-4.1,1.6-6.1,4.9-6.1c2.7,0,4.6,3.3,5.7,9.9
		c7.1,48.8,30,73.2,68.8,73.2c16.6,0,29.4-4.7,38.5-14.1c9.1-9.4,13.6-22.6,13.6-39.7c0-15.2-4.4-28.2-13.2-38.9
		c-8.8-10.7-24-21.4-45.4-32c-25.8-12.8-43.7-25.1-53.8-37.1c-10.1-11.9-15.1-26.7-15.1-44.4c0-22.5,7.3-41.1,21.8-55.8
		c14.5-14.7,32.9-22,55.2-22c9.2,0,22,3.1,38.3,9.4c5.7,2.2,9.9,3.3,12.6,3.3c3,0,5-0.5,5.9-1.6c0.9-1.1,1.8-3.9,2.6-8.6
		c0.5-2.7,2-4.1,4.5-4.1c2.7,0,4.1,1.6,4.1,4.9c0,2.2-0.1,3.8-0.4,4.9c-0.8,6.5-1.2,14.4-1.2,23.6c0,13,0.7,23.4,2,31l0.4,6.5
		c0.3,3-1,4.5-3.7,4.5c-3,0-5-3.1-6.1-9.4c-3-16-10.1-29.4-21.2-40.1c-11.1-10.7-23.6-16.1-37.5-16.1c-13.6,0-24.4,4.3-32.4,13
		c-8,8.7-12,20.5-12,35.4c0,17.4,5.8,31.4,17.5,42c6.5,6,20.6,14.4,42.4,25.3c25.5,12.8,43.9,25.7,55,38.9
		C264.8,307.8,270.4,322.8,270.4,339.6z"/>
	<path class="st9" d="M455.8,417c0,1.6-2.7,2.4-8.1,2.4h-2.9h-25.3h-11.4c-4.6,0-11,0-19.1,0h-12.2h-7.3h-2c-4.9,0-7.3-1.1-7.3-3.2
		c0-2.2,4.9-3.4,14.7-3.6c11.7-0.3,17.5-1.6,17.5-4c0-0.5-0.8-3.1-2.4-7.7c-0.5-2.2-3.7-11.2-9.4-27.1l-4.9-13.8h-58.3
		c-11.1,28-16.7,44.1-16.7,48.5c0,2.4,1.6,3.8,4.9,4.1l5.3,0.4h6.1l3.7,1.2c3.3,0,4.9,0.8,4.9,2.5c0,1.9-2.9,2.8-8.6,2.8
		c-0.8,0-5.6-0.2-14.5-0.6c-8.8-0.4-16.6-0.6-23.4-0.6h-3.7l-3.7,0.6l-4.5,0.6h-0.8c-4.3,0-6.5-0.8-6.5-2.5c0-1.9,1.8-3,5.3-3.3
		c4.9-0.3,8.1-0.5,9.8-0.8c4.6-0.8,7.6-2,9-3.7c1.6-0.8,8.3-16.3,20-46.6c4.6-12.2,9.1-23.7,13.5-34.3c1.6-3.8,2.7-6.7,3.3-8.6
		c0.5-1.9,1.6-4.8,3.3-8.6c4.6-11.2,11.1-28,19.6-50.6l6.1-17.1l2.8-7.3c1.6-4.1,3.3-6.1,4.9-6.1c0.8,0,2.6,3.8,5.3,11.4
		c8.1,19.8,29.2,72.2,63.1,157.3c3.3,8.4,6.4,12.9,9.4,13.4c0.8,0.3,5.2,0.7,13,1.2C453.2,413.6,455.8,414.9,455.8,417z
		 M373.1,353.1l-26.2-69.6c-6.6,16.3-15.7,39.5-27.2,69.6H373.1z"/>
	<path class="st9" d="M621.2,382.4c0,15.2-0.3,28-0.8,38.3c-1.6,0.3-3.7,0.4-6.1,0.4c-0.3,0-2.4-0.2-6.3-0.6
		c-3.9-0.4-9-0.6-15.3-0.6h-19.1l-69.7-0.8h-33.4c-3.5,0-5.3-0.9-5.3-2.7c0-1.5,5.3-2.7,15.9-3.4c3-0.3,4.8-0.9,5.5-2
		c0.7-1.1,1-4.1,1-9V265.1c0-15.2-1.2-23.3-3.7-24.1c-1.1-0.5-3.5-0.8-7.1-0.8s-6-0.1-7.1-0.4c-3,0-4.5-1.1-4.5-3.3
		c0-1.9,1.8-2.9,5.3-2.9H527c3,0,6.1,0,9.4,0c5.2,0,7.8,1.1,7.8,3.4c0,1.5-4.5,2.4-13.4,2.7c-4.3,0.3-6.9,1.2-7.7,2.9
		c-0.8,1.6-1.2,7.5-1.2,17.6v151.5c10.8,0.3,18.7,0.4,23.5,0.4c29.2,0,47.4-2.9,54.7-8.6c5.9-4.6,9.7-14.4,11.4-29.3
		c0.5-6.5,2-9.8,4.5-9.8C619.4,364.5,621.2,370.5,621.2,382.4z"/>
	<path class="st9" d="M783.3,375.3c0,0.3-0.2,2-0.6,5.2s-0.6,6-0.6,8.5v23.6c0,2.5,0.4,5.2,1.2,8.1l-68-1.2l-77.8,1.2
		c-5.7,0-8.6-1.1-8.6-3.2c0-2.5,1.6-3.7,4.9-3.7c8.7,0,13.8-0.6,15.3-1.8c1.5-1.2,2.2-5.6,2.2-13.2V258.6c0-11.1-1-17-2.9-17.7
		c-1.9-0.7-6.7-1-14.3-1c-3.3,0-4.9-0.9-4.9-2.9c0-2.2,1.8-3.3,5.3-3.3h9.8c2.7,0,5.4,0,8.1,0h4.5h10.2c1.4,0,8.1,0,20.4,0
		c12.5,0,27.4,0,44.8,0h24c7.1,0,12.9,0,17.5,0v2.8l0.4,6c0.5,4,1.6,16.1,3.3,36.1c0.3,1.3,0.4,2.9,0.4,4.8c0,3.5-0.9,5.2-2.8,5.2
		c-2.4,0-4.2-2.7-5.3-8.1c-3.8-20.6-11-32.7-21.5-36.3c-5.9-1.9-20-2.9-42.2-2.9h-20.7v76.2h9.7c17.2,0,27.9-1.4,31.9-4.3
		c4-2.9,6.7-10.7,8.1-23.4c0.8-7.6,2.4-11.4,4.9-11.4c2.7,0,4.1,2.7,4.1,8.1c0,3.3-0.2,8.3-0.6,15.1c-0.4,6.8-0.6,12-0.6,15.5
		c0,17.7,0.3,29.7,0.9,36.3c0.2,2.2,0.3,3.9,0.3,5.3c0,4.3-1.3,6.5-4,6.5c-2.4,0-4-3.4-4.8-10.2c-1.6-14.7-4.3-23.4-8-26.3
		c-3.8-2.9-14.3-4.3-31.7-4.3h-10v88c39.7-0.3,63.1-1.4,70.2-3.3c10.8-3,17.2-16,19.1-39.1c0.3-4.1,1.8-6.1,4.5-6.1
		C781.9,364.1,783.3,367.8,783.3,375.3z"/>
</g>
</svg>
