<?xml version="1.0" encoding="utf-8"?>
<!-- Generator: Adobe Illustrator 22.0.1, SVG Export Plug-In . SVG Version: 6.00 Build 0)  -->
<!DOCTYPE svg PUBLIC "-//W3C//DTD SVG 1.1//EN" "http://www.w3.org/Graphics/SVG/1.1/DTD/svg11.dtd">
<svg version="1.1" id="レイヤー_1" xmlns="http://www.w3.org/2000/svg" xmlns:xlink="http://www.w3.org/1999/xlink" x="0px"
	 y="0px" viewBox="0 0 878.7 878.7" style="enable-background:new 0 0 878.7 878.7;" xml:space="preserve">
<style type="text/css">
	.st0{display:none;}
	.st1{display:inline;fill:#231815;}
	.st2{font-family:'Bebas';}
	.st3{font-size:356.6411px;}
	.st4{letter-spacing:-4;}
	.st5{font-family:'ArialMT';}
	.st6{font-size:55.3148px;}
	.st7{font-size:82.9722px;}
	.st8{display:inline;}
	.st9{fill:#FFFFFF;}
</style>
<metadata><?xpacket begin="﻿" id="W5M0MpCehiHzreSzNTczkc9d"?>
<x:xmpmeta xmlns:x="adobe:ns:meta/" x:xmptk="Adobe XMP Core 5.6-c143 79.161210, 2017/08/11-10:28:36        ">
   <rdf:RDF xmlns:rdf="http://www.w3.org/1999/02/22-rdf-syntax-ns#">
      <rdf:Description rdf:about=""
            xmlns:xmp="http://ns.adobe.com/xap/1.0/"
            xmlns:xmpGImg="http://ns.adobe.com/xap/1.0/g/img/"
            xmlns:xmpTPg="http://ns.adobe.com/xap/1.0/t/pg/"
            xmlns:stDim="http://ns.adobe.com/xap/1.0/sType/Dimensions#"
            xmlns:xmpG="http://ns.adobe.com/xap/1.0/g/"
            xmlns:dc="http://purl.org/dc/elements/1.1/">
         <xmp:CreatorTool>Adobe Illustrator CC 22.0 (Macintosh)</xmp:CreatorTool>
         <xmp:CreateDate>2018-01-05T15:06:24+09:00</xmp:CreateDate>
         <xmp:Thumbnails>
            <rdf:Alt>
               <rdf:li rdf:parseType="Resource">
                  <xmpGImg:width>256</xmpGImg:width>
                  <xmpGImg:height>208</xmpGImg:height>
                  <xmpGImg:format>JPEG</xmpGImg:format>
                  <xmpGImg:image>/9j/4AAQSkZJRgABAgEASABIAAD/7QAsUGhvdG9zaG9wIDMuMAA4QklNA+0AAAAAABAASAAAAAEA&#xA;AQBIAAAAAQAB/+4ADkFkb2JlAGTAAAAAAf/bAIQABgQEBAUEBgUFBgkGBQYJCwgGBggLDAoKCwoK&#xA;DBAMDAwMDAwQDA4PEA8ODBMTFBQTExwbGxscHx8fHx8fHx8fHwEHBwcNDA0YEBAYGhURFRofHx8f&#xA;Hx8fHx8fHx8fHx8fHx8fHx8fHx8fHx8fHx8fHx8fHx8fHx8fHx8fHx8fHx8f/8AAEQgA0AEAAwER&#xA;AAIRAQMRAf/EAaIAAAAHAQEBAQEAAAAAAAAAAAQFAwIGAQAHCAkKCwEAAgIDAQEBAQEAAAAAAAAA&#xA;AQACAwQFBgcICQoLEAACAQMDAgQCBgcDBAIGAnMBAgMRBAAFIRIxQVEGE2EicYEUMpGhBxWxQiPB&#xA;UtHhMxZi8CRygvElQzRTkqKyY3PCNUQnk6OzNhdUZHTD0uIIJoMJChgZhJRFRqS0VtNVKBry4/PE&#xA;1OT0ZXWFlaW1xdXl9WZ2hpamtsbW5vY3R1dnd4eXp7fH1+f3OEhYaHiImKi4yNjo+Ck5SVlpeYmZ&#xA;qbnJ2en5KjpKWmp6ipqqusra6voRAAICAQIDBQUEBQYECAMDbQEAAhEDBCESMUEFURNhIgZxgZEy&#xA;obHwFMHR4SNCFVJicvEzJDRDghaSUyWiY7LCB3PSNeJEgxdUkwgJChgZJjZFGidkdFU38qOzwygp&#xA;0+PzhJSktMTU5PRldYWVpbXF1eX1RlZmdoaWprbG1ub2R1dnd4eXp7fH1+f3OEhYaHiImKi4yNjo&#xA;+DlJWWl5iZmpucnZ6fkqOkpaanqKmqq6ytrq+v/aAAwDAQACEQMRAD8A9U4q7FXYq7FXYq7FXYq7&#xA;FXYq7FXYq7FXYq7FXYq7FXYq7FXYq7FXYq7FXYq7FXYq7FXYq7FXYq7FXYq7FXYq7FXYq7FXYq7F&#xA;XYq7FXYq7FXYq7FXYq7FXYq7FXYq7FXYq7FXYq7FXYq7FXYq7FXYq7FXYq7FXYq7FXYq7FXYq7FX&#xA;Yq7FXYq7FXYq7FXYq7FXYq7FXYq7FXYq7FXYq7FXYq7FXYq7FXYq7FXYq7FXYq7FXYq7FXYq7FXY&#xA;q7FXYq7FXYq7FXYq7FXYq7FXYq7FXYq7FXYq7FXYq7FXYq7FXYq7FXYq7FXYq7FXYq7FXYq7FXYq&#xA;7FXYq7FXYq7FXYq7FXYq7FXYq7FXYq7FXYq7FXYq7FXYq7FXYq7FXYq7FXYq7FXYq7FXYq7FXYq7&#xA;FXYq7FXYq7FXYq7FXYq7FXYq7FXYq7FXYq7FXYq7FXYq7FXYq7FXYq7FXYq7FXYq7FXYq7FXYq7F&#xA;XYq7FXYq7FXYq7FXYq7FXYq7FXYq7FXYq7FXYq7FXYq7FXYq7FXYq7FXYq7FXYq7FXYq7FXYq7FX&#xA;Yq7FXYq7FXYq7FXYq7FXYq7FXYq7FXYq7FXYq7FXYq7FXYq7FXYq7FXYq7FXYq7FXYq7FXYq7FXY&#xA;q7FXYq7FXYq7FXYq7FXYq7FXYq7FXYq7FXYq7FXYq7FXYq7FXYq7FXYq7FXYq7FXYq7FXYq7FXYq&#xA;7FXYq7FXYq7FXYq7FXYq7FXYq7FXYq7FXYq7FXYq7FXYq7FXYq7FXYq7FXYq7FXYq7FXYq7FXYq7&#xA;FXYq7FXYq7FXYq7FXYq7FXYq7FXYq7FXYq7FXYq7FXYq7FXYq7FXYq7FXYq7FXYq7FXYq7FXYq7F&#xA;XYq7FXYq7FXYq7FXYq7FXYq7FXYq7FXYq7FXYq7FXYq7FXYq7FXYq7FXYq7FXYq7FXYq7FXYq7FX&#xA;Yq7FXYq7FXYq7FXYq7FXYq7FXYq7FXYq7FXYq7FXYq7FXYq7FXYq7FXYq7FXYq7FXYq7FXYq7FXY&#xA;q7FXYq7FXYq7FXYq7FXYq7FXYq7FXYq7FXYq7FXYq7FXYq7FXYq7FXYq7FXYq7FXYq7FXYq7FXYq&#xA;7FXYq7FXYq7FXYq7FXYq7FXYq7FXYq7FXYq7FXYq7FXYq7FXYq7FXYq7FXYq7FXYq7FXYq7FXYq7&#xA;FXYq7FXYq7FXYq7FXYq7FXYq7FXYq7FXYq7FXYq7FXYq7FXYq7FXYq7FXYq7FXYq7FXYq7FXYq7F&#xA;XYq7FXYq7FXYq7FXYq7FXYq7FXYq7FXYq7FXYq7FXYq7FXYq7FXYq7FXYq7FXYq7FXYq7FXYq7FX&#xA;Yq7FXYq7FXYq7FXYq7FXYq7FXYq7FXYq7FXYq7FXYq7FXYq7FXYq7FXYq7FXYq7FXYq7FXYq7FXY&#xA;q7FXYq7FXYq7FXYq7FXYq7FXYq7FXYq7FXYq7FXYq7FXYq7FXYq7FXYq7FXYq7FXYq7FXYq7FXYq&#xA;7FXYq7FXYq7FXYq7FXYq7FXYq7FXYq7FXYq7FXYq7FXYq7FXYq7FXYq7FXYq7FXYq7FXYq7FXYq7&#xA;FXYq7FXYq7FXYq7FXYq7FXYq7FXYq7FXYq7FXYq7FXYq7FXYq7FXYq7FXYq7FXYq7FXYq7FXYq7F&#xA;XYq7FXYq7FXYq7FXYq7FXYq7FXYq7FXYq7FXYq7FXYq7FXYq7FXYq7FXYq7FXYq7FXYq7FXYq7FX&#xA;Yq7FXYq7FXYq7FXYq7FXYq7FXYq7FXYq7FXYq7FXYq7FXYq7FXYq7FXYq7FXYq7FXYq7FXYq7FXY&#xA;q7FXYq7FXYq7FXYq7FXYq7FXYq7FXYq7FXYq7FXYq7FXYq7FXYq7FXYq7FXYq7FXYq7FXYq7FXYq&#xA;7FXYq7FXYq7FXYq7FXYq7FXYq7FXYq7FXYq7FXYq7FXYq7FXYq7FXYq7FXYq7FXYq7FXYq7FXYq7&#xA;FXYq7FXYq7FXYq7FXYq7FXYq7FXYq7FXYq7FXYq7FXYq7FXYq7FXYq7FXYq7FXYq7FXYq7FXYq7F&#xA;XYq7FXYq7FXYq7FXYq7FXYq7FXYq7FXYq7FXYq7FXYq7FXYq7FXYq7FXYq7FXYq7FXYq7FXYq7FX&#xA;Yq7FXYq7FX//2Q==</xmpGImg:image>
               </rdf:li>
            </rdf:Alt>
         </xmp:Thumbnails>
         <xmpTPg:MaxPageSize rdf:parseType="Resource">
            <stDim:w>309.985838</stDim:w>
            <stDim:h>309.985838</stDim:h>
            <stDim:unit>Millimeters</stDim:unit>
         </xmpTPg:MaxPageSize>
         <xmpTPg:NPages>1</xmpTPg:NPages>
         <xmpTPg:HasVisibleTransparency>False</xmpTPg:HasVisibleTransparency>
         <xmpTPg:HasVisibleOverprint>False</xmpTPg:HasVisibleOverprint>
         <xmpTPg:SwatchGroups>
            <rdf:Seq>
               <rdf:li rdf:parseType="Resource">
                  <xmpG:groupName>初期設定のスウォッチグループ</xmpG:groupName>
                  <xmpG:groupType>0</xmpG:groupType>
               </rdf:li>
            </rdf:Seq>
         </xmpTPg:SwatchGroups>
         <dc:format>image/svg+xml</dc:format>
      </rdf:Description>
   </rdf:RDF>
</x:xmpmeta>
                                                                                                    
                                                                                                    
                                                                                                    
                                                                                                    
                                                                                                    
                                                                                                    
                                                                                                    
                                                                                                    
                                                                                                    
                                                                                                    
                                                                                                    
                                                                                                    
                                                                                                    
                                                                                                    
                                                                                                    
                                                                                                    
                                                                                                    
                                                                                                    
                                                                                                    
                                                                                                    
                           
<?xpacket end="w"?>
	</metadata>
<g id="レイヤー_1_1_">
	<g class="st0">
		<text transform="matrix(1 0 0 1 78.7832 460.9073)" class="st1 st2 st3 st4">S</text>
		<text transform="matrix(1 0 0 1 261.4832 460.9073)" class="st1 st2 st3">ALE</text>
		<text transform="matrix(1 0 0 1 232.0273 736.8956)" class="st1 st5 st6">2017 SUMMER</text>
		<text transform="matrix(1 0 0 1 211.6104 655.1769)" class="st1 st2 st7">UP TO 40%OFF</text>
	</g>
</g>
<g id="レイヤー_3" class="st0">
	<g class="st8">
		<g>
			<path d="M290.8,665v3.9h-21.7c0-1,0.1-1.9,0.5-2.8c0.6-1.5,1.4-2.9,2.6-4.4c1.2-1.4,3-3.1,5.3-5c3.6-2.9,6-5.2,7.2-6.9
				c1.3-1.7,1.9-3.3,1.9-4.8c0-1.6-0.6-2.9-1.7-4s-2.6-1.6-4.5-1.6s-3.5,0.6-4.7,1.7c-1.2,1.2-1.8,2.8-1.8,4.8l-4.1-0.4
				c0.3-3.1,1.3-5.4,3.2-7.1s4.3-2.4,7.4-2.4s5.6,0.9,7.5,2.6c1.8,1.7,2.8,3.9,2.8,6.5c0,1.3-0.3,2.6-0.8,3.9
				c-0.5,1.3-1.4,2.6-2.7,4c-1.2,1.4-3.3,3.3-6.2,5.8c-2.4,2-4,3.4-4.7,4.1c-0.7,0.7-1.3,1.5-1.7,2.2L290.8,665L290.8,665z"/>
			<path d="M297.4,652.7c0-3.9,0.4-7,1.2-9.4c0.8-2.4,2-4.2,3.6-5.5s3.6-1.9,5.9-1.9c1.8,0,3.3,0.4,4.6,1.1c1.3,0.7,2.4,1.7,3.3,3.1
				c0.9,1.3,1.5,3,2,4.9s0.7,4.5,0.7,7.7c0,3.8-0.4,7-1.2,9.3c-0.8,2.4-2,4.2-3.5,5.5c-1.6,1.3-3.6,1.9-6,1.9
				c-3.2,0-5.6-1.1-7.4-3.4C298.4,663.3,297.4,658.9,297.4,652.7z M301.5,652.7c0,5.4,0.6,9,1.9,10.7s2.8,2.7,4.7,2.7
				c1.8,0,3.4-0.9,4.7-2.7s1.9-5.4,1.9-10.7c0-5.4-0.6-9-1.9-10.8s-2.8-2.7-4.7-2.7c-1.8,0-3.3,0.8-4.4,2.3
				C302.2,643.6,301.5,647.3,301.5,652.7z"/>
			<path d="M340.3,668.9h-4v-25.6c-1,0.9-2.2,1.8-3.8,2.8s-3,1.6-4.2,2.1v-3.9c2.3-1.1,4.2-2.3,5.9-3.8s2.9-3,3.6-4.4h2.6v32.8
				L340.3,668.9L340.3,668.9z"/>
			<path d="M353.2,640.4v-3.9h21.2v3.1c-2.1,2.2-4.2,5.2-6.2,8.9s-3.6,7.5-4.8,11.4c-0.8,2.7-1.3,5.7-1.5,9h-4.1
				c0-2.6,0.6-5.7,1.5-9.3c1-3.7,2.4-7.2,4.2-10.6s3.7-6.2,5.8-8.6L353.2,640.4L353.2,640.4z"/>
			<path d="M395.8,658.4l4.1-0.4c0.2,1.6,0.6,3,1.4,4c0.7,1.1,1.8,1.9,3.3,2.5s3.2,1,5,1c1.7,0,3.1-0.2,4.4-0.7s2.2-1.2,2.8-2
				c0.6-0.9,0.9-1.8,0.9-2.8s-0.3-1.9-0.9-2.7s-1.6-1.4-3-1.9c-0.9-0.3-2.8-0.9-5.8-1.6c-3-0.7-5.1-1.4-6.3-2
				c-1.6-0.8-2.7-1.8-3.5-3.1c-0.8-1.2-1.2-2.6-1.2-4.1c0-1.7,0.5-3.2,1.4-4.6c0.9-1.4,2.3-2.5,4.1-3.3c1.8-0.7,3.8-1.1,6-1.1
				c2.4,0,4.6,0.4,6.4,1.2c1.9,0.8,3.3,1.9,4.3,3.5c1,1.5,1.5,3.2,1.6,5.2l-4.2,0.3c-0.2-2.1-1-3.6-2.3-4.7
				c-1.3-1.1-3.2-1.6-5.7-1.6c-2.6,0-4.5,0.5-5.7,1.4c-1.2,1-1.8,2.1-1.8,3.5c0,1.2,0.4,2.1,1.3,2.9c0.8,0.8,3,1.5,6.5,2.3
				s5.9,1.5,7.3,2.1c1.9,0.9,3.3,2,4.2,3.3c0.9,1.3,1.4,2.9,1.4,4.7c0,1.7-0.5,3.4-1.5,4.9s-2.4,2.7-4.3,3.6c-1.9,0.9-4,1.3-6.3,1.3
				c-3,0-5.5-0.4-7.5-1.3c-2-0.9-3.6-2.2-4.7-3.9C396.5,662.5,395.9,660.5,395.8,658.4z"/>
			<path d="M451.6,636.1h4.3V655c0,3.3-0.4,5.9-1.1,7.8c-0.7,1.9-2.1,3.5-4,4.7s-4.5,1.8-7.7,1.8c-3.1,0-5.6-0.5-7.5-1.6
				c-2-1.1-3.3-2.6-4.2-4.6c-0.8-2-1.3-4.7-1.3-8.2V636h4.3v19c0,2.8,0.3,4.9,0.8,6.3c0.5,1.3,1.4,2.4,2.7,3.1
				c1.3,0.7,2.9,1.1,4.7,1.1c3.2,0,5.5-0.7,6.8-2.2c1.4-1.4,2-4.2,2-8.3v-18.9L451.6,636.1L451.6,636.1z"/>
			<path d="M465.4,668.9v-32.8h6.5l7.8,23.2c0.7,2.2,1.2,3.8,1.6,4.9c0.4-1.2,1-2.9,1.7-5.3l7.8-22.8h5.8v32.8h-4.2v-27.4l-9.5,27.4
				H479l-9.5-27.9v27.9L465.4,668.9L465.4,668.9z"/>
			<path d="M505.8,668.9v-32.8h6.5l7.8,23.2c0.7,2.2,1.2,3.8,1.6,4.9c0.4-1.2,1-2.9,1.7-5.3l7.8-22.8h5.8v32.8h-4.2v-27.4l-9.5,27.4
				h-3.9L510,641v27.9H505.8z"/>
			<path d="M546.5,668.9v-32.8h23.7v3.9h-19.4v10h18.1v3.8h-18.1V665h20.1v3.9H546.5z"/>
			<path d="M579.3,668.9v-32.8h14.5c2.9,0,5.1,0.3,6.7,0.9c1.5,0.6,2.7,1.6,3.6,3.1c0.9,1.5,1.4,3.1,1.4,4.9c0,2.3-0.8,4.3-2.3,5.9
				c-1.5,1.6-3.8,2.6-7,3c1.1,0.6,2,1.1,2.6,1.6c1.3,1.2,2.5,2.6,3.6,4.4l5.7,8.9h-5.5l-4.3-6.8c-1.3-2-2.3-3.5-3.1-4.5
				s-1.6-1.8-2.2-2.2c-0.6-0.4-1.3-0.7-2-0.9c-0.5-0.1-1.3-0.2-2.4-0.2h-5v14.6L579.3,668.9L579.3,668.9z M583.6,650.6h9.3
				c2,0,3.5-0.2,4.7-0.6c1.1-0.4,2-1.1,2.5-2c0.6-0.9,0.9-1.9,0.9-2.9c0-1.5-0.6-2.8-1.7-3.8c-1.1-1-2.9-1.5-5.3-1.5h-10.4V650.6z"
				/>
		</g>
		<g>
			<path d="M268.6,601.9c-4.1,0-7.5-1.4-10.3-4.2s-4.2-6.3-4.2-10.3v-47.3h9v47.2c0,1.5,0.5,2.7,1.6,3.7c1,1,2.3,1.5,3.8,1.5
				s2.7-0.5,3.7-1.5s1.5-2.3,1.5-3.7v-47.2h9.6v47.3c0,4.1-1.4,7.5-4.3,10.3C276,600.5,272.6,601.9,268.6,601.9z"/>
			<path d="M304.1,540.1c4.5,0,8.1,1.4,10.7,4.2c2.5,2.7,3.7,6.1,3.7,10.3v8.9c0,4-1.4,7.5-4.2,10.3c-2.8,2.9-6.2,4.3-10.2,4.3h-5.3
				v23h-9.2V540L304.1,540.1L304.1,540.1z M309.6,554.8c0-1.6-0.5-2.9-1.4-3.9c-1-1-2.2-1.5-3.8-1.5h-5.6V569h5.6
				c1.5,0,2.7-0.5,3.7-1.6c1-1,1.5-2.3,1.5-3.8L309.6,554.8L309.6,554.8z"/>
			<path d="M341,549.4h-9.8v-9.3H360v9.3h-9.8v51.9H341V549.4z"/>
			<path d="M380.9,539.3c4.1,0,7.5,1.4,10.4,4.3c2.8,2.9,4.3,6.3,4.3,10.3v33.4c0,4.1-1.4,7.5-4.3,10.4c-2.9,2.8-6.3,4.3-10.3,4.3
				c-4.1,0-7.5-1.4-10.3-4.3s-4.2-6.3-4.2-10.3V554c0-4.1,1.4-7.5,4.3-10.4C373.5,540.7,376.9,539.3,380.9,539.3z M385.9,553.8
				c0-1.5-0.5-2.7-1.5-3.7s-2.3-1.5-3.7-1.5c-1.5,0-2.7,0.5-3.8,1.5c-1,1-1.6,2.3-1.6,3.7v33.5c0,1.5,0.5,2.7,1.6,3.7
				c1,1,2.3,1.5,3.8,1.5s2.7-0.5,3.7-1.5s1.5-2.3,1.5-3.7V553.8z"/>
			<path d="M408.2,578.7l16.3-38.7h9.2v38.7h5.9v9.3h-5.9v13.2h-9.2V588h-16.3V578.7z M424.5,578.7v-19.1l-7.6,19.1H424.5z"/>
			<path d="M475.2,587.3c0,4.1-1.4,7.5-4.3,10.3s-6.3,4.2-10.3,4.2c-4.1,0-7.5-1.4-10.4-4.3c-2.8-2.8-4.3-6.3-4.3-10.3v-33.4
				c0-4.1,1.4-7.5,4.3-10.4c2.9-2.8,6.3-4.3,10.3-4.3c4.1,0,7.5,1.4,10.3,4.3s4.2,6.3,4.2,10.3v33.6L475.2,587.3L475.2,587.3z
				 M465.7,553.7c0-1.5-0.5-2.7-1.6-3.8c-1-1-2.3-1.6-3.8-1.6s-2.7,0.5-3.7,1.6s-1.5,2.3-1.5,3.8v33.4c0,1.5,0.5,2.7,1.5,3.8
				c1,1,2.3,1.6,3.7,1.6s2.7-0.5,3.8-1.6c1-1,1.6-2.3,1.6-3.8V553.7z"/>
			<path d="M496.9,562.5c0,2.1-0.8,3.9-2.3,5.4s-3.3,2.2-5.4,2.2s-3.9-0.7-5.4-2.2s-2.2-3.3-2.2-5.4V545c0-2.1,0.7-3.9,2.2-5.4
				s3.3-2.2,5.4-2.2s3.9,0.8,5.4,2.3s2.2,3.3,2.2,5.4L496.9,562.5L496.9,562.5z M489.9,602.3h-5.4l31.2-64.7h5.4L489.9,602.3z
				 M486.3,562.4c0,0.8,0.3,1.4,0.8,2c0.5,0.5,1.2,0.8,2,0.8s1.4-0.3,2-0.8c0.5-0.5,0.8-1.2,0.8-2V545c0-0.8-0.3-1.4-0.8-2
				c-0.5-0.5-1.2-0.8-2-0.8s-1.4,0.3-2,0.8c-0.5,0.5-0.8,1.2-0.8,2V562.4z M516.4,568.8c2.1,0,3.9,0.8,5.4,2.3s2.2,3.3,2.2,5.4V594
				c0,2.1-0.7,3.9-2.2,5.4s-3.3,2.2-5.4,2.2c-2.1,0-3.9-0.7-5.4-2.2c-1.5-1.5-2.2-3.3-2.2-5.3v-17.5c0-2.1,0.7-3.9,2.2-5.4
				C512.5,569.6,514.3,568.8,516.4,568.8z M519,576.4c0-0.8-0.3-1.4-0.8-2c-0.5-0.5-1.2-0.8-2-0.8s-1.4,0.3-2,0.8
				c-0.5,0.5-0.8,1.2-0.8,2v17.5c0,0.8,0.3,1.4,0.8,2c0.5,0.5,1.2,0.8,2,0.8s1.4-0.3,2-0.8c0.5-0.5,0.8-1.2,0.8-2V576.4z"/>
			<path d="M544.9,539.3c4.1,0,7.5,1.4,10.4,4.3c2.8,2.9,4.3,6.3,4.3,10.3v33.4c0,4.1-1.4,7.5-4.3,10.4c-2.9,2.8-6.3,4.3-10.3,4.3
				c-4.1,0-7.5-1.4-10.3-4.3s-4.2-6.3-4.2-10.3V554c0-4.1,1.4-7.5,4.3-10.4C537.5,540.7,540.9,539.3,544.9,539.3z M550,553.8
				c0-1.5-0.5-2.7-1.5-3.7s-2.3-1.5-3.7-1.5s-2.7,0.5-3.8,1.5c-1,1-1.6,2.3-1.6,3.7v33.5c0,1.5,0.5,2.7,1.6,3.7c1,1,2.3,1.5,3.8,1.5
				s2.7-0.5,3.7-1.5s1.5-2.3,1.5-3.7V553.8z"/>
			<path d="M575.1,601.2h-9.2V540h26.2v9.3h-17V566h12.4v9.3h-12.4V601.2z"/>
			<path d="M607.7,601.2h-9.2V540h26.2v9.3h-17V566h12.4v9.3h-12.4V601.2z"/>
		</g>
		<g>
			<g>
				<path d="M230.1,275c-20.9-14.2-42.2-21.3-63.9-21.3c-14.4,0-25.4,2.3-33.1,6.8c-7.7,4.5-11.5,10.7-11.5,18.7
					c0,8.3,4.1,14.4,12.3,18.2c5.8,2.8,15.4,4.7,28.6,5.7c19.5,1.7,32.3,3.1,38.6,4.2c17.7,3.1,30.7,8.9,39.1,17.4
					c8.4,8.5,12.7,20.5,12.7,36.1c0,19.9-6.6,35.3-19.9,46.2c-13.2,10.9-32.3,16.4-57.1,16.4c-36,0-63.9-10.6-83.9-31.7l12.9-22.6
					c22.1,18,45.8,27,71.3,27c16.5,0,29.3-3,38.4-9.1c8.7-5.9,13-13.9,13-24.1c0-11.9-5.7-19.9-17.1-23.9c-6-2.1-22.1-4.2-48.3-6.5
					c-23.2-2.1-39.5-6.2-48.9-12.5c-10.9-7.3-16.4-19.5-16.4-36.6c0-17.7,6.2-31.6,18.6-41.8s29.9-15.3,52.5-15.3
					c30.4,0,55.8,9.3,76.3,27.8L230.1,275z"/>
				<path d="M444.5,418.8H419l-16.2-42.1h-95l-16.2,42.1H266l74.6-188H370L444.5,418.8z M391.4,348.7l-35.9-91.1l-36.4,91.1H391.4z"
					/>
				<path d="M605.2,418.8H473v-188h23.4v160h108.9L605.2,418.8L605.2,418.8z"/>
				<path d="M782.2,418.8H634.6v-188h142.2v28H658v48.3h82.6v28H658v55.6h124.2V418.8z"/>
			</g>
		</g>
	</g>
</g>
<g>
	<g>
		<g>
			<g>
				<path class="st9" d="M296.2,338.6l3,4.6l-1.1,4.6l-0.5,4.6l-1.3,4.4l-0.1,4.7l-1.6,4.4l-4.2,3.2l-2.2,3.9l-1.1,4.6l-1.3,4.7
					l-3.5,2.9l-3.8,2.3l-3.1,3l-2.8,3.8l-3.5,3.1l-4.3,1.4l-5.4-2.1l-3.8,1L252,399l-3.6,3.8l-4.3-3.6l-4,0.5l-4.7,1.9l-4.4-2.8
					l-4.5-0.5l-5.2,1.7l-3.4-4.5l-5.4,0.8l-4.2-2.2l-3.8-2.9l-3.7-2.4l-3.5-2.7l-3.3-3l-2-4l-1.6-4.2l-2-3.8l-1.7-4l-2.2-3.8
					l-1.6-4.1l-0.8-4.3l-0.4-4.4l-1.1-4.2l-2.7-4l3-4.8l-2.8-4.4l4.5,1.1l4.2-1.9l4.5,2.2l4.1-4l4.3-0.8l4.4,0.6l4.4,0.8l4.1,0.8
					l2.4,3.5l1.2,4.5l-2.7,5.5l2.4,4.3l2,4.4l2.3,4.3l2.8,4l4,2.2l4.3,1l3.6,1.9l4.2,3.1l4.6-2.7l4.4-1.7l3.1-3.6l5.1-1.5l1.1-5
					l3.8-2.8l-1.3-4.7l-0.8-4.1l1.2-4l-0.4-4.6l-1.3-4.4l-0.2-4.9l-1.6-4.6l-2.4-4.2l-4.9-2.3l-1.9-4.6l-4.5-1.7l-2.3-4l-3-3.3
					l-1.3-5.1l-5.2-1l-3-3.3l-2.7-3.6l-4-2.3l-4.1-2.1l-0.5-5.9l-3.8-2.5l-4.5-1.9l-2.9-3.5l-3.4-3l-0.7-5.3l-3.1-3.2l-4.1-2.6
					l-1.9-4.1l-1.9-4.1l-3-3.4l-3.2-3.5l-1.8-4.2l-0.1-4.6l-0.7-4.4l1.8-4.7l-0.5-4.3l1-4.3l-4.4-4.5l0.1-4.5l2.2-4.2l2.7-3.9
					l1.1-4.1l0.1-4.5l1.7-4l2.2-3.8l4.2-2.4l-0.4-5.7l3.7-2.6l4.6-1.4l1.3-5.3l3.3-3.4l5-0.4l4.4-1.1l4.4-0.9l3.8-3.6l4.7,0.8l4.6,2
					l4.4-3.9l4.3,2.6l4.4-0.5l4.4,0l4.7-0.6l3.2,4.5l5.4-1.9l3.2,3.8l4.5,1.1l1.7,5.2l4,1.8l4.3,1.8l3.2,3.1l2,4l1.3,4.3l3.8,3.6
					l-1.4,5.8l3.9,3.8l-1.7,5.4l1.7,4.5l2.3,5.3l-5.2-2.2l-3.6,5.1l-4.5,0.1l-4.3,0.8l-4.6-0.5l-4.3,0.9l-4.5-0.2l-4,0.2l-0.4-2.6
					l0.8-4.5l-4.9-2.9l0.7-4.6l-3.3-2.9l-2.9-2.7l-0.1-5.8l-4.4-1.2l-4-2.2l-4.4,0l-4.4,3.1l-4.5,1.1l-1.9,4.6l-5.9,1.2l0.5,5.4
					l-2,4.1l-0.6,4.5l-2,4.6l1.8,4.6l0.3,4.7l1.4,4.5l1,4.7l1.3,4.7l5.8,1.9l-0.2,5.8l4.5,2.5l4.1,2.3l3.5,2.7l1.6,4.8l2.4,4.1
					l5.6,0.3l0.7,6.2l4.1,2.1l3.6,2.6l2.6,3.7l6.1,0.1l0.1,5.8l4.1,1.9l3.3,2.7l1.9,3.9l3,3l2,3.7l2.7,3.3l1.2,4.1l2.1,3.6l0.8,4.2
					l1.7,3.7l2.2,4.2l1.7,4.4l0.8,4.6l0.5,4.6L296.2,338.6z"/>
			</g>
			<g>
				<path class="st9" d="M362.2,341.8l-1.9,5.7l2.6,5.1l0,4.7l-2.7,4.3l1.4,5l-3.3,4.2l-1.8,4.4l2.9,5.2l-1.1,4.6l-1.9,4.4l-2,4.4
					l-1.4,2.9l-3.2,1.8l-4.7,1.7l-4.7-2l-4.7-0.7l-4.7,1.8l-4.7-0.4l-4.7,0.7l-4.4-1.4l-1-4.4l0.9-4.4l3.3-4l1.6-4.3l-3.2-5.1
					l4.9-3.8L320,367l2.2-4.2l2.7-4.1l0.7-4.5l-2-4.9l1.5-4.3l1.3-4.4l0.4-4.5l1.9-4.3l2.4-4.2l-1.6-4.9l1.4-4.4l1.3-4.4l-0.6-4.7
					l-0.9-4.7l5-3.7l-1.8-4.9l1.3-4.4l0.9-4.4l2.3-4.2l0.2-4.5l1.2-4.4l-1.4-4.8l-0.2-4.6l3.5-4l0.3-4.5l0.8-4.5l-2-4.9l2.9-4.1
					l2.4-4.2l-0.1-4.6l-2.3-5l4.9-3.8l-3.2-5.1l4.7-3.8l-1.7-4.9l0.4-4.5l1.1-4.4l2.3-4.2l1.2-4.4l0-4.6l-0.9-4.7l-0.5-4.7l1.8-4.3
					l0.7-4.5l0.1-4.6l3.8-4l1-2.9l3-2.8l4.5,3.1l4.5-3.5l4.5,1.3l4.5-0.3l4.5-0.8l4.5,2.5l4.5,1l4.5-0.5l4.6-4.2l3.5,3.6l1.1,3.4
					l2.3,4.2l0.2,4.5l0.9,4.4l-1.9,4.9l0.3,4.5l3.1,4.1l2.2,4.2l-3,5.1l0.7,4.5l3.8,3.9l-1.9,4.9l0.2,4.5l1.2,4.4l4.6,3.8l-0.1,4.6
					l-0.6,4.7l-1.3,4.8l4.1,3.9l-1.1,4.8l-0.1,4.6l1.1,4.4l3,4.1l-1.3,4.8l0.7,4.5l3.3,4l-0.8,4.7l2.7,4.1l-2.7,5l1.2,4.4l3.1,4.1
					l-0.7,4.7l2.2,4.2l-2.2,5l2.3,4.2l-1,4.8l4.3,3.9l-3,5.1l3.3,4l-1.8,4.9l3.7,4l-1.3,4.8l3.1,4.1l-0.1,4.6l-1.5,4.8l4.3,3.9
					l0.6,4.5l-1.5,4.8l1.2,4.4l2.8,4.1l1.4,4.4l0.8,4.5l-2.8,5.1l0.8,3.3l-3.7,1.4l-4.8-1l-4.8-0.9l-4.8-0.6l-4.8,2.3l-4.8,2.3
					l-4.8-4l-6.1,3.3l1.2-6.3l-3.6-4.2l3.1-5.2l0.3-4.8l-3.5-4.2l1.1-4.9l-2.4-4.4l1.5-4.9l-3.6-4.2l1.1-4.9l-0.5-4.7l-2.4-3.6
					l-4-0.4l-4.7-1.3l-4.7,1.3l-4.7-2l-4.7,4l-4.7-3.9l-4.7,0.8L362.2,341.8z M382.5,210.9l-3.1,6l2.7,5l0.1,4.6l-2.6,4.2l1.5,4.8
					l-3.2,4.2l-1.7,4.4l3,5l-1,4.5l-1.8,4.4l-1.9,4.3l-2.2,4.3l1.7,4.9l1.1,4.8l-2.6,4.2l-1.4,4.4l1.2,4.8l-1,4.5l0,4.6l-2.1,4.3
					l0.9,3.7l3.4-0.4l4.5,2.6l4.5,0.8l4.5-4l4.5,4.2l2.9-3.7l0.4-3.1l1.3-4.8l-0.7-4.5l-3.4-4.1l0.1-4.6l-0.1-4.6l-1-4.5l0.5-4.7
					l1.1-4.8l-3-4.2l0-4.6l-0.1-4.6l-2-4.3l-2.3-4.3l3.6-5.1l-3.3-4.2l-0.1-4.6l-0.5-4.5l0.9-4.7l-1.2-4.4L382.5,210.9z"/>
			</g>
			<g>
				<path class="st9" d="M571.7,398.1l-4-0.9l-4.5,2.6l-4.5,0.4l-4.5-0.2l-4.5-0.5l-4.5-2.9l-4.5,3.2l-4.5,0.9l-4.5-1.2l-4.5-2.6
					l-4.5,2.5l-4.5,1.5l-4.5-1.6l-4.5-1.2l-4.5,1.3l-4.5-0.6l-4.5-1l-4.5-1.1l-4.5,1.9l-4.5-0.7l-4.5,1.6l-5.7,0.1l1.1-5.6l-1-4.5
					l-1.1-4.5l4.1-4.5l0.3-4.5l-4.4-4.5l2-4.5l-0.7-4.5l2.4-4.5l-1.1-4.5l-2.2-4.5l0.4-4.5l0.1-4.5l3.3-4.5l0.3-4.5l-4.6-4.5l3-4.5
					l1.2-4.5l-2.8-4.5l2.2-4.5l-1.7-4.5l0.8-4.5l0.9-4.5l-2.1-4.5l-1.7-4.5l4.5-4.5l-1.8-4.5l0.3-4.5l0.6-4.5l-0.6-4.5l-2.4-4.5
					l3.5-4.5l-1.8-4.5l-1-4.5l0.6-4.5l0.9-4.5l1.2-4.5l-0.7-4.5l-1.5-4.5l-1.1-4.5l2-4.5l2.1-4.5l-2.4-4.5l-0.2-4.5l2.5-4.5
					l-1.9-4.5l-2.6-4.5l0.9-4.5l0-4.5l3.6-4.5l-2-4.5l-0.5-4.5l-1.8-4.5l0.6-5.9l6,1.3l4.5,0.1l4.5,2.1l4.5-4.1l4.5,1.1l4.5-1.1
					l4.5,4l3.8-1.3l-0.2,3.7l-1.5,4.5l4.7,4.4l-3,4.4l0.8,4.4l0.2,4.5l-0.1,4.5l1.4,4.4l-2.8,4.4l2.4,4.4l-1.8,4.4l2.7,4.5l-1.8,4.5
					l-1.7,4.4l3.3,4.4l0.5,4.5l-1.6,4.5l1.1,4.5l-1.7,4.5l2.1,4.5l-3.4,4.5l1.4,4.5l-1.9,4.5l0.1,4.5l-0.2,4.5l2.3,4.5l-1.6,4.5
					l2.6,4.5l-2.9,4.5l1.6,4.5l-2.3,4.5l2.5,4.5l-1.9,4.5l1.7,4.5l-1,4.5l-0.4,4.5l-1,4.5l-0.1,4.5l4.4,4.5l-0.3,4.5l-2.4,4.5
					l-0.3,4.5l3,4.5l0.1,4.5l-0.2,4.5l-2.7,5.1l5.1,1.1l4.5-1.4l4.5,1.2l4.5-0.5l4.5,0.6l4.5-4l4.5,1.4l4.5-1.2l4.5,2l4.5,0.3
					l4.5-0.1l4.5,0.8l4.5,0.9l4.8-2.2l0.4,4.8l-0.9,4.5l2.3,4.5l-3.6,4.5l1.7,4.5l0.9,4.5l-1.8,4.5L571.7,398.1z"/>
			</g>
			<g>
				<path class="st9" d="M596.7,399.1l0-5l-1.2-4.5l3.7-4.5l-4.1-4.5l3.8-4.5l-1.5-4.5l-2.6-4.5l2.9-4.5l-1.9-4.5l3.6-4.5l-4.3-4.5
					l-0.4-4.5l0.9-4.5l3.7-4.5l0.3-4.5l-2.3-4.5l1.4-4.5l-0.5-4.5l-3.1-4.5l-0.4-4.5l3.4-4.5l-2.3-4.5l-0.5-4.5l1.8-4.5L596,287
					l1.5-4.5l-0.1-4.5l-1.2-4.5l0.3-4.5l2-4.5l-2.3-4.5l0.5-4.5l-0.9-4.5l1.4-4.5l-0.3-4.5l2.1-4.5l-0.1-4.5l-2.2-4.5l2.7-4.5
					l-1-4.5l-2.6-4.5l3.5-4.5l-2.9-4.5l-0.6-4.5l-1.2-4.5l1.6-4.5l2.8-4.5l-1.7-4.5l1.6-4.5l-3.5-4.5l0.1-4.5l1.3-4.5l-1.8-4.5
					l3.7-2.9l2.9-1.3l4.5,0.7l4.5,0.4l4.5-1.1l4.5-2.4l4.5,2.3l4.5-1.3l4.5,2.9l4.5-4.1l4.5,0.6l4.5,2.7l4.5-3.3l4.5,4.7l4.5-3.2
					l4.5,1.5l4.5-1.4l4.5,2.7l4.5-4.4l4.5,1.7l4.5-1.6l4.5,1.9l4.5,1.6l5.4-2.1l1.6,5.5l-4.4,4.6l4,4.6l-4.2,4.6l2.8,4.6l-0.7,4.6
					l2.3,4.6l-3.7,3.2l-3,3.9l-4.5-3l-4.5,2.7l-4.5-4.2l-4.5,3.2l-4.5-2.4l-4.5,2.8l-4.5,0.1l-4.5-1.8l-4.5-1.7l-4.5,0.9l-4.5,1.7
					l-4.5,1.8l-4.5-3.7l-5.4,0.3l-0.1,5.3l-0.8,4.4l3.2,4.4l-2.2,4.4l2.1,4.4l-0.6,4.4l-0.9,4.4l-1.8,4.4l4.4,4.4l-1.7,4.4l-3.1,4.4
					l1.6,4.4l-0.3,4.4l1.9,4.4l-0.3,3.9l4-0.8l4.5,2.1l4.5-1.1l4.5,0.6l4.5,1.7l4.5-3.5l4.5,0.4l4.5,1.4l4.5-0.7l4.5,1.4l5.3-1.7
					l0.7,5.4l-3.6,4.6l3.9,4.6l-0.2,4.6l0.5,4.6l-3.1,4.6l0.8,4.6l0.1,4.5l-4.3,2.3l-4.5-4.6l-4.5,4.2l-4.5-3.3l-4.5,2.5l-4.5-1.1
					l-4.5,0.7l-4.5-2.3l-4.5,0.4l-4.5,1.5l-4,0.4l-0.9,3.9l2.4,4.4l-2.8,4.4l-0.1,4.4l2.1,4.4l0.1,4.4l0.2,4.4l-0.8,4.4l-0.7,4.4
					l0.1,4.4l0,4.4l1.3,4.4l-1.1,4.4l-2,4.4l2.1,3.9l4-0.7l4.5,2.5l4.5-1.8l4.5,2.4l4.5-2.5l4.5,2.2l4.5-4l4.5,3.6l4.5-1.6l4.5,0.4
					l4.5-1.4l4.5,1.3l4.5-1.4l4.5,3.1l4.6-1.8l0,4.7l1.1,4.6l0.9,4.6l-0.8,4.6l0.2,4.6l-0.1,4.6l-1.4,4.6l1.2,5.8l-5.8-2.2l-4.5,0.6
					l-4.5,0.6l-4.5-1.1l-4.5-1.4l-4.5,4.4l-4.5-1.6l-4.5,0.4l-4.5-0.3l-4.5-0.3l-4.5-0.7l-4.5,1.3l-4.5-0.2l-4.5-0.3l-4.5,0.6
					l-4.5-0.7l-4.5-1l-4.5-1.8l-4.5,3.8l-4.5,0.9l-4.5-4.6l-4.4,4L596.7,399.1z"/>
			</g>
		</g>
	</g>
	<g>
		<path class="st9" d="M289.2,694h4v17.4c0,3-0.3,5.4-1,7.2s-1.9,3.2-3.7,4.3s-4.1,1.7-7,1.7c-2.8,0-5.1-0.5-6.9-1.5
			c-1.8-1-3.1-2.4-3.8-4.2s-1.1-4.4-1.1-7.5V694h4v17.4c0,2.6,0.2,4.5,0.7,5.8c0.5,1.2,1.3,2.2,2.5,2.9c1.2,0.7,2.6,1,4.3,1
			c2.9,0,5-0.7,6.3-2c1.2-1.3,1.9-3.9,1.9-7.6V694z"/>
		<path class="st9" d="M301.9,724.1V694h11.3c2,0,3.5,0.1,4.6,0.3c1.5,0.2,2.7,0.7,3.7,1.4c1,0.7,1.8,1.7,2.4,2.9
			c0.6,1.2,0.9,2.6,0.9,4.1c0,2.6-0.8,4.7-2.4,6.5c-1.6,1.8-4.6,2.7-8.8,2.7h-7.7v12.2H301.9z M305.8,708.3h7.8
			c2.6,0,4.4-0.5,5.5-1.4s1.6-2.3,1.6-4c0-1.3-0.3-2.3-1-3.2c-0.6-0.9-1.5-1.5-2.5-1.8c-0.7-0.2-1.9-0.3-3.7-0.3h-7.7V708.3z"/>
		<path class="st9" d="M353.4,724.1v-26.5h-9.9V694h23.8v3.5h-9.9v26.5H353.4z"/>
		<path class="st9" d="M372.3,709.5c0-5,1.3-8.9,4-11.7c2.7-2.8,6.1-4.2,10.4-4.2c2.8,0,5.3,0.7,7.5,2c2.2,1.3,3.9,3.2,5.1,5.5
			c1.2,2.4,1.8,5.1,1.8,8.1c0,3-0.6,5.8-1.8,8.2s-3,4.2-5.2,5.5c-2.3,1.2-4.7,1.9-7.3,1.9c-2.8,0-5.4-0.7-7.6-2.1
			c-2.2-1.4-3.9-3.2-5.1-5.6C372.9,714.6,372.3,712.1,372.3,709.5z M376.4,709.5c0,3.6,1,6.5,2.9,8.6c1.9,2.1,4.4,3.1,7.3,3.1
			c3,0,5.5-1.1,7.4-3.2c1.9-2.1,2.9-5.1,2.9-9c0-2.4-0.4-4.6-1.2-6.4c-0.8-1.8-2-3.2-3.6-4.2c-1.6-1-3.4-1.5-5.4-1.5
			c-2.8,0-5.2,1-7.3,2.9C377.4,701.8,376.4,705,376.4,709.5z"/>
		<path class="st9" d="M432.4,724.1v-7.2h-13v-3.4l13.7-19.5h3v19.5h4.1v3.4h-4.1v7.2H432.4z M432.4,713.5V700l-9.4,13.6H432.4z"/>
		<path class="st9" d="M446,709.3c0-3.6,0.4-6.4,1.1-8.6c0.7-2.2,1.8-3.8,3.3-5c1.4-1.2,3.3-1.8,5.4-1.8c1.6,0,3,0.3,4.2,1
			s2.2,1.6,3,2.8c0.8,1.2,1.4,2.7,1.9,4.5s0.7,4.1,0.7,7.1c0,3.5-0.4,6.4-1.1,8.5c-0.7,2.2-1.8,3.8-3.3,5c-1.4,1.2-3.3,1.8-5.5,1.8
			c-2.9,0-5.2-1-6.8-3.1C447,719,446,714.9,446,709.3z M449.8,709.3c0,4.9,0.6,8.2,1.7,9.9c1.2,1.6,2.6,2.5,4.3,2.5s3.1-0.8,4.3-2.5
			s1.7-4.9,1.7-9.8c0-4.9-0.6-8.2-1.7-9.9s-2.6-2.4-4.3-2.4c-1.7,0-3,0.7-4.1,2.2C450.4,701,449.8,704.3,449.8,709.3z"/>
		<path class="st9" d="M472.2,701.3c0-2.1,0.5-4,1.6-5.5s2.6-2.3,4.7-2.3c1.9,0,3.4,0.7,4.7,2s1.9,3.3,1.9,5.9
			c0,2.5-0.6,4.5-1.9,5.9c-1.3,1.4-2.8,2.1-4.6,2.1c-1.8,0-3.3-0.7-4.5-2C472.8,706,472.2,704,472.2,701.3z M478.6,696.1
			c-0.9,0-1.7,0.4-2.3,1.2c-0.6,0.8-0.9,2.2-0.9,4.4c0,1.9,0.3,3.3,0.9,4.1c0.6,0.8,1.4,1.2,2.3,1.2c0.9,0,1.7-0.4,2.3-1.2
			c0.6-0.8,0.9-2.2,0.9-4.3c0-1.9-0.3-3.3-0.9-4.1C480.3,696.5,479.5,696.1,478.6,696.1z M478.6,725.2l16.4-31.7h3l-16.4,31.7H478.6
			z M491.6,717c0-2.2,0.5-4,1.6-5.5c1.1-1.5,2.7-2.2,4.7-2.2c1.9,0,3.4,0.7,4.7,2s1.9,3.3,1.9,5.9c0,2.5-0.6,4.5-1.9,5.9
			c-1.3,1.4-2.8,2.1-4.6,2.1c-1.8,0-3.3-0.7-4.5-2C492.2,721.8,491.6,719.8,491.6,717z M498.1,711.9c-0.9,0-1.7,0.4-2.3,1.2
			s-0.9,2.2-0.9,4.4c0,1.9,0.3,3.3,0.9,4.1s1.4,1.2,2.3,1.2c0.9,0,1.7-0.4,2.3-1.2c0.6-0.8,0.9-2.2,0.9-4.3c0-1.9-0.3-3.3-0.9-4.1
			C499.7,712.3,499,711.9,498.1,711.9z"/>
		<path class="st9" d="M525,709.5c0-5,1.3-8.9,4-11.7c2.7-2.8,6.1-4.2,10.4-4.2c2.8,0,5.3,0.7,7.5,2s3.9,3.2,5.1,5.5
			c1.2,2.4,1.8,5.1,1.8,8.1c0,3-0.6,5.8-1.8,8.2c-1.2,2.4-3,4.2-5.2,5.5c-2.3,1.2-4.7,1.9-7.3,1.9c-2.8,0-5.4-0.7-7.6-2.1
			c-2.2-1.4-3.9-3.2-5.1-5.6C525.6,714.6,525,712.1,525,709.5z M529.1,709.5c0,3.6,1,6.5,2.9,8.6c1.9,2.1,4.4,3.1,7.3,3.1
			c3,0,5.5-1.1,7.4-3.2c1.9-2.1,2.9-5.1,2.9-9c0-2.4-0.4-4.6-1.2-6.4c-0.8-1.8-2-3.2-3.6-4.2c-1.6-1-3.4-1.5-5.4-1.5
			c-2.8,0-5.2,1-7.3,2.9C530.1,701.8,529.1,705,529.1,709.5z"/>
		<path class="st9" d="M561.2,724.1V694h20.3v3.5h-16.3v9.3h14.1v3.5h-14.1v13.7H561.2z"/>
		<path class="st9" d="M588.9,724.1V694h20.3v3.5h-16.3v9.3H607v3.5h-14.1v13.7H588.9z"/>
	</g>
	<g>
		<path class="st9" d="M229.9,573.5v18.3c1.3-1.8,3.1-3.2,5.4-4.2c1.2-0.5,2.7-0.7,4.3-0.7c5.6,0,9.8,2,12.4,5.9
			c2.3,3.4,3.5,8.2,3.5,14.4v18.3c0,6.3-2,11.4-6,15.5c-3.8,3.9-8.6,5.8-14.4,5.8c-5.6,0-10.3-2-14-6.1c-3.6-3.9-5.4-8.6-5.4-14.3
			v-2l12.3-1l0.3,2.9c0.3,3.4,1.7,5.7,4.1,6.8c0.7,0.4,1.5,0.5,2.3,0.5c5.3,0,7.9-2.7,7.9-8.2v-20.8c0-2.5-0.9-4.5-2.7-6.2
			c-0.9-0.8-2.1-1.2-3.6-1.2c-2.3,0-4,0.9-5,2.6c-0.9,1.5-1.4,3.2-1.4,4.9v2.3h-12.8v-46.5h37.5v12.9H229.9z"/>
		<path class="st9" d="M321.2,625.4c0,5.6-2,10.4-5.9,14.4c-3.9,4-8.7,6-14.3,6h-20.2v-85.1h20.2c5.6,0,10.4,2,14.3,6
			c3.9,4,5.9,8.8,5.9,14.3V625.4z M293.7,633.1h7.7c2,0,3.8-0.7,5.2-2.2c1.4-1.5,2.1-3.2,2.1-5.2v-44.5c0-2-0.7-3.8-2.1-5.2
			c-1.4-1.4-3.1-2.2-5.1-2.2h-7.7V633.1z"/>
		<path class="st9" d="M341.3,626.2l-3.1,19.5h-13.4l14.5-85H357l14.3,85h-13.5l-3-19.5H341.3z M348.1,580.2l-4.7,33.5h9.5
			L348.1,580.2z"/>
		<path class="st9" d="M389.5,610.2l-17.2-49.5h14.1l9.5,30.5l9.4-30.5h14.2l-17.2,49.5v35.6h-12.8V610.2z"/>
		<path class="st9" d="M463,624.6c0.1,5.9-1.4,11-4.6,15.2c-2.1,2.9-5,4.9-8.8,6c-2,0.6-4.4,1-7.1,1c-5,0-9.2-1.2-12.5-3.7
			c-2.8-2-4.9-4.8-6.5-8.3c-1.6-3.5-2.5-7.5-2.8-12l12.2-0.9c0.5,5,1.9,8.5,3.9,10.8c1.5,1.7,3.3,2.5,5.3,2.4c2.8-0.1,5-1.5,6.7-4.1
			c0.9-1.3,1.3-3.2,1.3-5.6c0-3.5-1.6-7-4.8-10.5c-2.5-2.4-6.3-6-11.4-10.8c-4.3-4.1-7.3-7.8-9-11.1c-1.9-3.7-2.8-7.7-2.8-12
			c0-7.7,2.6-13.6,7.8-17.6c3.2-2.4,7.2-3.6,11.9-3.6c4.6,0,8.5,1,11.7,3.1c2.5,1.6,4.6,3.8,6.1,6.7c1.6,2.9,2.5,6.1,2.8,9.8
			l-12.3,2.2c-0.4-3.5-1.4-6.2-3-8.1c-1.2-1.4-2.9-2.1-5.1-2.1c-2.4,0-4.1,1-5.4,3.1c-1,1.7-1.5,3.8-1.5,6.2c0,3.9,1.7,7.8,5,11.9
			c1.3,1.5,3.2,3.3,5.7,5.4c3,2.5,5,4.2,5.9,5.2c3.2,3.2,5.6,6.3,7.3,9.4c0.8,1.4,1.5,2.8,2,4C462.3,619.5,463,622.2,463,624.6z"/>
		<path class="st9" d="M523.4,645.8h-35v-85h12.8V633h22.1V645.8z"/>
		<path class="st9" d="M532.2,645.8v-85.1h36.5v12.9H545v23.2h17.3v12.9H545v23.2h23.7v12.9H532.2z"/>
		<path class="st9" d="M590.3,645.8h-12.8v-85.1H614v12.9h-23.7v23.2h17.3v12.9h-17.3V645.8z"/>
		<path class="st9" d="M636.5,573.7h-13.6v-12.9h40v12.9h-13.6v72.1h-12.8V573.7z"/>
	</g>
	<rect x="50.8" y="478.2" class="st9" width="777" height="3.5"/>
</g>
</svg>
