<?xml version="1.0" encoding="utf-8"?>
<!-- Generator: Adobe Illustrator 22.0.0, SVG Export Plug-In . SVG Version: 6.00 Build 0)  -->
<!DOCTYPE svg PUBLIC "-//W3C//DTD SVG 1.1//EN" "http://www.w3.org/Graphics/SVG/1.1/DTD/svg11.dtd">
<svg version="1.1" id="レイヤー_1" xmlns="http://www.w3.org/2000/svg" xmlns:xlink="http://www.w3.org/1999/xlink" x="0px"
	 y="0px" viewBox="0 0 878.7 878.7" style="enable-background:new 0 0 878.7 878.7;" xml:space="preserve">
<style type="text/css">
	.st0{display:none;}
	.st1{display:inline;fill:#231815;}
	.st2{font-family:'Bebas';}
	.st3{font-size:356.6411px;}
	.st4{letter-spacing:-6;}
	.st5{font-family:'ArialMT';}
	.st6{font-size:55.3148px;}
	.st7{font-size:82.9722px;}
	.st8{display:inline;}
	.st9{fill:#231815;}
	.st10{fill:none;stroke:#231815;stroke-width:3.6484;stroke-miterlimit:10;}
</style>
<metadata><?xpacket begin="﻿" id="W5M0MpCehiHzreSzNTczkc9d"?>
<x:xmpmeta xmlns:x="adobe:ns:meta/" x:xmptk="Adobe XMP Core 5.6-c143 79.161210, 2017/08/11-10:28:36        ">
   <rdf:RDF xmlns:rdf="http://www.w3.org/1999/02/22-rdf-syntax-ns#">
      <rdf:Description rdf:about=""
            xmlns:xmp="http://ns.adobe.com/xap/1.0/"
            xmlns:xmpGImg="http://ns.adobe.com/xap/1.0/g/img/"
            xmlns:xmpTPg="http://ns.adobe.com/xap/1.0/t/pg/"
            xmlns:stDim="http://ns.adobe.com/xap/1.0/sType/Dimensions#"
            xmlns:xmpG="http://ns.adobe.com/xap/1.0/g/"
            xmlns:dc="http://purl.org/dc/elements/1.1/"
            xmlns:xmpMM="http://ns.adobe.com/xap/1.0/mm/"
            xmlns:stEvt="http://ns.adobe.com/xap/1.0/sType/ResourceEvent#">
         <xmp:CreatorTool>Adobe Illustrator CC 22.0 (Macintosh)</xmp:CreatorTool>
         <xmp:CreateDate>2017-12-07T16:44:06+09:00</xmp:CreateDate>
         <xmp:Thumbnails>
            <rdf:Alt>
               <rdf:li rdf:parseType="Resource">
                  <xmpGImg:width>256</xmpGImg:width>
                  <xmpGImg:height>212</xmpGImg:height>
                  <xmpGImg:format>JPEG</xmpGImg:format>
                  <xmpGImg:image>/9j/4AAQSkZJRgABAgEASABIAAD/7QAsUGhvdG9zaG9wIDMuMAA4QklNA+0AAAAAABAASAAAAAEA&#xA;AQBIAAAAAQAB/+4ADkFkb2JlAGTAAAAAAf/bAIQABgQEBAUEBgUFBgkGBQYJCwgGBggLDAoKCwoK&#xA;DBAMDAwMDAwQDA4PEA8ODBMTFBQTExwbGxscHx8fHx8fHx8fHwEHBwcNDA0YEBAYGhURFRofHx8f&#xA;Hx8fHx8fHx8fHx8fHx8fHx8fHx8fHx8fHx8fHx8fHx8fHx8fHx8fHx8fHx8f/8AAEQgA1AEAAwER&#xA;AAIRAQMRAf/EAaIAAAAHAQEBAQEAAAAAAAAAAAQFAwIGAQAHCAkKCwEAAgIDAQEBAQEAAAAAAAAA&#xA;AQACAwQFBgcICQoLEAACAQMDAgQCBgcDBAIGAnMBAgMRBAAFIRIxQVEGE2EicYEUMpGhBxWxQiPB&#xA;UtHhMxZi8CRygvElQzRTkqKyY3PCNUQnk6OzNhdUZHTD0uIIJoMJChgZhJRFRqS0VtNVKBry4/PE&#xA;1OT0ZXWFlaW1xdXl9WZ2hpamtsbW5vY3R1dnd4eXp7fH1+f3OEhYaHiImKi4yNjo+Ck5SVlpeYmZ&#xA;qbnJ2en5KjpKWmp6ipqqusra6voRAAICAQIDBQUEBQYECAMDbQEAAhEDBCESMUEFURNhIgZxgZEy&#xA;obHwFMHR4SNCFVJicvEzJDRDghaSUyWiY7LCB3PSNeJEgxdUkwgJChgZJjZFGidkdFU38qOzwygp&#xA;0+PzhJSktMTU5PRldYWVpbXF1eX1RlZmdoaWprbG1ub2R1dnd4eXp7fH1+f3OEhYaHiImKi4yNjo&#xA;+DlJWWl5iZmpucnZ6fkqOkpaanqKmqq6ytrq+v/aAAwDAQACEQMRAD8A9U4q7FXYq7FXYq0zKil3&#xA;IVVBLMTQADqScVYb5n/OT8tPLUkUWqa9bCaV+BhtibqRPFpEgEjIv+sN+2NppIx/zkr+TYknjk1x&#xA;kMDmNT9VunWSgHxxtHE44k7CtPu3wWvCWbeXPOXlbzLB62hapbagFjjlljgkVpI1mHJPVjB5Rk+D&#xA;AHCik5xV2KuxVLNb80eXNCNuNa1O20760XFv9alSIP6S83pyI+yvX6PEYqkVl+cH5X3s8EFt5msH&#xA;mudoUMwQk+B5ceJ8A1MbTScab5y8q6prNzounapbXmqWkS3FzbQSCRkjc8Q1VqvWlQDUVFeoqopO&#xA;MVdiqQa35/8AJehanHpeta1aabfSxLPHDdSCLlG7sisGei/aRh17YppK4Pzl/K2fVG0uPzLZfXEd&#xA;42DuUj5RCrUmcLER4HlQ9q42tFmSsrqHQhlYAqwNQQehBxQ3irsVUrq7tbS2luruZLe2hUvNPKwS&#xA;NEUVLMzEAAeJxVi2ofm5+WFhbRXNx5o04wzMEjMNwk7Ek0rxhMjAA9SRQd8bTSFn/O/8poJLZH8z&#xA;2RN27RxFGaRQymh9RkVliH+VIVBwWtFWi/OX8rJLdbhfNFgsTGQLzlCMTC3F/hfi3X7O3xDdajDa&#xA;0UNefnr+UlnfGym8zWpmVkQmISyxVkXkp9aNHipTqeVF70wWtFlOh+ZvL2vxTTaJqVtqcNu4imlt&#xA;ZVmRXKh+PJCV+ywwoTLFXYq7FXYq7FXYq7FXYq7FXy9/zk1+ctzLc3nkLRnt5NOKRjVryNmaX1kk&#xA;5NbgqQi8eA5jfw23yJLOIfOGBk7FU08seZdY8s65a63pE3oX9m3KJyOSmooysp+0rA0IxV9rfkh+&#xA;bH/KxPLc9zdwR2us6fKIb+CGvpkOOUcqBizKr0IoSdwckC1kU9Gwodir4o/5yd8wS6p+a19aerI1&#xA;tpMUNrDG5IVWMYkkKKelWfc96eFMiWyPJ5NgS9P/AOcari/h/OLRVtORSZbmO7RTxDQm3kY8q9Qr&#xA;KrU8QMIRLk+4ck1uxV8o/wDOYyaYPNegvHIDqhsHW5hoai3EzGBuXTdzKKe2RLOL5+VuLBgASCDQ&#xA;io28QcDJ+kHl+4u7nQdOubx45Lue1hkneBWSIu8YZiisSwWp2BybUj8Vdirz/wDP2wur78oPMsNr&#xA;EksqW6TlZCABHbzJNKwqR8SxozL74Ckc3wfkWx2KuxV2Kvsb/nEyCFPyymmT0TJLqEwlMcbJKCip&#xA;RZXP2zQ1XjsAada5IMJPasLF2KuxV2KuxV2KuxV2KpT5t8zad5Y8t6hr+otxtNPhMrgdWbZURf8A&#xA;KdyFHucVD86J55p5pJ5nMk0rF5JGNWZmNSSfEnINr0P8i/yug/MHzZJZ300kGl6dEt3eFE5eqBKi&#xA;i35hk9MyKWo2/wBk7YQEE0+qPMn5G/l/qPk+40DTtFstPmELpp18IeUsMpB4yNLUSv8AF15Oa4aY&#xA;W+HdZ0q70jV73SrwAXVhPJbT8SSvOJijFSQKgkbHItj1b/nFTVpbL81Y7VBFw1KzuLeUyEhuKATj&#xA;06GhblCOv7NcIRLk+zsk1uxV8EfnjrVhrX5r+Y7+wH+jG4WBTQAM1rElu7inZniLDIlsHJg2BLIv&#xA;y51C40/z5oF1BqA0t0voA1+9eEaO4Vy4FKoUJDA7EddsVL9DgQRUdMm1OxV8p/8AOYun6fH5m0DU&#xA;Elc6hc2ckE8BqUWGCXlEynxZpnBHt98Szi+e8DJ+jflJWXypoqtIZmFhbAysnpM5EK/EY9+BPXj2&#xA;ybUU1xV2KsA/PrUb3T/yj8yT2kSSySW628gkAIWK5kWGRqHuqSEj33wFI5vg7Itj2H8o/wAh7H8x&#xA;fJt5qcOsHT9XtdQ+rGJkWWL6uI435sgKyBiXbieVDxp74QEE09D1L/nDfSGsoV0zzHcR3y/70SXM&#xA;CSRP/qIjRsn0s2GmPEtm/wCcNdL9MCHzNOJPUjLM9shAiC/vAFEg+Jm3U1oBsQeuNLxPWPyj/LSL&#xA;8vfKx0Zb57+ead7m5nI4R+owC/u46twHBFruanfEIJtm2FDsVdirsVdirsVdirsVYn+bFjpV9+Wv&#xA;mWHVVD2S6fPOwJYUe3X1om+HeqyxqRiUh+feQbH0p/zhpe2Yn802LKovHW0njffm0SGVXHhRWdfv&#xA;yQYyfTmFg8186/8AOP8A5E84+Yp9f1h74XtwsaOsEypHSJAi0Uxseg8cFJBRfkr8i/y68oXZvdNs&#xA;Wnvqo0d3dv60kbRkkNEaKEJr8XEb9OmNKSz/AAoQuq38Wn6Zd38rRpHawvMzTyCGIcFLfHIQ3Bdt&#xA;2ptir84dSu/rmo3V3wEX1iaSX0wxYLzYtx5Hc0r1yDamNtpljL5O1HU2WQX1pf2dvG9f3ZiuYbl2&#xA;WgGzVtwa16fiqlMEixzRyMgkVGDFG6MAa0PzxV+ivlDzNpvmfy1p+vaarpZX8XqRJIvF1oSjKwFR&#xA;VWUjbbJtRTjFXyx/zmRd3ra75cs2gVbGO1nmhuafE8ryBZI+VOiKiGlf2siWcXztgZP0S8gy6fL5&#xA;H8vyadJLNYHT7X6tLP8A3rRiFQpkqT8Xjv1ybWU+xQ7FWJ/m1GZPyy8zoLiO1rp1wTNMqulBGSVI&#xA;bar/AGQeoJqN8SkPz7yDY+rP+cOba6Xyv5guWQC1lvYo4pKDkZI4qyAt1IAkSnzOSDCT6EwsXYq7&#xA;FXYq7FXYq7FXYq7FXYq7FUt8z6JHrvlvVdEkf0k1O0nszLQMU9eNo+YB7ryrir89/NnlbV/KvmG9&#xA;0DV4xHf2LhJOB5IwZQ6Oh7q6MGH45BtCa/ll+YOq+RfNMOsWDLwkAt76N09QPbNIrSAKGT4vgqvx&#xA;DfCpFvuvyj5z8tebtKXVPL98l7ak8ZONQ8b0rwkQ0ZG36EfhkmohOsVdirsVYd+cOvJoX5Z+YdRe&#xA;0+uqLRrf6vSqk3RFuC4/kUy1b2xKQ+AMg2PWNG0Owf8A5xw1/U4EnvL39NW31pVIWK0EC8UloR8Y&#xA;Zbkq3Huy9lOFHV5PgS+7P+cfdRk1D8ofLsz2626xwyW0YRiwdbeZ4fUNehdkJIyQa5c3omFD5Y/5&#xA;zJvZ317y1YspEEFrcTxvTYvNIquK+whX78iWcXztgZP0S8g281t5F8uW00bxTQaZZxSRSqEkVkt0&#xA;Uh1UkKdtx2ybWU+xQ7FWHfnFqcem/ld5nunjSVTYTQ8JPsk3A9Fa/TJiUjm+AMg2PrH/AJw80u2j&#xA;8n63qqSyNcXN+LWWEn90q28KurKoP2m9c1Y+AHbJBhJ7/hYuxV2KuxV2KuxV2KuxV2KuxV2KuxV4&#xA;3/zkX+UUPmzy9Jruj2Jm806cq8PRNHuLZSecRX9tlBLJ+12HWmAhlEvjSSN43aORSkiEq6MKEEbE&#xA;EHvkWbPPyh/NjV/y+1z1ICJNHv5bcaxblPUcwRv8TQjkgEoRmC1NPHCCgi32/wCWfM2ieZtFt9a0&#xA;W5W60+6BMcgBBBBoyspoVZTsQck1ppirsVeOf85V6vqFh+Vj21tGrQapeQWl5KSeSRqTcKVoR9p4&#xA;Apr2OAso83xlkWb7B8m+UdG/6FguLOyueCanplzqF7eFP+PjiXkDKOoj9IRfJcl0YE7vj7Is31p/&#xA;ziBrsdz5N1XR3u3kubC99WO0b7MVvPGvEof8qVJKjt9OSDCT3zCxfLf/ADmVDONX8sTG5LwPb3SJ&#xA;Z0FI3R4y8taV/eB1X/YZEs4vnNQCwBNATufDAyfpRpxszp9sbKn1P0k+rUrT0uI4fa3+zTrk2pEY&#xA;q7FWCfnqbYflH5n+scxH9U+H0wCfU9RfT6/s86cvbAUjm+Csi2Mr8kfmj528ki4Ty5fi1iuyGuIm&#xA;iilV2VSqt+8VjVa7UOFSGTXX/OS/5wz/AFYrrEcDW9eRitoB6tTX94GRlNOmwGNo4Q9f/wCccfzZ&#xA;87+dvMep2fmPVoJ4rOy9WCyWCOKWRmmUGYNGijjEPhIr+2ux3wgsZB9AYWLsVdirsVdirsVdirsV&#xA;dirsVdirwr/nIP8AIefzW83mzy+/+5u3t1SfTAgpdLEWPJGG/rcW4gGvKgG3cEMol8l31hfafdy2&#xA;d/by2l5A3Ga2nRo5UbwZHAZT88izZP8Alj+ZGseQPMi6vpypLFKogv7aRQRLblwzKG6o3w1BHfrU&#xA;bYVIt94eW/MWleY9Cstb0qX1rC+jEsLHZhXYqw3oysCrDsRkmpMsVfNv/OY3mN1svL/ltB+7lkk1&#xA;GdiO8SmGEK3/AD1kqPlgLOL5hyLJ+gPlry/D/wAqm0/Q7a3jgWfRUt/q9fgEk9tR+RA35O5LNTfr&#xA;k2vq+Bb+xubC+uLG6T07q0leCeOoPGSNirCoqDQjtkGx7p/zh/qVpB5z1eyluJEuLyxBt7Yf3Unp&#xA;SBnZtvtop+H2LYQxk+tckwfK/wDzmOdT/T/lxZY4hpn1Wc2ky19Uzeovrq+/2VX0iu3c5Es4vncC&#xA;pAHfbfb9eBk/SLQrd7bRNPt3Z3eG2hjZ5WDyMVjAJd1+FmNNyOuTakdirsVYD+fV4LT8ofM0pZV5&#xA;Wyw1cFh+/lSKlB3POgPY74Ckc3wbkWxN/L3k/wA1eY5Gj0LSbrUihpI1vE7oh/y3A4r9JxW1aXyF&#xA;55hMol8valGYEeSblaTjikW0jGqfZXucVt7n/wA4n+UNV0zzjr93q1ndWF5a2MNusM8TRgrdss55&#xA;cl+1xiQgV6HCGMi+oMkwdirsVdirsVdirsVdirsVdirsVdirwb/nIP8AIWbzO83mzyzGX19URb3T&#xA;lAH1sLRBIrMyhZETt+0B49QQyiXySysjFHBVlJDKRQgjqCMizfSv/OH/AJzVW1fyfdTAcyNQ02Nu&#xA;5A9O5UE+wjYKP8o5IMZB9NYWD4y/5yr1GW4/NOW0N288NlaQKtsxPCB5E5sqL0HMFWJ719siWyPJ&#xA;45gS9tg/5yz/ADDhsLS2Flp3q20oaSURMolhAIEJjDcU+aU6D3qbY8Lxi9vJ728nvLhudxcyPNM/&#xA;i8jFmP3nAyek/wDONd9BafnDoxnl9FJ0uYQxkEaFnt34K9ft8mACr/NTwwhEuT7hyTW+Xf8AnMqG&#xA;Uar5YmKERNBdIshcFSyvGWATqCoYVbvUeGRLOL5yVWZgqgliaADcknAyfpPp0EkGn2sEioskUMaO&#xA;sY4oCqgEKOy+GTakRirsVef/AJ+2+pXH5R+Y47CCO4kFuskySAELBFIsk0ig7co0QuPClRvgKRzf&#xA;B+RbH1T/AM4bi1/w75jKzSNdG7gEtuf7pIxEfTdP8pzzDeyrkgwk+h8LF2KuxV2KuxV2KuxV2Kux&#xA;V2KuxVh35sefZPInk6fzDHbJeSRSxRJayM6CQytx2dVfjx+1uKbU6kYlIFvnDVf+ct/zEuLuOXT7&#xA;SxsbdEUPbtG0/N/2mLMykA9gOnicjbLhfRn5P+eNS87eRLLzBqVolneTPLHIkQZYX9JyvOIOWbia&#xA;U3J3BwhiQzTCh8A/nLp1vp/5p+Z7a3KmL6/LKAmyqZz6pUD/ACS/HIlsHJV/JPWYtH/NTy5fTTCC&#xA;H60IJZGqFC3CNCa07fvMQp5PvnJNb8/vze8yf4j/ADJ8waoERI3u3gh9Po0VtSCNye5ZIwTkS2Bj&#xA;mlaLrGr3DW2k2FxqFyiGV4LSJ53Ea0DOVjDEKKipwJRY8n+bTNPANEvzPayLBcxC1m5xSuOSxyLx&#xA;qrMu4B3xW0tu7O7s52t7uCS3nT7cMqsjj5qwBxVOPIeqw6R510LU56ehaX1vLMTF69EWReZEXViF&#xA;3AG9em+Kl+ieTanyr/zmN+i/8RaAEmmOq/VJDPAWrCtuZKROqno7OHBp1AGRLOL57jkeORZEPF0I&#xA;ZT4EGowMn6N+V5NXl8taVLrLI2rSWkD6gYwFT12jUycQCRTlXpk2pM8VdirDvzg1TSdN/LLzHPqr&#xA;utnLZS2xERpI0lyvoxqvzdx7U67YlIfAGQbH1J/zhraRro/me7BPqTXFrEw7UiSRh/ydOSDCT6Mw&#xA;sXYq7FXYq7FXYq7FXYq7FXYq7FWLfmn5en8xfl35g0e2j9a6ubOQ2sXd5o/3sSj3LoKYlIfnwQQS&#xA;CKEbEHINj6I/5xo/OjRNA0+48p+Z71bKyEhn0m8mr6SGQ/vYGYVCAt8ak7VLVPTCCxkH0N5l/MPy&#xA;b5c0Jdc1TVIF0+VQ9q8TrK1wGIA9BUJMvX9ntv0yTGnwj5/80DzV5z1fzAsC2yahcGSOFARRAAiF&#xA;qlviZVBbenKtKDbINgTT8mNEfWPzS8t2qxvIkd7FdTBBWkdsfWYt4L8FDhCDyfd2u6vp+jaLfarq&#xA;MhisbGCSe5cV5BI1LHjSh5eFO+Sa35wXDRNcStCpWFnYxqxqwUnYE9zTINr2b/nEtL1vzRlNvOsU&#xA;KabcNeRN1li5xqFXbqJWRvkDhDGXJ9jBVBJAALGrEdzSm/3ZJg+V/wDnMfTWj8w+XdTrEEubSa3A&#xA;FfVJgkDkt/k/vxx965Es4vngEg1HXAyfof8Al3rVlrfkbQ9SsppZ7eaziUTXApKzRL6bmTc/FzQ1&#xA;3ybWXzn/AM5jW+nr5q8v3CCT9ISWMkdwT/d+jHMTDx/yuUkvL6MiWUXz5gZPs7yD+eH5W6T5M0LS&#xA;dS8zRNqNjp9tFdkxXTASLGAyhzFRuJFOuStgQV0P/OVf5TyXht3lvoYg7r9be2JiohoHojPJR+q/&#xA;BXxAxteEsm0H88Pyt1/U7XTNI1xbm/vJPRt7f0LmJmfiX/3bEgAovU7duuNooqH5/DTj+UfmI38S&#xA;TRrAphSSQxUm9RREysOrK5DBf2qU74lRzfCGRbHvH/OOH5q+QPI2lavD5gubi3vtQnWQMsLyw+lB&#xA;H+7UcOTB2eRx9mnSpwgsZB7Dc/8AOT/5QQhOGpXFxyeJSIrWb4VkFWc81T4Y/wBulT/KGw2jhKHn&#xA;/wCcqfyljcqlxezABjyS1YAkNQD4yhqw+Ie3XfbG14S9D8n+dfLnnDSm1Xy/cm7sVlMDSmN4j6iq&#xA;rMvGQK2wcdsLEhPMVdirsVdirsVdirsVdirsVfGP/ORf5U6p5b83X3mGxs2PlrVZPXSeIFkgnk3l&#xA;jkp9jlJVl7UNB0yJDZEvHcCVzSSMqKzFljHGNSSQoJLUHhuScVajjeR1jjUvI5CoiipJOwAA74q+&#xA;yv8AnGj8sdW8neXL6/120FprGryIVhahljto1+BXp9hmZmJX5V32EgwkWXfnZq9vpf5W+Yp5bwWT&#xA;y2j29u5RJS8so4rCEcEH1a8SafCCW7YlA5vgbItj6Z/5w0gn4eaJzaoLcm0jW9IPMuPVLRA9KAEM&#xA;fo67UkGMn0vhYPBv+cv7bT38j6VcTXLR3kN9xtLYAFZQ8Z9Qnao4BQa1p27igLKL5IyLN9o/84u+&#xA;a31v8s4rCWMJNoU7WXJejxkCWNvn+8Kn5V75IMJPMP8AnMSXSj5r0OJIJV1ZbEtcXJJ9JrdpWEKK&#xA;taclcSFj7jr2BTF8+4GTsVdir0D8g0jb83vLQed7elwxV41DEsInIjPLor/ZJ8DhCDyfW355yRx/&#xA;lL5mMgtyptCv+llljBZ1VSvEE+oGI9Id344SwHN8E5FsdirsVdir61/5w85/4H1qrMU/SZ4p+yD9&#xA;XiqR7navyyQYSe94WLsVdirsVdirsVdirsVdiqldWtrd20trdQpPbTKUmhlUOjqwoVZTUEHFXlut&#xA;/wDOMX5T6pdR3EdlPpoRXV4bKYpHIXNQzCQS0KduNB41wUy4ixqL/nD3ySjW7NrOoSBJudyreiBJ&#xA;BvSNeKAo3Sr1Pso7NLxM48ufkD+V/l7XrfW9N0the2gU2wmmkmjSRRT1Qshb4+9ex3FMaRZeiYUM&#xA;b8/+QdD89eX20PWWnS19VJ0ktnCSpIgIBBZXXoxG6nFILz1/+cTvysNpJAraiszmqXX1hTIlOwBj&#xA;9Mj5qcFJ4i9H8keR/L/kvQY9E0OJo7RHaV3kbnJJK9A0jttViFA2AG2FBKf4oY9558iaF510eLSN&#xA;bEjWEdwly0cTBGZowwClqFlHx78aH364pBYBpH/OK/5UWVnJDeW91qc8jErdT3MkboK7KiwGFOn8&#xA;ynBSeIs/8i+RNA8kaIdG0NZFs2me4YzNzcySAAktReygDCglI/zB/Jbyj591iy1PXpbwtYwmCK2t&#xA;5EjiZWYsS/7tpK1PZxgpQaY3df8AOKn5TTxwpFFfWrRgB5IrklpKHq/qrIu/+SBjSeIoOD/nEj8t&#xA;I72aaS51Ga2kQrFatNGBGx/bDrGGan7IP01xpeJbb/8AOI35apZzwTXmpyzSOGiu/WiV41X9lVEX&#xA;pnl3LKfamNLxJ95A/wCcdvIvkvWbfW7SW8vdWtS5t57qReKepG8TARxpGv2ZP2q79MaQZM781+Wd&#xA;O80eXb/QNRMi2WoR+lM0RUSKKhgyFldQwIBFVOFAeYWv/OKP5XQ6jFcyi9uLaOARPYyTkJJKF4mZ&#xA;nQLIGP2uKsFr2ptgplxFQm/5xG/LCR5GS71aIOQVRLiAhPZecDH/AIInGl4m5v8AnEj8r5OPC51W&#xA;LjSvC4hPKgpvzgbr12xpeIoi3/5xT/KqOwgt5o72a4iJMl6bgrJKCSQHUD0wANvhUY0vEWf+Q/IG&#xA;geR9KuNK0P1hY3Fy136c7iQo7oiEK1AeNIwfiqffCglkmKHYq7FXYq7FXYq7FXYq7FXYq7FXYq7F&#xA;XYq7FXYq7FXYq7FXYq7FXYq7FXYq7FXYq7FXYq7FXYq7FXYq7FXYq7FXYq7FXYq7FXYq7FXYq7FX&#xA;Yq7FXYq7FXYq7FXYq7FXYq7FXYq7FXYq7FXYq7FXYq7FXYq7FXYq7FXYq7FXYqxD/la/k3x1P/uD&#xA;at/2S4pp3/K1/Jvjqf8A3BtW/wCyXFad/wArX8m+Op/9wbVv+yXFad/ytfyb46n/ANwbVv8AslxW&#xA;nf8AK1/Jvjqf/cG1b/slxWnf8rX8m+Op/wDcG1b/ALJcVp3/ACtfyb46n/3BtW/7JcVp3/K1/Jvj&#xA;qf8A3BtW/wCyXFad/wArX8m+Op/9wbVv+yXFad/ytfyb46n/ANwbVv8AslxWnf8AK1/Jvjqf/cG1&#xA;b/slxWnf8rX8m+Op/wDcG1b/ALJcVp3/ACtfyb46n/3BtW/7JcVp3/K1/Jvjqf8A3BtW/wCyXFad&#xA;/wArX8m+Op/9wbVv+yXFad/ytfyb46n/ANwbVv8AslxWnf8AK1/Jvjqf/cG1b/slxWnf8rX8m+Op&#xA;/wDcG1b/ALJcVp3/ACtfyb46n/3BtW/7JcVp3/K1/Jvjqf8A3BtW/wCyXFad/wArX8m+Op/9wbVv&#xA;+yXFad/ytfyb46n/ANwbVv8AslxWnf8AK1/Jvjqf/cG1b/slxWnf8rX8m+Op/wDcG1b/ALJcVp3/&#xA;ACtfyb46n/3BtW/7JcVp3/K1/Jvjqf8A3BtW/wCyXFad/wArX8m+Op/9wbVv+yXFad/ytfyb46n/&#xA;ANwbVv8AslxWnf8AK1/Jvjqf/cG1b/slxWnf8rX8m+Op/wDcG1b/ALJcVp3/ACtfyb46n/3BtW/7&#xA;JcVp3/K1/Jvjqf8A3BtW/wCyXFaZfih2KuxV2KuxV2KuxV2KuxV2KuxV2KuxV2KuxV2KuxV2KuxV&#xA;2KuxV2KuxV2KuxV2KuxV2KuxV2KuxV2KuxV2KuxV2KuxV2KuxV2KuxV2KuxV2KuxV2KuxV2KuxV2&#xA;KuxV2KuxV2KuxV2KuxV2KuxV2KuxV2KuxV2KuxV2KuxV2KuxV2KuxV2KuxV2KuxV2KuxV2KuxV2K&#xA;uxV2KuxV2KuxV2KuxV2KuxV2KuxV2KuxV2KuxV2KuxV2KuxV2KsY/M7zBqPl7yDret6aVW+sLYy2&#xA;7SLzUMCBup69cUhjH/OPfn/zF558mXura88T3kGoy2kZhjEa+kkEEg2HflK2ALIMK/Ib86vPHnTW&#xA;tatNclt3hsdNe7gEUIjIlWRVFSDuKNiCkh55Yf8AOSP54agszWEUV4tuoa4aCxMojU1oX4V4jY9c&#xA;Fp4Q9b/Ir8/rnzzqE2ga/bQ2utxxtPbTWwZYZ0QgOvB2crIta9aEV6U3IKCEX+fPnr8zvLF3o8fk&#xA;uxe7iuo52vSlm93xZGQJUqDxqGOJUB4zZf8AOSP543929nYwxXV5GGL20FgZJFCmjVRasKHrgtPC&#xA;Ht1z+bup+WfyX0/zf5otC3mK7rAmntG1sXuWkkCBkIqiiOPmdug98Nord4n/ANDI/nhGsevyW8f6&#xA;DklKx8rEiyYg0MSz7MTt/vyuC08IfTn5a+ftP89eUrXX7OMwNIWiu7VjyMM8dOactqjcFT4EZJiQ&#xA;nWu6zZaJot9rF83Cz0+CS5nPfjEpYgV7mlAPHFDwD8kfz289edfzEXR9Wa2XTJYLiZYYogrKUFUH&#xA;OtTSuAFkQzX8+fzqf8vbG0stLhjudf1JXeETVMUEKnj6rqCCxZtkFabGvShSVAt47p3/ADkl+cPl&#xA;/U7KfzZZevpl2BILa4tPqbyQE7vbyBY6nwJ5LgtPCHrP5t+ddcv7HyPp3lDVTpcPna6RBqyLWWO3&#xA;kWMrxFQQf31TQg7UqN8JQAi/yK8wea7mfzX5a8x6idXuPLGoC0g1JxSSWNuY+Puf7qu5J3pU4hBQ&#xA;3mjzH5h8zfnTpXkry/fz2OlaDGNQ8z3Fs5jMleLJbMy9iCi0r+2f5cU9E5/O383Ivy60CCaCBbvW&#xA;tSZ49Ot5K+kPTAMkslCGKpzXYGpJ+nElAFvBbb/nJL86tIns9V1q0WfR7w84IrizNtDPHWp9CdVU&#xA;nbo1W964LZcIet/mv+cuoad+VGhedfJ8iJ+l7yGL/SIxJxR4J2kjZa05pJDxJHgcJKAN3lVp+fP/&#xA;ADkReW8dzaaY9xbSjlFPFpcjow8VZQQRgtNBm/nz84vzH8u/lX5S15ljtNf1WWePUori2409MtwH&#xA;pPQpsBhtAG7Cbb89/wDnIm6t47m20t57eVQ8U0elyOjqdwysoIIPtgtNB9L/AJearrereSdI1HXY&#xA;jDq9zbh72JozCVkqRQxndflkmJZFih2KuxV2KuxV2KuxV2KsG/PH/wAlL5o/5gm/4kuApHNg3/OI&#xA;H/ktNT/7bM//AFC22ITJ5n/zih/ykvmX/tjS/wDJ2PAEyTz/AJw0/wCOn5p/4w2f/E5cIWSX/lq1&#xA;o3/OVmptaFDbm91YoY6FTVJa0pt1wdVPJ9ZZJg+Sv+ccv/J8a5/xh1D/AKiUyIZy5M5/5zD/AOUH&#xA;0X/tpj/qHlwlEVnnCCFf+cQrYKigLp2luKAbM93AWYe55Gvzx6KOaN/5xA/8lpqf/bZn/wCoW2xC&#xA;yQ3/ADln5zez8tWHlCyYte63KJbmNKlvq0LDgvEb/vJuNP8AVOJWIeY/840WFxp351Np9yAtzZwX&#xA;sE6g1AeL4GAPzGAMpckz/wCcrlV/za0NHAZG0u1DKdwQby4B2xKI8mX/APOY8af4c8uPxHJbuZVa&#xA;m4BiFQD4GgwlEUnv9QttM8n/AJH6xqDmHTbG75Xd2wYpGvKMjkQD+yhPyGKe9O/y2896RpK/m554&#xA;jf19JXURPYzEFUuHJlESKSB9tpEHtyGKCGYf849+VL7T/K1x5o1kl/MHm+b9JXsjfaETktAvtUOX&#xA;/wBlTtiESLzH/nMv/jp+Vv8AjDef8TixLKLK/wDnJ22t0/JjSVSNVWC8slhAAAQC3kWi+G22JRHm&#xA;8482/wDrJfkr/tszf8nNRwdEjm9p/Jfz35Htfy18tabdeYtMg1FLZIns5by3SYSFyAhjZwwY16Uw&#xA;hBDD/wDnMf8A5Rry7/zGy/8AJrErFnP5R+e/I8X5feVtMl8xaZHqQsbaA2LXluJxMUC+n6Rfnz5b&#xA;caVxCCHpmFDsVdirsVdirsVdirsVdirBvzx/8lL5o/5gm/4kuApHNg3/ADiB/wCS01P/ALbM/wD1&#xA;C22ITJ5n/wA4of8AKS+Zf+2NL/ydjwBMmC/lf+XXnXztLqVv5YvI7U2qR/XRLPJArpKWCj92rcvs&#xA;nriEkvpn8j/yEj/L+abWNVu47/zBPGYFMAb0IImILCMuFZ2YqKsVG21OtSAxJt6/hYvkr/nHL/yf&#xA;Guf8YdQ/6iUyIZy5M5/5zD/5QfRf+2mP+oeXCURd5y/9ZDt/+2ZpP/UXb49FHNFf84gf+S01P/ts&#xA;z/8AULbYhZPI/MX5gaHe/wDOQs/mLzSs7aLod60NtbQqJXpYFkgAVmQANMvqsK9yMDKtku/Lf8yf&#xA;L3lz84NR83agtwdKupL54liRWlpcyFo6qWUdDvvipGzJ/wDnKWZJvzX8vTJXhJpVm6160a8uCMSi&#xA;PJmf/OY//KNeXf8AmNl/5NYSiL0D8pdF0jWfyX8t2GrWUN/ZSWaF7a4jWWMkM1DxYEVHY4hB5sI/&#xA;MDSNL8zfmD5e/KLQLWGx8uaWf0v5kgtEESBRusRCAULKw38ZFPbFI72Iedx5h1i+/MjzKmv32nP5&#xA;Hu7a10Oxs5TFbogm9I/AtKfClfhpv1r0wJCXf85K6pdav5e/LfVbsg3eoaP9auCBQGSaK3kegH+U&#xA;2JWL0r/nKD/yTWnf8xtn/wAmJMJRHm8z82/+sl+Sv+2zN/yc1HB0SOadflh/zjPY61oOgebW1+WC&#xA;S4EV6bQWysoKSV4c/UH8vWmICmSf/wDOY/8AyjXl3/mNl/5NYSiKU/lh/wA4z2N7pvlnzidflSSQ&#xA;Wmp/UxbKVBUrL6fP1Om1K0xpJk+m8LB2KuxV2KuxV2KuxV2KuxVj35heXJ/MvkjW9Ct3CXN/aSRW&#xA;7Nsvq0rGGPYFgAfbFIfIXkn83PO35VWGt+VTpqx3M0rP6d2GSS1uSgjaQKNnBRVp22B6ZG2ZFvQP&#xA;+cWPJWtWll5g813kD2+n3di1nYeopUzVPqPIlf2F4ABuhr7YQiRU/wDnDT/jp+af+MNn/wATlxCy&#xA;fUWFg7FXyV/zjl/5PjXP+MOof9RKZEM5cnrP/OTfkvWfM35eo2kQtdXek3S3j2sY5SSQiN45OCjd&#xA;mXmGp4A98JREvnLUPzp8zaj+WNv+XMlnCbaP0oDdqHM7xQSrJFFw6cgyqKjqB0wWyp9M/wDOOXkn&#xA;V/KX5cJbavE1vf6ldSahJauKPCJEjiRHHZuEIYjtWhwhhIou/wD+cevyfv764vrvQPUuruV57iT6&#xA;3erykkYs7UWcKKsewxpeIvnD8rfInlTXPzu1Py1qlj9Y0S3l1BYbT1Zk4i3kKxfvEdZDxA7tv3wM&#xA;ydmd/wDOWHkTWPrmkeb9LgeWxsLVbG7MYLm3EMjSwyN1PE+qwLdBQV6jCURLzbz3+aXnT83ZtE0J&#xA;NLjN1bsfStrJXZp7iQBWkPIngoVenQbknwCQKfV2mtZ/lr+U9sdUkBj8v6an1oqdnmVRVEJ/35M3&#xA;FfmMLDmWMf8AOO/lu+XQr7zzrY56/wCcJ2vZHYUKW3ImFVr0VqlxT9kr4YhMnknnnzBb+Xrr82fK&#xA;2pwTx6t5nvba40WNY2ZZozcF+QYf5LbeJqOuBITj89vy58xz/lV5G1KG1keby3pcNprFoqlpIgbe&#xA;ENIVG9I3iIfwrXoDhKg7vOfOX5y+cPzA8s6N5PksEd7Z4qtbK8k93PGhijPAVoSGJKqN2+7BaQKe&#xA;gfm95Vv/ACr/AM41+UNC1ABb621RHuUBB4SXEV7OyVGx4erx28MTyQOb2v8AI7/yUvlf/mCX/iTY&#xA;QxPN5n/zmP8A8o15d/5jZf8Ak1iUxerfk/8A+St8q/8AbMtv+TYwhB5svxQ7FXYq7FXYq7FXYq7F&#xA;XYq7FULeaTpV7Isl5ZQXMiCiPNEkhA60BYGmKokKoXiAONKU7UxVThtLWAkwQpEW+1wULWnjQYqq&#xA;4q7FVKOztIpDJFBGkhrV1VQxr13AxVVxVCLo+kLefXVsbcXlS31kRJ6vI7E86cq/TiqLxV2KqSWd&#xA;pHKZY4I0lNayKqhjXruBXFVUgEEEVB2IOKoW00nS7OR5bOzgtpJBR3hjRGYVruVAriq6/wBO0/UL&#xA;ZrW/tory1cgvBOiyxkqaiquCNjiqtFFFDEkUSLHFGoWONQFVVUUAAGwAGKrJbS0lmjmlhjkmh3ik&#xA;ZQWSv8pIqPoxVVxVB22jaRazm4trG3gnNQZookRzXr8SgHfFUTNBBOoSaNZVBqFdQwr40OKro444&#xA;0CRqERdlVRQD5AYqsmtrecATxJKBuA6hqffiq9ERECIoVFFFVRQAewGKt4q7FXYq7FXYq7FXYq7F&#xA;XYq7FXYq7FXYq7FXYq7FXYq7FXYq7FXYq7FXYq7FXYq7FXYq7FXYq7FXYq7FXYq7FXYq7FXYq7FX&#xA;Yq7FXYq7FXYq7FXYq7FUq806Xf6podzYWOpvo003ANqMS8pY4w4aX0zyTizICof9mte2KvIV8x6r&#xA;o/l3z/rPlbULy98q2FjGmiahfzy3YbUF5pcyWks5Z3iUstSaqXHw7VwMmT6NY3flL8ytK0GHVdQ1&#xA;Ow1vS7qa7TULiS643dm8X+kIZSxj9RZGDKDTpihf5H/xXD+Z/mW18w6qNQkOnWFzFBCrRWtuJJbh&#xA;fThjZm7IKud2OKlLV8tyzfmnY6Lous62ljoEUeqeYJZtVvrhJXlY/VLIpNK6Uk4NJJVd0FNq4pZP&#xA;+b76ja+RrnWNOklS70Ka31ULE5T1I7OZZJ43oRyRoQ9VOxwlAYTJ5t1EfmovmwajJ/g1b8eVWh5t&#xA;6BdrM3X1jhXjtdER8/o9sCeijpmoa6dI/LzVbm8ulm8zeZJtRuI2len1a8S4lghpWnprF6dE+yMV&#xA;U/KXnLzDoPnvzHe6xdyXPk3UPMl3ovKVmcafdosb271YnhDN6vpmmykA7d1SEbpmipr35JQa3qF/&#xA;qH6T06w1Sa3uIL65gJdJZmUyem6+px9Nacq7Yr1QGr6W2if846XPmKx1HUf0xqejaZc3N1LfXMrC&#xA;WQwu7Rc3b0uRkavCmK9WReRrLQF8zWslpo3m+zuIxIUn1iW8ayFY2UiRZbiRCSD8NV+1TFBeczaz&#xA;pcWl6tc6gvmtdbuNW1Gy0zV7W8uLfTxcG7ljtUEz3EdvGFoFPIU2OLJ9DeVotah8taVFrsgl1qO0&#xA;gXUpVpRrgRgSmo2Px13G2FgmmKuxV2KuxV2KuxV2KuxV2KuxV2KuxV2KuxV2KuxV2KuxVj/nvyo/&#xA;mvyzdaCNRm0yO84rPcW4UuYw1Wj+L9l6UbxG3Q4pCV6Z+Xd4uhX/AJf13XZdZ0O8tDYx2H1Szskg&#xA;jI41i+qxR0IH2ewwLar5V/L59H1YaxqmtXev6nDaDT7Ke7WFBBbcgzKiwolXcqvN2qxphW02tfLU&#xA;Fv5s1DzGszNPqFpbWbwEDgq2zyuGB61b1jX5YoW6D5Wg0jV9e1QTvcXOvXSXMxcAcBFCkEcSkdVV&#xA;U2riqZ6jYW2oafc2F0vK2u4ngnXxSVSjD7jirBf+VM6L/wAquPkA3s5hL+udUov1j1/rH1j1fDlX&#xA;4flgpN7p9qvkbTr7/DSxyvbQeWLmO5s4kAIcQwtAsbV6Di3bCtoe0/LfRE0nzPpN6zX1h5pv7nUL&#xA;yKQAcGuUjQqhH8npBlbqDitr9C8g2ej/AJejyVFdyS2otLiz+tuF9Tjc86tQbVHqYralq35dWWpf&#xA;lmnkN7ySO0SxttPF6qqZONqIwr8T8NW9LfFbXaP5W862epQXOoedbrU7OMkzWEljYQrICpABkhiS&#xA;RaE1+E4qqWf5e6LH5T1Lyxelr7TdUmvJ7gSAA/6bO85C06GNn+FvYHFbTTyvo1xomgWOkz30mpPZ&#xA;RiFb2cBZXRdk58diVWi170rihNMVdirsVdirsVdirsVdirsVdirsVdirsVdirsVdirsVdirsVdir&#xA;sVdirsVdirsVdirsVdirsVdirsVdirsVdirsVdirsVdirsVdirsVf//Z</xmpGImg:image>
               </rdf:li>
            </rdf:Alt>
         </xmp:Thumbnails>
         <xmp:MetadataDate>2017-12-07T16:44:06+09:00</xmp:MetadataDate>
         <xmp:ModifyDate>2017-12-07T16:44:06+09:00</xmp:ModifyDate>
         <xmpTPg:MaxPageSize rdf:parseType="Resource">
            <stDim:w>309.985838</stDim:w>
            <stDim:h>309.985838</stDim:h>
            <stDim:unit>Millimeters</stDim:unit>
         </xmpTPg:MaxPageSize>
         <xmpTPg:NPages>1</xmpTPg:NPages>
         <xmpTPg:HasVisibleTransparency>False</xmpTPg:HasVisibleTransparency>
         <xmpTPg:HasVisibleOverprint>False</xmpTPg:HasVisibleOverprint>
         <xmpTPg:PlateNames>
            <rdf:Seq>
               <rdf:li>Cyan</rdf:li>
               <rdf:li>Magenta</rdf:li>
               <rdf:li>Yellow</rdf:li>
               <rdf:li>Black</rdf:li>
            </rdf:Seq>
         </xmpTPg:PlateNames>
         <xmpTPg:SwatchGroups>
            <rdf:Seq>
               <rdf:li rdf:parseType="Resource">
                  <xmpG:groupName>初期設定のスウォッチグループ</xmpG:groupName>
                  <xmpG:groupType>0</xmpG:groupType>
               </rdf:li>
            </rdf:Seq>
         </xmpTPg:SwatchGroups>
         <dc:format>image/svg+xml</dc:format>
         <xmpMM:DerivedFrom rdf:parseType="Resource"/>
         <xmpMM:DocumentID>xmp.did:0d76850b-991e-43e5-96c6-db8c42755503</xmpMM:DocumentID>
         <xmpMM:InstanceID>xmp.iid:0d76850b-991e-43e5-96c6-db8c42755503</xmpMM:InstanceID>
         <xmpMM:OriginalDocumentID>xmp.did:0d76850b-991e-43e5-96c6-db8c42755503</xmpMM:OriginalDocumentID>
         <xmpMM:History>
            <rdf:Seq>
               <rdf:li rdf:parseType="Resource">
                  <stEvt:action>saved</stEvt:action>
                  <stEvt:instanceID>xmp.iid:0d76850b-991e-43e5-96c6-db8c42755503</stEvt:instanceID>
                  <stEvt:when>2017-12-07T16:44:06+09:00</stEvt:when>
                  <stEvt:softwareAgent>Adobe Illustrator CC 22.0 (Macintosh)</stEvt:softwareAgent>
                  <stEvt:changed>/</stEvt:changed>
               </rdf:li>
            </rdf:Seq>
         </xmpMM:History>
      </rdf:Description>
   </rdf:RDF>
</x:xmpmeta>
                                                                                                    
                                                                                                    
                                                                                                    
                                                                                                    
                                                                                                    
                                                                                                    
                                                                                                    
                                                                                                    
                                                                                                    
                                                                                                    
                                                                                                    
                                                                                                    
                                                                                                    
                                                                                                    
                                                                                                    
                                                                                                    
                                                                                                    
                                                                                                    
                                                                                                    
                                                                                                    
                           
<?xpacket end="w"?>
	</metadata>
<g id="レイヤー_1_1_">
	<g class="st0">
		<text transform="matrix(1 0 0 1 78.7832 460.9073)" class="st1 st2 st3 st4">S</text>
		<text transform="matrix(1 0 0 1 261.4832 460.9073)" class="st1 st2 st3">ALE</text>
		<text transform="matrix(1 0 0 1 232.0273 736.8956)" class="st1 st5 st6">2017 SUMMER</text>
		<text transform="matrix(1 0 0 1 211.6104 655.1769)" class="st1 st2 st7">UP TO 40%OFF</text>
	</g>
</g>
<g id="レイヤー_3" class="st0">
	<g class="st8">
		<g>
			<path d="M290.8,665v3.9h-21.7c0-1,0.1-1.9,0.5-2.8c0.6-1.5,1.4-2.9,2.6-4.4c1.2-1.4,3-3.1,5.3-5c3.6-2.9,6-5.2,7.2-6.9
				c1.3-1.7,1.9-3.3,1.9-4.8c0-1.6-0.6-2.9-1.7-4s-2.6-1.6-4.5-1.6s-3.5,0.6-4.7,1.7c-1.2,1.2-1.8,2.8-1.8,4.8l-4.1-0.4
				c0.3-3.1,1.3-5.4,3.2-7.1s4.3-2.4,7.4-2.4s5.6,0.9,7.5,2.6c1.8,1.7,2.8,3.9,2.8,6.5c0,1.3-0.3,2.6-0.8,3.9
				c-0.5,1.3-1.4,2.6-2.7,4c-1.2,1.4-3.3,3.3-6.2,5.8c-2.4,2-4,3.4-4.7,4.1c-0.7,0.7-1.3,1.5-1.7,2.2L290.8,665L290.8,665z"/>
			<path d="M297.4,652.7c0-3.9,0.4-7,1.2-9.4c0.8-2.4,2-4.2,3.6-5.5s3.6-1.9,5.9-1.9c1.8,0,3.3,0.4,4.6,1.1c1.3,0.7,2.4,1.7,3.3,3.1
				c0.9,1.3,1.5,3,2,4.9s0.7,4.5,0.7,7.7c0,3.8-0.4,7-1.2,9.3c-0.8,2.4-2,4.2-3.5,5.5c-1.6,1.3-3.6,1.9-6,1.9
				c-3.2,0-5.6-1.1-7.4-3.4C298.4,663.3,297.4,658.9,297.4,652.7z M301.5,652.7c0,5.4,0.6,9,1.9,10.7s2.8,2.7,4.7,2.7
				c1.8,0,3.4-0.9,4.7-2.7s1.9-5.4,1.9-10.7c0-5.4-0.6-9-1.9-10.8s-2.8-2.7-4.7-2.7c-1.8,0-3.3,0.8-4.4,2.3
				C302.2,643.6,301.5,647.3,301.5,652.7z"/>
			<path d="M340.3,668.9h-4v-25.6c-1,0.9-2.2,1.8-3.8,2.8s-3,1.6-4.2,2.1v-3.9c2.3-1.1,4.2-2.3,5.9-3.8s2.9-3,3.6-4.4h2.6v32.8
				L340.3,668.9L340.3,668.9z"/>
			<path d="M353.2,640.4v-3.9h21.2v3.1c-2.1,2.2-4.2,5.2-6.2,8.9s-3.6,7.5-4.8,11.4c-0.8,2.7-1.3,5.7-1.5,9h-4.1
				c0-2.6,0.6-5.7,1.5-9.3c1-3.7,2.4-7.2,4.2-10.6s3.7-6.2,5.8-8.6L353.2,640.4L353.2,640.4z"/>
			<path d="M395.8,658.4l4.1-0.4c0.2,1.6,0.6,3,1.4,4c0.7,1.1,1.8,1.9,3.3,2.5s3.2,1,5,1c1.7,0,3.1-0.2,4.4-0.7s2.2-1.2,2.8-2
				c0.6-0.9,0.9-1.8,0.9-2.8s-0.3-1.9-0.9-2.7s-1.6-1.4-3-1.9c-0.9-0.3-2.8-0.9-5.8-1.6c-3-0.7-5.1-1.4-6.3-2
				c-1.6-0.8-2.7-1.8-3.5-3.1c-0.8-1.2-1.2-2.6-1.2-4.1c0-1.7,0.5-3.2,1.4-4.6c0.9-1.4,2.3-2.5,4.1-3.3c1.8-0.7,3.8-1.1,6-1.1
				c2.4,0,4.6,0.4,6.4,1.2c1.9,0.8,3.3,1.9,4.3,3.5c1,1.5,1.5,3.2,1.6,5.2l-4.2,0.3c-0.2-2.1-1-3.6-2.3-4.7
				c-1.3-1.1-3.2-1.6-5.7-1.6c-2.6,0-4.5,0.5-5.7,1.4c-1.2,1-1.8,2.1-1.8,3.5c0,1.2,0.4,2.1,1.3,2.9c0.8,0.8,3,1.5,6.5,2.3
				s5.9,1.5,7.3,2.1c1.9,0.9,3.3,2,4.2,3.3c0.9,1.3,1.4,2.9,1.4,4.7c0,1.7-0.5,3.4-1.5,4.9s-2.4,2.7-4.3,3.6c-1.9,0.9-4,1.3-6.3,1.3
				c-3,0-5.5-0.4-7.5-1.3c-2-0.9-3.6-2.2-4.7-3.9C396.5,662.5,395.9,660.5,395.8,658.4z"/>
			<path d="M451.6,636.1h4.3V655c0,3.3-0.4,5.9-1.1,7.8c-0.7,1.9-2.1,3.5-4,4.7s-4.5,1.8-7.7,1.8c-3.1,0-5.6-0.5-7.5-1.6
				c-2-1.1-3.3-2.6-4.2-4.6c-0.8-2-1.3-4.7-1.3-8.2V636h4.3v19c0,2.8,0.3,4.9,0.8,6.3c0.5,1.3,1.4,2.4,2.7,3.1
				c1.3,0.7,2.9,1.1,4.7,1.1c3.2,0,5.5-0.7,6.8-2.2c1.4-1.4,2-4.2,2-8.3v-18.9L451.6,636.1L451.6,636.1z"/>
			<path d="M465.4,668.9v-32.8h6.5l7.8,23.2c0.7,2.2,1.2,3.8,1.6,4.9c0.4-1.2,1-2.9,1.7-5.3l7.8-22.8h5.8v32.8h-4.2v-27.4l-9.5,27.4
				H479l-9.5-27.9v27.9L465.4,668.9L465.4,668.9z"/>
			<path d="M505.8,668.9v-32.8h6.5l7.8,23.2c0.7,2.2,1.2,3.8,1.6,4.9c0.4-1.2,1-2.9,1.7-5.3l7.8-22.8h5.8v32.8h-4.2v-27.4l-9.5,27.4
				h-3.9L510,641v27.9H505.8z"/>
			<path d="M546.5,668.9v-32.8h23.7v3.9h-19.4v10h18.1v3.8h-18.1V665h20.1v3.9H546.5z"/>
			<path d="M579.3,668.9v-32.8h14.5c2.9,0,5.1,0.3,6.7,0.9c1.5,0.6,2.7,1.6,3.6,3.1c0.9,1.5,1.4,3.1,1.4,4.9c0,2.3-0.8,4.3-2.3,5.9
				c-1.5,1.6-3.8,2.6-7,3c1.1,0.6,2,1.1,2.6,1.6c1.3,1.2,2.5,2.6,3.6,4.4l5.7,8.9h-5.5l-4.3-6.8c-1.3-2-2.3-3.5-3.1-4.5
				s-1.6-1.8-2.2-2.2c-0.6-0.4-1.3-0.7-2-0.9c-0.5-0.1-1.3-0.2-2.4-0.2h-5v14.6L579.3,668.9L579.3,668.9z M583.6,650.6h9.3
				c2,0,3.5-0.2,4.7-0.6c1.1-0.4,2-1.1,2.5-2c0.6-0.9,0.9-1.9,0.9-2.9c0-1.5-0.6-2.8-1.7-3.8c-1.1-1-2.9-1.5-5.3-1.5h-10.4V650.6z"
				/>
		</g>
		<g>
			<path d="M268.6,601.9c-4.1,0-7.5-1.4-10.3-4.2s-4.2-6.3-4.2-10.3v-47.3h9v47.2c0,1.5,0.5,2.7,1.6,3.7c1,1,2.3,1.5,3.8,1.5
				s2.7-0.5,3.7-1.5s1.5-2.3,1.5-3.7v-47.2h9.6v47.3c0,4.1-1.4,7.5-4.3,10.3C276,600.5,272.6,601.9,268.6,601.9z"/>
			<path d="M304.1,540.1c4.5,0,8.1,1.4,10.7,4.2c2.5,2.7,3.7,6.1,3.7,10.3v8.9c0,4-1.4,7.5-4.2,10.3c-2.8,2.9-6.2,4.3-10.2,4.3h-5.3
				v23h-9.2V540L304.1,540.1L304.1,540.1z M309.6,554.8c0-1.6-0.5-2.9-1.4-3.9c-1-1-2.2-1.5-3.8-1.5h-5.6V569h5.6
				c1.5,0,2.7-0.5,3.7-1.6c1-1,1.5-2.3,1.5-3.8L309.6,554.8L309.6,554.8z"/>
			<path d="M341,549.4h-9.8v-9.3H360v9.3h-9.8v51.9H341V549.4z"/>
			<path d="M380.9,539.3c4.1,0,7.5,1.4,10.4,4.3c2.8,2.9,4.3,6.3,4.3,10.3v33.4c0,4.1-1.4,7.5-4.3,10.4c-2.9,2.8-6.3,4.3-10.3,4.3
				c-4.1,0-7.5-1.4-10.3-4.3s-4.2-6.3-4.2-10.3V554c0-4.1,1.4-7.5,4.3-10.4C373.5,540.7,376.9,539.3,380.9,539.3z M385.9,553.8
				c0-1.5-0.5-2.7-1.5-3.7s-2.3-1.5-3.7-1.5c-1.5,0-2.7,0.5-3.8,1.5c-1,1-1.6,2.3-1.6,3.7v33.5c0,1.5,0.5,2.7,1.6,3.7
				c1,1,2.3,1.5,3.8,1.5s2.7-0.5,3.7-1.5s1.5-2.3,1.5-3.7V553.8z"/>
			<path d="M408.2,578.7l16.3-38.7h9.2v38.7h5.9v9.3h-5.9v13.2h-9.2V588h-16.3V578.7z M424.5,578.7v-19.1l-7.6,19.1H424.5z"/>
			<path d="M475.2,587.3c0,4.1-1.4,7.5-4.3,10.3s-6.3,4.2-10.3,4.2c-4.1,0-7.5-1.4-10.4-4.3c-2.8-2.8-4.3-6.3-4.3-10.3v-33.4
				c0-4.1,1.4-7.5,4.3-10.4c2.9-2.8,6.3-4.3,10.3-4.3c4.1,0,7.5,1.4,10.3,4.3s4.2,6.3,4.2,10.3v33.6L475.2,587.3L475.2,587.3z
				 M465.7,553.7c0-1.5-0.5-2.7-1.6-3.8c-1-1-2.3-1.6-3.8-1.6s-2.7,0.5-3.7,1.6s-1.5,2.3-1.5,3.8v33.4c0,1.5,0.5,2.7,1.5,3.8
				c1,1,2.3,1.6,3.7,1.6s2.7-0.5,3.8-1.6c1-1,1.6-2.3,1.6-3.8V553.7z"/>
			<path d="M496.9,562.5c0,2.1-0.8,3.9-2.3,5.4s-3.3,2.2-5.4,2.2s-3.9-0.7-5.4-2.2s-2.2-3.3-2.2-5.4V545c0-2.1,0.7-3.9,2.2-5.4
				s3.3-2.2,5.4-2.2s3.9,0.8,5.4,2.3s2.2,3.3,2.2,5.4L496.9,562.5L496.9,562.5z M489.9,602.3h-5.4l31.2-64.7h5.4L489.9,602.3z
				 M486.3,562.4c0,0.8,0.3,1.4,0.8,2c0.5,0.5,1.2,0.8,2,0.8s1.4-0.3,2-0.8c0.5-0.5,0.8-1.2,0.8-2V545c0-0.8-0.3-1.4-0.8-2
				c-0.5-0.5-1.2-0.8-2-0.8s-1.4,0.3-2,0.8c-0.5,0.5-0.8,1.2-0.8,2V562.4z M516.4,568.8c2.1,0,3.9,0.8,5.4,2.3s2.2,3.3,2.2,5.4V594
				c0,2.1-0.7,3.9-2.2,5.4s-3.3,2.2-5.4,2.2c-2.1,0-3.9-0.7-5.4-2.2c-1.5-1.5-2.2-3.3-2.2-5.3v-17.5c0-2.1,0.7-3.9,2.2-5.4
				C512.5,569.6,514.3,568.8,516.4,568.8z M519,576.4c0-0.8-0.3-1.4-0.8-2c-0.5-0.5-1.2-0.8-2-0.8s-1.4,0.3-2,0.8
				c-0.5,0.5-0.8,1.2-0.8,2v17.5c0,0.8,0.3,1.4,0.8,2c0.5,0.5,1.2,0.8,2,0.8s1.4-0.3,2-0.8c0.5-0.5,0.8-1.2,0.8-2V576.4z"/>
			<path d="M544.9,539.3c4.1,0,7.5,1.4,10.4,4.3c2.8,2.9,4.3,6.3,4.3,10.3v33.4c0,4.1-1.4,7.5-4.3,10.4c-2.9,2.8-6.3,4.3-10.3,4.3
				c-4.1,0-7.5-1.4-10.3-4.3s-4.2-6.3-4.2-10.3V554c0-4.1,1.4-7.5,4.3-10.4C537.5,540.7,540.9,539.3,544.9,539.3z M550,553.8
				c0-1.5-0.5-2.7-1.5-3.7s-2.3-1.5-3.7-1.5s-2.7,0.5-3.8,1.5c-1,1-1.6,2.3-1.6,3.7v33.5c0,1.5,0.5,2.7,1.6,3.7c1,1,2.3,1.5,3.8,1.5
				s2.7-0.5,3.7-1.5s1.5-2.3,1.5-3.7V553.8z"/>
			<path d="M575.1,601.2h-9.2V540h26.2v9.3h-17V566h12.4v9.3h-12.4V601.2z"/>
			<path d="M607.7,601.2h-9.2V540h26.2v9.3h-17V566h12.4v9.3h-12.4V601.2z"/>
		</g>
		<g>
			<g>
				<path d="M230.1,275c-20.9-14.2-42.2-21.3-63.9-21.3c-14.4,0-25.4,2.3-33.1,6.8c-7.7,4.5-11.5,10.7-11.5,18.7
					c0,8.3,4.1,14.4,12.3,18.2c5.8,2.8,15.4,4.7,28.6,5.7c19.5,1.7,32.3,3.1,38.6,4.2c17.7,3.1,30.7,8.9,39.1,17.4
					c8.4,8.5,12.7,20.5,12.7,36.1c0,19.9-6.6,35.3-19.9,46.2c-13.2,10.9-32.3,16.4-57.1,16.4c-36,0-63.9-10.6-83.9-31.7l12.9-22.6
					c22.1,18,45.8,27,71.3,27c16.5,0,29.3-3,38.4-9.1c8.7-5.9,13-13.9,13-24.1c0-11.9-5.7-19.9-17.1-23.9c-6-2.1-22.1-4.2-48.3-6.5
					c-23.2-2.1-39.5-6.2-48.9-12.5c-10.9-7.3-16.4-19.5-16.4-36.6c0-17.7,6.2-31.6,18.6-41.8s29.9-15.3,52.5-15.3
					c30.4,0,55.8,9.3,76.3,27.8L230.1,275z"/>
				<path d="M444.5,418.8H419l-16.2-42.1h-95l-16.2,42.1H266l74.6-188H370L444.5,418.8z M391.4,348.7l-35.9-91.1l-36.4,91.1H391.4z"
					/>
				<path d="M605.2,418.8H473v-188h23.4v160h108.9L605.2,418.8L605.2,418.8z"/>
				<path d="M782.2,418.8H634.6v-188h142.2v28H658v48.3h82.6v28H658v55.6h124.2V418.8z"/>
			</g>
		</g>
	</g>
</g>
<g>
	<g>
		<g>
			<g>
				<path class="st9" d="M290.1,333.5l3.1,4.8l-1.1,4.8l-0.5,4.8l-1.4,4.6l-0.1,4.9l-1.6,4.6l-4.4,3.3l-2.2,4l-1.2,4.7l-1.3,4.9
					l-3.7,3l-4,2.4l-3.2,3.2l-2.9,3.9l-3.6,3.2l-4.5,1.5l-5.6-2.1l-4,1l-3.9,1.5l-3.8,4l-4.5-3.8l-4.2,0.6l-4.9,2l-4.6-2.9l-4.7-0.5
					l-5.4,1.8l-3.6-4.7l-5.6,0.8l-4.4-2.3l-3.9-3l-3.8-2.6l-3.6-2.9l-3.4-3.1l-2.1-4.2l-1.7-4.3l-2.1-4l-1.8-4.1l-2.3-4l-1.7-4.3
					l-0.9-4.5l-0.4-4.6l-1.1-4.4l-2.8-4.2l3.1-5l-2.9-4.6l4.7,1.2l4.4-2l4.7,2.3l4.2-4.2l4.5-0.9l4.6,0.6l4.6,0.8l4.2,0.8l2.5,3.6
					l1.3,4.7l-2.8,5.8l2.5,4.5l2.1,4.6l2.4,4.4l3,4.2l4.1,2.3l4.4,1.1l3.8,2l4.4,3.3l4.8-2.8l4.6-1.8l3.3-3.7l5.3-1.6l1.2-5.3l4-2.9
					l-1.4-4.9l-0.8-4.3l1.3-4.1l-0.4-4.8l-1.4-4.6l-0.3-5.1l-1.6-4.8l-2.5-4.4l-5.1-2.4l-2-4.8l-4.6-1.8l-2.4-4.2l-3.2-3.4l-1.3-5.4
					l-5.4-1.1l-3.1-3.5l-2.9-3.7l-4.1-2.4l-4.3-2.2l-0.6-6.1l-3.9-2.6l-4.7-2l-3-3.7l-3.5-3.2l-0.7-5.5l-3.2-3.4l-4.3-2.7l-2-4.3
					l-1.9-4.3l-3.1-3.6l-3.4-3.7l-1.8-4.4l-0.1-4.8l-0.7-4.6l1.9-4.9l-0.5-4.5l1.1-4.5l-4.6-4.6l0.1-4.7l2.3-4.4l2.8-4.1l1.1-4.3
					l0.1-4.7l1.7-4.2l2.3-3.9l4.4-2.5l-0.5-5.9l3.9-2.8l4.8-1.5l1.3-5.5l3.5-3.6l5.2-0.5l4.6-1.1l4.6-0.9l3.9-3.8l5,0.8l4.8,2.1
					l4.5-4.1l4.5,2.7l4.6-0.6l4.6,0l4.9-0.6l3.4,4.7l5.6-2l3.3,3.9l4.7,1.1l1.7,5.4l4.2,1.9l4.5,1.9l3.3,3.2l2.1,4.2l1.4,4.5
					l3.9,3.8l-1.4,6l4,4l-1.8,5.6l1.8,4.7l2.4,5.5l-5.4-2.3l-3.7,5.4l-4.7,0.1l-4.5,0.8l-4.8-0.6l-4.5,0.9l-4.7-0.2l-4.1,0.2
					l-0.5-2.8l0.8-4.7l-5.2-3l0.7-4.8l-3.5-3l-3-2.9l-0.2-6.1l-4.6-1.2l-4.1-2.3l-4.6,0l-4.6,3.2l-4.7,1.1l-1.9,4.8l-6.2,1.3
					l0.6,5.7l-2.1,4.3l-0.7,4.7l-2.1,4.8l1.9,4.8l0.3,4.9l1.4,4.7l1,4.9l1.4,4.9l6.1,2l-0.2,6.1l4.7,2.6l4.2,2.4l3.6,2.8l1.7,5
					l2.5,4.2l5.8,0.4l0.7,6.4l4.2,2.2l3.8,2.8l2.7,3.9l6.3,0.2l0.1,6.1l4.3,2l3.5,2.8l2,4l3.1,3.2l2.1,3.9l2.8,3.4l1.3,4.3l2.2,3.8
					l0.8,4.4l1.7,3.9l2.3,4.3l1.7,4.6l0.9,4.8l0.5,4.8L290.1,333.5z"/>
			</g>
			<g>
				<path class="st9" d="M359,336.8l-2,5.9l2.7,5.4l0,4.9l-2.8,4.5l1.5,5.2l-3.4,4.4l-1.9,4.6l3,5.4l-1.1,4.8l-2,4.6l-2.1,4.6
					l-1.5,3l-3.3,1.9l-4.9,1.8l-4.9-2.1l-4.9-0.8l-4.9,1.9l-4.9-0.4l-4.9,0.7l-4.6-1.4l-1-4.6l0.9-4.6l3.4-4.2l1.7-4.5l-3.3-5.3
					l5.1-3.9l-3.8-5.4l2.3-4.4l2.8-4.3l0.7-4.7l-2.1-5.1l1.5-4.5l1.3-4.6l0.4-4.7l2-4.5l2.6-4.3l-1.6-5.1l1.4-4.5l1.3-4.6l-0.6-4.9
					l-1-4.9l5.2-3.9l-1.9-5.1l1.3-4.6l0.9-4.6l2.4-4.4l0.3-4.7l1.3-4.6l-1.5-5l-0.2-4.8l3.6-4.2l0.3-4.7l0.8-4.6l-2.1-5.1l3-4.3
					l2.5-4.4l-0.1-4.8l-2.4-5.2l5.1-3.9l-3.3-5.3l4.9-4l-1.8-5.1l0.5-4.7l1.2-4.6l2.4-4.4l1.2-4.6l0-4.8l-0.9-4.9l-0.5-4.9l1.9-4.5
					l0.7-4.7l0.1-4.8l3.9-4.1l1.1-3l3.2-3l4.7,3.3l4.7-3.7l4.7,1.4l4.7-0.3l4.7-0.8l4.7,2.7l4.7,1.1l4.7-0.6l4.7-4.4l3.7,3.7
					l1.1,3.5l2.4,4.4l0.2,4.7l0.9,4.6l-1.9,5.1l0.4,4.7l3.2,4.2l2.3,4.4L411,187l0.8,4.7l4,4.1l-2,5.1l0.2,4.7l1.3,4.6l4.7,4
					l-0.1,4.8l-0.6,4.9l-1.4,5l4.3,4.1l-1.1,5l-0.1,4.8l1.1,4.6l3.1,4.3l-1.4,5l0.7,4.7l3.4,4.2l-0.8,4.9l2.8,4.3l-2.8,5.3l1.3,4.6
					l3.2,4.2l-0.7,4.9l2.2,4.4l-2.3,5.2l2.4,4.4l-1,5l4.5,4l-3.1,5.3l3.5,4.2l-1.9,5.1l3.9,4.1l-1.4,5l3.2,4.2l-0.1,4.8l-1.6,5
					l4.5,4l0.7,4.7l-1.5,5l1.2,4.6l2.9,4.3l1.5,4.5l0.8,4.7l-2.9,5.3l0.8,3.4l-3.8,1.4l-5-1.1l-5-0.9l-5-0.6l-5,2.3l-5,2.4l-5-4.2
					l-6.4,3.4l1.3-6.6l-3.8-4.3l3.2-5.4l0.3-5l-3.7-4.4l1.2-5.1l-2.5-4.5l1.5-5.2l-3.8-4.3l1.1-5.1l-0.5-4.9l-2.5-3.8l-4.2-0.4
					l-4.9-1.3l-4.9,1.4l-4.9-2.1l-4.9,4.2l-4.9-4.1l-4.9,0.8L359,336.8z M380.1,200.4l-3.2,6.3l2.8,5.2l0.1,4.8l-2.7,4.4l1.6,5
					l-3.3,4.3l-1.8,4.6l3.1,5.2l-1,4.7l-1.9,4.5l-2,4.5l-2.3,4.5l1.8,5.1l1.1,5l-2.7,4.4l-1.4,4.6l1.2,5l-1,4.7l0,4.8l-2.2,4.5
					l0.9,3.9l3.6-0.4l4.7,2.7l4.7,0.9l4.7-4.2l4.7,4.4l3-3.9l0.4-3.2l1.4-5l-0.7-4.7l-3.6-4.3l0.1-4.8l-0.1-4.8l-1-4.7l0.5-4.9
					l1.1-5l-3.1-4.4l0-4.8l-0.1-4.8l-2.1-4.5l-2.4-4.5l3.7-5.3l-3.4-4.3l-0.1-4.8l-0.5-4.7l0.9-4.9l-1.2-4.6L380.1,200.4z"/>
			</g>
			<g>
				<path class="st9" d="M577.3,395.5l-4.2-1l-4.7,2.8l-4.7,0.5l-4.7-0.2l-4.7-0.5l-4.7-3.1l-4.7,3.4l-4.7,0.9l-4.7-1.2l-4.7-2.8
					l-4.7,2.6l-4.7,1.6l-4.7-1.7l-4.7-1.3l-4.7,1.3l-4.7-0.6l-4.7-1.1l-4.7-1.1l-4.7,2l-4.7-0.7l-4.7,1.7l-5.9,0.1l1.1-5.9l-1-4.7
					l-1.1-4.7l4.3-4.7l0.3-4.6l-4.6-4.7l2.1-4.7l-0.7-4.7l2.6-4.7l-1.1-4.7l-2.3-4.7l0.4-4.7l0.1-4.6l3.4-4.7l0.3-4.7l-4.8-4.6
					l3.1-4.6l1.3-4.6l-2.9-4.6l2.3-4.7l-1.8-4.7l0.9-4.6l1-4.6l-2.2-4.6l-1.8-4.7l4.7-4.6l-1.8-4.6l0.3-4.7l0.7-4.7l-0.7-4.7
					l-2.5-4.7l3.6-4.7l-1.9-4.7l-1.1-4.7l0.7-4.7l0.9-4.7l1.3-4.7l-0.7-4.7l-1.6-4.7l-1.2-4.7l2.1-4.7l2.2-4.7l-2.5-4.6l-0.2-4.7
					l2.6-4.7l-2-4.7l-2.8-4.7l0.9-4.7l0-4.7l3.8-4.7l-2.1-4.7l-0.5-4.7l-1.8-4.7l0.6-6.2l6.2,1.3l4.7,0.1l4.7,2.2l4.7-4.2l4.7,1.2
					l4.7-1.1l4.7,4.2l4-1.4l-0.2,3.9l-1.6,4.6l4.9,4.6l-3.1,4.6l0.8,4.6l0.2,4.6l-0.1,4.6l1.5,4.6l-2.9,4.6l2.5,4.6l-1.8,4.6
					l2.9,4.6l-1.9,4.6l-1.8,4.6l3.4,4.6l0.5,4.6l-1.6,4.6l1.1,4.6l-1.8,4.6l2.2,4.6l-3.5,4.6l1.5,4.6l-2,4.6l0.1,4.6l-0.2,4.6
					l2.4,4.6l-1.6,4.6l2.7,4.6l-3,4.6l1.7,4.6l-2.4,4.6l2.6,4.6l-2,4.6l1.8,4.6l-1,4.6l-0.4,4.6l-1.1,4.6l-0.1,4.6l4.6,4.6l-0.3,4.6
					l-2.5,4.6l-0.3,4.6l3.1,4.6l0.2,4.6l-0.2,4.7l-2.9,5.3l5.3,1.2l4.7-1.5l4.7,1.3l4.7-0.5l4.7,0.6l4.7-4.1l4.7,1.5l4.7-1.2
					l4.7,2.1l4.7,0.3l4.7-0.1l4.7,0.8l4.7,1l5-2.2l0.4,5l-1,4.7l2.4,4.7l-3.8,4.7l1.8,4.7l0.9,4.7l-1.9,4.7L577.3,395.5z"/>
			</g>
			<g>
				<path class="st9" d="M603.4,396.5l0-5.2l-1.2-4.7l3.9-4.7l-4.3-4.7l3.9-4.7l-1.6-4.7l-2.7-4.7l3-4.7l-1.9-4.7l3.7-4.7l-4.5-4.7
					l-0.4-4.7l0.9-4.7l3.8-4.7l0.3-4.7l-2.4-4.7l1.4-4.7l-0.5-4.7l-3.2-4.7l-0.4-4.7l3.5-4.7l-2.4-4.7l-0.5-4.7l1.9-4.7l-1.1-4.7
					l1.5-4.7l-0.1-4.7l-1.2-4.7l0.3-4.7l2.1-4.7l-2.4-4.7l0.5-4.7l-0.9-4.7l1.5-4.7l-0.4-4.7l2.2-4.7l-0.1-4.7l-2.3-4.7l2.9-4.7
					l-1-4.7l-2.7-4.7l3.6-4.7l-3.1-4.7l-0.6-4.7l-1.3-4.7l1.6-4.7l2.9-4.7l-1.8-4.7l1.7-4.7l-3.7-4.7l0.1-4.7l1.3-4.7l-1.9-4.7
					l3.8-3l3-1.3l4.7,0.7l4.7,0.4l4.7-1.2l4.7-2.5l4.7,2.4l4.7-1.3l4.7,3l4.7-4.3l4.7,0.6l4.7,2.8l4.7-3.4l4.7,4.9l4.7-3.4l4.7,1.5
					l4.7-1.4l4.7,2.8l4.7-4.6l4.7,1.7l4.7-1.7l4.7,2l4.7,1.7l5.7-2.2l1.6,5.7l-4.6,4.8l4.1,4.8l-4.3,4.8l2.9,4.8l-0.8,4.8l2.4,4.8
					l-3.8,3.3l-3.2,4l-4.7-3.2l-4.7,2.8l-4.7-4.4l-4.7,3.4l-4.7-2.5l-4.7,2.9l-4.7,0.1l-4.7-1.9l-4.7-1.7l-4.7,0.9l-4.7,1.8
					l-4.7,1.8l-4.7-3.9l-5.6,0.3l-0.1,5.6l-0.8,4.6l3.3,4.6l-2.3,4.6l2.2,4.6l-0.6,4.6l-0.9,4.6l-1.9,4.6l4.6,4.6l-1.8,4.6l-3.2,4.6
					l1.7,4.6l-0.3,4.6l2,4.6l-0.3,4.1l4.1-0.8l4.6,2.2l4.6-1.2l4.6,0.6l4.6,1.8l4.6-3.7l4.6,0.4l4.6,1.5l4.7-0.8l4.7,1.4l5.5-1.7
					l0.8,5.6l-3.8,4.8l4.1,4.8l-0.2,4.8l0.5,4.8l-3.2,4.8l0.8,4.8l0.1,4.6l-4.5,2.4l-4.6-4.8l-4.6,4.4l-4.6-3.5l-4.6,2.6l-4.6-1.2
					l-4.6,0.7l-4.6-2.4l-4.7,0.4l-4.7,1.6l-4.1,0.5l-1,4l2.5,4.6l-2.9,4.6l-0.1,4.6l2.2,4.6l0.1,4.6l0.3,4.6l-0.8,4.6l-0.8,4.6
					l0.1,4.6l0,4.6l1.4,4.6l-1.2,4.6l-2.1,4.6l2.2,4.1l4.2-0.7l4.7,2.6l4.7-1.9l4.7,2.5l4.7-2.6l4.7,2.3l4.7-4.2l4.7,3.8l4.7-1.7
					l4.7,0.4l4.7-1.4l4.7,1.3l4.7-1.5l4.7,3.2l4.8-1.9l0,4.9l1.1,4.8l1,4.8l-0.9,4.8l0.2,4.8l-0.1,4.8l-1.4,4.8l1.2,6.1l-6-2.3
					l-4.7,0.6l-4.7,0.7l-4.7-1.1l-4.7-1.4l-4.7,4.6l-4.7-1.7l-4.7,0.4l-4.7-0.3l-4.7-0.3l-4.7-0.7l-4.7,1.4l-4.7-0.2l-4.7-0.3
					l-4.7,0.6l-4.7-0.7l-4.7-1.1l-4.7-1.8l-4.7,4l-4.7,0.9l-4.7-4.8l-4.6,4.1L603.4,396.5z"/>
			</g>
		</g>
	</g>
	<g>
		<path class="st9" d="M308.2,731.6v3.7h-20.7c0-0.9,0.1-1.8,0.4-2.7c0.5-1.4,1.4-2.8,2.5-4.2c1.2-1.4,2.8-3,5-4.7
			c3.4-2.8,5.7-5,6.9-6.6c1.2-1.6,1.8-3.2,1.8-4.6c0-1.5-0.5-2.8-1.6-3.9s-2.5-1.6-4.3-1.6c-1.9,0-3.3,0.6-4.4,1.7
			c-1.1,1.1-1.7,2.7-1.7,4.6l-4-0.4c0.3-3,1.3-5.2,3.1-6.7c1.8-1.5,4.1-2.3,7.1-2.3c3,0,5.4,0.8,7.1,2.5c1.8,1.7,2.6,3.7,2.6,6.2
			c0,1.3-0.3,2.5-0.8,3.7c-0.5,1.2-1.4,2.5-2.6,3.8c-1.2,1.3-3.2,3.2-5.9,5.5c-2.3,1.9-3.8,3.3-4.4,3.9c-0.7,0.7-1.2,1.4-1.6,2.1
			H308.2z"/>
		<path class="st9" d="M314.6,719.8c0-3.7,0.4-6.7,1.1-8.9c0.8-2.3,1.9-4,3.4-5.2c1.5-1.2,3.4-1.8,5.7-1.8c1.7,0,3.2,0.3,4.4,1
			s2.3,1.7,3.1,2.9c0.8,1.3,1.5,2.8,1.9,4.7c0.5,1.8,0.7,4.3,0.7,7.4c0,3.7-0.4,6.6-1.1,8.9s-1.9,4-3.4,5.2
			c-1.5,1.2-3.4,1.8-5.7,1.8c-3,0-5.4-1.1-7.1-3.2C315.6,729.9,314.6,725.7,314.6,719.8z M318.5,719.8c0,5.1,0.6,8.6,1.8,10.3
			s2.7,2.6,4.5,2.6c1.8,0,3.3-0.9,4.5-2.6c1.2-1.7,1.8-5.1,1.8-10.3c0-5.2-0.6-8.6-1.8-10.3c-1.2-1.7-2.7-2.5-4.5-2.5
			c-1.8,0-3.2,0.7-4.2,2.2C319.2,711.1,318.5,714.7,318.5,719.8z"/>
		<path class="st9" d="M355.6,735.3h-3.8v-24.5c-0.9,0.9-2.1,1.8-3.6,2.7c-1.5,0.9-2.9,1.5-4.1,2v-3.7c2.2-1,4-2.2,5.6-3.7
			s2.8-2.8,3.4-4.2h2.5V735.3z"/>
		<path class="st9" d="M367.9,708v-3.7h20.3v3c-2,2.1-4,4.9-5.9,8.5c-2,3.5-3.5,7.1-4.5,10.9c-0.8,2.6-1.3,5.5-1.5,8.6h-4
			c0-2.5,0.5-5.4,1.5-8.9c0.9-3.5,2.3-6.9,4-10.1s3.6-6,5.5-8.2H367.9z"/>
		<path class="st9" d="M415.6,735.3l-8.3-31.3h4.3l4.8,20.5c0.5,2.2,1,4.3,1.3,6.4c0.8-3.3,1.3-5.3,1.4-5.8l6-21.2h5l4.5,15.9
			c1.1,3.9,1.9,7.6,2.4,11.1c0.4-2,0.9-4.3,1.6-6.8l4.9-20.1h4.2l-8.6,31.3h-4l-6.6-23.9c-0.6-2-0.9-3.2-1-3.7
			c-0.3,1.4-0.6,2.7-0.9,3.7l-6.6,23.9H415.6z"/>
		<path class="st9" d="M454.3,735.3v-31.3h4.1v31.3H454.3z"/>
		<path class="st9" d="M467.9,735.3v-31.3h4.3l16.5,24.6v-24.6h4v31.3h-4.3l-16.5-24.6v24.6H467.9z"/>
		<path class="st9" d="M509.7,735.3v-27.6h-10.3v-3.7h24.8v3.7h-10.4v27.6H509.7z"/>
		<path class="st9" d="M530.8,735.3v-31.3h22.7v3.7h-18.5v9.6h17.3v3.7h-17.3v10.7h19.2v3.7H530.8z"/>
		<path class="st9" d="M562.1,735.3v-31.3H576c2.8,0,4.9,0.3,6.4,0.8c1.5,0.6,2.6,1.6,3.5,3c0.9,1.4,1.3,3,1.3,4.7
			c0,2.2-0.7,4.1-2.2,5.6c-1.4,1.5-3.7,2.5-6.7,2.9c1.1,0.5,1.9,1,2.5,1.6c1.2,1.1,2.4,2.5,3.4,4.2l5.5,8.5h-5.2l-4.1-6.5
			c-1.2-1.9-2.2-3.3-3-4.3c-0.8-1-1.5-1.7-2.1-2.1c-0.6-0.4-1.3-0.7-1.9-0.8c-0.5-0.1-1.2-0.2-2.3-0.2h-4.8v13.9H562.1z
			 M566.3,717.7h8.9c1.9,0,3.4-0.2,4.4-0.6c1.1-0.4,1.9-1,2.4-1.9c0.6-0.9,0.8-1.8,0.8-2.8c0-1.5-0.5-2.7-1.6-3.7
			c-1.1-1-2.8-1.4-5.1-1.4h-9.9V717.7z"/>
	</g>
	<g>
		<path class="st9" d="M191.7,654.6c-5.9,0-10.9-2.1-15-6.2c-4.1-4.1-6.2-9.1-6.2-14.9V565h13.1v68.4c0,2.1,0.8,3.9,2.3,5.4
			c1.5,1.5,3.3,2.2,5.4,2.2s3.9-0.7,5.4-2.2s2.2-3.3,2.2-5.4V565h13.9v68.5c0,5.9-2.1,10.9-6.2,15
			C202.6,652.6,197.6,654.6,191.7,654.6z"/>
		<path class="st9" d="M243.2,565c6.5,0,11.7,2.1,15.6,6.2c3.6,3.9,5.4,8.9,5.4,15V599c0,5.8-2,10.8-6.1,15c-4.1,4.2-9,6.2-14.8,6.2
			h-7.7v33.4h-13.4V565H243.2z M251.2,586.4c0-2.3-0.7-4.2-2.1-5.6c-1.4-1.4-3.2-2.1-5.6-2.1h-8.1V607h8.1c2.1,0,3.9-0.8,5.4-2.3
			c1.5-1.5,2.2-3.3,2.2-5.4V586.4z"/>
		<path class="st9" d="M296.7,578.4h-14.2V565h41.7v13.4h-14.1v75.2h-13.4V578.4z"/>
		<path class="st9" d="M354.6,563.9c5.9,0,10.9,2.1,15,6.2c4.1,4.1,6.2,9.1,6.2,15v48.4c0,5.9-2.1,10.9-6.2,15
			c-4.2,4.1-9.1,6.2-15,6.2c-5.9,0-10.9-2.1-15-6.2c-4.1-4.1-6.2-9.1-6.2-15v-48.4c0-5.9,2.1-10.9,6.2-15
			C343.8,565.9,348.8,563.9,354.6,563.9z M361.9,584.8c0-2.1-0.7-3.9-2.2-5.4c-1.5-1.5-3.3-2.2-5.4-2.2s-3.9,0.7-5.4,2.2
			c-1.5,1.5-2.3,3.3-2.3,5.4v48.5c0,2.1,0.8,3.9,2.3,5.4c1.5,1.5,3.3,2.2,5.4,2.2s3.9-0.7,5.4-2.2s2.2-3.3,2.2-5.4V584.8z"/>
		<path class="st9" d="M394.2,621l23.6-56.2h13.4V621h8.6v13.4h-8.6v19.1h-13.4v-19.1h-23.6V621z M417.8,621v-27.7l-11,27.7H417.8z"
			/>
		<path class="st9" d="M491.3,633.4c0,5.9-2.1,10.9-6.2,15s-9.1,6.2-14.9,6.2c-5.9,0-10.9-2.1-15-6.2c-4.1-4.1-6.2-9.1-6.2-15V585
			c0-5.9,2.1-10.9,6.2-15c4.1-4.1,9.1-6.2,15-6.2c5.9,0,10.9,2.1,15,6.2c4.1,4.2,6.2,9.1,6.2,15V633.4z M477.5,584.7
			c0-2.1-0.8-3.9-2.3-5.4c-1.5-1.5-3.3-2.3-5.4-2.3s-3.9,0.8-5.4,2.3c-1.5,1.5-2.2,3.3-2.2,5.4v48.5c0,2.1,0.7,3.9,2.2,5.4
			c1.5,1.5,3.3,2.3,5.4,2.3s3.9-0.8,5.4-2.3c1.5-1.5,2.3-3.3,2.3-5.4V584.7z"/>
		<path class="st9" d="M522.7,597.5c0,3-1.1,5.6-3.3,7.8c-2.2,2.2-4.8,3.3-7.8,3.3c-3.1,0-5.7-1.1-7.9-3.3c-2.2-2.2-3.3-4.8-3.3-7.8
			v-25.3c0-3.1,1.1-5.7,3.3-7.9c2.2-2.2,4.8-3.3,7.9-3.3s5.7,1.1,7.9,3.3c2.2,2.2,3.3,4.8,3.3,7.8V597.5z M512.6,655.1h-7.9
			l45.3-93.8h7.8L512.6,655.1z M507.4,597.4c0,1.1,0.4,2.1,1.2,2.9c0.8,0.8,1.7,1.2,2.9,1.2s2.1-0.4,2.9-1.2
			c0.8-0.8,1.2-1.7,1.2-2.9v-25.3c0-1.1-0.4-2.1-1.2-2.9c-0.8-0.8-1.7-1.2-2.9-1.2s-2.1,0.4-2.9,1.2c-0.8,0.8-1.2,1.7-1.2,2.9V597.4
			z M551,606.7c3.1,0,5.7,1.1,7.8,3.3c2.1,2.2,3.2,4.8,3.2,7.8v25.3c0,3.1-1.1,5.7-3.3,7.8c-2.2,2.1-4.8,3.2-7.8,3.2
			c-3.1,0-5.7-1.1-7.9-3.2c-2.2-2.1-3.3-4.7-3.3-7.7v-25.3c0-3.1,1.1-5.7,3.3-7.9C545.4,607.7,548,606.7,551,606.7z M554.9,617.6
			c0-1.1-0.4-2.1-1.2-2.9c-0.8-0.8-1.7-1.2-2.9-1.2s-2.1,0.4-2.9,1.2c-0.8,0.8-1.2,1.7-1.2,2.9v25.3c0,1.1,0.4,2.1,1.2,2.9
			c0.8,0.8,1.7,1.2,2.9,1.2s2.1-0.4,2.9-1.2c0.8-0.8,1.2-1.7,1.2-2.9V617.6z"/>
		<path class="st9" d="M592.4,563.9c5.9,0,10.9,2.1,15,6.2c4.1,4.1,6.2,9.1,6.2,15v48.4c0,5.9-2.1,10.9-6.2,15
			c-4.1,4.1-9.1,6.2-15,6.2c-5.9,0-10.9-2.1-15-6.2c-4.1-4.1-6.2-9.1-6.2-15v-48.4c0-5.9,2.1-10.9,6.2-15
			C581.6,565.9,586.6,563.9,592.4,563.9z M599.7,584.8c0-2.1-0.7-3.9-2.2-5.4c-1.5-1.5-3.3-2.2-5.4-2.2s-3.9,0.7-5.4,2.2
			c-1.5,1.5-2.3,3.3-2.3,5.4v48.5c0,2.1,0.8,3.9,2.3,5.4c1.5,1.5,3.3,2.2,5.4,2.2s3.9-0.7,5.4-2.2s2.2-3.3,2.2-5.4V584.8z"/>
		<path class="st9" d="M636.2,653.6h-13.4v-88.7h38.1v13.4h-24.7v24.2h18V616h-18V653.6z"/>
		<path class="st9" d="M683.5,653.6h-13.4v-88.7h38.1v13.4h-24.7v24.2h18V616h-18V653.6z"/>
	</g>
	<line class="st10" x1="54.4" y1="480.8" x2="824.3" y2="480.8"/>
</g>
</svg>
