<?xml version="1.0" encoding="utf-8"?>
<!-- Generator: Adobe Illustrator 22.0.0, SVG Export Plug-In . SVG Version: 6.00 Build 0)  -->
<!DOCTYPE svg PUBLIC "-//W3C//DTD SVG 1.1//EN" "http://www.w3.org/Graphics/SVG/1.1/DTD/svg11.dtd">
<svg version="1.1" id="レイヤー_1" xmlns="http://www.w3.org/2000/svg" xmlns:xlink="http://www.w3.org/1999/xlink" x="0px"
	 y="0px" viewBox="0 0 878.7 878.7" style="enable-background:new 0 0 878.7 878.7;" xml:space="preserve">
<style type="text/css">
	.st0{display:none;}
	.st1{display:inline;fill:#231815;}
	.st2{font-family:'Bebas';}
	.st3{font-size:356.6411px;}
	.st4{letter-spacing:-5;}
	.st5{font-family:'ArialMT';}
	.st6{font-size:55.3148px;}
	.st7{font-size:82.9722px;}
	.st8{display:inline;}
	.st9{fill:#FFFFFF;}
</style>
<metadata><?xpacket begin="﻿" id="W5M0MpCehiHzreSzNTczkc9d"?>
<x:xmpmeta xmlns:x="adobe:ns:meta/" x:xmptk="Adobe XMP Core 5.6-c143 79.161210, 2017/08/11-10:28:36        ">
   <rdf:RDF xmlns:rdf="http://www.w3.org/1999/02/22-rdf-syntax-ns#">
      <rdf:Description rdf:about=""
            xmlns:xmp="http://ns.adobe.com/xap/1.0/"
            xmlns:xmpGImg="http://ns.adobe.com/xap/1.0/g/img/"
            xmlns:xmpTPg="http://ns.adobe.com/xap/1.0/t/pg/"
            xmlns:stDim="http://ns.adobe.com/xap/1.0/sType/Dimensions#"
            xmlns:xmpG="http://ns.adobe.com/xap/1.0/g/"
            xmlns:dc="http://purl.org/dc/elements/1.1/">
         <xmp:CreatorTool>Adobe Illustrator CC 22.0 (Macintosh)</xmp:CreatorTool>
         <xmp:CreateDate>2017-12-07T19:42:11+09:00</xmp:CreateDate>
         <xmp:Thumbnails>
            <rdf:Alt>
               <rdf:li rdf:parseType="Resource">
                  <xmpGImg:width>256</xmpGImg:width>
                  <xmpGImg:height>244</xmpGImg:height>
                  <xmpGImg:format>JPEG</xmpGImg:format>
                  <xmpGImg:image>/9j/4AAQSkZJRgABAgEASABIAAD/7QAsUGhvdG9zaG9wIDMuMAA4QklNA+0AAAAAABAASAAAAAEA&#xA;AQBIAAAAAQAB/+4ADkFkb2JlAGTAAAAAAf/bAIQABgQEBAUEBgUFBgkGBQYJCwgGBggLDAoKCwoK&#xA;DBAMDAwMDAwQDA4PEA8ODBMTFBQTExwbGxscHx8fHx8fHx8fHwEHBwcNDA0YEBAYGhURFRofHx8f&#xA;Hx8fHx8fHx8fHx8fHx8fHx8fHx8fHx8fHx8fHx8fHx8fHx8fHx8fHx8fHx8f/8AAEQgA9AEAAwER&#xA;AAIRAQMRAf/EAaIAAAAHAQEBAQEAAAAAAAAAAAQFAwIGAQAHCAkKCwEAAgIDAQEBAQEAAAAAAAAA&#xA;AQACAwQFBgcICQoLEAACAQMDAgQCBgcDBAIGAnMBAgMRBAAFIRIxQVEGE2EicYEUMpGhBxWxQiPB&#xA;UtHhMxZi8CRygvElQzRTkqKyY3PCNUQnk6OzNhdUZHTD0uIIJoMJChgZhJRFRqS0VtNVKBry4/PE&#xA;1OT0ZXWFlaW1xdXl9WZ2hpamtsbW5vY3R1dnd4eXp7fH1+f3OEhYaHiImKi4yNjo+Ck5SVlpeYmZ&#xA;qbnJ2en5KjpKWmp6ipqqusra6voRAAICAQIDBQUEBQYECAMDbQEAAhEDBCESMUEFURNhIgZxgZEy&#xA;obHwFMHR4SNCFVJicvEzJDRDghaSUyWiY7LCB3PSNeJEgxdUkwgJChgZJjZFGidkdFU38qOzwygp&#xA;0+PzhJSktMTU5PRldYWVpbXF1eX1RlZmdoaWprbG1ub2R1dnd4eXp7fH1+f3OEhYaHiImKi4yNjo&#xA;+DlJWWl5iZmpucnZ6fkqOkpaanqKmqq6ytrq+v/aAAwDAQACEQMRAD8A9U4q7FXYq7FXYq7FXYq7&#xA;FXYq7FXYq7FXYq7FXYq7FXYq7FXYq7FXYq7FXYq7FXYq7FXYq7FXYq7FXYq7FXYq7FXYq7FXYq7F&#xA;XYq7FXYq7FXYq7FXYq7FXYq7FXYq7FXYq7FXYq7FXYq7FXYq7FXYq7FXYq7FXYq7FXYq7FXYq7FX&#xA;Yq7FXYq7FXYq7FXYq7FXYq7FXYq7FXYq7FXYq7FXYq7FXYq7FXYq7FXYq7FXYq7FXYq7FXYq7FXY&#xA;q7FXYq7FXYq7FXYq7FXYq7FXYq7FXYq7FXYq7FXYq7FXYq7FXYq7FXYq7FXYq7FXYq7FXYq7FXYq&#xA;7FXYq7FXYq7FXYq7FXYq7FXYq7FXYq7FXYq7FXYq7FXYq7FXYq7FXYq7FXYq7FXYq7FXYq7FXYq7&#xA;FXYq7FXYq7FXYq7FXYq7FXYq7FXYq7FXYq7FXYq7FXYq7FXYq7FXYq7FXYq7FXYq7FXYq7FXYq7F&#xA;XYq7FXYq7FXYq7FXYq7FXYq7FXYq7FXYq7FXYq7FXYq7FXYq7FXYq7FXYq7FXYq7FXYq7FXYq7FX&#xA;Yq7FXYq7FXYq7FXYq7FXYq7FXYq7FXYq7FXYq7FXYq7FXYq7FXYq7FXYq7FXYq7FXYq7FXYq7FXY&#xA;q7FXYq7FXYq7FXYq7FXYq7FXYq7FXYq7FXYq7FXYq7FXYq7FXYq7FXYq7FXYq7FXYq7FXYq7FXYq&#xA;7FXYq7FXYq7FXYq7FXYq7FXYq7FXYq7FXYq7FXYq7FXYq7FXYq7FXYq7FXYq7FXYq7FXYq7FXYq7&#xA;FXYq7FXYq7FXYq7FXYq7FXYq7FXYq7FXYq7FXYq7FXYq7FXYq7FXYq7FXYq7FXYq7FXYq7FXYq7F&#xA;XYq7FXYq7FXYq7FXYq7FXYq7FXYq7FXYq7FXYq7FXYq7FXYq7FXYq7FXYq7FXYq7FXYq7FXYq7FX&#xA;Yq7FXYq7FXYq7FXYq7FXYq7FXYq7FXYq7FXYq7FXYq7FXYq7FXYq7FXYq7FXYq7FXYq7FXYq7FXY&#xA;q7FXYq7FXYq7FXYq7FXYq7FXYq7FXYq7FXYq7FXYq7FXYq7FXYq7FXYq7FXYq7FXYq7FXYq7FXYq&#xA;7FXYq7FXYq7FXYq7FXYq7FXYq7FXYq7FXYq7FXYq7FXYq7FXYq7FXYq7FXYq7FXYq7FXYq7FXYq7&#xA;FXYq7FXYq7FXYq7FXYq7FXYq7FXYq7FXYq7FXYq7FXYq7FXYq7FXYq7FXYq7FXYq7FXYq7FXYq7F&#xA;XYq7FXYq7FXYq7FXYq7FXYq7FXYq7FXYq7FXYq7FXYq7FXYq7FXYq7FXYq7FXYq7FXYq7FXYq7FX&#xA;Yq7FXYq7FXYq7FXYq7FXYq7FXYq7FXYq7FXYq7FXYq7FXYq7FXYq7FXYq7FXYq7FXYq7FXYq7FXY&#xA;q7FXYq7FXYq7FXYq7FXYq7FXYq7FXYq7FXYq7FXYq7FXYq7FXYq7FXYq7FXYq7FXYq7FXYq7FXYq&#xA;7FXYq7FXYq7FXYq7FXYq7FXYq7FXYq7FXYq7FXYq7FXYq7FXYq7FXYq7FXYq7FXYq7FXYq7FXYq7&#xA;FXYq7FXYq7FXYq7FXYq7FXYq7FXYq7FXYq7FXYq7FXYq7FXYq7FXYq7FXYq7FXYq7FXYq7FXYq7F&#xA;XYq7FXYq7FXYq7FXYq7FXYq7FXYq7FXYq7FXYq7FXYq7FXYq7FXYq7FXYq7FXYq7FXYq7FXYq7FX&#xA;Yq7FXYq7FXYq7FXYq7FXYq7FXYq7FXYq7FXYq7FXYq7FXYq7FXYq7FXYq7FXYq7FXYq7FXYq7FXY&#xA;q7FXYq7FXYq7FXYq7FXYq7FXYq7FXYq7FXYq7FXYq7FXYq7FXYq7FXYq7FXYq7FXYq7FXYq7FXYq&#xA;7FXYq7FXYq7FXYq7FXYq7FXYq7FXYq7FXYq7FXYq7FXYq7FXYq7FXYq7FXYq7FXYq7FXYq7FXYq7&#xA;FXYq7FXYq7FXYq7FXYq7FXYq7FXYq7FXYq7FXYq7FXYq7FXYq7FXYq7FXYq7FXYq7FXYq7FXYq7F&#xA;XYq7FXYq7FXYq7FXYq7FXYq7FXYq7FXYq7FXYq7FXYq7FXYq7FXYq7FXYq7FXYq7FXYq7FXYq7FX&#xA;Yq7FXYq7FXYq7FXYq7FXYq7FXYq7FXYq7FXYq7FXYq7FXYq7FXYq7FXYq7FXYq7FXYq7FXYq7FXY&#xA;q7FXYq7FXYq7FXYq7FXYq7FXYq7FXYq7FXYq7FXYq7FXYq7FXYq7FXYq7FXYq7FXYq7FXYq7FXYq&#xA;7FXYq7FXYq7FXYq7FXYq7FXYq7FXYq7FXYq7FXYq7FXYq7FXYq7FXYq7FXYq7FXYq7FXYq7FXYq7&#xA;FXYq7FXYq7FXYq7FXYq7FXYq7FXYq7FXYq7FXYq7FXYq7FXYq7FXYq7FXYq7FXYq7FXYq7FXYq7F&#xA;XYq7FXYq7FXYq7FXYq7FXYq7FXYq7FXYq7FXYq7FXYq7FXYq7FXYq7FXYq7FXYq7FXYq7FXYq7FX&#xA;Yq7FXYq7FXYq7FXYq7FXYq7FXYq7FX//2Q==</xmpGImg:image>
               </rdf:li>
            </rdf:Alt>
         </xmp:Thumbnails>
         <xmpTPg:MaxPageSize rdf:parseType="Resource">
            <stDim:w>309.985838</stDim:w>
            <stDim:h>309.985838</stDim:h>
            <stDim:unit>Millimeters</stDim:unit>
         </xmpTPg:MaxPageSize>
         <xmpTPg:NPages>1</xmpTPg:NPages>
         <xmpTPg:HasVisibleTransparency>False</xmpTPg:HasVisibleTransparency>
         <xmpTPg:HasVisibleOverprint>False</xmpTPg:HasVisibleOverprint>
         <xmpTPg:SwatchGroups>
            <rdf:Seq>
               <rdf:li rdf:parseType="Resource">
                  <xmpG:groupName>初期設定のスウォッチグループ</xmpG:groupName>
                  <xmpG:groupType>0</xmpG:groupType>
               </rdf:li>
            </rdf:Seq>
         </xmpTPg:SwatchGroups>
         <dc:format>image/svg+xml</dc:format>
      </rdf:Description>
   </rdf:RDF>
</x:xmpmeta>
                                                                                                    
                                                                                                    
                                                                                                    
                                                                                                    
                                                                                                    
                                                                                                    
                                                                                                    
                                                                                                    
                                                                                                    
                                                                                                    
                                                                                                    
                                                                                                    
                                                                                                    
                                                                                                    
                                                                                                    
                                                                                                    
                                                                                                    
                                                                                                    
                                                                                                    
                                                                                                    
                           
<?xpacket end="w"?>
	</metadata>
<g id="レイヤー_1_1_">
	<g class="st0">
		<text transform="matrix(1 0 0 1 78.7832 460.9073)" class="st1 st2 st3 st4">S</text>
		<text transform="matrix(1 0 0 1 261.4832 460.9073)" class="st1 st2 st3">ALE</text>
		<text transform="matrix(1 0 0 1 232.0273 736.8956)" class="st1 st5 st6">2017 SUMMER</text>
		<text transform="matrix(1 0 0 1 211.6104 655.1769)" class="st1 st2 st7">UP TO 40%OFF</text>
	</g>
</g>
<g id="レイヤー_3" class="st0">
	<g class="st8">
		<g>
			<path d="M290.8,665v3.9h-21.7c0-1,0.1-1.9,0.5-2.8c0.6-1.5,1.4-2.9,2.6-4.4c1.2-1.4,3-3.1,5.3-5c3.6-2.9,6-5.2,7.2-6.9
				c1.3-1.7,1.9-3.3,1.9-4.8c0-1.6-0.6-2.9-1.7-4s-2.6-1.6-4.5-1.6s-3.5,0.6-4.7,1.7c-1.2,1.2-1.8,2.8-1.8,4.8l-4.1-0.4
				c0.3-3.1,1.3-5.4,3.2-7.1s4.3-2.4,7.4-2.4s5.6,0.9,7.5,2.6c1.8,1.7,2.8,3.9,2.8,6.5c0,1.3-0.3,2.6-0.8,3.9
				c-0.5,1.3-1.4,2.6-2.7,4c-1.2,1.4-3.3,3.3-6.2,5.8c-2.4,2-4,3.4-4.7,4.1c-0.7,0.7-1.3,1.5-1.7,2.2L290.8,665L290.8,665z"/>
			<path d="M297.4,652.7c0-3.9,0.4-7,1.2-9.4c0.8-2.4,2-4.2,3.6-5.5s3.6-1.9,5.9-1.9c1.8,0,3.3,0.4,4.6,1.1c1.3,0.7,2.4,1.7,3.3,3.1
				c0.9,1.3,1.5,3,2,4.9s0.7,4.5,0.7,7.7c0,3.8-0.4,7-1.2,9.3c-0.8,2.4-2,4.2-3.5,5.5c-1.6,1.3-3.6,1.9-6,1.9
				c-3.2,0-5.6-1.1-7.4-3.4C298.4,663.3,297.4,658.9,297.4,652.7z M301.5,652.7c0,5.4,0.6,9,1.9,10.7s2.8,2.7,4.7,2.7
				c1.8,0,3.4-0.9,4.7-2.7s1.9-5.4,1.9-10.7c0-5.4-0.6-9-1.9-10.8s-2.8-2.7-4.7-2.7c-1.8,0-3.3,0.8-4.4,2.3
				C302.2,643.6,301.5,647.3,301.5,652.7z"/>
			<path d="M340.3,668.9h-4v-25.6c-1,0.9-2.2,1.8-3.8,2.8s-3,1.6-4.2,2.1v-3.9c2.3-1.1,4.2-2.3,5.9-3.8s2.9-3,3.6-4.4h2.6v32.8
				L340.3,668.9L340.3,668.9z"/>
			<path d="M353.2,640.4v-3.9h21.2v3.1c-2.1,2.2-4.2,5.2-6.2,8.9s-3.6,7.5-4.8,11.4c-0.8,2.7-1.3,5.7-1.5,9h-4.1
				c0-2.6,0.6-5.7,1.5-9.3c1-3.7,2.4-7.2,4.2-10.6s3.7-6.2,5.8-8.6L353.2,640.4L353.2,640.4z"/>
			<path d="M395.8,658.4l4.1-0.4c0.2,1.6,0.6,3,1.4,4c0.7,1.1,1.8,1.9,3.3,2.5s3.2,1,5,1c1.7,0,3.1-0.2,4.4-0.7s2.2-1.2,2.8-2
				c0.6-0.9,0.9-1.8,0.9-2.8s-0.3-1.9-0.9-2.7s-1.6-1.4-3-1.9c-0.9-0.3-2.8-0.9-5.8-1.6c-3-0.7-5.1-1.4-6.3-2
				c-1.6-0.8-2.7-1.8-3.5-3.1c-0.8-1.2-1.2-2.6-1.2-4.1c0-1.7,0.5-3.2,1.4-4.6c0.9-1.4,2.3-2.5,4.1-3.3c1.8-0.7,3.8-1.1,6-1.1
				c2.4,0,4.6,0.4,6.4,1.2c1.9,0.8,3.3,1.9,4.3,3.5c1,1.5,1.5,3.2,1.6,5.2l-4.2,0.3c-0.2-2.1-1-3.6-2.3-4.7
				c-1.3-1.1-3.2-1.6-5.7-1.6c-2.6,0-4.5,0.5-5.7,1.4c-1.2,1-1.8,2.1-1.8,3.5c0,1.2,0.4,2.1,1.3,2.9c0.8,0.8,3,1.5,6.5,2.3
				s5.9,1.5,7.3,2.1c1.9,0.9,3.3,2,4.2,3.3c0.9,1.3,1.4,2.9,1.4,4.7c0,1.7-0.5,3.4-1.5,4.9s-2.4,2.7-4.3,3.6c-1.9,0.9-4,1.3-6.3,1.3
				c-3,0-5.5-0.4-7.5-1.3c-2-0.9-3.6-2.2-4.7-3.9C396.5,662.5,395.9,660.5,395.8,658.4z"/>
			<path d="M451.6,636.1h4.3V655c0,3.3-0.4,5.9-1.1,7.8c-0.7,1.9-2.1,3.5-4,4.7s-4.5,1.8-7.7,1.8c-3.1,0-5.6-0.5-7.5-1.6
				c-2-1.1-3.3-2.6-4.2-4.6c-0.8-2-1.3-4.7-1.3-8.2V636h4.3v19c0,2.8,0.3,4.9,0.8,6.3c0.5,1.3,1.4,2.4,2.7,3.1
				c1.3,0.7,2.9,1.1,4.7,1.1c3.2,0,5.5-0.7,6.8-2.2c1.4-1.4,2-4.2,2-8.3v-18.9L451.6,636.1L451.6,636.1z"/>
			<path d="M465.4,668.9v-32.8h6.5l7.8,23.2c0.7,2.2,1.2,3.8,1.6,4.9c0.4-1.2,1-2.9,1.7-5.3l7.8-22.8h5.8v32.8h-4.2v-27.4l-9.5,27.4
				H479l-9.5-27.9v27.9L465.4,668.9L465.4,668.9z"/>
			<path d="M505.8,668.9v-32.8h6.5l7.8,23.2c0.7,2.2,1.2,3.8,1.6,4.9c0.4-1.2,1-2.9,1.7-5.3l7.8-22.8h5.8v32.8h-4.2v-27.4l-9.5,27.4
				h-3.9L510,641v27.9H505.8z"/>
			<path d="M546.5,668.9v-32.8h23.7v3.9h-19.4v10h18.1v3.8h-18.1V665h20.1v3.9H546.5z"/>
			<path d="M579.3,668.9v-32.8h14.5c2.9,0,5.1,0.3,6.7,0.9c1.5,0.6,2.7,1.6,3.6,3.1c0.9,1.5,1.4,3.1,1.4,4.9c0,2.3-0.8,4.3-2.3,5.9
				c-1.5,1.6-3.8,2.6-7,3c1.1,0.6,2,1.1,2.6,1.6c1.3,1.2,2.5,2.6,3.6,4.4l5.7,8.9h-5.5l-4.3-6.8c-1.3-2-2.3-3.5-3.1-4.5
				s-1.6-1.8-2.2-2.2c-0.6-0.4-1.3-0.7-2-0.9c-0.5-0.1-1.3-0.2-2.4-0.2h-5v14.6L579.3,668.9L579.3,668.9z M583.6,650.6h9.3
				c2,0,3.5-0.2,4.7-0.6c1.1-0.4,2-1.1,2.5-2c0.6-0.9,0.9-1.9,0.9-2.9c0-1.5-0.6-2.8-1.7-3.8c-1.1-1-2.9-1.5-5.3-1.5h-10.4V650.6z"
				/>
		</g>
		<g>
			<path d="M268.6,601.9c-4.1,0-7.5-1.4-10.3-4.2s-4.2-6.3-4.2-10.3v-47.3h9v47.2c0,1.5,0.5,2.7,1.6,3.7c1,1,2.3,1.5,3.8,1.5
				s2.7-0.5,3.7-1.5s1.5-2.3,1.5-3.7v-47.2h9.6v47.3c0,4.1-1.4,7.5-4.3,10.3C276,600.5,272.6,601.9,268.6,601.9z"/>
			<path d="M304.1,540.1c4.5,0,8.1,1.4,10.7,4.2c2.5,2.7,3.7,6.1,3.7,10.3v8.9c0,4-1.4,7.5-4.2,10.3c-2.8,2.9-6.2,4.3-10.2,4.3h-5.3
				v23h-9.2V540L304.1,540.1L304.1,540.1z M309.6,554.8c0-1.6-0.5-2.9-1.4-3.9c-1-1-2.2-1.5-3.8-1.5h-5.6V569h5.6
				c1.5,0,2.7-0.5,3.7-1.6c1-1,1.5-2.3,1.5-3.8L309.6,554.8L309.6,554.8z"/>
			<path d="M341,549.4h-9.8v-9.3H360v9.3h-9.8v51.9H341V549.4z"/>
			<path d="M380.9,539.3c4.1,0,7.5,1.4,10.4,4.3c2.8,2.9,4.3,6.3,4.3,10.3v33.4c0,4.1-1.4,7.5-4.3,10.4c-2.9,2.8-6.3,4.3-10.3,4.3
				c-4.1,0-7.5-1.4-10.3-4.3s-4.2-6.3-4.2-10.3V554c0-4.1,1.4-7.5,4.3-10.4C373.5,540.7,376.9,539.3,380.9,539.3z M385.9,553.8
				c0-1.5-0.5-2.7-1.5-3.7s-2.3-1.5-3.7-1.5c-1.5,0-2.7,0.5-3.8,1.5c-1,1-1.6,2.3-1.6,3.7v33.5c0,1.5,0.5,2.7,1.6,3.7
				c1,1,2.3,1.5,3.8,1.5s2.7-0.5,3.7-1.5s1.5-2.3,1.5-3.7V553.8z"/>
			<path d="M408.2,578.7l16.3-38.7h9.2v38.7h5.9v9.3h-5.9v13.2h-9.2V588h-16.3V578.7z M424.5,578.7v-19.1l-7.6,19.1H424.5z"/>
			<path d="M475.2,587.3c0,4.1-1.4,7.5-4.3,10.3s-6.3,4.2-10.3,4.2c-4.1,0-7.5-1.4-10.4-4.3c-2.8-2.8-4.3-6.3-4.3-10.3v-33.4
				c0-4.1,1.4-7.5,4.3-10.4c2.9-2.8,6.3-4.3,10.3-4.3c4.1,0,7.5,1.4,10.3,4.3s4.2,6.3,4.2,10.3v33.6L475.2,587.3L475.2,587.3z
				 M465.7,553.7c0-1.5-0.5-2.7-1.6-3.8c-1-1-2.3-1.6-3.8-1.6s-2.7,0.5-3.7,1.6s-1.5,2.3-1.5,3.8v33.4c0,1.5,0.5,2.7,1.5,3.8
				c1,1,2.3,1.6,3.7,1.6s2.7-0.5,3.8-1.6c1-1,1.6-2.3,1.6-3.8V553.7z"/>
			<path d="M496.9,562.5c0,2.1-0.8,3.9-2.3,5.4s-3.3,2.2-5.4,2.2s-3.9-0.7-5.4-2.2s-2.2-3.3-2.2-5.4V545c0-2.1,0.7-3.9,2.2-5.4
				s3.3-2.2,5.4-2.2s3.9,0.8,5.4,2.3s2.2,3.3,2.2,5.4L496.9,562.5L496.9,562.5z M489.9,602.3h-5.4l31.2-64.7h5.4L489.9,602.3z
				 M486.3,562.4c0,0.8,0.3,1.4,0.8,2c0.5,0.5,1.2,0.8,2,0.8s1.4-0.3,2-0.8c0.5-0.5,0.8-1.2,0.8-2V545c0-0.8-0.3-1.4-0.8-2
				c-0.5-0.5-1.2-0.8-2-0.8s-1.4,0.3-2,0.8c-0.5,0.5-0.8,1.2-0.8,2V562.4z M516.4,568.8c2.1,0,3.9,0.8,5.4,2.3s2.2,3.3,2.2,5.4V594
				c0,2.1-0.7,3.9-2.2,5.4s-3.3,2.2-5.4,2.2c-2.1,0-3.9-0.7-5.4-2.2c-1.5-1.5-2.2-3.3-2.2-5.3v-17.5c0-2.1,0.7-3.9,2.2-5.4
				C512.5,569.6,514.3,568.8,516.4,568.8z M519,576.4c0-0.8-0.3-1.4-0.8-2c-0.5-0.5-1.2-0.8-2-0.8s-1.4,0.3-2,0.8
				c-0.5,0.5-0.8,1.2-0.8,2v17.5c0,0.8,0.3,1.4,0.8,2c0.5,0.5,1.2,0.8,2,0.8s1.4-0.3,2-0.8c0.5-0.5,0.8-1.2,0.8-2V576.4z"/>
			<path d="M544.9,539.3c4.1,0,7.5,1.4,10.4,4.3c2.8,2.9,4.3,6.3,4.3,10.3v33.4c0,4.1-1.4,7.5-4.3,10.4c-2.9,2.8-6.3,4.3-10.3,4.3
				c-4.1,0-7.5-1.4-10.3-4.3s-4.2-6.3-4.2-10.3V554c0-4.1,1.4-7.5,4.3-10.4C537.5,540.7,540.9,539.3,544.9,539.3z M550,553.8
				c0-1.5-0.5-2.7-1.5-3.7s-2.3-1.5-3.7-1.5s-2.7,0.5-3.8,1.5c-1,1-1.6,2.3-1.6,3.7v33.5c0,1.5,0.5,2.7,1.6,3.7c1,1,2.3,1.5,3.8,1.5
				s2.7-0.5,3.7-1.5s1.5-2.3,1.5-3.7V553.8z"/>
			<path d="M575.1,601.2h-9.2V540h26.2v9.3h-17V566h12.4v9.3h-12.4V601.2z"/>
			<path d="M607.7,601.2h-9.2V540h26.2v9.3h-17V566h12.4v9.3h-12.4V601.2z"/>
		</g>
		<g>
			<g>
				<path d="M230.1,275c-20.9-14.2-42.2-21.3-63.9-21.3c-14.4,0-25.4,2.3-33.1,6.8c-7.7,4.5-11.5,10.7-11.5,18.7
					c0,8.3,4.1,14.4,12.3,18.2c5.8,2.8,15.4,4.7,28.6,5.7c19.5,1.7,32.3,3.1,38.6,4.2c17.7,3.1,30.7,8.9,39.1,17.4
					c8.4,8.5,12.7,20.5,12.7,36.1c0,19.9-6.6,35.3-19.9,46.2c-13.2,10.9-32.3,16.4-57.1,16.4c-36,0-63.9-10.6-83.9-31.7l12.9-22.6
					c22.1,18,45.8,27,71.3,27c16.5,0,29.3-3,38.4-9.1c8.7-5.9,13-13.9,13-24.1c0-11.9-5.7-19.9-17.1-23.9c-6-2.1-22.1-4.2-48.3-6.5
					c-23.2-2.1-39.5-6.2-48.9-12.5c-10.9-7.3-16.4-19.5-16.4-36.6c0-17.7,6.2-31.6,18.6-41.8s29.9-15.3,52.5-15.3
					c30.4,0,55.8,9.3,76.3,27.8L230.1,275z"/>
				<path d="M444.5,418.8H419l-16.2-42.1h-95l-16.2,42.1H266l74.6-188H370L444.5,418.8z M391.4,348.7l-35.9-91.1l-36.4,91.1H391.4z"
					/>
				<path d="M605.2,418.8H473v-188h23.4v160h108.9L605.2,418.8L605.2,418.8z"/>
				<path d="M782.2,418.8H634.6v-188h142.2v28H658v48.3h82.6v28H658v55.6h124.2V418.8z"/>
			</g>
		</g>
	</g>
</g>
<g>
	<path class="st9" d="M125.2,749.4c-0.5,3.8-1.2,9.3-4.5,12.6c-1.7,1.7-4.8,3.3-9.7,3.3c-4.1,0-6.9-1.3-8.7-3
		c-2.5-2.5-2.9-5.9-2.9-8.5c0-2.8,0.2-3.7,0.5-5.8l4.4-36.1H88.9L84.7,747c-0.3,2.7-0.8,7.4-0.8,10.4c0,6.2,1.7,11.2,5.9,15.3
		c6.1,6.1,14.4,6.8,20.9,6.8c5.5,0,15.1-0.3,21.7-7.1c6-6.1,6.8-14.1,7.8-22l4.8-38.5h-15.3L125.2,749.4z"/>
	<path class="st9" d="M181.8,711.9h-22.3l-8.1,66.2h15.3l2.9-23.2h8.7c11,0,16.7-3.1,19.7-5.9c4-3.7,6.5-10,6.5-17.4
		c0-6.7-2.4-11.2-5.4-14.2C193.7,712.1,186.5,711.9,181.8,711.9z M186.1,739.5c-2.6,2.6-6.4,2.9-9.6,2.9H171l2.3-18h4.6
		c2.3,0,6.3,0.2,8.6,2.5c1.8,1.7,2.2,3.9,2.2,5.8C188.7,734.3,188.4,737.3,186.1,739.5z"/>
	<polygon class="st9" points="231.4,724.8 245.8,724.8 239.2,778.1 254.5,778.1 261.1,724.8 275.4,724.8 277,711.9 233,711.9 	"/>
	<path class="st9" d="M316,710.4c-8.5,0-18.8,2-27.2,10c-6.3,6-10.9,15-10.9,26.6c0,10.8,4.8,18.5,9.3,23.1c7.8,7.9,17,9.4,25.2,9.4
		c8.6,0,19.1-1.7,27.4-10.2c6.9-7.1,10.2-17.4,10.2-26.8c0-9.7-3.7-18.1-9.3-23.5C336.4,714.9,328.7,710.4,316,710.4z M328.3,759.8
		c-4.9,5-10.3,5.7-14.8,5.7c-4.7,0-10-1-14.5-5.6c-3.1-3.1-5.4-7.8-5.4-13.9c0-5.6,2.2-11.1,6.1-15.2c4-4.2,9.2-6.4,15.8-6.4
		c4.1,0,9.3,0.9,13.7,5.2c4.4,4.3,5.3,9.6,5.3,13.9C334.4,750.4,331.8,756.1,328.3,759.8z"/>
	<path class="st9" d="M430,711.9h-17.9L377.4,757l-1.1,8.7h32.4l-1.5,12.3h14.7l1.5-12.3h7.9l1.5-12.1h-7.9L430,711.9z M410.1,753.7
		h-16.3l19.4-25.3L410.1,753.7z"/>
	<path class="st9" d="M470,710.4c-7.3,0-14,2.2-19.9,8.1c-6.3,6.4-11.5,17.3-11.5,31.8c0,7.8,1.5,16.7,8.1,23.1
		c5.4,5.2,11.2,6.2,17.2,6.2c7.4,0,12.8-1.4,18.7-7.1c10.2-10.1,11.6-25.2,11.6-33c0-6.9-1.1-16.3-7.6-22.8
		C481.2,711.3,474.8,710.4,470,710.4z M471.4,763.4c-2,2.1-4.3,3.1-7.2,3.1c-1.8,0-4.4-0.7-6.5-3.1c-3.5-3.9-3.6-10.1-3.6-13.2
		c0-8.4,2.4-18.6,7.8-23.6c2.5-2.3,5.2-3.1,7.5-3.1c2.1,0,3.7,0.7,5,1.7c3.9,3.2,4.3,10.8,4.3,14.1
		C478.7,746.9,476.9,757.7,471.4,763.4z"/>
	<path class="st9" d="M558,746.8c-4.3,0-9.8,0.9-14,5.2c-3.2,3.2-5,7.9-5,12.6c0,5.7,2.5,8.9,4.5,10.6c3.7,3.3,8.2,3.8,12,3.8
		c4.3,0,9.4-0.6,13.7-5.2c3.3-3.5,4.8-8.5,4.8-12.9c0-4.1-1.3-7.4-3.9-9.9C566.4,747.2,561.4,746.8,558,746.8z M561.9,768.3
		c-1.9,2-4,2.7-6.4,2.7c-2.7,0-4.4-1.1-5.4-2.3c-1-1.2-1.7-3.1-1.7-4.7c0-2.5,1-5.1,2.9-6.8c1.8-1.7,3.8-2.3,6.3-2.3
		c1.5,0,3.3,0.3,4.8,1.7c1,0.9,2.1,2.5,2.1,5.3C564.5,764.1,563.8,766.4,561.9,768.3z"/>
	<polygon class="st9" points="558,710.8 511,777.9 517.6,779.5 564.8,712.3 	"/>
	<path class="st9" d="M532,738c3.3-3.5,4.8-8.5,4.8-12.9c0-4.1-1.3-7.4-3.9-9.9c-3.8-3.8-8.7-4.2-12.1-4.2c-4.3,0-9.8,0.9-14,5.2
		c-3.2,3.2-5,7.9-5,12.6c0,5.7,2.5,8.9,4.5,10.6c3.7,3.3,8.2,3.8,12,3.8C522.6,743.1,527.8,742.5,532,738z M513,732.8
		c-1-1.2-1.7-3.1-1.7-4.7c0-2.5,1-5.1,2.9-6.8c1.8-1.7,3.8-2.3,6.3-2.3c1.5,0,3.3,0.3,4.8,1.7c1,0.9,2.1,2.5,2.1,5.3
		c0,2.3-0.7,4.6-2.6,6.5c-1.9,2-4,2.7-6.4,2.7C515.7,735.1,514,734,513,732.8z"/>
	<path class="st9" d="M644.2,710.4c-8.5,0-18.8,2-27.2,10c-6.3,6-10.9,15-10.9,26.6c0,10.8,4.8,18.5,9.3,23.1
		c7.8,7.9,17,9.4,25.2,9.4c8.6,0,19.1-1.7,27.4-10.2c6.9-7.1,10.2-17.4,10.2-26.8c0-9.7-3.7-18.1-9.3-23.5
		C664.5,714.9,656.9,710.4,644.2,710.4z M656.4,759.8c-4.9,5-10.3,5.7-14.8,5.7c-4.7,0-10-1-14.5-5.6c-3.1-3.1-5.4-7.8-5.4-13.9
		c0-5.6,2.2-11.1,6.1-15.2c4-4.2,9.2-6.4,15.8-6.4c4.1,0,9.3,0.9,13.7,5.2c4.4,4.3,5.3,9.6,5.3,13.9
		C662.6,750.4,660,756.1,656.4,759.8z"/>
	<polygon class="st9" points="685.5,778.1 700.8,778.1 704.2,750.5 724.1,750.5 725.7,737.6 705.8,737.6 707.4,724.8 728.9,724.8 
		730.4,711.9 693.7,711.9 	"/>
	<polygon class="st9" points="733.4,778.1 748.7,778.1 752.2,750.5 772,750.5 773.6,737.6 753.8,737.6 755.4,724.8 776.8,724.8 
		778.4,711.9 741.7,711.9 	"/>
	<path class="st9" d="M99.2,210.3l10.3-17.6c0,0-14.5-5.8-14.5-19.2c0-34.2,60.8-38.7,96-56.3l-70,122.1
		c-23.9,41.6,14.7,71.6,55.5,27.9c5.8,30.5,60.5,33.7,91.8-21l67.4-117.9c13.9-24.2,30.3-28.4,38.9-15.3c-2.6,2.9-3.9,6.6-3.9,10.8
		c0,8.9,6.8,15.8,15.8,15.8c6.1,0,11.3-3.2,13.9-7.9c16.6-28.9-47.1-81.8-87.4-11.8l-72.6,125.8c-22.9,39.7-53.1,33.4-40,10.3
		l92.1-160.2h-27.4l-81.8,141.8c-34.2,54.2-57.4,40.5-38.9,8.7l77.9-135l-13.9-23.9c-51.8,34.7-137.3,29.7-137.3,85.8
		C71.1,191.9,85.8,205,99.2,210.3z"/>
	<path class="st9" d="M423.3,577.5l-5.3,9l-8.4,14.5c-6.6,11.4,6,13.1,11.2,4.2L435,581C441.6,569.6,431.1,564.4,423.3,577.5z"/>
	<polygon class="st9" points="592.3,585.1 587.9,580.3 584,584.7 583.6,585.1 577.3,586.4 579.3,592.5 577.3,598.7 583.6,600 
		587.9,604.8 592.3,600 598.6,598.7 596.6,592.5 598.6,586.4 	"/>
	<polygon class="st9" points="288.4,585.1 284,580.3 280.1,584.7 279.7,585.1 273.4,586.4 275.4,592.5 273.4,598.7 279.7,600 
		284,604.8 288.4,600 294.7,598.7 292.7,592.5 294.7,586.4 	"/>
	<path class="st9" d="M615.5,522.6c24.6-7,47.9-26.7,66.1-47.8c-1.8-3.7-6.6-7.9-10.3-9.5l-1.8,2.1c-19.7,22.9-45,41-64.2,41
		c-16.8,0-26.8-10.5-14.2-32.6l2.6-4.7c17.6,7.4,50.8,3.9,71.3-31.6l3.9-6.8c14.7-25.3,0.5-44.2-21.8-44.2
		c-22.1,0-39.7,11.6-51.3,31.6l-26.5,45.5l-1.7,1.9c-19.7,22.9-38.9,41-51,41c-6,0-9.5-4.2-3.2-15L618.2,310l-31.3,7.8l-85,147.5
		c0,0,0,0,0,0l-1.8,2.1c-19.7,22.9-38.9,41-51,41c-6,0-9.5-4.2-3.2-15l44.2-77.4h-15.5c1.1-11.6-10.8-27.6-28.7-27.6
		c-14.7,0-35.3,11.6-46.8,31.6l-38.4,66.3c-9,15.7-6.1,30.4,5.9,36.2h-68.1c41.3-13.1,62.8-58.9,62.8-112.6
		c0-17.4,0.3-32.6,1.1-45.5l31.6-31c27.4-26.3,19.5-53.9-6.6-53.9c-3.4,0-6.6,0.3-9.5,0.9l39.2-68.3c41.8-52.4,60.5-45.5,48.7-25.3
		L430,248.7c-11.6,20.3-3.4,38.9,18.7,38.9c13.8,0,28.9-9,43.7-22.1c-0.4,12.7,8.2,22.1,23.9,22.1c16.3,0,34.3-12.5,51.6-29.4
		c1.3,17,15.1,29.4,37.1,29.4c31,0,61.8-24.2,84.5-50.5c0,0,0,0,0,0c0,0,0,0,0,0c13.2-15.3,23.4-28.9,45.3-58.7l3.7,4.5
		c3.4,4.5,4.7,10,1.6,15.5L711,248.7c-11.6,20.3-3.4,38.9,18.7,38.9c22.6,0,48.7-24.2,71.3-50.5c-1.8-3.7-6.6-7.9-10.3-9.5l-1.8,2.1
		c-19.7,22.9-38.9,41-51,41c-6,0-9.5-4.2-3.2-15l27.4-47.9c9.5-16.6,5-26.3-3.9-37.1l-15.3-18.4c-3.9-5-3.9-10.5,1.6-15.8
		l-14.2-15.5c-15.5,13.9-16.8,29.5-7.1,42.1l2.4,3.2c-12.1,17.1-28.4,40.3-46.3,61.3c0,0,0,0,0,0c0,0,0,0,0,0l-1.8,2.1
		c-19.7,22.9-45,41-64.2,41c-16.8,0-26.8-10.5-14.2-32.6l2.6-4.7c17.6,7.4,50.8,3.9,71.3-31.6l3.9-6.8c14.7-25.3,0.5-44.2-21.8-44.2
		c-22.1,0-39.7,11.6-51.3,31.6l-26.5,45.5l-1.7,1.9c-19.7,22.9-38.9,41-51,41c-6,0-9.5-4.2-3.2-15L580,153.4h22.4l7.9-13.2h-22.6
		l25.8-44.7H586l-25.8,44.7h-24.7l-7.9,13.2h25l-42.8,74.2c0,0,0,0,0,0l-1.8,2.1c-19.7,22.9-38.9,41-51,41c-6,0-9.5-4.2-3.2-15
		l39.5-69.2c11.8-20.8,0.5-35.8-14.7-35.8c-11.8,0-24.2,6.3-37.9,20.5l10.3-17.9h-27.4l-42.9,74.2c0,0,0,0,0,0l-1.8,2.1
		c-19.7,22.9-38.9,41-51,41c-6,0-9.5-4.2-3.2-15l58.7-102.4h-27.4l-55,95.2c-11.6,20.3-3.4,38.9,18.7,38.9c11.1,0,23.1-5.8,35-14.9
		l-7.1,12.3H366c-18.4,11.2-26,39.2-28.6,79.2l-38.7,37.9c-8.9-8.7-21.3-14.5-36-14.5c-54.7,0-77.1,53.4-61.8,93.9
		c-14.2,2.9-27.9,0.3-38.7-7.1l-8.2,10.3c15,13.7,34.7,16.8,55,11.8c8.2,11.5,20.5,21,37.2,26H79.8l68.5,71.9l-68.5,71.9h711.9
		l-68.5-71.9l68.5-71.9H615.5z M619.2,426.9c15.8-27.1,43.7-22.6,27.4,5.8l-3.9,6.8c-13.2,22.4-30.8,21.8-41,18.2L619.2,426.9z
		 M627.1,189.2c15.8-27.1,43.7-22.6,27.4,5.8l-3.9,6.8c-13.2,22.4-30.8,21.8-41,18.2L627.1,189.2z M382.9,300.3
		c7.9,0,10.3,9.5-7.4,26.3l-11.1,10.8C368.2,311.6,374.3,300.3,382.9,300.3z M262.7,406.3c8.9,0,17.1,3.2,23.4,8.2l-45.8,45
		c-5.8,5.5-11.8,10-17.9,13.7C211.4,444.5,226.6,406.3,262.7,406.3z M231.1,487.4c8.2-4.5,16.1-10.5,23.7-17.9l41.8-41
		c4.5,11.1,2.6,24.2-9.2,35.5l11.3,11.6c18.4-15,20.3-39.7,10.5-59.2l26.8-26.6V410c0,53.9-21.1,94.5-62.9,94.5
		C253.7,504.5,239.8,497.6,231.1,487.4z M560.1,495.9c1,12.3,8.4,22.1,20.8,26.7h-58.6C534.6,518,547.6,508.1,560.1,495.9z
		 M484.6,503.2c-0.3,8.6,3.6,15.7,11.1,19.4h-41C464.4,519,474.5,512,484.6,503.2z M384.3,493.4l38.2-66.6
		c14.7-25.5,43.9-18.9,30.5,5.8L431.6,470c-16.6,26-32.9,38.4-44.2,38.4C381.4,508.4,377.9,504.2,384.3,493.4z M417.1,507.4
		c0.8,6.7,4.6,12.1,10.8,15.2h-35.7C400.3,519.6,408.8,514.2,417.1,507.4z M312.5,581.2c0.5,0.4,0.7,1.1,0.3,1.7
		c-0.4,0.5-1.1,0.7-1.7,0.3l-3.5-2.5l-2.6,1.5l3.5,2.4c0.7,0.5,0.8,1.4,0.4,2.1c-0.5,0.7-1.4,0.8-2.1,0.4l-4.6-3.2l-3.9,2.2
		l-2.1,6.4l2.1,6.4l3.9,2.2l4.6-3.2c0.7-0.5,1.6-0.3,2.1,0.4c0.5,0.7,0.3,1.6-0.4,2.1l-3.5,2.4l2.6,1.5l3.5-2.5
		c0.5-0.4,1.3-0.2,1.7,0.3c0.4,0.5,0.2,1.3-0.3,1.7l-2.6,1.8l5.2,3c1.1,0.6,1.6,1.7,1.2,2.4c-0.4,0.7-1.6,0.8-2.7,0.2l-5.2-3
		l-0.3,3.1c-0.1,0.7-0.6,1.2-1.3,1.1c-0.7-0.1-1.2-0.6-1.1-1.3l0.4-4.3l-2.6-1.5l-0.4,4.2c-0.1,0.8-0.8,1.4-1.6,1.3
		c-0.8-0.1-1.4-0.8-1.3-1.6l0.5-5.6l-3.9-2.2l-6.6,1.4l-4.5,5v4.5l5.1,2.4c0.7,0.3,1.1,1.2,0.7,2c-0.3,0.7-1.2,1.1-2,0.7l-3.9-1.8v3
		l3.9,1.8c0.6,0.3,0.9,1,0.6,1.6c-0.3,0.6-1,0.9-1.6,0.6l-2.9-1.3v6c0,1.2-0.7,2.2-1.5,2.2c-0.8,0-1.5-1-1.5-2.2v-6l-2.9,1.3
		c-0.6,0.3-1.3,0-1.6-0.6c-0.3-0.6,0-1.3,0.6-1.6l3.9-1.8v-3l-3.9,1.8c-0.7,0.3-1.6,0-2-0.7c-0.3-0.7,0-1.6,0.7-2l5.1-2.4v-4.5
		l-4.5-5l-6.6-1.4l-3.9,2.2l0.5,5.6c0.1,0.8-0.5,1.5-1.3,1.6c-0.8,0.1-1.5-0.5-1.6-1.3l-0.4-4.2L262,607l0.4,4.3
		c0.1,0.7-0.4,1.2-1.1,1.3c-0.7,0.1-1.2-0.4-1.3-1.1l-0.3-3.1l-5.2,3c-1.1,0.6-2.3,0.5-2.7-0.2c-0.4-0.7,0.1-1.8,1.2-2.4l5.2-3
		l-2.6-1.8c-0.5-0.4-0.7-1.1-0.3-1.7c0.4-0.5,1.1-0.7,1.7-0.3l3.5,2.5l2.6-1.5l-3.5-2.4c-0.7-0.5-0.8-1.4-0.4-2.1
		c0.5-0.7,1.4-0.8,2.1-0.4l4.6,3.2l3.9-2.2l2.1-6.4l-2.1-6.4l-3.9-2.2l-4.6,3.2c-0.7,0.5-1.6,0.3-2.1-0.4c-0.5-0.7-0.3-1.6,0.4-2.1
		l3.5-2.4l-2.6-1.5l-3.5,2.5c-0.5,0.4-1.3,0.2-1.7-0.3c-0.4-0.5-0.2-1.3,0.3-1.7l2.6-1.8l-5.2-3c-1.1-0.6-1.6-1.7-1.2-2.4
		c0.4-0.7,1.6-0.8,2.7-0.2l5.2,3l0.3-3.1c0.1-0.7,0.6-1.2,1.3-1.1c0.7,0.1,1.2,0.6,1.1,1.3l-0.4,4.3l2.6,1.5l0.4-4.2
		c0.1-0.8,0.8-1.4,1.6-1.3c0.8,0.1,1.4,0.8,1.3,1.6l-0.5,5.6l3.9,2.2l6.6-1.4l4.5-5v-4.5l-5.1-2.4c-0.7-0.3-1.1-1.2-0.7-2
		c0.3-0.7,1.2-1.1,2-0.7l3.9,1.8v-3l-3.9-1.8c-0.6-0.3-0.9-1-0.6-1.6c0.3-0.6,1-0.9,1.6-0.6l2.9,1.3v-6c0-1.2,0.7-2.2,1.5-2.2
		c0.8,0,1.5,1,1.5,2.2v6l2.9-1.3c0.6-0.3,1.3,0,1.6,0.6c0.3,0.6,0,1.3-0.6,1.6l-3.9,1.8v3l3.9-1.8c0.7-0.3,1.6,0,2,0.7
		c0.3,0.7,0,1.6-0.7,2l-5.1,2.4v4.5l4.5,5l6.6,1.4l3.9-2.2l-0.5-5.6c-0.1-0.8,0.5-1.5,1.3-1.6c0.8-0.1,1.5,0.5,1.6,1.3l0.4,4.2
		l2.6-1.5l-0.4-4.3c-0.1-0.7,0.4-1.2,1.1-1.3c0.7-0.1,1.2,0.4,1.3,1.1l0.3,3.1l5.2-3c1.1-0.6,2.3-0.5,2.7,0.2
		c0.4,0.7-0.1,1.8-1.2,2.4l-5.2,3L312.5,581.2z M395.2,585.5c-7.9,14.2-20.1,21.4-29.2,24.4h19.3l-4.1,7.1h-38.7l4.1-7.1
		c16.1-3.7,28.8-9.4,39.9-28.2c6.7-11.2-4.1-16.2-11.4-3.8l-3.1,4.9h-11.2l4.1-7.2C377.4,553.6,407.4,563.9,395.2,585.5z
		 M402.1,594.6l4.8-8.1l5.4-9.4c6.3-11,12.9-14.4,21.4-14.4c10.4,0,16.5,10.9,9.8,22.4l-11.1,19.2
		C418.5,628.4,387.3,620,402.1,594.6z M465.5,617h-28.6l4.2-7.4h9.1l20-34.6c-3.5,1.9-7.5,3.3-11.7,4.4l-2.3-6.9
		c7.6-2.6,14.5-4.8,21.5-10.4l4.2,9.6L460,609.6h9.7L465.5,617z M483.9,631.8h-10.8c15.2-25.6,33.2-47.6,43.2-59.1h-27.7l4.9-8.6
		h30.7l4.8,7.7C528.9,571.9,504.1,596.9,483.9,631.8z M616.4,581.2c0.5,0.4,0.7,1.1,0.3,1.7c-0.4,0.5-1.1,0.7-1.7,0.3l-3.5-2.5
		l-2.6,1.5l3.5,2.4c0.7,0.5,0.8,1.4,0.4,2.1c-0.5,0.7-1.4,0.8-2.1,0.4l-4.6-3.2l-3.9,2.2l-2.1,6.4l2.1,6.4l3.9,2.2l4.6-3.2
		c0.7-0.5,1.6-0.3,2.1,0.4c0.5,0.7,0.3,1.6-0.4,2.1l-3.5,2.4l2.6,1.5l3.5-2.5c0.5-0.4,1.3-0.2,1.7,0.3c0.4,0.5,0.2,1.3-0.3,1.7
		l-2.6,1.8l5.2,3c1.1,0.6,1.6,1.7,1.2,2.4c-0.4,0.7-1.6,0.8-2.7,0.2l-5.2-3l-0.3,3.1c-0.1,0.7-0.6,1.2-1.3,1.1
		c-0.7-0.1-1.2-0.6-1.1-1.3l0.4-4.3l-2.6-1.5l-0.4,4.2c-0.1,0.8-0.8,1.4-1.6,1.3c-0.8-0.1-1.4-0.8-1.3-1.6l0.5-5.6l-3.9-2.2
		l-6.6,1.4l-4.5,5v4.5l5.1,2.4c0.7,0.3,1.1,1.2,0.7,2c-0.3,0.7-1.2,1.1-2,0.7l-3.9-1.8v3l3.9,1.8c0.6,0.3,0.9,1,0.6,1.6
		c-0.3,0.6-1,0.9-1.6,0.6l-2.9-1.3v6c0,1.2-0.7,2.2-1.5,2.2c-0.8,0-1.5-1-1.5-2.2v-6l-2.9,1.3c-0.6,0.3-1.3,0-1.6-0.6
		c-0.3-0.6,0-1.3,0.6-1.6l3.9-1.8v-3l-3.9,1.8c-0.7,0.3-1.6,0-2-0.7c-0.3-0.7,0-1.6,0.7-2l5.1-2.4v-4.5l-4.5-5l-6.6-1.4l-3.9,2.2
		l0.5,5.6c0.1,0.8-0.5,1.5-1.3,1.6c-0.8,0.1-1.5-0.5-1.6-1.3l-0.4-4.2l-2.6,1.5l0.4,4.3c0.1,0.7-0.4,1.2-1.1,1.3
		c-0.7,0.1-1.2-0.4-1.3-1.1l-0.3-3.1l-5.2,3c-1.1,0.6-2.3,0.5-2.7-0.2c-0.4-0.7,0.1-1.8,1.2-2.4l5.2-3l-2.6-1.8
		c-0.5-0.4-0.7-1.1-0.3-1.7c0.4-0.5,1.1-0.7,1.7-0.3l3.5,2.5l2.6-1.5l-3.5-2.4c-0.7-0.5-0.8-1.4-0.4-2.1c0.5-0.7,1.4-0.8,2.1-0.4
		l4.6,3.2l3.9-2.2l2.1-6.4l-2.1-6.4l-3.9-2.2l-4.6,3.2c-0.7,0.5-1.6,0.3-2.1-0.4c-0.5-0.7-0.3-1.6,0.4-2.1l3.5-2.4l-2.6-1.5
		l-3.5,2.5c-0.5,0.4-1.3,0.2-1.7-0.3c-0.4-0.5-0.2-1.3,0.3-1.7l2.6-1.8l-5.2-3c-1.1-0.6-1.6-1.7-1.2-2.4c0.4-0.7,1.6-0.8,2.7-0.2
		l5.2,3l0.3-3.1c0.1-0.7,0.6-1.2,1.3-1.1c0.7,0.1,1.2,0.6,1.1,1.3l-0.4,4.3l2.6,1.5l0.4-4.2c0.1-0.8,0.8-1.4,1.6-1.3
		c0.8,0.1,1.4,0.8,1.3,1.6l-0.5,5.6l3.9,2.2l6.6-1.4l4.5-5v-4.5l-5.1-2.4c-0.7-0.3-1.1-1.2-0.7-2c0.3-0.7,1.2-1.1,2-0.7l3.9,1.8v-3
		l-3.9-1.8c-0.6-0.3-0.9-1-0.6-1.6c0.3-0.6,1-0.9,1.6-0.6l2.9,1.3v-6c0-1.2,0.7-2.2,1.5-2.2c0.8,0,1.5,1,1.5,2.2v6l2.9-1.3
		c0.6-0.3,1.3,0,1.6,0.6c0.3,0.6,0,1.3-0.6,1.6l-3.9,1.8v3l3.9-1.8c0.7-0.3,1.6,0,2,0.7c0.3,0.7,0,1.6-0.7,2l-5.1,2.4v4.5l4.5,5
		l6.6,1.4l3.9-2.2l-0.5-5.6c-0.1-0.8,0.5-1.5,1.3-1.6c0.8-0.1,1.5,0.5,1.6,1.3l0.4,4.2l2.6-1.5l-0.4-4.3c-0.1-0.7,0.4-1.2,1.1-1.3
		c0.7-0.1,1.2,0.4,1.3,1.1l0.3,3.1l5.2-3c1.1-0.6,2.3-0.5,2.7,0.2c0.4,0.7-0.1,1.8-1.2,2.4l-5.2,3L616.4,581.2z"/>
</g>
</svg>
