<?xml version="1.0" encoding="utf-8"?>
<!-- Generator: Adobe Illustrator 21.1.0, SVG Export Plug-In . SVG Version: 6.00 Build 0)  -->
<!DOCTYPE svg PUBLIC "-//W3C//DTD SVG 1.1//EN" "http://www.w3.org/Graphics/SVG/1.1/DTD/svg11.dtd">
<svg version="1.1" id="レイヤー_1" xmlns="http://www.w3.org/2000/svg" xmlns:xlink="http://www.w3.org/1999/xlink" x="0px"
	 y="0px" viewBox="0 0 878.7 878.7" style="enable-background:new 0 0 878.7 878.7;" xml:space="preserve">
<style type="text/css">
	.st0{display:none;}
	.st1{display:inline;fill:#231815;}
	.st2{font-family:'Bebas';}
	.st3{font-size:356.6411px;}
	.st4{letter-spacing:-7;}
	.st5{font-family:'ArialMT';}
	.st6{font-size:55.3148px;}
	.st7{letter-spacing:1;}
	.st8{font-size:82.9722px;}
	.st9{fill:none;stroke:#231815;stroke-width:3.5361;stroke-miterlimit:10;}
	.st10{display:inline;}
</style>
<g id="レイヤー_1_1_">
	<g class="st0">
		<text transform="matrix(1 0 0 1 78.7832 460.9072)" class="st1 st2 st3 st4">S</text>
		<text transform="matrix(1 0 0 1 261.4832 460.9072)" class="st1 st2 st3">ALE</text>
		<text transform="matrix(1 0 0 1 232.0273 736.8955)" class="st1 st5 st6 st7">2017 SUMMER</text>
		<text transform="matrix(1 0 0 1 211.6104 655.1768)" class="st1 st2 st8">UP TO 40%OFF</text>
	</g>
</g>
<g id="レイヤー_2">
	<g>
		<g>
			<path d="M296.8,335.4c0.3,17-4.1,31.5-13.2,43.5c-6,8.2-14.4,13.9-25.3,17.3c-5.8,1.8-12.6,2.7-20.4,2.7
				c-14.4,0-26.3-3.6-35.8-10.7c-7.9-5.8-14.2-13.8-18.8-23.8s-7.3-21.5-8.1-34.5l35-2.5c1.6,14.2,5.3,24.5,11.3,30.9
				c4.4,4.8,9.5,7.1,15.2,6.8c8-0.3,14.4-4.2,19.2-11.9c2.5-3.8,3.7-9.1,3.7-16.1c0-10.1-4.6-20.2-13.8-30.1
				c-7.3-6.9-18.1-17.2-32.6-30.9c-12.2-11.8-20.8-22.4-25.8-31.7c-5.4-10.5-8.2-21.9-8.2-34.2c0-22.2,7.4-39,22.3-50.4
				c9.2-6.9,20.6-10.3,34.2-10.3c13.1,0,24.3,2.9,33.6,8.7c7.3,4.5,13.1,10.9,17.6,19c4.5,8.2,7.2,17.6,8.1,28.2l-35.2,6.4
				c-1-10-3.9-17.7-8.5-23.3c-3.4-4-8.2-6-14.6-6c-6.7,0-11.9,3-15.4,8.9c-2.9,4.8-4.3,10.8-4.3,17.9c0,11.1,4.8,22.5,14.4,34
				c3.6,4.4,9.1,9.6,16.3,15.5c8.5,7.1,14.2,12.1,16.9,15c9.1,9.1,16.1,18,21,26.8c2.3,4.1,4.2,8,5.6,11.5
				C294.9,320.8,296.7,328.6,296.8,335.4z"/>
			<path d="M362.7,340.1l-8.9,56h-38.2L357,152.6h50.5L448.2,396h-38.6l-8.6-56h-38.3V340.1z M382,208.3l-13.6,96h27.2L382,208.3z"
				/>
			<path d="M573.6,396H473.5V152.6h36.7v206.9h63.3L573.6,396L573.6,396z"/>
			<path d="M598.8,396V152.4h104.5v36.9h-67.8v66.5H685v36.9h-49.5v66.5h67.8V396H598.8z"/>
		</g>
		<g>
			<path d="M301.7,717.9v3.6h-20.1c0-0.9,0.1-1.8,0.4-2.6c0.5-1.4,1.3-2.7,2.5-4s2.8-2.9,4.9-4.6c3.3-2.7,5.5-4.9,6.7-6.4
				c1.2-1.6,1.7-3.1,1.7-4.5c0-1.5-0.5-2.7-1.6-3.7s-2.4-1.5-4.1-1.5c-1.8,0-3.2,0.5-4.3,1.6c-1.1,1.1-1.6,2.6-1.6,4.5l-3.8-0.4
				c0.3-2.9,1.2-5,3-6.5c1.7-1.5,4-2.2,6.9-2.2s5.2,0.8,6.9,2.4c1.7,1.6,2.5,3.6,2.5,6c0,1.2-0.2,2.4-0.7,3.6
				c-0.5,1.2-1.3,2.4-2.5,3.7s-3.1,3.1-5.7,5.3c-2.2,1.9-3.7,3.2-4.3,3.8s-1.2,1.3-1.6,2L301.7,717.9L301.7,717.9z"/>
			<path d="M307.8,706.5c0-3.6,0.4-6.5,1.1-8.7s1.8-3.9,3.3-5.1c1.5-1.2,3.3-1.8,5.5-1.8c1.6,0,3.1,0.3,4.3,1c1.2,0.7,2.2,1.6,3,2.8
				s1.4,2.7,1.9,4.5s0.7,4.2,0.7,7.2c0,3.6-0.4,6.4-1.1,8.6c-0.7,2.2-1.8,3.9-3.3,5.1c-1.5,1.2-3.3,1.8-5.5,1.8
				c-2.9,0-5.2-1-6.9-3.1C308.8,716.3,307.8,712.2,307.8,706.5z M311.6,706.5c0,5,0.6,8.3,1.8,10c1.2,1.7,2.6,2.5,4.3,2.5
				c1.7,0,3.2-0.8,4.3-2.5c1.2-1.7,1.8-5,1.8-9.9c0-5-0.6-8.3-1.8-10c-1.2-1.6-2.6-2.5-4.4-2.5c-1.7,0-3.1,0.7-4.1,2.2
				C312.3,698.1,311.6,701.5,311.6,706.5z"/>
			<path d="M347.6,721.5h-3.7v-23.8c-0.9,0.9-2.1,1.7-3.5,2.6c-1.5,0.9-2.8,1.5-3.9,1.9v-3.6c2.1-1,3.9-2.2,5.5-3.6
				c1.6-1.4,2.7-2.7,3.3-4.1h2.4L347.6,721.5L347.6,721.5z"/>
			<path d="M359.5,695.1v-3.6h19.7v2.9c-1.9,2.1-3.9,4.8-5.7,8.2c-1.9,3.4-3.4,6.9-4.4,10.5c-0.7,2.5-1.2,5.3-1.4,8.3h-3.8
				c0-2.4,0.5-5.3,1.4-8.7s2.2-6.6,3.9-9.8s3.5-5.8,5.4-7.9L359.5,695.1L359.5,695.1z"/>
			<path d="M399,711.7l3.8-0.3c0.2,1.5,0.6,2.8,1.3,3.7s1.7,1.8,3.1,2.4s2.9,0.9,4.7,0.9c1.5,0,2.9-0.2,4.1-0.7s2-1.1,2.6-1.9
				c0.6-0.8,0.9-1.7,0.9-2.6c0-1-0.3-1.8-0.8-2.5c-0.6-0.7-1.5-1.3-2.7-1.8c-0.8-0.3-2.6-0.8-5.4-1.5s-4.7-1.3-5.9-1.9
				c-1.5-0.8-2.5-1.7-3.2-2.8s-1.1-2.4-1.1-3.8c0-1.5,0.4-3,1.3-4.3s2.1-2.3,3.8-3s3.5-1,5.6-1c2.3,0,4.2,0.4,6,1.1
				c1.7,0.7,3,1.8,4,3.2s1.4,3,1.5,4.8l-3.9,0.3c-0.2-1.9-0.9-3.4-2.1-4.4s-3-1.5-5.3-1.5c-2.4,0-4.2,0.4-5.3,1.3
				c-1.1,0.9-1.7,2-1.7,3.2c0,1.1,0.4,2,1.2,2.7c0.8,0.7,2.8,1.4,6.1,2.2c3.3,0.7,5.5,1.4,6.7,1.9c1.8,0.8,3.1,1.8,3.9,3.1
				c0.8,1.2,1.3,2.7,1.3,4.3s-0.5,3.1-1.4,4.6s-2.3,2.5-4,3.3s-3.7,1.2-5.9,1.2c-2.7,0-5.1-0.4-6.9-1.2s-3.3-2-4.4-3.6
				C399.6,715.5,399.1,713.7,399,711.7z"/>
			<path d="M450.7,691.1h4v17.5c0,3.1-0.3,5.5-1,7.3s-1.9,3.3-3.7,4.4c-1.8,1.1-4.2,1.7-7.1,1.7c-2.8,0-5.2-0.5-7-1.5
				s-3.1-2.4-3.9-4.3c-0.8-1.9-1.2-4.4-1.2-7.6v-17.5h4v17.5c0,2.6,0.2,4.6,0.7,5.8s1.3,2.2,2.5,2.9s2.7,1,4.4,1c3,0,5.1-0.7,6.3-2
				c1.3-1.3,1.9-3.9,1.9-7.7v-17.5H450.7z"/>
			<path d="M463.4,721.5v-30.4h6l7.2,21.5c0.7,2,1.1,3.5,1.5,4.5c0.3-1.1,0.9-2.7,1.6-4.9l7.3-21.1h5.4v30.4h-3.9V696l-8.8,25.4
				h-3.6l-8.8-25.9v25.9L463.4,721.5L463.4,721.5z"/>
			<path d="M500.9,721.5v-30.4h6l7.2,21.5c0.7,2,1.1,3.5,1.5,4.5c0.3-1.1,0.9-2.7,1.6-4.9l7.3-21.1h5.4v30.4H526V696l-8.8,25.4h-3.6
				l-8.8-25.9v25.9L500.9,721.5L500.9,721.5z"/>
			<path d="M538.6,721.5v-30.4h22v3.6h-17.9v9.3h16.8v3.6h-16.8v10.3h18.6v3.6L538.6,721.5L538.6,721.5z"/>
			<path d="M569,721.5v-30.4h13.5c2.7,0,4.8,0.3,6.2,0.8s2.5,1.5,3.4,2.9c0.8,1.4,1.3,2.9,1.3,4.6c0,2.2-0.7,4-2.1,5.4
				c-1.4,1.5-3.5,2.4-6.5,2.8c1.1,0.5,1.9,1,2.4,1.5c1.2,1.1,2.3,2.4,3.3,4l5.3,8.3h-5.1l-4-6.3c-1.2-1.8-2.1-3.2-2.9-4.2
				c-0.8-1-1.4-1.6-2-2s-1.2-0.7-1.8-0.8c-0.5-0.1-1.2-0.1-2.2-0.1H573v13.5H569z M573,704.5h8.6c1.8,0,3.3-0.2,4.3-0.6
				s1.8-1,2.4-1.8s0.8-1.7,0.8-2.7c0-1.4-0.5-2.6-1.6-3.5c-1-0.9-2.7-1.4-4.9-1.4H573V704.5z"/>
		</g>
		<g>
			<path d="M225.1,577.4h6.6v29c0,5-0.6,9-1.7,12c-1.1,3-3.2,5.4-6.2,7.2c-3,1.9-6.9,2.8-11.7,2.8c-4.7,0-8.5-0.8-11.5-2.4
				c-3-1.6-5.1-4-6.4-7c-1.3-3.1-1.9-7.3-1.9-12.6v-29h6.6v28.9c0,4.4,0.4,7.6,1.2,9.6c0.8,2.1,2.2,3.7,4.2,4.8s4.4,1.7,7.2,1.7
				c4.9,0,8.4-1.1,10.4-3.3c2.1-2.2,3.1-6.5,3.1-12.7L225.1,577.4L225.1,577.4z"/>
			<path d="M242.1,627.5v-50.1H261c3.3,0,5.9,0.2,7.6,0.5c2.5,0.4,4.5,1.2,6.2,2.3c1.7,1.2,3,2.8,4,4.8c1,2.1,1.5,4.4,1.5,6.8
				c0,4.3-1.4,7.9-4.1,10.8c-2.7,3-7.6,4.4-14.7,4.4h-12.9v20.4L242.1,627.5L242.1,627.5z M248.7,601.2h13c4.3,0,7.3-0.8,9.1-2.4
				c1.8-1.6,2.7-3.8,2.7-6.7c0-2.1-0.5-3.9-1.6-5.4s-2.5-2.5-4.2-3c-1.1-0.3-3.2-0.4-6.2-0.4h-12.8V601.2z"/>
			<path d="M319.6,627.5v-44.2h-16.5v-5.9h39.7v5.9h-16.6v44.2H319.6z"/>
			<path d="M346.9,603.1c0-8.3,2.2-14.8,6.7-19.5s10.2-7.1,17.3-7.1c4.6,0,8.8,1.1,12.5,3.3s6.5,5.3,8.5,9.2c1.9,4,2.9,8.4,2.9,13.5
				s-1,9.6-3.1,13.6s-5,7-8.7,9.1s-7.8,3.1-12.2,3.1c-4.7,0-8.9-1.1-12.6-3.4c-3.7-2.3-6.5-5.4-8.4-9.3
				C347.9,611.7,346.9,607.5,346.9,603.1z M353.7,603.2c0,6,1.6,10.8,4.9,14.3s7.3,5.2,12.2,5.2c5,0,9.1-1.8,12.3-5.3
				c3.2-3.5,4.8-8.5,4.8-14.9c0-4.1-0.7-7.6-2.1-10.7c-1.4-3-3.4-5.4-6-7.1c-2.7-1.7-5.6-2.5-8.9-2.5c-4.7,0-8.7,1.6-12.1,4.8
				S353.7,595.7,353.7,603.2z"/>
			<path d="M438.6,627.5v-12h-21.7v-5.6l22.9-32.5h5v32.5h6.8v5.6h-6.8v12H438.6z M438.6,609.9v-22.6l-15.7,22.6H438.6z"/>
			<path d="M457.1,602.8c0-5.9,0.6-10.7,1.8-14.3c1.2-3.6,3-6.4,5.4-8.4s5.4-2.9,9.1-2.9c2.7,0,5,0.5,7.1,1.6c2,1.1,3.7,2.6,5,4.7
				c1.3,2,2.4,4.5,3.1,7.5s1.1,6.9,1.1,11.8c0,5.9-0.6,10.6-1.8,14.2c-1.2,3.6-3,6.4-5.4,8.4s-5.4,3-9.1,3c-4.8,0-8.6-1.7-11.4-5.2
				C458.8,619,457.1,612.2,457.1,602.8z M463.5,602.8c0,8.2,1,13.7,2.9,16.4s4.3,4.1,7.1,4.1c2.8,0,5.2-1.4,7.1-4.1
				s2.9-8.2,2.9-16.4s-1-13.7-2.9-16.4s-4.3-4.1-7.2-4.1c-2.8,0-5.1,1.2-6.8,3.6C464.5,588.9,463.5,594.6,463.5,602.8z"/>
			<path d="M496.5,589.4c0-3.6,0.9-6.6,2.7-9.1c1.8-2.5,4.4-3.8,7.8-3.8c3.1,0,5.7,1.1,7.8,3.4c2.1,2.2,3.1,5.5,3.1,9.9
				c0,4.2-1,7.5-3.1,9.8s-4.7,3.4-7.7,3.4s-5.6-1.1-7.6-3.4C497.5,597.4,496.5,594,496.5,589.4z M507.2,580.8c-1.5,0-2.8,0.7-3.8,2
				s-1.5,3.7-1.5,7.3c0,3.2,0.5,5.5,1.5,6.8s2.3,2,3.8,2s2.8-0.7,3.8-2s1.5-3.7,1.5-7.2c0-3.2-0.5-5.5-1.5-6.8
				S508.8,580.8,507.2,580.8z M507.3,629.3l27.4-52.8h5l-27.3,52.8H507.3z M528.9,615.7c0-3.6,0.9-6.6,2.7-9.1s4.4-3.7,7.9-3.7
				c3.1,0,5.7,1.1,7.8,3.4c2.1,2.2,3.1,5.5,3.1,9.9c0,4.2-1,7.5-3.1,9.8s-4.7,3.4-7.7,3.4s-5.6-1.1-7.6-3.4
				C529.9,623.7,528.9,620.3,528.9,615.7z M539.7,607.1c-1.5,0-2.8,0.7-3.8,2s-1.5,3.7-1.5,7.3c0,3.2,0.5,5.4,1.5,6.8
				c1,1.3,2.3,2,3.8,2c1.6,0,2.9-0.7,3.9-2s1.5-3.7,1.5-7.2c0-3.2-0.5-5.5-1.5-6.8S541.2,607.1,539.7,607.1z"/>
			<path d="M557.4,603.1c0-8.3,2.2-14.8,6.7-19.5s10.2-7.1,17.3-7.1c4.6,0,8.8,1.1,12.5,3.3s6.5,5.3,8.5,9.2c1.9,4,2.9,8.4,2.9,13.5
				s-1,9.6-3.1,13.6s-5,7-8.7,9.1s-7.8,3.1-12.2,3.1c-4.7,0-8.9-1.1-12.6-3.4c-3.7-2.3-6.5-5.4-8.4-9.3
				C558.4,611.7,557.4,607.5,557.4,603.1z M564.2,603.2c0,6,1.6,10.8,4.9,14.3c3.2,3.5,7.3,5.2,12.2,5.2c5,0,9.1-1.8,12.3-5.3
				s4.8-8.5,4.8-14.9c0-4.1-0.7-7.6-2.1-10.7c-1.4-3-3.4-5.4-6.1-7.1c-2.7-1.7-5.6-2.5-8.9-2.5c-4.7,0-8.7,1.6-12.1,4.8
				C565.9,590.3,564.2,595.7,564.2,603.2z"/>
			<path d="M613.5,627.5v-50.1h33.8v5.9h-27.2v15.5h23.5v5.9h-23.5v22.8L613.5,627.5L613.5,627.5z"/>
			<path d="M655.6,627.5v-50.1h33.8v5.9h-27.2v15.5h23.5v5.9h-23.5v22.8L655.6,627.5L655.6,627.5z"/>
		</g>
		<line class="st9" x1="46.9" y1="484.2" x2="831.9" y2="484.2"/>
	</g>
</g>
<g id="レイヤー_3" class="st0">
	<g class="st10">
		<g>
			<path d="M290.8,665v3.9h-21.7c0-1,0.1-1.9,0.5-2.8c0.6-1.5,1.4-2.9,2.6-4.4c1.2-1.4,3-3.1,5.3-5c3.6-2.9,6-5.2,7.2-6.9
				c1.3-1.7,1.9-3.3,1.9-4.8c0-1.6-0.6-2.9-1.7-4s-2.6-1.6-4.5-1.6s-3.5,0.6-4.7,1.7c-1.2,1.2-1.8,2.8-1.8,4.8l-4.1-0.4
				c0.3-3.1,1.3-5.4,3.2-7.1s4.3-2.4,7.4-2.4s5.6,0.9,7.5,2.6c1.8,1.7,2.8,3.9,2.8,6.5c0,1.3-0.3,2.6-0.8,3.9
				c-0.5,1.3-1.4,2.6-2.7,4c-1.2,1.4-3.3,3.3-6.2,5.8c-2.4,2-4,3.4-4.7,4.1c-0.7,0.7-1.3,1.5-1.7,2.2L290.8,665L290.8,665z"/>
			<path d="M297.4,652.7c0-3.9,0.4-7,1.2-9.4c0.8-2.4,2-4.2,3.6-5.5s3.6-1.9,5.9-1.9c1.8,0,3.3,0.4,4.6,1.1c1.3,0.7,2.4,1.7,3.3,3.1
				c0.9,1.3,1.5,3,2,4.9s0.7,4.5,0.7,7.7c0,3.8-0.4,7-1.2,9.3c-0.8,2.4-2,4.2-3.5,5.5c-1.6,1.3-3.6,1.9-6,1.9
				c-3.2,0-5.6-1.1-7.4-3.4C298.4,663.3,297.4,658.9,297.4,652.7z M301.5,652.7c0,5.4,0.6,9,1.9,10.7s2.8,2.7,4.7,2.7
				c1.8,0,3.4-0.9,4.7-2.7s1.9-5.4,1.9-10.7c0-5.4-0.6-9-1.9-10.8s-2.8-2.7-4.7-2.7c-1.8,0-3.3,0.8-4.4,2.3
				C302.2,643.6,301.5,647.3,301.5,652.7z"/>
			<path d="M340.3,668.9h-4v-25.6c-1,0.9-2.2,1.8-3.8,2.8s-3,1.6-4.2,2.1v-3.9c2.3-1.1,4.2-2.3,5.9-3.8s2.9-3,3.6-4.4h2.6v32.8
				H340.3z"/>
			<path d="M353.2,640.4v-3.9h21.2v3.1c-2.1,2.2-4.2,5.2-6.2,8.9s-3.6,7.5-4.8,11.4c-0.8,2.7-1.3,5.7-1.5,9h-4.1
				c0-2.6,0.6-5.7,1.5-9.3c1-3.7,2.4-7.2,4.2-10.6s3.7-6.2,5.8-8.6L353.2,640.4L353.2,640.4z"/>
			<path d="M395.8,658.4l4.1-0.4c0.2,1.6,0.6,3,1.4,4c0.7,1.1,1.8,1.9,3.3,2.5s3.2,1,5,1c1.7,0,3.1-0.2,4.4-0.7s2.2-1.2,2.8-2
				c0.6-0.9,0.9-1.8,0.9-2.8s-0.3-1.9-0.9-2.7s-1.6-1.4-3-1.9c-0.9-0.3-2.8-0.9-5.8-1.6c-3-0.7-5.1-1.4-6.3-2
				c-1.6-0.8-2.7-1.8-3.5-3.1c-0.8-1.2-1.2-2.6-1.2-4.1c0-1.7,0.5-3.2,1.4-4.6c0.9-1.4,2.3-2.5,4.1-3.3c1.8-0.7,3.8-1.1,6-1.1
				c2.4,0,4.6,0.4,6.4,1.2c1.9,0.8,3.3,1.9,4.3,3.5c1,1.5,1.5,3.2,1.6,5.2l-4.2,0.3c-0.2-2.1-1-3.6-2.3-4.7
				c-1.3-1.1-3.2-1.6-5.7-1.6c-2.6,0-4.5,0.5-5.7,1.4c-1.2,1-1.8,2.1-1.8,3.5c0,1.2,0.4,2.1,1.3,2.9c0.8,0.8,3,1.5,6.5,2.3
				s5.9,1.5,7.3,2.1c1.9,0.9,3.3,2,4.2,3.3c0.9,1.3,1.4,2.9,1.4,4.7c0,1.7-0.5,3.4-1.5,4.9s-2.4,2.7-4.3,3.6c-1.9,0.9-4,1.3-6.3,1.3
				c-3,0-5.5-0.4-7.5-1.3c-2-0.9-3.6-2.2-4.7-3.9C396.5,662.5,395.9,660.5,395.8,658.4z"/>
			<path d="M451.6,636.1h4.3V655c0,3.3-0.4,5.9-1.1,7.8c-0.7,1.9-2.1,3.5-4,4.7s-4.5,1.8-7.7,1.8c-3.1,0-5.6-0.5-7.5-1.6
				c-2-1.1-3.3-2.6-4.2-4.6c-0.8-2-1.3-4.7-1.3-8.2V636h4.3v19c0,2.8,0.3,4.9,0.8,6.3c0.5,1.3,1.4,2.4,2.7,3.1
				c1.3,0.7,2.9,1.1,4.7,1.1c3.2,0,5.5-0.7,6.8-2.2c1.4-1.4,2-4.2,2-8.3v-18.9H451.6z"/>
			<path d="M465.4,668.9v-32.8h6.5l7.8,23.2c0.7,2.2,1.2,3.8,1.6,4.9c0.4-1.2,1-2.9,1.7-5.3l7.8-22.8h5.8v32.8h-4.2v-27.4l-9.5,27.4
				H479l-9.5-27.9v27.9L465.4,668.9L465.4,668.9z"/>
			<path d="M505.8,668.9v-32.8h6.5l7.8,23.2c0.7,2.2,1.2,3.8,1.6,4.9c0.4-1.2,1-2.9,1.7-5.3l7.8-22.8h5.8v32.8h-4.2v-27.4l-9.5,27.4
				h-3.9L510,641v27.9H505.8z"/>
			<path d="M546.5,668.9v-32.8h23.7v3.9h-19.4v10h18.1v3.8h-18.1V665h20.1v3.9H546.5z"/>
			<path d="M579.3,668.9v-32.8h14.5c2.9,0,5.1,0.3,6.7,0.9c1.5,0.6,2.7,1.6,3.6,3.1c0.9,1.5,1.4,3.1,1.4,4.9c0,2.3-0.8,4.3-2.3,5.9
				c-1.5,1.6-3.8,2.6-7,3c1.1,0.6,2,1.1,2.6,1.6c1.3,1.2,2.5,2.6,3.6,4.4l5.7,8.9h-5.5l-4.3-6.8c-1.3-2-2.3-3.5-3.1-4.5
				s-1.6-1.8-2.2-2.2c-0.6-0.4-1.3-0.7-2-0.9c-0.5-0.1-1.3-0.2-2.4-0.2h-5v14.6L579.3,668.9L579.3,668.9z M583.6,650.6h9.3
				c2,0,3.5-0.2,4.7-0.6c1.1-0.4,2-1.1,2.5-2c0.6-0.9,0.9-1.9,0.9-2.9c0-1.5-0.6-2.8-1.7-3.8c-1.1-1-2.9-1.5-5.3-1.5h-10.4V650.6z"
				/>
		</g>
		<g>
			<path d="M268.6,601.9c-4.1,0-7.5-1.4-10.3-4.2s-4.2-6.3-4.2-10.3v-47.3h9v47.2c0,1.5,0.5,2.7,1.6,3.7c1,1,2.3,1.5,3.8,1.5
				s2.7-0.5,3.7-1.5s1.5-2.3,1.5-3.7v-47.2h9.6v47.3c0,4.1-1.4,7.5-4.3,10.3C276,600.5,272.6,601.9,268.6,601.9z"/>
			<path d="M304.1,540.1c4.5,0,8.1,1.4,10.7,4.2c2.5,2.7,3.7,6.1,3.7,10.3v8.9c0,4-1.4,7.5-4.2,10.3c-2.8,2.9-6.2,4.3-10.2,4.3h-5.3
				v23h-9.2V540L304.1,540.1L304.1,540.1z M309.6,554.8c0-1.6-0.5-2.9-1.4-3.9c-1-1-2.2-1.5-3.8-1.5h-5.6V569h5.6
				c1.5,0,2.7-0.5,3.7-1.6c1-1,1.5-2.3,1.5-3.8L309.6,554.8L309.6,554.8z"/>
			<path d="M341,549.4h-9.8v-9.3H360v9.3h-9.8v51.9H341V549.4z"/>
			<path d="M380.9,539.3c4.1,0,7.5,1.4,10.4,4.3c2.8,2.9,4.3,6.3,4.3,10.3v33.4c0,4.1-1.4,7.5-4.3,10.4c-2.9,2.8-6.3,4.3-10.3,4.3
				c-4.1,0-7.5-1.4-10.3-4.3s-4.2-6.3-4.2-10.3V554c0-4.1,1.4-7.5,4.3-10.4C373.5,540.7,376.9,539.3,380.9,539.3z M385.9,553.8
				c0-1.5-0.5-2.7-1.5-3.7s-2.3-1.5-3.7-1.5c-1.5,0-2.7,0.5-3.8,1.5c-1,1-1.6,2.3-1.6,3.7v33.5c0,1.5,0.5,2.7,1.6,3.7
				c1,1,2.3,1.5,3.8,1.5s2.7-0.5,3.7-1.5s1.5-2.3,1.5-3.7V553.8z"/>
			<path d="M408.2,578.7l16.3-38.7h9.2v38.7h5.9v9.3h-5.9v13.2h-9.2V588h-16.3V578.7z M424.5,578.7v-19.1l-7.6,19.1H424.5z"/>
			<path d="M475.2,587.3c0,4.1-1.4,7.5-4.3,10.3s-6.3,4.2-10.3,4.2c-4.1,0-7.5-1.4-10.4-4.3c-2.8-2.8-4.3-6.3-4.3-10.3v-33.4
				c0-4.1,1.4-7.5,4.3-10.4c2.9-2.8,6.3-4.3,10.3-4.3c4.1,0,7.5,1.4,10.3,4.3s4.2,6.3,4.2,10.3v33.6H475.2z M465.7,553.7
				c0-1.5-0.5-2.7-1.6-3.8c-1-1-2.3-1.6-3.8-1.6s-2.7,0.5-3.7,1.6s-1.5,2.3-1.5,3.8v33.4c0,1.5,0.5,2.7,1.5,3.8c1,1,2.3,1.6,3.7,1.6
				s2.7-0.5,3.8-1.6c1-1,1.6-2.3,1.6-3.8V553.7z"/>
			<path d="M496.9,562.5c0,2.1-0.8,3.9-2.3,5.4s-3.3,2.2-5.4,2.2s-3.9-0.7-5.4-2.2s-2.2-3.3-2.2-5.4V545c0-2.1,0.7-3.9,2.2-5.4
				s3.3-2.2,5.4-2.2s3.9,0.8,5.4,2.3s2.2,3.3,2.2,5.4L496.9,562.5L496.9,562.5z M489.9,602.3h-5.4l31.2-64.7h5.4L489.9,602.3z
				 M486.3,562.4c0,0.8,0.3,1.4,0.8,2c0.5,0.5,1.2,0.8,2,0.8s1.4-0.3,2-0.8c0.5-0.5,0.8-1.2,0.8-2V545c0-0.8-0.3-1.4-0.8-2
				c-0.5-0.5-1.2-0.8-2-0.8s-1.4,0.3-2,0.8c-0.5,0.5-0.8,1.2-0.8,2V562.4z M516.4,568.8c2.1,0,3.9,0.8,5.4,2.3s2.2,3.3,2.2,5.4V594
				c0,2.1-0.7,3.9-2.2,5.4s-3.3,2.2-5.4,2.2c-2.1,0-3.9-0.7-5.4-2.2c-1.5-1.5-2.2-3.3-2.2-5.3v-17.5c0-2.1,0.7-3.9,2.2-5.4
				C512.5,569.6,514.3,568.8,516.4,568.8z M519,576.4c0-0.8-0.3-1.4-0.8-2c-0.5-0.5-1.2-0.8-2-0.8s-1.4,0.3-2,0.8
				c-0.5,0.5-0.8,1.2-0.8,2v17.5c0,0.8,0.3,1.4,0.8,2c0.5,0.5,1.2,0.8,2,0.8s1.4-0.3,2-0.8c0.5-0.5,0.8-1.2,0.8-2V576.4z"/>
			<path d="M544.9,539.3c4.1,0,7.5,1.4,10.4,4.3c2.8,2.9,4.3,6.3,4.3,10.3v33.4c0,4.1-1.4,7.5-4.3,10.4c-2.9,2.8-6.3,4.3-10.3,4.3
				c-4.1,0-7.5-1.4-10.3-4.3s-4.2-6.3-4.2-10.3V554c0-4.1,1.4-7.5,4.3-10.4C537.5,540.7,540.9,539.3,544.9,539.3z M550,553.8
				c0-1.5-0.5-2.7-1.5-3.7s-2.3-1.5-3.7-1.5s-2.7,0.5-3.8,1.5c-1,1-1.6,2.3-1.6,3.7v33.5c0,1.5,0.5,2.7,1.6,3.7c1,1,2.3,1.5,3.8,1.5
				s2.7-0.5,3.7-1.5s1.5-2.3,1.5-3.7V553.8z"/>
			<path d="M575.1,601.2h-9.2V540h26.2v9.3h-17V566h12.4v9.3h-12.4V601.2z"/>
			<path d="M607.7,601.2h-9.2V540h26.2v9.3h-17V566h12.4v9.3h-12.4V601.2z"/>
		</g>
		<g>
			<g>
				<path d="M230.1,275c-20.9-14.2-42.2-21.3-63.9-21.3c-14.4,0-25.4,2.3-33.1,6.8c-7.7,4.5-11.5,10.7-11.5,18.7
					c0,8.3,4.1,14.4,12.3,18.2c5.8,2.8,15.4,4.7,28.6,5.7c19.5,1.7,32.3,3.1,38.6,4.2c17.7,3.1,30.7,8.9,39.1,17.4
					c8.4,8.5,12.7,20.5,12.7,36.1c0,19.9-6.6,35.3-19.9,46.2c-13.2,10.9-32.3,16.4-57.1,16.4c-36,0-63.9-10.6-83.9-31.7l12.9-22.6
					c22.1,18,45.8,27,71.3,27c16.5,0,29.3-3,38.4-9.1c8.7-5.9,13-13.9,13-24.1c0-11.9-5.7-19.9-17.1-23.9c-6-2.1-22.1-4.2-48.3-6.5
					c-23.2-2.1-39.5-6.2-48.9-12.5c-10.9-7.3-16.4-19.5-16.4-36.6c0-17.7,6.2-31.6,18.6-41.8s29.9-15.3,52.5-15.3
					c30.4,0,55.8,9.3,76.3,27.8L230.1,275z"/>
				<path d="M444.5,418.8H419l-16.2-42.1h-95l-16.2,42.1H266l74.6-188H370L444.5,418.8z M391.4,348.7l-35.9-91.1l-36.4,91.1H391.4z"
					/>
				<path d="M605.2,418.8H473v-188h23.4v160h108.9L605.2,418.8L605.2,418.8z"/>
				<path d="M782.2,418.8H634.6v-188h142.2v28H658v48.3h82.6v28H658v55.6h124.2V418.8z"/>
			</g>
		</g>
	</g>
</g>
</svg>
