<?xml version="1.0" encoding="utf-8"?>
<!-- Generator: Adobe Illustrator 21.0.0, SVG Export Plug-In . SVG Version: 6.00 Build 0)  -->
<!DOCTYPE svg PUBLIC "-//W3C//DTD SVG 1.1//EN" "http://www.w3.org/Graphics/SVG/1.1/DTD/svg11.dtd">
<svg version="1.1" id="レイヤー_1" xmlns="http://www.w3.org/2000/svg" xmlns:xlink="http://www.w3.org/1999/xlink" x="0px"
	 y="0px" viewBox="0 0 24 24" style="enable-background:new 0 0 24 24;" xml:space="preserve">
<style type="text/css">
	.st0{display:none;}
	.st1{display:inline;}
	.st2{fill:#FFFFFF;}
</style>
<metadata><?xpacket begin="﻿" id="W5M0MpCehiHzreSzNTczkc9d"?>
<x:xmpmeta xmlns:x="adobe:ns:meta/" x:xmptk="Adobe XMP Core 5.6-c137 79.159768, 2016/08/11-13:24:42        ">
   <rdf:RDF xmlns:rdf="http://www.w3.org/1999/02/22-rdf-syntax-ns#">
      <rdf:Description rdf:about=""
            xmlns:xmp="http://ns.adobe.com/xap/1.0/"
            xmlns:xmpGImg="http://ns.adobe.com/xap/1.0/g/img/"
            xmlns:xmpTPg="http://ns.adobe.com/xap/1.0/t/pg/"
            xmlns:stDim="http://ns.adobe.com/xap/1.0/sType/Dimensions#"
            xmlns:xmpG="http://ns.adobe.com/xap/1.0/g/"
            xmlns:dc="http://purl.org/dc/elements/1.1/"
            xmlns:xmpMM="http://ns.adobe.com/xap/1.0/mm/"
            xmlns:stEvt="http://ns.adobe.com/xap/1.0/sType/ResourceEvent#">
         <xmp:CreatorTool>Adobe Illustrator CC 2017 (Macintosh)</xmp:CreatorTool>
         <xmp:CreateDate>2016-12-20T14:39:46+09:00</xmp:CreateDate>
         <xmp:Thumbnails>
            <rdf:Alt>
               <rdf:li rdf:parseType="Resource">
                  <xmpGImg:width>244</xmpGImg:width>
                  <xmpGImg:height>256</xmpGImg:height>
                  <xmpGImg:format>JPEG</xmpGImg:format>
                  <xmpGImg:image>/9j/4AAQSkZJRgABAgEASABIAAD/7QAsUGhvdG9zaG9wIDMuMAA4QklNA+0AAAAAABAASAAAAAEA&#xA;AQBIAAAAAQAB/+4ADkFkb2JlAGTAAAAAAf/bAIQABgQEBAUEBgUFBgkGBQYJCwgGBggLDAoKCwoK&#xA;DBAMDAwMDAwQDA4PEA8ODBMTFBQTExwbGxscHx8fHx8fHx8fHwEHBwcNDA0YEBAYGhURFRofHx8f&#xA;Hx8fHx8fHx8fHx8fHx8fHx8fHx8fHx8fHx8fHx8fHx8fHx8fHx8fHx8fHx8f/8AAEQgBAAD0AwER&#xA;AAIRAQMRAf/EAaIAAAAHAQEBAQEAAAAAAAAAAAQFAwIGAQAHCAkKCwEAAgIDAQEBAQEAAAAAAAAA&#xA;AQACAwQFBgcICQoLEAACAQMDAgQCBgcDBAIGAnMBAgMRBAAFIRIxQVEGE2EicYEUMpGhBxWxQiPB&#xA;UtHhMxZi8CRygvElQzRTkqKyY3PCNUQnk6OzNhdUZHTD0uIIJoMJChgZhJRFRqS0VtNVKBry4/PE&#xA;1OT0ZXWFlaW1xdXl9WZ2hpamtsbW5vY3R1dnd4eXp7fH1+f3OEhYaHiImKi4yNjo+Ck5SVlpeYmZ&#xA;qbnJ2en5KjpKWmp6ipqqusra6voRAAICAQIDBQUEBQYECAMDbQEAAhEDBCESMUEFURNhIgZxgZEy&#xA;obHwFMHR4SNCFVJicvEzJDRDghaSUyWiY7LCB3PSNeJEgxdUkwgJChgZJjZFGidkdFU38qOzwygp&#xA;0+PzhJSktMTU5PRldYWVpbXF1eX1RlZmdoaWprbG1ub2R1dnd4eXp7fH1+f3OEhYaHiImKi4yNjo&#xA;+DlJWWl5iZmpucnZ6fkqOkpaanqKmqq6ytrq+v/aAAwDAQACEQMRAD8A9U4q7FXYq7FXYq7FXYq7&#xA;FXYq7FXYq7FXYq7FXYq7FXYq7FXYq7FXYq7FXYq7FXYq7FXYq7FXYq7FXYq7FXYq7FXYq7FXYq7F&#xA;XYq7FXYq7FXYq7FXYq7FXYq7FXYq7FXYq7FXYq7FXYq7FXYq7FXYq7FXYq7FXYq7FXYq7FXYq7FX&#xA;Yq7FXYq7FXYq7FXYq7FXYq7FXYq7FXYq7FXYq7FXYq7FXYq7FXYq7FXYq7FXYq7FXYq7FXYq7FXY&#xA;q7FXYq7FXYq7FXYq7FXYq7FXYq7FXYq7FXYq7FXYq7FXYq7FXYq7FXYq7FXYq7FXYq7FXYq7FXYq&#xA;7FXYq7FXYq7FXYq7FXYq7FXYq7FXYq7FXYq7FXYq7FXYq7FXYq7FXYq7FXYq7FXYq7FXYq7FXYq7&#xA;FXYq7FXYq7FXYq7FXYq7FXYq7FXYq7FXYq7FXYq7FXYq7FXYq7FXYq7FXYq7FXYq7FXYq7FXYq7F&#xA;XYq7FXYq7FXYq7FXYq7FXYq7FXYq7FXYq7FXYq7FXYq7FXYq7FXYq7FXYq7FXYq7FXYq7FXYq7FX&#xA;Yq7FXYq7FXYq7FXYq7FXYq7FXYq7FXYq7FXYq7FXYq7FXYq7FXYq7FXYq7FXYq7FXYq7FXYq7FXY&#xA;q7FXYq7FXYq7FXYq7FXYq7FXYq7FXYq7FXYq7FXYq7FXYq7FXYq7FXYq7FXYq7FXYq7FXYq7FXYq&#xA;7FXYq7FXYq7FXYq7FXYq7FXYq7FXYq7FXYq7FXYq7FXYq7FXYq7FXYq7FXYq7FXYq7FXYq7FXYq7&#xA;FXYq7FXYq7FXYq7FXYq7FXYq7FXYq7FXYq7FXYq7FXYq7FXYq7FXYq7FXYq7FXYq7FXYq7FXYq7F&#xA;XYq7FXYq7FXYq7FXYq7FXYq7FXYq7FXYq7FXYq7FXYq7FXYq7FXYq7FXYq7FXYq7FXYq7FXYq7FX&#xA;Yq7FXYq7FXYq7FXYq7FXYq7FXYq7FXYq7FXYq7FXYq7FXYq7FXYq7FXYq7FXYq7FXYq7FXYq7FXY&#xA;q7FXYq7FXYq7FXYq7FXYq7FXYq7FXYq7FXYq7FXYq7FXYq7FXYq7FXYq7FXYq7FXYq7FXYq7FXYq&#xA;7FXYq7FXYq7FXYq7FXYq7FXYq7FXYq7FXYq7FXYq7FXYq7FXYq7FXYq7FXYq7FXYq7FXYq7FXYq7&#xA;FXYq7FXYq7FXYq7FXYq7FXYq7FXYq7FXYq7FXYq7FXYq7FXYq7FXYq7FXYq7FXYq7FXYq7FXYq7F&#xA;XYq7FXYq7FXYq7FXYq7FXYq7FXYq7FXYq7FXYq7FXYq7FXYq7FXYq7FXYq7FXYq7FXYq7FXYq7FX&#xA;Yq7FXYq7FXYq7FXYq7FXYq7FXYq7FXYq7FXYq7FXYq7FXYq7FXYq7FXYq7FXYq7FXYq7FXYq7FXY&#xA;q7FXYq7FXYq7FXYq7FXYq7FXYq7FXYq7FXYq7FXYq7FXYq7FXYq7FXYq7FXYq7FXYq7FXYq7FXYq&#xA;7FXYq7FXYq7FXYq7FXYq7FXYq7FXYq7FXYq7FXYq7FXYq7FXYq7FXYq7FXYq7FXYq7FXYq7FXYq7&#xA;FXYq7FXYq7FXYq7FXYq7FXYq7FXYq7FXYq7FXYq7FXYq7FXYq7FXYq7FXYq7FXYq7FXYq7FXYq7F&#xA;XYq7FXYq7FXYq7FXYq7FXYq7FXYq7FXYq7FXYq7FXYq7FXYq7FXYq7FXYq7FXYq7FXYq7FXYq7FX&#xA;Yq7FXYq7FXYq7FXYq7FXYq7FXYq7FXYq7FXYq7FXYq7FXYq7FXYq7FXYq7FXYq7FXYq7FXYq7FXY&#xA;q7FXYq7FXYq7FXYq7FXYq7FXYq7FXYq7FXYq7FXYq7FXYq7FXYq7FXYq7FXYq7FXYq7FXYq7FXYq&#xA;7FXYq7FXYq7FXYq7FXYq7FXYq7FXYq7FXYq7FXYq7FXYq7FXYq7FXYq7FXYq7FXYq7FXYq7FXYq7&#xA;FXYq7FXYq7FXYq7FXYq7FXYq7FXYq7FXYq7FXYq7FXYq7FXYq7FXYq7FXYq7FXYq7FXYq7FXYq7F&#xA;XYq7FXYq7FXYq7FXYq7FXYq7FXYq7FXYq7FXYq7FXYq7FXYq7FXYq7FXYq7FXYq7FXYq7FXYq7FX&#xA;Yq7FXYq7FXYq7FXYq7FXYq7FXYq7FXYq7FXYq7FXYq7FXYq7FXYq7FXYq7FXYq7FXYq7FXYq7FXY&#xA;q7FXYq7FXYq7FXYq7FXYq7FXYq7FXYq7FXYq7FXYq7FXYq7FXYq7FXYq7FXYq7FXYq7FXYq7FXYq&#xA;7FXYq7FXYq7FXYq7FXYq7FXYq7FXYq7FXYq7FXYq7FXYq7FXYq7FXYq7FXYq7FXYq7FXYq7FXYq7&#xA;FXYq7FXYq7FXYq7FXYq7FXYq7FXYq7FXYq7FXYq7FXYq7FXYq7FXYq7FXYq7FXYq7FXYq7FXYq7F&#xA;XYq7FXYq7FXYq7FXYq7FXYq7FXYq7FXYq7FXYq7FXYq7FXYq7FXYq7FXYq7FXYq7FXYq7FXYq7FX&#xA;Yq7FXYq7FXYq7FXYq7FXYq7FXYq7FX//2Q==</xmpGImg:image>
               </rdf:li>
            </rdf:Alt>
         </xmp:Thumbnails>
         <xmp:MetadataDate>2016-12-20T14:39:46+09:00</xmp:MetadataDate>
         <xmp:ModifyDate>2016-12-20T14:39:46+09:00</xmp:ModifyDate>
         <xmpTPg:MaxPageSize rdf:parseType="Resource">
            <stDim:w>8.466667</stDim:w>
            <stDim:h>8.466667</stDim:h>
            <stDim:unit>Millimeters</stDim:unit>
         </xmpTPg:MaxPageSize>
         <xmpTPg:NPages>1</xmpTPg:NPages>
         <xmpTPg:HasVisibleTransparency>False</xmpTPg:HasVisibleTransparency>
         <xmpTPg:HasVisibleOverprint>False</xmpTPg:HasVisibleOverprint>
         <xmpTPg:SwatchGroups>
            <rdf:Seq>
               <rdf:li rdf:parseType="Resource">
                  <xmpG:groupName>初期設定のスウォッチグループ</xmpG:groupName>
                  <xmpG:groupType>0</xmpG:groupType>
               </rdf:li>
            </rdf:Seq>
         </xmpTPg:SwatchGroups>
         <dc:format>image/svg+xml</dc:format>
         <xmpMM:DerivedFrom rdf:parseType="Resource"/>
         <xmpMM:DocumentID>xmp.did:9ff2e623-3fa1-4138-bd2e-f5e1c14409aa</xmpMM:DocumentID>
         <xmpMM:InstanceID>xmp.iid:9ff2e623-3fa1-4138-bd2e-f5e1c14409aa</xmpMM:InstanceID>
         <xmpMM:OriginalDocumentID>xmp.did:9ff2e623-3fa1-4138-bd2e-f5e1c14409aa</xmpMM:OriginalDocumentID>
         <xmpMM:History>
            <rdf:Seq>
               <rdf:li rdf:parseType="Resource">
                  <stEvt:action>saved</stEvt:action>
                  <stEvt:instanceID>xmp.iid:9ff2e623-3fa1-4138-bd2e-f5e1c14409aa</stEvt:instanceID>
                  <stEvt:when>2016-12-20T14:39:46+09:00</stEvt:when>
                  <stEvt:softwareAgent>Adobe Illustrator CC 2017 (Macintosh)</stEvt:softwareAgent>
                  <stEvt:changed>/</stEvt:changed>
               </rdf:li>
            </rdf:Seq>
         </xmpMM:History>
      </rdf:Description>
   </rdf:RDF>
</x:xmpmeta>
                                                                                                    
                                                                                                    
                                                                                                    
                                                                                                    
                                                                                                    
                                                                                                    
                                                                                                    
                                                                                                    
                                                                                                    
                                                                                                    
                                                                                                    
                                                                                                    
                                                                                                    
                                                                                                    
                                                                                                    
                                                                                                    
                                                                                                    
                                                                                                    
                                                                                                    
                                                                                                    
                           
<?xpacket end="w"?>
	</metadata>
<g id="レイヤー_1_1_" class="st0">
	<g id="fb" class="st1">
		<path class="st2" d="M15.7,9.2H13V7.4c0-0.7,0.4-0.8,0.7-0.8s1.9,0,1.9,0V3.7H13c-2.9,0-3.6,2.2-3.6,3.6v1.9H7.9v3h1.7
			c0,3.8,0,8.5,0,8.5H13c0,0,0-4.7,0-8.5h2.4L15.7,9.2z"/>
	</g>
	<g id="レイヤー_3" class="st1">
		<g>
			<path class="st2" d="M18.1,9.3h-3.7c-0.2,0-0.4-0.1-0.5-0.3s-0.2-0.4-0.1-0.7L14.5,6c0.1-0.2,0-0.5-0.1-0.7S14.1,5,13.9,5h-0.1
				c-0.7,0-1.3,0.4-1.6,1l-3.5,5.1v5.3l3.1,1.3c0.2,0.1,0.4,0.1,0.6,0.2l2.8,0.4c0.8,0,1.6-0.6,1.9-1.5l1.4-4.6c0,0,0.7-0.5,0.7-1.3
				v-0.7C19.2,9.7,18.7,9.3,18.1,9.3z"/>
			<path class="st2" d="M7.6,10.5h-2c-0.2,0-0.3,0.2-0.3,0.4v6.9c0,0.2,0.1,0.4,0.3,0.4h2c0.2,0,0.3-0.2,0.3-0.4v-6.9
				C7.9,10.7,7.8,10.5,7.6,10.5z"/>
		</g>
	</g>
	<g id="レイヤー_2" class="st1">
		<path class="st2" d="M18.3,8.8c0,0.1,0,0.3,0,0.4c0,4.1-3.1,8.8-8.8,8.8c-1.7,0-3.4-0.5-4.7-1.4c0.2,0,0.5,0,0.7,0
			c1.4,0,2.8-0.5,3.8-1.3c-1.4,0-2.5-0.9-2.9-2.1c0.2,0,0.4,0.1,0.6,0.1c0.3,0,0.6,0,0.8-0.1c-1.4-0.3-2.5-1.5-2.5-3l0,0
			c0.4,0.2,0.9,0.4,1.4,0.4C6,9.9,5.4,9,5.4,7.9c0-0.6,0.2-1.1,0.4-1.6c1.5,1.9,3.8,3.1,6.4,3.2c-0.1-0.2-0.1-0.5-0.1-0.7
			c0-1.7,1.4-3.1,3.1-3.1c0.9,0,1.7,0.4,2.3,1c0.7-0.1,1.4-0.4,2-0.7c-0.2,0.7-0.7,1.3-1.4,1.7c0.6-0.1,1.2-0.2,1.8-0.5
			C19.4,7.8,18.9,8.4,18.3,8.8z"/>
	</g>
	<g id="レイヤー_4" class="st1">
		<path class="st2" d="M17.8,5.7c0.4,0,0.7,0.1,0.9,0.4s0.4,0.6,0.4,0.9v4.3c0,1-0.2,1.9-0.6,2.8s-0.9,1.6-1.5,2.3
			c-0.6,0.6-1.4,1.1-2.3,1.5c-0.9,0.4-1.8,0.6-2.7,0.6c-1,0-1.9-0.2-2.8-0.6c-0.9-0.4-1.6-0.9-2.3-1.5c-0.6-0.6-1.1-1.4-1.5-2.3
			s-0.6-1.8-0.6-2.8V7c0-0.4,0.1-0.7,0.4-0.9s0.6-0.4,0.9-0.4H17.8z M12,14.4c0.3,0,0.5-0.1,0.7-0.3L16,11c0.2-0.2,0.3-0.4,0.3-0.7
			S16.2,9.8,16,9.6s-0.4-0.3-0.7-0.3s-0.5,0.1-0.7,0.3L12,12.1L9.4,9.6C9.2,9.4,8.9,9.3,8.7,9.3C8.4,9.3,8.2,9.4,8,9.6
			C7.8,9.8,7.7,10,7.7,10.3S7.8,10.8,8,11l3.3,3.2C11.5,14.3,11.7,14.4,12,14.4z"/>
	</g>
	<g id="レイヤー_5" class="st1">
		<path class="st2" d="M20.1,10.9c0-3.6-3.6-6.6-8.1-6.6s-8.1,3-8.1,6.6c0,3.3,2.9,6,6.8,6.5c0.3,0.1,0.6,0.2,0.7,0.4
			c0.1,0.2,0.1,0.5,0,0.7c0,0-0.1,0.6-0.1,0.7c0,0.2-0.2,0.8,0.7,0.4s4.7-2.8,6.4-4.7l0,0C19.6,13.6,20.1,12.3,20.1,10.9z M8.8,13
			H7.2c-0.2,0-0.4-0.2-0.4-0.4V9.4C6.8,9.2,7,9,7.2,9s0.4,0.2,0.4,0.4v2.8h1.2c0.2,0,0.4,0.2,0.4,0.4C9.2,12.8,9.1,13,8.8,13z
			 M10.5,12.6c0,0.2-0.2,0.4-0.4,0.4s-0.4-0.2-0.4-0.4V9.4C9.7,9.2,9.9,9,10.1,9s0.4,0.2,0.4,0.4V12.6z M14.1,13H14
			c-0.1,0-0.3-0.1-0.3-0.2L12,10.6v2c0,0.2-0.2,0.4-0.4,0.4s-0.4-0.2-0.4-0.4V9.4c0-0.2,0.1-0.3,0.3-0.4h0.1c0.1,0,0.3,0.1,0.3,0.2
			l1.7,2.3v-2c0-0.2,0.2-0.4,0.4-0.4s0.4,0.2,0.4,0.4v3.2l0,0C14.4,12.8,14.3,12.9,14.1,13z M17,10.5c0.2,0,0.4,0.2,0.4,0.4
			s-0.2,0.4-0.4,0.4h-1.2v0.8H17c0.2,0,0.4,0.2,0.4,0.4s-0.2,0.4-0.4,0.4h-1.6c-0.2,0-0.4-0.2-0.4-0.4V11l0,0V9.4
			C15,9.2,15.2,9,15.4,9H17c0.2,0,0.4,0.2,0.4,0.4S17.2,9.8,17,9.8h-1.2v0.8H17V10.5z"/>
	</g>
</g>
<path class="st2" d="M16.6,4.4H7.4c-1.5,0-3,1.3-3,3v3.1v6.2c0,1.5,1.3,3,3,3h9.3c1.5,0,3-1.3,3-3v-6.2V7.4
	C19.5,5.7,18.2,4.4,16.6,4.4z M15.3,5.8h2.8v2.8h-2.8V5.8z M12,8.9c1.7,0,3,1.3,3,3s-1.3,3-3,3s-3-1.3-3-3S10.4,8.9,12,8.9z
	 M18.3,15.6c0,2-1.4,2.7-2.3,2.7H8c-1.2,0-2.3-0.4-2.3-3v-5h2.3c-0.2,0.6-0.3,1.1-0.3,1.7c0,2.5,2.1,4.5,4.5,4.5
	c2.5,0,4.3-2.1,4.3-4.5c0-0.7-0.1-1.2-0.3-1.7h2.2V15.6z"/>
</svg>
