<?xml version="1.0" encoding="utf-8"?>
<!-- Generator: Adobe Illustrator 21.0.0, SVG Export Plug-In . SVG Version: 6.00 Build 0)  -->
<!DOCTYPE svg PUBLIC "-//W3C//DTD SVG 1.1//EN" "http://www.w3.org/Graphics/SVG/1.1/DTD/svg11.dtd">
<svg version="1.1" id="レイヤー_1" xmlns="http://www.w3.org/2000/svg" xmlns:xlink="http://www.w3.org/1999/xlink" x="0px"
	 y="0px" viewBox="0 0 383.8 53.1" style="enable-background:new 0 0 383.8 53.1;" xml:space="preserve">
<metadata><?xpacket begin="﻿" id="W5M0MpCehiHzreSzNTczkc9d"?>
<x:xmpmeta xmlns:x="adobe:ns:meta/" x:xmptk="Adobe XMP Core 5.6-c137 79.159768, 2016/08/11-13:24:42        ">
   <rdf:RDF xmlns:rdf="http://www.w3.org/1999/02/22-rdf-syntax-ns#">
      <rdf:Description rdf:about=""
            xmlns:xmp="http://ns.adobe.com/xap/1.0/"
            xmlns:xmpGImg="http://ns.adobe.com/xap/1.0/g/img/"
            xmlns:xmpTPg="http://ns.adobe.com/xap/1.0/t/pg/"
            xmlns:stDim="http://ns.adobe.com/xap/1.0/sType/Dimensions#"
            xmlns:xmpG="http://ns.adobe.com/xap/1.0/g/"
            xmlns:dc="http://purl.org/dc/elements/1.1/">
         <xmp:CreatorTool>Adobe Illustrator CC 2017 (Macintosh)</xmp:CreatorTool>
         <xmp:CreateDate>2017-01-06T11:59:26+09:00</xmp:CreateDate>
         <xmp:Thumbnails>
            <rdf:Alt>
               <rdf:li rdf:parseType="Resource">
                  <xmpGImg:width>256</xmpGImg:width>
                  <xmpGImg:height>36</xmpGImg:height>
                  <xmpGImg:format>JPEG</xmpGImg:format>
                  <xmpGImg:image>/9j/4AAQSkZJRgABAgEASABIAAD/7QAsUGhvdG9zaG9wIDMuMAA4QklNA+0AAAAAABAASAAAAAEA&#xA;AQBIAAAAAQAB/+4ADkFkb2JlAGTAAAAAAf/bAIQABgQEBAUEBgUFBgkGBQYJCwgGBggLDAoKCwoK&#xA;DBAMDAwMDAwQDA4PEA8ODBMTFBQTExwbGxscHx8fHx8fHx8fHwEHBwcNDA0YEBAYGhURFRofHx8f&#xA;Hx8fHx8fHx8fHx8fHx8fHx8fHx8fHx8fHx8fHx8fHx8fHx8fHx8fHx8fHx8f/8AAEQgAJAEAAwER&#xA;AAIRAQMRAf/EAaIAAAAHAQEBAQEAAAAAAAAAAAQFAwIGAQAHCAkKCwEAAgIDAQEBAQEAAAAAAAAA&#xA;AQACAwQFBgcICQoLEAACAQMDAgQCBgcDBAIGAnMBAgMRBAAFIRIxQVEGE2EicYEUMpGhBxWxQiPB&#xA;UtHhMxZi8CRygvElQzRTkqKyY3PCNUQnk6OzNhdUZHTD0uIIJoMJChgZhJRFRqS0VtNVKBry4/PE&#xA;1OT0ZXWFlaW1xdXl9WZ2hpamtsbW5vY3R1dnd4eXp7fH1+f3OEhYaHiImKi4yNjo+Ck5SVlpeYmZ&#xA;qbnJ2en5KjpKWmp6ipqqusra6voRAAICAQIDBQUEBQYECAMDbQEAAhEDBCESMUEFURNhIgZxgZEy&#xA;obHwFMHR4SNCFVJicvEzJDRDghaSUyWiY7LCB3PSNeJEgxdUkwgJChgZJjZFGidkdFU38qOzwygp&#xA;0+PzhJSktMTU5PRldYWVpbXF1eX1RlZmdoaWprbG1ub2R1dnd4eXp7fH1+f3OEhYaHiImKi4yNjo&#xA;+DlJWWl5iZmpucnZ6fkqOkpaanqKmqq6ytrq+v/aAAwDAQACEQMRAD8Alv5J/kn+Veu/lX5d1bVv&#xA;Ltvd6jd27Pc3LtKGdhK61PFwOgxVkvmH8m/+cevLmlyatrmg2Fhp0JVZbmV5wil2CqDRz1Y0xVI9&#xA;B8qf84la/fpp2kQ6Nd30ppDbLPKsjk9kV3UufZcVTTzV+Vn/ADjX5TsVvvMek6bpls5KxNPLMGkY&#xA;bkRoHLuR4KDiq7yv+VP/ADjd5qsDf+XdI03U7VG4SSQSysUaleLrzDIab0YDFUp1fyr/AM4kaPqz&#xA;6RqcWi2uoxMEmt5LiSsbE04yESFUI7hiKYqmPmb8sv8AnGfyvaW15r+labp1reNxtZpZJ+MhC8vh&#xA;Kua7b4qkVnpX/OHd7eQWdqmkTXVzIkMESyXHJ5JGCqo+LqSaYqzr/oXj8lv+pUtP+Cm/5rxV3/Qv&#xA;H5Lf9Spaf8FN/wA14qw7UfLX/OIum64dCvotGt9UV/TkgeeXjG4NCkkgf042B6hmGKsk1b8k/wDn&#xA;H7R9Ml1TVNC06y06Fect3PLIkYB6fEZKb9vHFUn8peQv+cWvN8k0XlvT9L1KeAcpoI5J1lVa05em&#xA;7q/Gv7VKYqqWv5c/84w3fmeXytb6ZpknmGEuJdNEk/qgxrycUL9l3xVfD+Wf/OM8/mK78txaTpz6&#xA;5YRma808PP6kcahWLMOdKAOv34qx36t/zhj46N/yMuP+asVTCbyt/wA4lwaJba5La6Umk3cr29te&#xA;GS49N5YhV0HxdVxVbonlr/nEfXdUt9J0i30m81G6JW3to5Lgu5VSxAqw/ZUnFUTpnkr/AJxU1TzF&#xA;/hzT7HS7jXPUlh/R6ST+r6kAZpVoW6oI2J+WKq3mr8vv+cXvKc8Fv5j03TNMmulMlvHO84LqpoSK&#xA;Oe+KobzB5O/5xR8vXFtb63Z6XYT3dul5bRyvcAvbylgkgox2YocVTTy1+VP/ADjZ5otnufL2laXq&#xA;kMRAmNtPJIUJFQHUSckJ/wAoYqlHmDyr/wA4leXtYGjazb6TZansHtnlnJjLCo9Uq7LHUGvxkbYq&#xA;m2vflX/zjZoGjxa1rGkabaaTOyJDevJMYnMilk4srtXkqkjFUs8veT/+cTfMV8un6LBo15fSV9K1&#xA;SeVZXoKngjurNt4YqyHV/wAj/wAgtH06bUtV8v2Flp9sA091PJKkaAkKCzGSg3IGKoTy7+Un/OOH&#xA;mW2luvL+kaZqlvC/pTS2s0kqq9A3ElZDQ0NcVSHWPL3/ADiJo2p3Gl6pBpNpqFo/p3NtJJcB0cb0&#xA;NGxVNJfy4/5xgi8tv5nOn6S/l+NgkmpxTySwK7MECl45GoeTAUxVe35Zf84zL5V/xadK00eW+Ib9&#xA;KepN6NDL6I35/wC/fg+eKo3QPyY/5x98waVDq2i+X7K+0245ehdRtPwfgxRuJLitGUjFWMfnZ+Sf&#xA;5V6F+VfmLVtJ8u29pqNpbq9tco0pZGMqLUcnI6HFWb/848f+SW8qf8wjf8nnxVJf+csP/JJav/xn&#xA;s/8AqJTFXzn56/LXyxoP5F+SvPukia18w6jcwx3cglYq5eOeX1FUn4GRoFpxp1xVmnnPS4vzD/5y&#xA;P8neX/Msj3Gl3Gj28s0CM0YP+hS3sgHAqV9SRaMRvT5DFVf8k9LHlb/nI/zp5X8vu8OmRWd2lvbM&#xA;5cVjeJoeRevIxlyAW3oT4nFWKfkT+Wvkr8wNN83+X/McrW3n4yB7G6uGkM0PEn1ZBFzT1WEu0obe&#xA;hHTFX0bb/kJ5avfy/wBC8n+b7mbzFHoBk+qXtZLRiHJ4qVjkc0RCEUcjsBirwz/nE38rfJnmuz1D&#xA;XdbtHn1LRdQt30+VZpIwhRRKKqjBW+NR1xV9g4qk3nW8ubHybr17ayGK6tdOu5oJV6rJHA7Kw+RG&#xA;Kvjr8vvyU0zzf+Q+veZbSyuNQ86pfmLTPSkavGMwl09OvBuSyOWLb+Huqi/zTsfNsH5XflB5Q8zG&#xA;4s7m4ub+G/tZj+8UQXUcFoSKkfu7aeiexxVNvMPkrQvy3/5ye8jab5RSWxs7yOzknjMrykm4uJ7W&#xA;YcpCzUeNNx032xVh/nDzSfKn/OUt95g5cYrHWla5I2P1d1WOcfTE7DFXqvkyOK4/5zC85Rt8UUun&#xA;SK1D1VobQbEe2KsF/N38ovIvlv8AOnyN5X0mzkh0bW5bFNRgaeV2cT3xgko7MWWse2xxVkH/ADlT&#xA;5I8u+S/y58r6H5fga205NSuZlieR5TzkiBY8nLNir2jyt/zjt+VXlfX7PXtG02aDU7Fme2la6nkC&#xA;lkKGqu5U/Cx64q+RND1waH/zkempseMcXmaZJmrSkU148Uh+hHOKsh/5zB1r6/8Am89kD8OkWFta&#xA;la/tScron50uFxVkP5uaJp2vfnX+V+jalGZdP1DRNHt7qNWKFo5LmdWAZSCNvDFUw8meX7H8vP8A&#xA;nKi98v8Alt5Y9J/R0zG2lcyVU2IuvTZurASoCK74qwv8sPy68v8AnX8svzH84eYPWuvMGlwz3dnd&#xA;+qw4zR28l07soIDmRhRuVdulDiqve6ne3v8AziFZxXMhkWx8yfVrbkSSsQieULv2DStTFVL80fy/&#xA;8t+Svy6/Lbzn5cWay1/U7e1u7ub1ncNObWK49VFYngVkP7NBvir3v/nLzWPqH5N3NrWh1W+tbSni&#xA;FY3P/YvirA/+cLbq50/VfOXlm8HC4hNtcLHXoY2kilI8QeSb4qkum+QvLXnj/nKbzjovmK3e5sFF&#xA;zcCNJHiIkQwqp5IVPRziqJ/5x+8pW+qn83fICTM2kyg2lqJCGCyJLcRQzdKcl4IxI60GKvLF8765&#xA;N+V8P5SLDL+kzr/IRf5BHBbanj9bYt88VfeXk3y1aeWPKmk+XrTeHTLWK2D9ObIoDyH3d6sfnirE&#xA;v+ch/wDyS3mv/mEX/k8mKu/5x4/8kt5U/wCYRv8Ak8+KpL/zlh/5JLV/+M9n/wBRKYq8k/LD/nGz&#xA;XPOnl7yxrXmXzVNceVRELi10MNNI0cZbeGMyP6cIbj8RRf64qyLVUig/5zV8vxoFjiSwZI0FAoA0&#xA;y5CqP1YqhPy9uYLX/nLjzvc3EixW8FreyTSsaKqIYGZifAAYq1+dPkny7rmn3X50flbrIXU9Il9T&#xA;VJLAkLI8fH1Jkb4eEqI4MgpR1968lXt35NefpPPn5d6X5iuEWK+mDw38SVCieBzG5WvQPQOB2rTF&#xA;XkP/ADhD/wAot5l/5jof+TOKpv5v/wCcQ/LnmXzRqvmCfzBeW82q3Ml1JAkURVGlYsVBO9BXFWQ6&#xA;F+Uunfln+UvnLSbG/m1CO9s766aWdVRlb6mY+IC9vgxVgv8Azjr5xtfJv/OOms+Zrm3e7g0zUpnk&#xA;t4iFduYt46AtsPt1xVjf56+ebPzvaflB5rtrZ7K21C+1ErbzMrMggvbWA8mXbcxVxVO/zr/9av8A&#xA;y7/4wab/AN1C5xVgXmnyj/iv87PzS0uOP1LtLC9vLIftevavbzKF934FPpxVMP8AnFnXbnXfzxn1&#xA;K63uH0P0ZWPVmt47WAufd/T5Yqy3/nIH/wBaS/LD/jPpn/dUOKov/nN7/lFvLX/MdN/yZxV6D+T3&#xA;5BaR+WWpahf2Oq3GoPqEKQOk6IgUI/Oo44q+S/MOgPf/APKz9XhHGfQtdhufVGzLFNeXVuwB7fvJ&#xA;Iz9GKoDz1ezebYfMX5gzxlP0hrdva2vLqENtO7qewoiRbYq9K/O3StU1b83fy30zSr5tN1K80DSY&#xA;bPUEZ0aCV7i4CyBoyHBU7/Ca4q9b/LP/AJx7m8mahq/m7zJrj+YfMtxazxRXDh6Rh0Id2klZ5JJG&#xA;UBamlBUb4q8x/wCceiB+QX5r1/5Ybz/unS4qxT/10f8A8Gv/ALFsVUT5N1LSPzB/LTTvPWqz635c&#xA;1aDT7ixjkmlaG3t7hwiWqiUsESMhOYSg49KYq9O/5zd1f9x5S0NCW9aW5vJo1PxfAI4oqDfr6j0x&#xA;Vj/5C+d7fUv+cltRv7exfSoPMtpcRpp0rcmRkjjuDUkLXe2Yg074qkvmDyx5s8x/85DeerPytq02&#xA;j6nBHd3Rmt5JYnmjiWPlbhoSrfvCR12xV6Z/zhNb6MfKXmG8jUnXJL9I7+Vm5EwLEGgp4fG8tfE4&#xA;qx+Lyho8f/OajW/p8rcyNq4iIFBdNZfWOX/I8+oPfFX1hirzr/nIf/yS3mv/AJhF/wCTyYq7/nHj&#xA;/wAkt5U/5hG/5PPiqN/OnyFqXnz8vr7y1p1xDa3d1JA6TXHL0wIZlkNeAZtwvhiqZflp5WvPKnkP&#xA;RfLt5LHPdaZbiCWaHl6bMCTVeQU037jFXnP53/kHrXnHzHp/nDyfq6aL5oskWFpJXliR1jJMcizQ&#xA;q8iSLyK/ZNRTpTdVr8kf+cftS8natq3mXzhqcet+YtXiktpjG0ksXpzuHmZ5JlR5XlKipKim/WuK&#xA;sI1L/nFr80tObWNC8m+bLe08kaxN6k1hcy3EcpQ/sOscUivRfhJDjmB8Q7Yq97/LHyDY+Q/JWn+W&#xA;bSU3H1RWa4uivEzTysXkfjvQVNFHZQBirEP+ce/yg1v8s9G1ax1a9tr2TULiOeJrX1OKqicSG9RU&#xA;3xV6xiqhqFja6hYXNhdp6lrdxPBcR9OUcqlHG3ipxV8q3n/OIv5l273mg6N5ugTyTe3CzzWs0t0j&#xA;txIKtJaxo0EjpxXfmOVAdqCir0fz9/zjVpOu/ljoPlLR7wWmoeWFc6ZfTKSkjz/FciUJUqJpPjJW&#xA;tD44qkH5bf8AONvna08/2XnL8xfMUet3elcTYRxTXF07PGCIvUluEiZVjJ5BVBq3frVVlflL8mdd&#xA;0X88te/MKe+tZNM1WOdIbSP1PXUymIjlVQm3pno2KpT+VP8AzjzqnkT81dV80pfWkmg3SXcVhZR+&#xA;p68cc8yyRK1VCfAi8TQ4qm35m/kzrvmz81/KHnKyvrWCx8uyWj3VvN6nqyC2vPrLenxVl3XYVI3x&#xA;VW/5yE/KDW/zM0bSbHSb22spNPuJJ5WuvU4srpxAX01ffFUj8gflR+fOjecNN1PzH57/AEtots7t&#xA;eaf9Zun9VTGyqOMiBTRiDucVU/L/APzjvrVmn5mQ6jf2csPndJv0f6fqEwSNLNNC0wZB9l5FJ416&#xA;YqkF3/zit5kf8pLHydb6pYLqsWsS6teXTet6LK8HoKiUj51CqvUeOKss8y/kX5h1X8z/ACR5uhv7&#xA;SOy8r2Wn2t3bv6vqyNZTSSOY6IVowkFKkYq9rIBFDuD1GKvlXXf+cSvzAs9S1Wz8leZ4LPynrDA3&#xA;VhcT3UDmMMWWKWOGOSOcR8jxLEV9sVZz5n/5xzmm/JXTvy78v6hEtzaXqX11qF4GRZpKSeqeMYkK&#xA;7yAKOyjck74qu/Nn8gdb84+VPJlhpmoWtnrXlaBLd7qX1BG6iGJGKFFZtpIFK1HjiqN87fk15n81&#xA;fmx5R85XV9Zppvl6O0NzZAy+o9xbzPcO0fwceLOVAqegxVU81/k1r2pfnnoP5jaZfWsFnp0UMd9b&#xA;S+p60nAypJw4qV3hkAFW64q7yl+TOu6L+eWvfmFPfWsmmarHOkNpH6nrqZTERyqoTb0z0bFVP8l/&#xA;yW8wfl15w8z3hvrWfy7rbFrS1iMnrx+nOzW/MMgTaKVg1G64qiv+VQa3/wBDBf8AKy/rtt+ivq/o&#xA;fU/3n1jl9U+r1+zwpy3+10xV6xirzr/nIf8A8kt5r/5hF/5PJirxj8vP+V+/4L0r/Bn6V/wx6R/R&#xA;f/KOf3XNq/70/vvtV+3irIv+srv+1r/4a2Ku/wCsrv8Ata/+Gtirv+srv+1r/wCGtirv+srv+1r/&#xA;AOGtirv+srv+1r/4a2Ku/wCsrv8Ata/+Gtirv+srv+1r/wCGtirv+srv+1r/AOGtirv+srv+1r/4&#xA;a2Ku/wCsrv8Ata/+Gtirv+srv+1r/wCGtirv+srv+1r/AOGtirv+srv+1r/4a2Ku/wCsrv8Ata/+&#xA;Gtirv+srv+1r/wCGtirv+srv+1r/AOGtirv+srv+1r/4a2Ku/wCsrv8Ata/+Gtirv+srv+1r/wCG&#xA;tirv+srv+1r/AOGtirv+srv+1r/4a2Ku/wCsrv8Ata/+Gtirv+srv+1r/wCGtirv+srv+1r/AOGt&#xA;irv+srv+1r/4a2Ku/wCsrv8Ata/+Gtirv+srv+1r/wCGtirv+srv+1r/AOGtirv+srv+1r/4a2Ku&#xA;/wCsrv8Ata/+GtirHfzD/wCV+/4L1X/Gf6V/wx6Q/Sn/ACjn91zWn+83777VPsYq/wD/2Q==</xmpGImg:image>
               </rdf:li>
            </rdf:Alt>
         </xmp:Thumbnails>
         <xmpTPg:MaxPageSize rdf:parseType="Resource">
            <stDim:w>135.408272</stDim:w>
            <stDim:h>18.744592</stDim:h>
            <stDim:unit>Millimeters</stDim:unit>
         </xmpTPg:MaxPageSize>
         <xmpTPg:NPages>1</xmpTPg:NPages>
         <xmpTPg:HasVisibleTransparency>False</xmpTPg:HasVisibleTransparency>
         <xmpTPg:HasVisibleOverprint>False</xmpTPg:HasVisibleOverprint>
         <xmpTPg:PlateNames>
            <rdf:Seq>
               <rdf:li>Cyan</rdf:li>
               <rdf:li>Magenta</rdf:li>
               <rdf:li>Yellow</rdf:li>
               <rdf:li>Black</rdf:li>
            </rdf:Seq>
         </xmpTPg:PlateNames>
         <xmpTPg:SwatchGroups>
            <rdf:Seq>
               <rdf:li rdf:parseType="Resource">
                  <xmpG:groupName>初期設定のスウォッチグループ</xmpG:groupName>
                  <xmpG:groupType>0</xmpG:groupType>
               </rdf:li>
            </rdf:Seq>
         </xmpTPg:SwatchGroups>
         <dc:format>image/svg+xml</dc:format>
      </rdf:Description>
   </rdf:RDF>
</x:xmpmeta>
                                                                                                    
                                                                                                    
                                                                                                    
                                                                                                    
                                                                                                    
                                                                                                    
                                                                                                    
                                                                                                    
                                                                                                    
                                                                                                    
                                                                                                    
                                                                                                    
                                                                                                    
                                                                                                    
                                                                                                    
                                                                                                    
                                                                                                    
                                                                                                    
                                                                                                    
                                                                                                    
                           
<?xpacket end="w"?>
	</metadata>
<g>
	<path d="M0,53.1V0h383.8v53.1H0z M381.7,51V2.1H2.1V51H381.7z"/>
	<path d="M383.3,52.6H0.6v-52h382.7V52.6z M1.6,51.6h380.7v-50H1.6V51.6z"/>
	<g>
		<g>
			<path d="M28.8,10.1c2.4,0,4.3,0.8,5.8,2.3c1.3,1.5,2,3.3,2,5.6v4.8c0,2.2-0.8,4-2.3,5.6c-1.5,1.5-3.3,2.3-5.5,2.3h-2.9v12.4h-5
				v-33H28.8z M31.8,18.1c0-0.9-0.3-1.6-0.8-2.1s-1.2-0.8-2.1-0.8h-3v10.5h3c0.8,0,1.5-0.3,2-0.8c0.6-0.6,0.8-1.2,0.8-2v-4.8H31.8z"
				/>
			<path d="M47.9,9.7c2.2,0,4.1,0.8,5.6,2.3s2.3,3.4,2.3,5.6v18c0,2.2-0.8,4.1-2.3,5.6s-3.4,2.3-5.6,2.3c-2.2,0-4-0.8-5.6-2.3
				c-1.5-1.5-2.3-3.4-2.3-5.6v-18c0-2.2,0.8-4.1,2.3-5.6S45.7,9.7,47.9,9.7z M50.6,17.5c0-0.8-0.3-1.5-0.8-2c-0.6-0.6-1.2-0.8-2-0.8
				s-1.5,0.3-2,0.8c-0.6,0.6-0.8,1.2-0.8,2v18c0,0.8,0.3,1.5,0.8,2c0.6,0.6,1.2,0.8,2,0.8s1.5-0.3,2-0.8c0.6-0.6,0.8-1.2,0.8-2V17.5
				z"/>
			<path d="M75.6,34.9c0,2.3-0.6,4.3-1.8,5.9c-0.8,1.1-1.9,1.9-3.4,2.3c-0.8,0.2-1.7,0.4-2.8,0.4c-1.9,0-3.6-0.5-4.8-1.4
				c-1.1-0.8-1.9-1.9-2.5-3.2c-0.6-1.4-1-2.9-1.1-4.7l4.7-0.3c0.2,1.9,0.7,3.3,1.5,4.2c0.6,0.7,1.3,1,2.1,0.9c1.1,0,2-0.6,2.6-1.6
				c0.3-0.5,0.5-1.2,0.5-2.2c0-1.4-0.6-2.7-1.9-4.1c-1-0.9-2.5-2.3-4.4-4.2c-1.6-1.6-2.8-3-3.5-4.3c-0.7-1.4-1.1-3-1.1-4.6
				c0-3,1-5.3,3-6.8c1.2-0.9,2.8-1.4,4.6-1.4c1.8,0,3.3,0.4,4.5,1.2c1,0.6,1.8,1.5,2.4,2.6s1,2.4,1.1,3.8l-4.7,0.7
				c-0.1-1.3-0.5-2.4-1.2-3.2c-0.5-0.5-1.1-0.8-2-0.8s-1.6,0.4-2.1,1.2c-0.4,0.6-0.6,1.5-0.6,2.4c0,1.5,0.6,3,1.9,4.6
				c0.5,0.6,1.2,1.3,2.2,2.1c1.2,1,1.9,1.6,2.3,2c1.2,1.2,2.2,2.4,2.8,3.6c0.3,0.6,0.6,1.1,0.8,1.6C75.3,32.9,75.6,33.9,75.6,34.9z"
				/>
			<path d="M84.3,15.1H79v-5h15.5v5h-5.3V43h-5V15.1H84.3z"/>
			<path d="M97.9,24.1h14.7v5H97.9V24.1z"/>
			<path d="M126.9,43.5c-2.2,0-4.1-0.8-5.6-2.3s-2.3-3.4-2.3-5.6v-18c0-2.2,0.8-4.1,2.3-5.6s3.4-2.3,5.6-2.3s4,0.8,5.6,2.3
				c1.5,1.5,2.3,3.4,2.3,5.6v3.8h-5.2v-3.9c0-0.8-0.3-1.5-0.8-2c-0.6-0.6-1.2-0.8-2-0.8s-1.5,0.3-2,0.8c-0.6,0.6-0.8,1.2-0.8,2v18
				c0,0.8,0.3,1.5,0.8,2c0.6,0.6,1.2,0.8,2,0.8s1.5-0.3,2-0.8c0.6-0.6,0.8-1.2,0.8-2V31h5.2v4.6c0,2.2-0.8,4-2.3,5.6
				C130.9,42.7,129.1,43.5,126.9,43.5z"/>
			<path d="M146.1,9.7c2.2,0,4.1,0.8,5.6,2.3s2.3,3.4,2.3,5.6v18c0,2.2-0.8,4.1-2.3,5.6s-3.4,2.3-5.6,2.3c-2.2,0-4-0.8-5.6-2.3
				c-1.5-1.5-2.3-3.4-2.3-5.6v-18c0-2.2,0.8-4.1,2.3-5.6C142.1,10.5,143.9,9.7,146.1,9.7z M148.8,17.5c0-0.8-0.3-1.5-0.8-2
				c-0.6-0.6-1.2-0.8-2-0.8s-1.5,0.3-2,0.8c-0.6,0.6-0.8,1.2-0.8,2v18c0,0.8,0.3,1.5,0.8,2c0.6,0.6,1.2,0.8,2,0.8s1.5-0.3,2-0.8
				c0.6-0.6,0.8-1.2,0.8-2V17.5z"/>
			<path d="M164,10.1l6.6,22.2V10.1h5v33h-5.3L163.5,22v21.1h-5v-33H164z"/>
			<path d="M185.2,15.1h-5.3v-5h15.5v5h-5.3V43h-5V15.1H185.2z"/>
			<path d="M198.9,43.1v-33H213v5h-9.2v9h6.7v5h-6.7v9h9.2v5H198.9z"/>
			<path d="M222.4,43.1h-5v-33h7.1l4.6,23.7l4.5-23.7h6.8v33h-5V22.4l-4.3,20.7h-4l-4.8-20.7v20.7H222.4z"/>
			<path d="M252.7,10.1c2.4,0,4.3,0.8,5.8,2.3c1.3,1.5,2,3.3,2,5.6v4.8c0,2.2-0.8,4-2.3,5.6c-1.5,1.5-3.3,2.3-5.5,2.3h-2.9v12.4h-5
				v-33H252.7z M255.7,18.1c0-0.9-0.3-1.6-0.8-2.1s-1.2-0.8-2.1-0.8h-3v10.5h3c0.8,0,1.5-0.3,2-0.8c0.6-0.6,0.8-1.2,0.8-2v-4.8
				H255.7z"/>
			<path d="M271.8,9.7c2.2,0,4.1,0.8,5.6,2.3s2.3,3.4,2.3,5.6v18c0,2.2-0.8,4.1-2.3,5.6s-3.4,2.3-5.6,2.3s-4-0.8-5.6-2.3
				c-1.5-1.5-2.3-3.4-2.3-5.6v-18c0-2.2,0.8-4.1,2.3-5.6C267.8,10.5,269.6,9.7,271.8,9.7z M274.5,17.5c0-0.8-0.3-1.5-0.8-2
				c-0.6-0.6-1.2-0.8-2-0.8s-1.5,0.3-2,0.8c-0.6,0.6-0.8,1.2-0.8,2v18c0,0.8,0.3,1.5,0.8,2c0.6,0.6,1.2,0.8,2,0.8s1.5-0.3,2-0.8
				c0.6-0.6,0.8-1.2,0.8-2V17.5z"/>
			<path d="M291.9,10.1c2.8,0,4.8,0.8,6.1,2.3c1.1,1.3,1.7,3.2,1.7,5.6v4.8c0,2.3-0.9,4.3-2.7,5.9l3.7,14.4h-5.4l-3-12.4
				c-0.1,0-0.3,0-0.4,0H289v12.4h-5v-33H291.9z M294.9,18.1c0-1.9-0.9-2.9-2.8-2.9h-3v10.5h3c0.8,0,1.5-0.3,2-0.8
				c0.6-0.6,0.8-1.2,0.8-2V18.1z"/>
			<path d="M310.5,35.5l-1.2,7.6h-5.2l5.6-32.9h6.8l5.5,32.9h-5.2l-1.2-7.6H310.5z M313.1,17.7l-1.8,13h3.7L313.1,17.7z"/>
			<path d="M334.4,10.1c2.8,0,4.8,0.8,6.1,2.3c1.1,1.3,1.7,3.2,1.7,5.6v4.8c0,2.3-0.9,4.3-2.7,5.9l3.7,14.4h-5.4l-3-12.4
				c-0.1,0-0.3,0-0.4,0h-2.9v12.4h-5v-33H334.4z M337.3,18.1c0-1.9-0.9-2.9-2.8-2.9h-3v10.5h3c0.8,0,1.5-0.3,2-0.8
				c0.6-0.6,0.8-1.2,0.8-2V18.1z"/>
			<path d="M351.2,29.3l-6.6-19.2h5.5l3.7,11.8l3.7-11.8h5.5l-6.7,19.2v13.8h-5V29.3H351.2z"/>
		</g>
	</g>
</g>
</svg>
