<?xml version="1.0" encoding="utf-8"?>
<!-- Generator: Adobe Illustrator 21.1.0, SVG Export Plug-In . SVG Version: 6.00 Build 0)  -->
<!DOCTYPE svg PUBLIC "-//W3C//DTD SVG 1.1//EN" "http://www.w3.org/Graphics/SVG/1.1/DTD/svg11.dtd">
<svg version="1.1" id="レイヤー_1" xmlns="http://www.w3.org/2000/svg" xmlns:xlink="http://www.w3.org/1999/xlink" x="0px"
	 y="0px" viewBox="0 0 198.8 57.5" style="enable-background:new 0 0 198.8 57.5;" xml:space="preserve">
<metadata><?xpacket begin="﻿" id="W5M0MpCehiHzreSzNTczkc9d"?>
<x:xmpmeta xmlns:x="adobe:ns:meta/" x:xmptk="Adobe XMP Core 5.6-c137 79.159768, 2016/08/11-13:24:42        ">
   <rdf:RDF xmlns:rdf="http://www.w3.org/1999/02/22-rdf-syntax-ns#">
      <rdf:Description rdf:about=""
            xmlns:xmp="http://ns.adobe.com/xap/1.0/"
            xmlns:xmpGImg="http://ns.adobe.com/xap/1.0/g/img/"
            xmlns:xmpTPg="http://ns.adobe.com/xap/1.0/t/pg/"
            xmlns:stDim="http://ns.adobe.com/xap/1.0/sType/Dimensions#"
            xmlns:xmpG="http://ns.adobe.com/xap/1.0/g/"
            xmlns:dc="http://purl.org/dc/elements/1.1/">
         <xmp:CreatorTool>Adobe Illustrator CC 2017 (Macintosh)</xmp:CreatorTool>
         <xmp:CreateDate>2017-07-13T12:10:48+09:00</xmp:CreateDate>
         <xmp:Thumbnails>
            <rdf:Alt>
               <rdf:li rdf:parseType="Resource">
                  <xmpGImg:width>256</xmpGImg:width>
                  <xmpGImg:height>76</xmpGImg:height>
                  <xmpGImg:format>JPEG</xmpGImg:format>
                  <xmpGImg:image>/9j/4AAQSkZJRgABAgEASABIAAD/7QAsUGhvdG9zaG9wIDMuMAA4QklNA+0AAAAAABAASAAAAAEA&#xA;AQBIAAAAAQAB/+4ADkFkb2JlAGTAAAAAAf/bAIQABgQEBAUEBgUFBgkGBQYJCwgGBggLDAoKCwoK&#xA;DBAMDAwMDAwQDA4PEA8ODBMTFBQTExwbGxscHx8fHx8fHx8fHwEHBwcNDA0YEBAYGhURFRofHx8f&#xA;Hx8fHx8fHx8fHx8fHx8fHx8fHx8fHx8fHx8fHx8fHx8fHx8fHx8fHx8fHx8f/8AAEQgATAEAAwER&#xA;AAIRAQMRAf/EAaIAAAAHAQEBAQEAAAAAAAAAAAQFAwIGAQAHCAkKCwEAAgIDAQEBAQEAAAAAAAAA&#xA;AQACAwQFBgcICQoLEAACAQMDAgQCBgcDBAIGAnMBAgMRBAAFIRIxQVEGE2EicYEUMpGhBxWxQiPB&#xA;UtHhMxZi8CRygvElQzRTkqKyY3PCNUQnk6OzNhdUZHTD0uIIJoMJChgZhJRFRqS0VtNVKBry4/PE&#xA;1OT0ZXWFlaW1xdXl9WZ2hpamtsbW5vY3R1dnd4eXp7fH1+f3OEhYaHiImKi4yNjo+Ck5SVlpeYmZ&#xA;qbnJ2en5KjpKWmp6ipqqusra6voRAAICAQIDBQUEBQYECAMDbQEAAhEDBCESMUEFURNhIgZxgZEy&#xA;obHwFMHR4SNCFVJicvEzJDRDghaSUyWiY7LCB3PSNeJEgxdUkwgJChgZJjZFGidkdFU38qOzwygp&#xA;0+PzhJSktMTU5PRldYWVpbXF1eX1RlZmdoaWprbG1ub2R1dnd4eXp7fH1+f3OEhYaHiImKi4yNjo&#xA;+DlJWWl5iZmpucnZ6fkqOkpaanqKmqq6ytrq+v/aAAwDAQACEQMRAD8A4n+evkT/AAT+Zur6RDH6&#xA;enTP9d0wAUX6tcEsqr7Rtyj/ANjir6//AOcZfO/+Kvyn00TSc9Q0Wul3lTViIAPRbc13hZN+7A4q&#xA;9WxV8n/85q+evUutH8kWsnwQj9J6koP7bVjt0NOnFebEf5SnFVP/AJws8h+vqGred7uOsdoP0bph&#xA;P+/ZAHuHHuqFFH+scVfWmKvIP+csP/JJav8A8Z7P/qJTFXz/AP8AOG3/AJNyb/tlXP8AydhxV9v4&#xA;q7FXYq+Vv+c0fzC20zyJZS+Go6uFPzW2ian+ycg/5JxV8/flf51n8lefNH8xxljFZzgXka/t20g9&#xA;OdKe8bGnvQ4q/Sa1ube6torq3kEtvOiywyrurI45Kw9iDiqpirsVfAH/ADlH/wCT28zf9GP/AHT7&#xA;fFWWf84wfnsfKupR+T/MVxx8tahJ/oN1KfhsrmQ92P2YZT9rsrfFsORxV9p4q+df+c2v+UB0L/tq&#xA;j/qGlxViv/ODn/HV83f8YLL/AInNir60xVhX51/+Sj83/wDbKuv+TRxV+ePl/wAv6x5h1i20bRrZ&#xA;rzU7xittbKVUuVUuQC5VfsqTucVZ1/0Ld+dv/UrT/wDI62/6q4q7/oW787f+pWn/AOR1t/1VxV9j&#xA;/wDOP/lvW/LX5R6DomuWrWWqWn1v6xauVYp6l7NKlShZd0cHY4q9CxV4B/zmr/5KzSv+25b/APUH&#xA;d4q8/wD+cIf+Uq8y/wDMDD/yexV9f4q7FXzt/wA5l+RP0n5PsfN1rHW60KX0bwgbm0uWCgn/AIxz&#xA;caf6xxV5l/zhz53/AER+YFz5buJONn5hgIhBOwu7UGSPqaDlH6i+544q+0bu7trO1mu7mQRW1vG0&#xA;s8rfZVEBZmPsAK4q/Nbz55nv/PHn7Vdc4PLPq94fqkH2nEZIjt4gO5WMKuKv0E/K3yVD5K8g6N5c&#xA;QD1rOAG8cU+O5lPqTtUdR6jGntQYqyrFXkH/ADlh/wCSS1f/AIz2f/USmKvn/wD5w2/8m5N/2yrn&#xA;/k7Dir7fxV2KoPWdXsNG0i91bUJBDY2EMlzcyn9mOJSzH7hir83PMut63+YPn671IxtLqmv3oW1t&#xA;geRBlcRwQKT2ReKD5Yqyr8+fyek/LXW9LtoZGuNP1Gxidbk9DdwqqXaiu9OdJAOwcDtir6X/AOcS&#xA;/P48x/luuiXMnLUvLLC0YE/E1o9Wtm/2IDR/JMVe3Yq7FXwB/wA5R/8Ak9vM3/Rj/wB0+3xVgWu+&#xA;VNa0S00q8voCtnrVqt5p1yKmOSMmjAH+ZG2Ze2x6EEqvqr/nFf8APU6zaQ+Q/MlwDq1pHx0S8kO9&#xA;zBGP7hieskSj4T+0o8RUqoj/AJza/wCUB0L/ALao/wCoaXFWK/8AODn/AB1fN3/GCy/4nNir60xV&#xA;hX51/wDko/N//bKuv+TRxV8O/kVrmk6F+bPl7VtXuks9OtZpWuLmSoRA1vIoJpX9pgMVfbH/ACv7&#xA;8mv+pssf+Cb/AJpxVH6B+b/5aeYNWg0jRfMNpfanc8/q9rEzF39NGkelQOiITirMMVdirwD/AJzV&#xA;/wDJWaV/23Lf/qDu8Vef/wDOEP8AylXmX/mBh/5PYq+v8VdiqX+YdDsNe0LUNE1BOdlqVvJa3C9+&#xA;EqlSRXowrUHscVfm9cQ655A8/NHX09Y8t6h8LbhWktZaqdjuj8a+4OKvrf8A5yQ/NWyi/JOzm0mW&#xA;knneKJLTcc1tJI1muCaf5DCJh/lYq8M/5xS8hf4m/M+DUrmPnpvltRfzEiqm4rxtU+fqfvB/qYq+&#xA;7cVdiryD/nLD/wAklq//ABns/wDqJTFXz/8A84bf+Tcm/wC2Vc/8nYcVfb+KuxV86/8AOZH5hfor&#xA;yrZeTbOXje643r34U7rZQN8Knv8AvZRt7IwxV5//AM4dfluNX80XXnS+i5WGhfuLDkNnvZV3b/nj&#xA;E1fmyntir3X/AJyU/L7/ABj+WF99Wi9TVtFrqVhQVY+kp9aMePOLlQd2C4q+Uv8AnG7z+PJ35oaf&#xA;JcyenpWr/wC43UCTRVWdh6UhqaDhKFJJ6LyxV+gWKuxV8Af85R/+T28zf9GP/dPt8VfRvlj8stH/&#xA;ADE/5xt8taHf0iuVsVl02+pVre4BYK/up6Ovce9Dir431rR/MfkzzTPp16smna5o9wPiRirJJGQ8&#xA;csbjsdnRh1FDir1r82vzotvzG/JzQor0pF5o0zU0TU7cUAlX6tKFuYx/K/7Q/Zb2IxVln/ODn/HV&#xA;83f8YLL/AInNir60xVhX51/+Sj83/wDbKuv+TRxV+fnknyhqXnDzTYeWtMlhhvtRdkgkuWdYgURp&#xA;DzKLIw2Q9FOKvZP+hKvzT/6uuh/9JF5/2SYqzX8mf+cX/P3kj8ytH8z6rqGlT2Gn/WfWitZrl5j6&#xA;1rLAvFZLeJftSitWG2Kvp/FXYq8A/wCc1f8AyVmlf9ty3/6g7vFXn/8AzhD/AMpV5l/5gYf+T2Kv&#xA;r/FXYq7FXx3/AM5neRPqHmjTvOVrHS31mP6pfsBsLq2X92zHxkhoB/qHFXgeqeZNY1TTNJ0y9nMt&#xA;lokMlvp0R/YSaZpn+ZLPT5ADtir7h/5xb8h/4W/K60u7iPhqfmEjUrknqInFLZPl6VH9ixxV6/ir&#xA;sVeQf85Yf+SS1f8A4z2f/USmKvn/AP5w2/8AJuTf9sq5/wCTsOKvt/FVk00UEMk0zrHDEpeSRiAq&#xA;qoqWJPQAYq/OX81POV9+Yn5lahq1skky3lwtpo9qAWf0EPp26Ko/af7RA/aY4qt/5Up+bn/Uoar/&#xA;ANIsv9MVd/ypT83P+pQ1X/pFl/pirH/MPlfzJ5bvY7PXtNudLu5IxNFDdRtE7RklQ6hgKjkpFcVf&#xA;f35D+fx54/LTS9Vmk9TUrZfqOq71b6zbgAu3vIhWT/ZYq9BxV8Af85R/+T28zf8ARj/3T7fFX2B+&#xA;QP8A5Jryn/zAr/xJsVYr/wA5J/kinnzQf03o0I/xXpMZ9FVG93brVjbk/wA43MfvUftVCr4WdHjd&#xA;o5FKOhKujChBGxBBxV9Pf84Of8dXzd/xgsv+JzYq+tMVYV+df/ko/N//AGyrr/k0cVfDv5Fa5pOh&#xA;fmz5e1bV7pLPTrWaVri5kqEQNbyKCaV/aYDFX2x/yv78mv8AqbLH/gm/5pxV3/K/vya/6myx/wCC&#xA;b/mnFWS+VvOflbzXZy3nl3UodTtYJPRmlgJKrJxDcTUDejA4qnWKvAP+c1f/ACVmlf8Abct/+oO7&#xA;xV5H/wA4led/KflPzFr1x5j1OHTILmzijgknJAd1lqQKA9sVfTn/ACv78mv+pssf+Cb/AJpxV3/K&#xA;/vya/wCpssf+Cb/mnFWf4qwv84Py9Tz/AOQNS8uK0cV7KFm024mqEjuYjyQsVDEK26MQp+Fjtir5&#xA;t0P/AJws8+JrVi+tanpD6QtxG2oJbTXTTNAHBkWMNbIvIrUCrDFX2JHHHFGscahI0AVEUAKqgUAA&#xA;HQDFV2KuxVgn53eQ9X89/l3f+WtImt4L66kt3jku2dIgIZlkapjSVui7fDiry/8AIH/nHPzv+Xnn&#xA;mTX9avtMuLNrKa1EdlLcPLzkeNgaSwQrT4D+1ir6LxVh35t+XfNnmXyFqegeV7i1tNR1RRbS3N48&#xA;kaLbOf34Bijmbk6fB9noTirxf8lv+cVfMXlLz5aeY/NV3pt5a6cjy2VvZyTyN9bNFjdxLDCOKAsw&#xA;oa8gMVfTOKuxV5F/zkR+SV5+ZmkaY2jzW1rrumTN6c920iRNbSr+8jYxJK1eaoy/D4+OKpT/AM47&#xA;fk1+Yv5Z6jqsWtX2m3Wh6nEjejZzXDyJcxNRHCywRLxZGYN8X8uKvc8VfMH5zf8AOL/n7zv+ZWse&#xA;Z9K1DSoLDUPq3oxXU1ykw9G1igbksdvKv2ojSjHbFXu/5YeV9Q8q+QND8u6hJFLe6bbCCeS3LNEW&#xA;DE1QuqMRv3UYqyjFXzj+d/8AziteebvNH+IvJ9zZafcX1W1e1vGljiabak0Rhim+J/2wQN9+pOKp&#xA;7/zjj+R3mz8s73XZ9eu7C5TU47dIBYyTSFTC0hbn6sMNPtilK4q9xxVj35h+Xr3zJ5G13QLF447z&#xA;VLKa1t5JyyxK8qFVLlVdgN96KcVfJn/QlX5p/wDV10P/AKSLz/skxV3/AEJV+af/AFddD/6SLz/s&#xA;kxV3/QlX5p/9XXQ/+ki8/wCyTFXv3/OO/wCVHmL8tvLGpaVrlxZ3NxeXv1qJ7F5ZECekkdGMscJr&#xA;VD2xV6tirzD/AJyF/K/X/wAx/Jdloeh3FpbXdtqUV673ryJGY0gniIBijmblymHbx3xV89f9CVfm&#xA;n/1ddD/6SLz/ALJMVd/0JV+af/V10P8A6SLz/skxV3/QlX5p/wDV10P/AKSLz/skxV9qYq7FXYq7&#xA;FXYq7FXYq7FXYq7FXYq7FXYq7FXYq7FXYq7FXYq7FXYq7FXYq7FXYq7FXYq7FXYq7FXYq7FXYq7F&#xA;XYq7FXYq7FXYq7FXYq7FXYq7FXYq7FXYq7FXYq7FXYq7FXYq7FXYq7FXYq7FXYq7FXYq7FXYq7FX&#xA;Yq7FXYq7FXYqwb87NGs9R/LDzHNM0sc+madd39lPBK8Lxz21u8iMGQioqtCD1GKsO/JTz75g0y6t&#xA;fy68+SltZNrHd+WtXckrqNi6cwnNtzNCNjXcgHwqyqL0Ly1pUH/ORGtemJ/Tg0e21CGA3E7QpdXN&#xA;xIksixlytWVOlKdcVZV+c+mWl9+V/mWSf1BLp+m3l/ZyxSSRPHcW1tI8Tho2U7Hsdj3xVgXlLyP5&#xA;P1P8q/Jr3l7PpnmPXIbRrHVFnuXnkvRGbpvhMnFwyRPyVvhp9GKvbri3gubeW3nQSwTI0csbCqsj&#xA;ijKR4EHFXhn5Z+W9H8ofnz5w8svbcU1Gxh1Py5JI8jFLN24XUEfNjt6rUHeiYqk80WheUP8AnKPR&#xA;rOxmu/0NeWogmt3uLh7W01O7imEKAO5UmWNBRDWheo7UVZ5528raT5p/N3QNOlEwTTdPuNS1sQ3E&#xA;0KyxNIsFjC6xuv2pfVf5JTpir1JEVEVFFFUAAewxVvFXz/8Aml5O0z8vfP2jfmpZ2bT+XluhH5os&#xA;eUjrbvO9E1CFCxoVdviUbVpQfESFU1g8qeV/zU/M298ytbLceVNBT9Hx3MUkiLqmoDiZJC0bKHgt&#xA;UpGtNmau5Apir0n8w/ONt5N8lav5muE9RNNgMkcRNA8rsI4Yye3OV1XFWE+SPyt0/wAzeXLXzH+Y&#xA;8X+IvMOtwreTQ3hdrayjnXnHbWtvX04hGjAEgci1TyxVKr/65+UX5g+XLbT7y4m/L7zZc/oyTSbq&#xA;V5106+eghe2klLOkUhbdOVB8R8KKvZr+xtb+ynsrtPUtrhGjmQMykqwoRyUqw+g4q+efyW/LzQPM&#xA;nknzHe6pf6jb39vrGoWtpq0Wo3cUlpDbqgjKEShKR1LfGDXvtir0T/nHfzN5i8yflTpWpa/K1zfc&#xA;54FvnryuIoZWRJWqASaDiWO5pU74qof85K2sb/k/rd8ryxXmmiK4sp4ZZIXSQzJGTWNl5Ao7CjVG&#xA;Ksfi8t6Z5x8u6N5E8vSXEOn6YLa98y+YEubhpYJ3jV2tYJS59S5m5H1AxKRKd15FRir2HQtC0zQt&#xA;Lh0vTI2is4K+mkkkkzfEakmSVndqk9ziqPxV2KuxV2KuxV2KuxV2KuxV2KsU/Nt0T8q/ORZgoOia&#xA;iKk03a0kAH0k4qkXmT8uLDz3+W2hW6zmx1qwtLW70DWYtpbS6WFGR1Zfi4MVHID2PUA4qxb8k/MX&#xA;mPXfzM80nzTYfUPM2k6XpumaqtAFklimuW9aKn7EyOjim3htTFXo/wCbH/krPOX/AGw9S/6g5MVe&#xA;e/ld+Xv5bWf5c+S/PFxaW2lX+kWUWqXesRCOJpD9VeOUXMhUlkpKWPQ8gN+xVe1RyJJGskZ5I4DK&#xA;w6EEVBxV5B+f8Unl268r/mhaRs83lS+WLVFjHxSaZffuZl+YLALXoWxVi/mryhq+ofkRfedZEMPm&#xA;+bUF88Rn7TwGMgwxVpy4wWAAp/MMVZ/+Sd7L5ls9Z/MK4haB/NN0osYX+1Hp9gn1eBP9lKJpP9li&#xA;r0rFXYqxr8zILaf8ufNMVyivA2k3pdX6bW7kH6CK1xVIf+ce4oYvyY8qLEoVTZ82C92aR2Y/MsTi&#xA;qI/PXytqPmn8pvMeiaanqX80Ec1vEOsjWs8dz6a/5T+jxHucVX/kx510vzb+Xej3tnIpubW2is9S&#xA;tujwXUCCORGXqKleS16qRirD/wA4gnmz8yPIfknTD695pmpR+YNbZNxa2lrQr6pGytNyIQHvTxFV&#xA;XtGKvlXQfyx1fzL+Tnma80HU9Rj1ZdY1KZdGjuZBYXohn+KCW2BCuZUWgr1aldsVe8/lJ5z8v+bf&#xA;Imm6josMVlFDEttc6VCAos54gFe34ADiF/Z2FVocVSb/AJyR/wDJJeaf+MEP/UTFirDPK1xf/kzb&#xA;6XJdPNeflbrscMzXBBkk0W+uVVm9QirNazO3X9k+/wBtV73HJHLGskbB43AZHUgqykVBBHUHFV2K&#xA;uxV2KuxV2KuxV2KuxV2KuxVif5nf4C/wrL/jr/lHvUT16/WOHOh48/q3x8evX4fwxVE/l7/g7/Cd&#xA;l/g7/lHvi+pf39KcjXj9Y/eca9O3htiqOh/w7/ii69H0v8Q/U4frnH+9+qepJ6PqU2pz9TjX3xVL&#xA;PzI/wV/haf8Axpz/AMP8h9a4/WuNOLf3v1X4+FK15fD44q8mP/QpX6GTlx/QnIcOX6Y+qcuXav7r&#xA;7X44q+gRSgp07U6UxVJfOn+Fv8Lal/iv0v8ADvpf7kvrFfT9Oo+1x+L7VKU3riqO1H9F/oe5+u+n&#xA;+ivq7/Wa/wB39X4HnWn7PCvTFUH5O/w5/hTSP8M8P8PfU4f0V6fPj9W4D0v7z95Xj15/FX7W9cVT&#xA;jFXYqxT8yP8AlX36CX/HXo/ob1P+Pj1PS50P2/T7U/m2xVCflf8A8qt+o3f/ACr36v8AUap9Z+qe&#xA;r6Vavxpz+Hrzrx+nFWbYq8a81/8AKg/8YXX+9P8Ai7f9Jf4Y/Sf1mnL4/rX6J+Gtftep8WKsx/LL&#xA;/lWH1G8/wL9Xp6v+5Tj6n131qn/ez6z/AKVz609bfFWT659R/QuofX/V+o/Vpvrf1f1vW9H0z6np&#xA;fVv3/PjXj6Xx1+zvTFXn35Nf8qc5al/yrf636XM/pH1f0v8AV/WqOX/HQ/der05cfjp12xVE+Vf+&#xA;VPf8rH1f/C3H/FvFv05+j/rn1XlyPL6z6X+gerzr9r4+Ve9cVRf5xf8AKtP8Kr/ysX1/8O+unP0v&#xA;0h6fq0PD1v0f8XHw9T4eVO9MVUZP+VV/8qgH1r1/+Vd+gtfrn6R5/V/rA48vX/030/UpxrtwpT4M&#xA;VTP8sP8AAX+F1/wLy/w/6rejX61w58Vr6X1r4uFKfY+Gte9cVZbirsVdirsVdir/AP/Z</xmpGImg:image>
               </rdf:li>
            </rdf:Alt>
         </xmp:Thumbnails>
         <xmpTPg:MaxPageSize rdf:parseType="Resource">
            <stDim:w>198.800003</stDim:w>
            <stDim:h>57.500000</stDim:h>
            <stDim:unit>Pixels</stDim:unit>
         </xmpTPg:MaxPageSize>
         <xmpTPg:NPages>1</xmpTPg:NPages>
         <xmpTPg:HasVisibleTransparency>False</xmpTPg:HasVisibleTransparency>
         <xmpTPg:HasVisibleOverprint>False</xmpTPg:HasVisibleOverprint>
         <xmpTPg:PlateNames>
            <rdf:Seq>
               <rdf:li>Cyan</rdf:li>
               <rdf:li>Magenta</rdf:li>
               <rdf:li>Yellow</rdf:li>
               <rdf:li>Black</rdf:li>
            </rdf:Seq>
         </xmpTPg:PlateNames>
         <xmpTPg:SwatchGroups>
            <rdf:Seq>
               <rdf:li rdf:parseType="Resource">
                  <xmpG:groupName>初期設定のスウォッチグループ</xmpG:groupName>
                  <xmpG:groupType>0</xmpG:groupType>
               </rdf:li>
            </rdf:Seq>
         </xmpTPg:SwatchGroups>
         <dc:format>image/svg+xml</dc:format>
      </rdf:Description>
   </rdf:RDF>
</x:xmpmeta>
                                                                                                    
                                                                                                    
                                                                                                    
                                                                                                    
                                                                                                    
                                                                                                    
                                                                                                    
                                                                                                    
                                                                                                    
                                                                                                    
                                                                                                    
                                                                                                    
                                                                                                    
                                                                                                    
                                                                                                    
                                                                                                    
                                                                                                    
                                                                                                    
                                                                                                    
                                                                                                    
                           
<?xpacket end="w"?>
	</metadata>
<g>
	<g>
		<polygon points="11.8,28.6 0,0 6.5,0 14.5,21.4 23,0 29.3,0 17.4,28.6 		"/>
		<path d="M85.2,28.6L83,23.7H68l-2.4,4.9H60L73,0h5.6L91,28.6H85.2z M70.3,18.8h10.5l-5-11.3L70.3,18.8z"/>
		<rect x="41.9" y="0" width="5.6" height="28.6"/>
		<polygon points="178,28.6 178,0 183.6,0 183.6,23.7 198.8,23.7 198.8,28.6 		"/>
		<polygon points="121.7,28.6 106.7,9.5 106.7,28.6 101.1,28.6 101.1,0 106.8,0 121.8,18.6 121.8,0 127.4,0 127.4,28.6 		"/>
		<polygon points="142.1,28.6 142.1,0 162.9,0 162.9,4.8 147.7,4.8 147.7,11.4 159.9,11.4 159.9,16.3 147.7,16.3 147.7,23.7 
			163.9,23.7 163.9,28.6 		"/>
	</g>
	<g>
		<g>
			<path d="M48.4,44.5c-1.1,0.1-1.4,0.3-1.5,1.2c0,0.6-0.1,1.5-0.1,3.5l-0.1,8.1l-9.2-11.1v5.5c0,1.8,0.1,2.8,0.1,3.4
				c0.1,1,0.1,1.3,1.4,1.4v0.6h-3.8v-0.6c1.1,0,1.2-0.3,1.3-1.3c0.1-0.6,0.1-1.6,0.1-3.5v-4.5c0-1.5,0-1.5-0.4-2s-0.3-0.6-1.3-0.7
				v-0.6h2.6l8.3,10.2v-4.9c0-2-0.1-2.9-0.1-3.4c-0.1-0.9-0.1-1.2-1.5-1.2V44h4.1v0.5H48.4z"/>
			<path d="M62.3,55c-0.1,0.6-0.2,1.6-0.4,2.2h-8.1v-0.6c1.8-0.1,1.4-0.3,1.4-2v-8.1c0-1.8-0.1-1.8-1.6-2v-0.6h8.1
				c0,0.5,0,1.2,0.1,2.3l-0.6,0.1c-0.2-0.9-0.2-0.6-0.5-1.1c-0.2-0.4-0.3-0.6-1.7-0.6h-1.7c-0.6,0-0.6,0.1-0.6,0.6v4.6h1.9
				c1.2,0,1.2,0,1.4-1.3h0.6v3.4H60c-0.3-1.5-0.1-1.3-1.4-1.3h-1.9v3.8c0,1,0.2,1.4,0.5,1.7c0.4,0.3,1,0.3,2.1,0.3
				c1.8,0,2.3-1.2,2.5-1.6L62.3,55z"/>
			<path d="M111.7,44.5c-1.4,0.2-1.7,0.5-2.3,1.6c-0.9,1.5-1.7,2.6-2.5,4.1c-0.2,0.4-0.3,0.9-0.3,1.4v2.9c0,1.7,0.2,1.8,2,1.9V57
				h-5.4v-0.6c1.8-0.1,1.9-0.2,1.9-1.9v-2.9c0-0.8-0.2-1-0.5-1.7c-0.8-1.4-1.2-2-2.3-3.7c-0.9-1.3-1.1-1.6-2.2-1.8v-0.6h4.5v0.6
				c-1.4,0.2-1.4,0.4-1,1.1c0.8,1.3,1.6,2.5,2.5,4.1c1-1.6,1.8-2.9,2.4-3.9s0.4-1.2-1.1-1.3v-0.6h4.3V44.5z"/>
			<path d="M123.3,43.6c3.4,0,6.5,2.7,6.5,6.8c0,4.4-3.1,7.1-6.8,7.1c-3.5,0-6.5-2.8-6.5-6.8C116.5,47,119.1,43.6,123.3,43.6
				L123.3,43.6z M122.8,44.4c-2.2,0-4.5,2.1-4.5,6c0,3.8,2.3,6.3,5.2,6.3c2.3,0,4.6-2.1,4.6-6.1C128.1,46.3,125.5,44.4,122.8,44.4
				L122.8,44.4z"/>
			<path d="M147,57.4c-0.3,0-0.5,0-0.8,0c-1.2-0.1-2-0.5-3-1.8c-0.7-1-1.4-2.3-2-3.3c-0.3-0.6-0.8-0.8-1.9-0.8h-0.7v3.2
				c0,1.7-0.2,1.8,1.4,2v0.6h-4.1v-0.6c1.6-0.1,1.3-0.2,1.3-2v-8.2c0-1.7,0.1-1.8-1.4-1.9V44h4.5c1.3,0,2.4,0.2,3.1,0.7
				c0.8,0.5,1.3,1.5,1.3,2.7c0,1.8-1,2.9-2.5,3.6c0.3,0.7,1.2,2,1.7,2.9c0.7,1.1,1.1,1.5,1.6,2.1s1,0.9,1.5,1L147,57.4z M139.8,50.7
				c1,0,1.8-0.2,2.2-0.6c0.8-0.6,1.1-1.4,1.1-2.5c0-2.2-1.6-2.9-3.1-2.9c-0.6,0-0.9,0.1-1,0.2c-0.2,0.1-0.2,0.4-0.2,0.9v5h1V50.7z"
				/>
			<path d="M160,57.2c0-0.1,0-0.6,0-0.6s1-0.1,0.8-0.3c-0.5-0.5-5.2-5.5-5.2-5.5v3.9c0,1.2-0.4,1.9,1.2,2v0.6h-3.9v-0.6
				c1.5-0.1,1.2-1.2,1.2-2v-8c0-1.1,0.3-1.9-1.3-2.1V44h4.3v0.6c-1.5,0.1-1.5,0.8-1.5,2.1v3.5c0,0,0.4-0.4,1-0.9
				c1-1,2.3-2.4,3.3-3.6c0.5-0.6,0.5-0.9-0.3-1l-0.5-0.1V44h4.1v0.6c-1.5,0.2-1.4,0.3-2.6,1.5c-0.7,0.6-2.5,2.6-3.9,4.1
				c0.7,0.7,3.9,4.1,4.7,5c1,1.1,1.4,1.3,2.4,1.4v0.6C163.8,57.2,160,57.2,160,57.2z"/>
		</g>
		<path d="M77.3,47.2c-0.7-1.8-0.8-2.7-2.8-2.7v-0.6h4.7v0.6c-0.4,0-1,0.3-0.8,0.9c0.2,0.6,1.8,5.4,3,9l0,0c0.6-1.9,2.5-6.9,2.8-8.3
			c0.2-1.2,0.1-1.4-1.3-1.6v-0.6h4.2v0.6c-1.4,0.2-1.5,0.3-2.1,1.9c-0.4,1.2-2.3,7.1-3.7,10.9h-0.6c-1-3.3-1.9-6-2.9-9.2
			c0,0-2.6,6.7-3.6,9.1h-0.5c-1-3.7-2.8-7.2-3.9-10.9c-0.5-1.7-0.8-1.8-1.9-1.9v-0.6h4.5v0.6c-1.4,0.2-1.4,0.3-1.2,1.3
			c0.8,2.8,3.1,8.6,3.1,8.6C75.3,52.3,76.4,49.2,77.3,47.2z"/>
	</g>
</g>
</svg>
